<?xml version="1.0" standalone="no"?>
<!-- Generator: Adobe Fireworks 10, Export SVG Extension by Aaron Beall (http://fireworks.abeall.com) . Version: 0.6.1  -->
<!DOCTYPE svg PUBLIC "-//W3C//DTD SVG 1.1//EN" "http://www.w3.org/Graphics/SVG/1.1/DTD/svg11.dtd">
<svg id="Untitled-%u30DA%u30FC%u30B8%201" viewBox="0 0 1200 762" style="background-color:#ffffff00" version="1.1"
	xmlns="http://www.w3.org/2000/svg" xmlns:xlink="http://www.w3.org/1999/xlink" xml:space="preserve"
	x="0px" y="0px" width="1200px" height="762px"
>
	<path d="M 303.5 95.5 L 545 94.5 L 491.5 332 L 696 332.5 L 613.5 667.5 L 372.5 668 L 430 430 L 226.5 430 L 303.5 95.5 ZM 207.0698 0 L 88 523.875 L 302.3256 523.875 L 244 761 L 707.1628 762 L 834 239 L 619.5 237 L 675 0.5 L 207.0698 0 ZM 746.875 0 L 711.5964 143.251 L 854.8464 143.251 L 890.125 0 L 746.875 0 ZM 961.75 0 L 926.4714 143.251 L 1069.7214 143.251 L 1105 0 L 961.75 0 ZM 894.9941 238.7516 L 859.7156 382.0026 L 1002.9656 382.0026 L 1038.2441 238.7516 L 894.9941 238.7516 Z" fill="#666666"/>
</svg>