<?xml version="1.0" standalone="no"?>
<!-- Generator: Adobe Fireworks 10, Export SVG Extension by Aaron Beall (http://fireworks.abeall.com) . Version: 0.6.1  -->
<!DOCTYPE svg PUBLIC "-//W3C//DTD SVG 1.1//EN" "http://www.w3.org/Graphics/SVG/1.1/DTD/svg11.dtd">
<svg id="Untitled-%u30DA%u30FC%u30B8%201" viewBox="0 0 859 1025" style="background-color:#ffffff" version="1.1"
	xmlns="http://www.w3.org/2000/svg" xmlns:xlink="http://www.w3.org/1999/xlink" xml:space="preserve"
	x="0px" y="0px" width="859px" height="1025px"
>
	<path d="M 858.7985 244 C 858.7985 320.8 807.5746 448.8 679.515 480.8 C 724.3358 544.8 743.5448 602.4 743.5448 653.6 C 743.5448 672.8 730.7388 743.2 705.1269 788 C 641.097 903.2 525.8433 935.2 436.2015 928.8 C 346.5597 1012 320.9478 1024.8 237.709 1024.8 C 90.4403 1024.8 0.7985 916 0.7985 788 C 0.7985 704.8 45.6194 576.8 180.0821 551.2 C 128.8582 500 116.0522 416.8 116.0522 372 C 116.0522 256.8 180.0821 135.2 340.1567 103.2 C 359.3657 96.8 397.7836 103.2 423.3955 96.8 C 468.2164 26.4 557.8582 0.8 615.485 0.8 C 762.7537 0.8 858.7985 122.4 858.7985 244 ZM 775.5597 237.6 C 775.5597 455.2 564.2612 333.6 564.2612 461.6 C 564.2612 480.8 596.2761 512.8 615.485 538.4 C 634.694 557.6 660.306 621.6 660.306 653.6 C 660.306 711.2 621.8881 794.4 545.0522 826.4 C 532.2463 832.8 513.0374 839.2 500.2314 839.2 C 474.6194 845.6 436.2015 826.4 410.5895 839.2 C 359.3657 852 327.3507 928.8 282.5298 935.2 C 269.7239 935.2 256.9179 941.6 237.709 941.6 C 148.0672 941.6 84.0373 871.2 84.0373 788 C 84.0373 749.6 96.8433 679.2 167.2761 647.2 C 192.8881 634.4 231.306 634.4 263.3209 621.6 C 282.5298 615.2 295.3358 583.2 295.3358 564 C 295.3358 551.2 244.1119 506.4 224.903 474.4 C 205.694 442.4 199.291 391.2 199.291 372 C 199.291 308 244.1119 231.2 314.5448 199.2 C 359.3657 173.6 404.1866 205.6 449.0075 186.4 C 474.6194 173.6 493.8284 135.2 532.2463 109.6 C 551.4552 90.4 602.6791 84 615.485 84 C 705.1269 84 775.5597 167.2 775.5597 237.6 Z" fill="#666666"/>
</svg>