<?xml version="1.0" standalone="no"?>
<!-- Generator: Adobe Fireworks 10, Export SVG Extension by Aaron Beall (http://fireworks.abeall.com) . Version: 0.6.1  -->
<!DOCTYPE svg PUBLIC "-//W3C//DTD SVG 1.1//EN" "http://www.w3.org/Graphics/SVG/1.1/DTD/svg11.dtd">
<svg id="sakura-cloud.fw-%u30DA%u30FC%u30B8%201" viewBox="0 0 1024 1024" style="background-color:#ffffff00" version="1.1"
	xmlns="http://www.w3.org/2000/svg" xmlns:xlink="http://www.w3.org/1999/xlink" xml:space="preserve"
	x="0px" y="0px" width="1024px" height="1024px"
>
	<g id="%u80CC%u666F">
		<path d="M 0 202 C 0 84.7895 84.7895 0 202 0 L 822 0 C 939.2104 0 1024 84.7895 1024 202 L 1024 822 C 1024 939.2104 939.2104 1024 822 1024 L 202 1024 C 84.7895 1024 0 939.2104 0 822 L 0 202 Z" fill="#666666"/>
		<path d="M 886.7246 283.2077 C 886.7246 290.628 884.2512 312.8889 881.7778 327.7295 C 876.8309 379.6715 805.1014 463.7681 743.2657 473.6618 C 743.2657 473.6618 740.7923 471.1884 740.7923 478.6087 C 740.7923 483.5555 763.0532 513.2367 770.4734 530.5507 C 792.7343 570.1256 790.2609 584.9662 790.2609 622.0676 C 790.2609 656.6957 785.314 696.2705 763.0532 733.372 C 708.6377 827.3623 614.6473 854.5701 540.4445 849.6232 C 493.4493 913.9324 426.6667 931.2464 377.1981 931.2464 C 315.3623 931.2464 228.9952 896.6183 194.3671 807.5749 C 189.4203 792.7343 180 776.5 182 740.5 L 181 714 C 183.5362 696.9759 187.2029 677.6667 191.8937 666.5894 C 203.8238 638.4166 231.2657 592.3865 265.8937 570.1256 C 280.7343 557.7585 302.9952 550.3381 320.3092 545.3913 C 325.256 545.3913 327.7295 545.3913 327.7295 537.971 C 327.7295 533.0242 305.2077 510.7633 300.2609 498.3961 C 287.8937 476.1353 278 445.5 277.5 414 L 277 372.5 C 277 365.0797 279 348.9734 279 346.5 C 286.4203 272.2971 382.1449 179.3237 456.3478 171.9034 C 476.1353 169.4299 503.343 166.9565 528.0773 166.9565 C 587.4396 95.2271 631.9614 87.8068 688.8502 87.8068 C 800.1546 87.8068 886.7246 171.9034 886.7246 283.2077 ZM 819.942 283.2077 C 819.942 290.628 817.4686 307.942 814.9952 317.8358 C 810.0483 349.9903 772.9468 392.0386 738.3188 404.4058 C 718.5314 411.8261 693.7971 411.8261 676.4831 416.7729 C 659.1691 421.7198 649.2754 458.8213 649.2754 468.715 C 649.2754 500.8696 725.9517 533.0242 725.9517 622.0676 C 725.9517 716.058 646.8019 782.8406 565.1788 782.8406 C 560.2319 782.8406 530.5507 777.8937 523.1304 777.8937 C 481.0821 777.8937 483.5555 864.4637 379.6715 864.4637 C 302.9952 864.4637 248.5797 802.628 248.5797 733.372 C 248.5797 681.4299 278.2609 619.5942 352.4638 604.7536 C 362.3575 602.2802 387.0918 604.7536 399.4589 594.8599 C 411.8261 584.9662 419.2464 560.2319 419.2464 550.3381 C 419.2464 542.9178 416.7729 533.0242 411.8261 528.0773 C 401.9324 515.7101 384.5749 505.8164 377.1546 493.4493 C 362.314 471.1884 345 436.5604 345 416.7729 L 345 372.2512 C 364.7874 275.7874 434.0435 236.2126 503.2995 236.2126 C 508.2464 236.2126 537.971 241.1594 542.9178 241.1594 C 582.4927 241.1594 589.913 154.5894 688.8502 154.5894 C 763.0532 154.5894 819.942 216.4251 819.942 283.2077 Z" fill="#ffffff"/>
		<path d="M 819.942 283.2077 C 819.942 335.1497 785.314 396.9855 711.1111 411.8261 C 698.744 414.2995 674.0096 409.3527 661.6425 426.6667 C 654.2222 436.5604 646.8019 461.2947 646.8019 468.715 C 646.8019 498.3961 671.5363 498.3961 696.2705 535.4976 C 716.058 562.7053 723.4783 594.8599 723.4783 624.5411 C 723.4783 716.058 649.2754 782.8406 565.1788 782.8406 C 557.7585 782.8406 528.0773 777.8937 523.1304 777.8937 C 486.029 777.8937 473.6618 864.4637 379.6715 864.4637 C 302.9952 864.4637 248.5797 800.1546 248.5797 733.372 C 248.5797 698.744 270.8406 644.3285 315.3623 619.5942 C 337.6232 607.2271 369.7778 604.7536 392.0386 599.8068 C 409.3527 594.8599 416.7729 567.6522 419.2464 557.7585 C 421.7198 555.285 421.7198 555.285 421.7198 547.8647 C 421.7198 542.9178 419.2464 533.0242 414.2995 530.5507 C 357.4106 478.6087 345.0435 439.0338 345.0435 392.0386 C 345.0435 302.9952 424.1932 236.2126 503.343 236.2126 C 508.2899 236.2126 537.971 241.1594 542.9178 241.1594 C 582.4927 241.1594 592.3865 154.5894 688.8502 154.5894 C 763.0532 154.5894 819.942 216.4251 819.942 283.2077 Z" fill="#666666"/>
	</g>
	<g id="%u30EC%u30A4%u30E4%u30FC%201">
	</g>
</svg>