<svg xmlns="http://www.w3.org/2000/svg" viewBox="0 0 1024 1024" style="background-color:#ffffff00">
  <path fill="#666" d="M0 202C0 84.8 84.8 0 202 0h620c117.2 0 202 84.8 202 202v620c0 117.2-84.8 202-202 202H202C84.8 1024 0 939.2 0 822V202z"/>
  <path fill="#fff" d="M886.7 283.2c0 7.4-2.4 29.7-5 44.5-5 52-76.6 136-138.4 146 0 0-2.5-2.5-2.5 5 0 5 22.3 34.5 29.7 52 22.2 39.4 19.8 54.3 19.8 91.4 0 35-5 75-27.2 112-54 94-148 121-222 116-47 65-113 82-163 82-62 0-148-34.2-183-123.2-5-15-14-31-12-67l-1-27c3-17 6.7-36 11-47 12-28.5 39.8-74.5 74-96.8 15-12 37-19.6 54.8-24.5 5 0 7.5 0 7.5-7.3 0-5-22.4-27-27.3-39.5-12.4-22.3-22.3-53-23-84.4l-.7-42c0-7.5 2-23.6 2-26 7-74.3 103-167.3 177-175 19.8-2.3 47-5 71.8-5 59.5-71.5 104-79 161-79C801 88 887 172 887 283.5zm-66.8 0c0 7.4-3 24.7-5 34.6-5 32.2-42 74.2-77 86.6-20 7.4-45 7.4-62 12.4-18 5-27 42-27 52 0 32 76 64.2 76 153.3 0 94-79.6 161-161 161-5 0-34.8-5-42-5-42 0-39.8 87-143.7 87-76.7 0-131-62-131-131 0-52 29.6-114 104-128 10-2.3 34.5 0 47-10 12.2-10 19.6-34.4 19.6-44.3 0-7.4-2.5-17.3-7.5-22.2-10-12.2-27-22-34.6-34.5-15-22-32-57-32-76.6v-45c19.6-96.6 89-136 158-136 5 0 35 5 39.7 5 39.5 0 47-86.8 146-86.8 74 0 131 61.7 131 128.5z"/>
  <path fill="#666" d="M820 283.2c0 52-34.7 113.8-109 128.6-12.3 2.5-37-2.4-49.4 15-7.4 9.8-14.8 34.5-14.8 42 0 29.6 24.7 29.6 49.5 66.7 19.8 27.2 27.2 59.4 27.2 89 0 91.6-74.2 158.3-158.3 158.3-7.4 0-37-5-42-5-37.2 0-49.5 86.7-143.5 86.7-76.7 0-131-64.3-131-131 0-34.8 22-89.2 66.7-114 22.2-12.3 54.4-14.7 76.6-19.7 17.4-5 24.8-32 27.2-42 2.5-2.5 2.5-2.5 2.5-10 0-5-2.5-14.8-7.4-17.2-57-52-69.3-91.6-69.3-138.6 0-89 79.2-155.8 158.3-155.8 5 0 34.7 5 39.6 5 39 0 49-86.6 146-86.6 74 0 131 61.8 131 128.6z"/>
</svg>
