<?xml version="1.0" standalone="no"?>
<!DOCTYPE svg PUBLIC "-//W3C//DTD SVG 1.1//EN" "http://www.w3.org/Graphics/SVG/1.1/DTD/svg11.dtd">
<svg viewBox="0 -5 1024 1024" version="1.1"
	xmlns="http://www.w3.org/2000/svg" width="320" height="320"
>
  <g id="pixiv">

	<path d="M 744.937 25.3597 C 744.937 39.1923 643.4595 108.3552 625.009 131.4095 C 606.5585 145.2421 592.7207 172.9072 574.2703 191.3507 C 565.045 205.1833 546.5946 219.0158 537.3694 228.2376 L 952.5045 228.2376 C 966.3423 223.6267 980.1802 219.0158 994.018 219.0158 C 1021.6937 219.0158 1012.4684 246.681 1017.0811 269.7353 L 1021.6937 790.7625 C 1017.0811 836.871 1026.3063 878.3688 1007.8558 915.2557 C 984.7928 933.6991 934.0541 924.4774 910.991 924.4774 C 901.7657 938.3099 897.1531 956.7534 887.9279 970.586 C 878.7027 984.4186 851.027 1002.862 841.8018 1002.862 C 809.5135 1002.862 694.1982 975.1968 726.4865 910.6448 L 251.3874 910.6448 C 246.7748 929.0883 242.1622 1016.6946 191.4234 1016.6946 C 80.7207 1016.6946 136.0721 915.2557 108.3964 915.2557 C 94.5586 915.2557 57.6577 933.6991 43.8198 933.6991 C 34.5946 933.6991 2.3063 850.7036 2.3063 846.0928 L 2.3063 509.5 C 11.5315 408.0611 6.9189 306.6222 34.5946 209.7941 C 71.4955 214.405 136.0721 228.2376 149.9099 228.2376 L 468.1802 228.2376 C 431.2793 182.129 265.2252 71.4683 265.2252 53.0249 C 265.2252 34.5814 279.063 34.5814 283.6757 34.5814 C 297.5135 34.5814 463.5676 163.6855 500.4685 205.1833 C 514.3063 195.9615 532.7568 182.129 546.5946 168.2964 C 560.4324 154.4638 574.2703 126.7986 588.1081 112.9661 C 629.6216 71.4683 712.6486 2.3054 726.4865 2.3054 C 735.7117 2.3054 744.937 11.5271 744.937 25.3597 Z M 154.5225 269.7353 L 975.5676 265.1244 L 975.5676 887.5905 L 901.7657 887.5905 C 869.4775 882.9796 832.5766 873.7579 795.6757 869.147 L 108.3964 873.7579 C 94.5586 878.3688 80.7207 882.9796 66.8829 882.9796 C 57.6577 882.9796 48.4324 864.5362 48.4324 855.3145 L 48.4324 444.948 C 53.045 380.3959 57.6577 315.8439 66.8829 251.2919 C 94.5586 260.5136 140.6847 269.7353 154.5225 269.7353 Z M 458.955 325.0656 C 482.018 325.0656 666.5225 302.0113 735.7117 302.0113 C 892.5405 292.7896 897.1531 297.4005 910.991 297.4005 C 929.4415 297.4005 943.2793 338.8982 943.2793 357.3416 L 938.6667 836.871 L 103.7838 836.871 C 99.1712 836.871 94.5586 832.2602 94.5586 823.0385 C 94.5586 809.2059 103.7838 758.4865 113.009 726.2104 L 108.3964 325.0656 C 103.7838 283.5679 126.8468 292.7896 145.2973 292.7896 C 246.7748 292.7896 339.027 325.0656 458.955 325.0656 ZM 592.7207 352.7308 L 689.5856 352.7308 C 703.4234 348.1199 712.6486 343.5091 726.4865 343.5091 L 892.5405 343.5091 L 892.5405 795.3733 L 140.6847 795.3733 C 145.2973 767.7081 149.9099 744.6539 154.5225 726.2104 C 154.5225 292.7896 154.5225 527.9434 149.9099 334.2873 C 260.6126 343.5091 449.7297 366.5634 458.955 366.5634 C 477.4054 366.5634 588.1081 352.7308 592.7207 352.7308 Z M 837.1892 449.5588 C 837.1892 481.8348 804.9009 491.0565 786.4504 491.0565 C 754.1622 491.0565 735.7117 468.0023 735.7117 440.3371 C 735.7117 412.6719 754.1622 398.8394 777.2252 398.8394 C 818.7387 398.8394 837.1892 426.5045 837.1892 449.5588 Z M 288.2883 532.5543 C 288.2883 569.4412 251.3874 574.0521 237.5495 574.0521 C 196.036 574.0521 182.1982 541.776 182.1982 514.1108 C 182.1982 481.8348 200.6487 472.6131 232.9369 472.6131 C 269.8378 472.6131 288.2883 514.1108 288.2883 532.5543 ZM 620.3964 730.8213 C 620.3964 744.6539 606.5585 753.8755 597.3333 758.4865 L 445.1171 758.4865 C 435.8919 749.2647 426.6667 744.6539 426.6667 735.4321 C 426.6667 698.5452 500.4685 624.7715 532.7568 624.7715 C 560.4324 624.7715 620.3964 730.8213 620.3964 730.8213 ZM 855.6396 924.4774 C 860.2523 929.0883 860.2523 924.4774 860.2523 933.6991 C 860.2523 947.5317 841.8018 961.3643 832.5766 961.3643 C 818.7387 961.3643 791.063 947.5317 768 938.3099 L 768 919.8665 C 841.8018 910.6448 823.3514 924.4774 855.6396 924.4774 ZM 209.8739 919.8665 C 200.6487 942.9208 205.2613 975.1968 177.5856 975.1968 C 163.7477 975.1968 168.3604 970.586 159.1351 970.586 L 159.1351 919.8665 L 209.8739 919.8665 Z" fill="#eeeeee" fill-rule="evenodd" />
	</g>
</svg>
