<?xml version="1.0" standalone="no"?>
<!DOCTYPE svg PUBLIC "-//W3C//DTD SVG 1.1//EN" "http://www.w3.org/Graphics/SVG/1.1/DTD/svg11.dtd">
<svg xmlns="http://www.w3.org/2000/svg"
  width="375" height="375" viewBox="0 0 375 375">
  <g transform="translate( -73, -90)" id="pixiv">
    <path d="M 392.07 141.41 c -28.6 -25 -68.64 -39.41 -115.17 -39.41 C 155.6 102 73.11 195.64 73.11 195.64l23.25 36.9 s 12.86 1.08 6.05 -20.66 c 5.88 -11.11 17.39 -26.07 39.86 -43.34 V 414.4c -9.69 2.73 -22.49 7.86 -13.76 16.6 h 66.78 c 8.81 -8.82 -5.07 -14.13 -13.54 -16.6 v -58 s 45.79 18 95.15 18 c 43.37 0 82.83 -12.9 112.18 -36.21 s 48.26 -57.79 48.15 -97.35 a 130.52 130.52 0 0 0 -45.15 -99.39 m -119.25 210 c -38 0 -70 -7.34 -91.07 -17.74 V 149.27 c 23.16 -16.47 60.73 -26.61 91.07 -26.54 36.85 0 65.8 14 85.36 35.1 s 30.21 49.52 30.31 82.36 c -.12 32 -11.52 58.35 -31.82 78.57 C 336.38 338.8 306.87 351.47 272.82 351.44 Z" fill="#EEEEEE"/>
  </g>
</svg>
