<svg xmlns="http://www.w3.org/2000/svg" xmlns:xlink="http://www.w3.org/1999/xlink" viewBox="0 0 522 522"><defs><style>.cls-1,.cls-2{fill:none;}.cls-1{clip-rule:evenodd;}.cls-3{clip-path:url(#clip-path);}.cls-4{clip-path:url(#clip-path-2);}.cls-5{fill:#009cff;}.cls-6{clip-path:url(#clip-path-5);}.cls-7{fill:#fff;}</style><clipPath id="clip-path"><path class="cls-1" d="M517,110.39C517,52.42,469.57,5,411.61,5H110.39C52.42,5,5,52.42,5,110.39V411.61C5,469.57,52.42,517,110.39,517H411.61c58,0,105.39-47.43,105.39-105.39C516.7,440.51,517,110.39,517,110.39Z"/></clipPath><clipPath id="clip-path-2"><rect class="cls-2" x="5" y="5" width="512" height="512"/></clipPath><clipPath id="clip-path-5"><path class="cls-1" d="M392.07,141.41c-28.6-25-68.64-39.41-115.17-39.41C155.6,102,73.11,195.64,73.11,195.64l23.25,36.9s12.86,1.08,6.05-20.66c5.88-11.11,17.39-26.07,39.86-43.34V414.4c-9.69,2.73-22.49,7.86-13.76,16.6h66.78c8.81-8.82-5.07-14.13-13.54-16.6v-58s45.79,18,95.15,18c43.37,0,82.83-12.9,112.18-36.21s48.26-57.79,48.15-97.35a130.52,130.52,0,0,0-45.15-99.39m-119.25,210c-38,0-70-7.34-91.07-17.74V149.27c23.16-16.47,60.73-26.61,91.07-26.54,36.85,0,65.8,14,85.36,35.1s30.21,49.52,30.31,82.36c-.12,32-11.52,58.35-31.82,78.57C336.38,338.8,306.87,351.47,272.82,351.44Z"/></clipPath></defs><title>アセット 2</title><g id="レイヤー_2" data-name="レイヤー 2"><g id="レイヤー_1-2" data-name="レイヤー 1"><g id="rectangle-rounded"><g class="cls-3"><g class="cls-4"><rect class="cls-5" width="522" height="522"/></g></g></g><g id="rectangle"><g class="cls-4"><g class="cls-4"><rect class="cls-5" width="522" height="522"/></g></g></g><g id="p"><g class="cls-6"><g class="cls-4"><rect class="cls-7" x="68.11" y="97" width="374.11" height="339"/></g></g></g></g></g></svg>