<svg xmlns="http://www.w3.org/2000/svg" viewBox="0 0 307.4 200">
  <path fill="#f36d45" d="M219.3 199.6c-8-.2-11-.4-12-1-.7-.3-1.3-.8-1.3-1 0-.2-.3-.4-.7-.4-1 0-5-4.4-6.3-7l-3.2-7.6c-1-2.8-2.3-5.7-2.7-6.5l-3-7.6-3-7.5-1-2.3c0-.5-.6-1.8-1-2.8l-.8-2c0-.3-.5-1.4-1-2.7-1.6-3.5-2-4-2.2-5.5l-1.3-3.4-1.7-3.7-.6-1.8c0-.3-.8-2-1.8-4-3-6-8-10.6-15.2-13.4-2.3-1-11.3-1-13.6 0-6.6 2.5-12 6.8-14.4 11.6-.8 1.5-4 9.5-7.3 17.8l-6.3 16c-2.2 5.2-7.3 18.2-7.3 19 0 .3 0 .6-.3.6 0 0-.6 1-1 2.2-1.5 5-6.2 9.6-11.8 11.3-2.8 1-5.7 1-42.7 1.4-44.4.3-43 .4-48-3-2.3-1.6-6-6.6-6-8 0-.4-.4-1-.7-1.3-.8-.7-1-168.5-.3-172.3 1-5 5-10.7 8.7-12.6 4.4-2.2-4-2 145-2l139.3.2 2.6 1.2c3 1.3 7.5 5.2 8.8 7.5 2 3.8 2 1 2.3 89.8l.4 84.6-1 3.2c-1.4 3.8-3.8 7.7-6 9.3-4 3-5.2 3.3-11.8 3.7-7 .4-53 .4-69.3 0zM86 135.6c.2-.2 1.4-.4 2.7-.4 1.3 0 3.4-.4 4.7-.8 3-1 9-4 10.6-5.4 9.7-8 14.7-18.3 14.7-30 0-6-1-10-3.4-15-4-8.5-11.5-15-20.3-18-1.5-.4-3.2-1-3.8-1.3-1.6-.7-13-.6-15.4.2-5.7 1.7-9 3.3-12.3 6-5.8 4.2-8.4 7.8-12.7 17.4-1.2 2.8-2.3 15-1.4 16 .3.2.5 1.2.5 2.2 0 3.5 3 11 6.4 15.3 3 3.7 7.3 7.6 10.5 9.2.8.4 1.6 1 1.7 1.2 0 .2.5.4 1 .4l1.4.4c1.8 1 5.6 2 7.6 2 1 0 2.4.2 2.8.5 1 .6 4.2.6 4.6 0zm139.6 0c.2-.2 1.5-.4 3-.4 3.4 0 7.7-1.5 12.7-4.4 5.2-3 10.7-9.3 13.4-15.3 3-6.4 3.4-8.3 3.4-15.7 0-5.5-.2-7.2-1-10.2-4.7-15-16.7-24.6-31.6-25.5-6.3-.3-11.5.7-17.5 3.6-4 2-5.3 3-9 6.7-5 5-7.2 8.6-9 14.8-1.7 5.3-1.7 13.7 0 19.5.6 2.3 1.3 4.3 1.5 4.6.2.4.4 1 .4 1.4 0 .5 0 1 .4 1 .3 0 .5.3.5.8s0 1 .2 1c.2.2.8 1 1.3 2 1.5 3 7 8.5 11 11 2 1.5 4 2.6 4.2 2.6.3 0 1.4.4 2.5 1 1 .5 3.5 1 5.3 1.2 1.8.2 3.6.5 4 .7 1 .6 3.7.5 4 0z"/>
</svg>
