<?xml version="1.0" encoding="UTF-8" standalone="no"?>
<!-- Created with Inkscape (http://www.inkscape.org/) -->

<svg
   xmlns:dc="http://purl.org/dc/elements/1.1/"
   xmlns:cc="http://creativecommons.org/ns#"
   xmlns:rdf="http://www.w3.org/1999/02/22-rdf-syntax-ns#"
   xmlns:svg="http://www.w3.org/2000/svg"
   xmlns="http://www.w3.org/2000/svg"
   xmlns:sodipodi="http://sodipodi.sourceforge.net/DTD/sodipodi-0.dtd"
   xmlns:inkscape="http://www.inkscape.org/namespaces/inkscape"
   width="86.752647mm"
   height="56.444447mm"
   viewBox="0 0 307.39127 200.00001"
   id="svg4828"
   version="1.1"
   inkscape:version="0.91 r13725"
   sodipodi:docname="cardboard.svg">
  <defs
     id="defs4830" />
  <sodipodi:namedview
     id="base"
     pagecolor="#ffffff"
     bordercolor="#666666"
     borderopacity="1.0"
     inkscape:pageopacity="0.0"
     inkscape:pageshadow="2"
     inkscape:zoom="0.35"
     inkscape:cx="112.64256"
     inkscape:cy="145.88173"
     inkscape:document-units="px"
     inkscape:current-layer="layer1"
     showgrid="false"
     inkscape:window-width="1023"
     inkscape:window-height="405"
     inkscape:window-x="1015"
     inkscape:window-y="247"
     inkscape:window-maximized="0"
     fit-margin-top="0"
     fit-margin-left="0"
     fit-margin-right="0"
     fit-margin-bottom="0" />
  <metadata
     id="metadata4833">
    <rdf:RDF>
      <cc:Work
         rdf:about="">
        <dc:format>image/svg+xml</dc:format>
        <dc:type
           rdf:resource="http://purl.org/dc/dcmitype/StillImage" />
        <dc:title></dc:title>
      </cc:Work>
    </rdf:RDF>
  </metadata>
  <g
     inkscape:label="Layer 1"
     inkscape:groupmode="layer"
     id="layer1"
     transform="translate(-150.78614,-478.24394)">
    <path
       style="fill:#f36d45;fill-opacity:1"
       d="m 370.07938,677.88723 c -7.89381,-0.21831 -11.00893,-0.47684 -11.99285,-0.99529 -0.73105,-0.38521 -1.33088,-0.86397 -1.33296,-1.06392 -0.002,-0.19994 -0.30111,-0.36353 -0.66452,-0.36353 -1.02156,0 -4.93231,-4.43829 -6.31494,-7.16678 -0.68238,-1.3466 -2.13638,-4.7019 -3.23113,-7.45622 -1.09473,-2.75432 -2.2853,-5.66221 -2.64571,-6.46199 -0.3604,-0.79977 -1.7754,-4.2897 -3.14445,-7.75539 -1.36905,-3.46569 -2.72139,-6.84656 -3.0052,-7.51304 -0.28382,-0.66649 -0.68273,-1.64803 -0.88647,-2.18121 -0.20374,-0.53318 -0.71986,-1.76581 -1.14693,-2.73918 -0.42707,-0.97335 -0.77649,-1.90274 -0.77649,-2.06531 0,-0.16255 -0.45798,-1.32925 -1.01773,-2.59266 -1.54044,-3.4769 -1.8006,-4.13133 -2.16567,-5.44772 -0.18483,-0.66649 -0.76922,-2.19333 -1.29865,-3.39299 -0.52942,-1.19967 -1.26439,-2.86854 -1.63326,-3.7086 -0.36886,-0.84007 -0.67066,-1.66422 -0.67066,-1.83147 0,-0.16723 -0.78913,-1.96699 -1.75362,-3.99945 -2.87304,-6.05435 -7.98136,-10.52572 -15.21132,-13.31463 -2.26117,-0.87223 -11.31076,-0.87223 -13.57194,0 -6.59328,2.54332 -11.88133,6.78415 -14.42637,11.56943 -0.8197,1.54123 -4.12821,9.56399 -7.35225,17.82833 -3.22403,8.26435 -6.07733,15.51685 -6.34065,16.11669 -2.23576,5.09304 -7.26473,18.12178 -7.26473,18.82103 0,0.37875 -0.1705,0.68864 -0.37889,0.68864 -0.20839,0 -0.66728,0.9767 -1.01975,2.17045 -1.51167,5.11971 -6.19877,9.60177 -11.85447,11.3359 -2.78096,0.85269 -5.69859,0.93782 -42.73118,1.24678 -44.40818,0.3705 -43.08476,0.45201 -47.91761,-2.9513 -2.34721,-1.65292 -6.12781,-6.6463 -6.12781,-8.09358 0,-0.33335 -0.27265,-0.87871 -0.60589,-1.21192 -0.80912,-0.80904 -1.15554,-168.62621 -0.35585,-172.37794 1.06592,-5.00068 5.02836,-10.70503 8.78574,-12.64805 4.40751,-2.27922 -4.041,-2.161 144.93469,-2.02786 l 139.28051,0.12448 2.66592,1.18901 c 2.88515,1.28679 7.36905,5.19815 8.63889,7.53581 2.11221,3.88837 2.043,1.23409 2.34458,89.91413 l 0.28766,84.58231 -1.06189,3.15063 c -1.28103,3.80086 -3.77075,7.72129 -5.94485,9.36108 -3.96162,2.98801 -5.14292,3.36646 -11.77743,3.77319 -7.09141,0.43473 -53.01073,0.40303 -69.31387,-0.0478 l 0,-10e-6 z m -133.2959,-63.98121 c 0.16477,-0.26659 1.36968,-0.48471 2.67759,-0.48471 1.30791,0 3.42171,-0.33813 4.69734,-0.75141 3.0892,-1.00083 8.95038,-3.97233 10.64888,-5.39877 9.6928,-8.14026 14.70406,-18.34805 14.68711,-29.91725 -0.009,-5.98669 -0.90595,-9.99624 -3.37201,-15.06972 -4.16859,-8.57612 -11.5798,-15.1007 -20.37173,-17.93457 -1.46625,-0.47261 -3.16511,-1.08899 -3.77525,-1.36972 -1.60095,-0.73662 -13.01424,-0.63175 -15.37089,0.14124 -5.69542,1.86813 -8.92108,3.44136 -12.35392,6.02533 -5.76553,4.33984 -8.34891,7.91043 -12.66163,17.50013 -1.24214,2.76201 -2.34869,14.99963 -1.43858,15.90973 0.28711,0.28711 0.52202,1.32582 0.52202,2.30826 0,3.51538 3.19142,10.98962 6.54331,15.32429 2.89847,3.74831 7.27676,7.62168 10.42162,9.21975 0.93307,0.47415 1.7692,1.02567 1.85807,1.22561 0.0889,0.19995 0.47353,0.36354 0.85482,0.36354 0.38129,0 1.07201,0.21124 1.53492,0.46944 1.71502,0.95653 5.54205,1.95434 7.52341,1.96154 1.1237,0.004 2.37027,0.21886 2.77016,0.47729 0.95674,0.6183 4.22264,0.6183 4.60476,0 z m 139.59715,0 c 0.16477,-0.26659 1.47874,-0.48471 2.91994,-0.48471 3.46753,0 7.82126,-1.49808 12.79673,-4.40324 5.17385,-3.02099 10.64187,-9.23951 13.38982,-15.22761 2.97621,-6.48552 3.37145,-8.34264 3.35259,-15.75315 -0.0138,-5.45673 -0.20417,-7.14744 -1.14565,-10.17896 -4.65022,-14.97356 -16.57531,-24.62825 -31.54639,-25.54032 -6.27038,-0.38201 -11.43178,0.67359 -17.45903,3.57069 -3.96756,1.90706 -5.20991,2.8257 -8.97778,6.63847 -4.81597,4.87337 -7.10245,8.6362 -9.02144,14.84644 -1.60507,5.19431 -1.59717,13.57368 0.0183,19.3885 0.62954,2.26603 1.33379,4.32727 1.56502,4.58053 0.23122,0.25327 0.42041,0.8531 0.42041,1.33296 0,0.47987 0.21812,0.87248 0.48471,0.87248 0.26659,0 0.48471,0.41807 0.48471,0.92904 0,0.51096 0.1636,1.00173 0.36354,1.0906 0.19994,0.0889 0.75678,0.93716 1.23742,1.88512 1.52418,3.00611 6.99519,8.52187 11.00237,11.09237 2.10279,1.34888 4.01247,2.45252 4.24375,2.45252 0.23126,0 1.34193,0.44519 2.46814,0.98932 1.12621,0.54412 3.51198,1.1187 5.3017,1.27682 1.78972,0.15812 3.58123,0.46972 3.98111,0.69243 1.01726,0.56655 3.75952,0.53308 4.12006,-0.0503 l 0,0 z"
       id="path4778-2"
       inkscape:connector-curvature="0" />
  </g>
</svg>
