<svg xmlns="http://www.w3.org/2000/svg" viewBox="0 0 1024 1024" style="background-color:#ffffff00">
  <path fill="#ccc" d="M0 163.2C0 63.4 63.4 0 163.2 0h697.6C960.6 0 1024 63.4 1024 163.2v697.6c0 99.8-63.4 163.2-163.2 163.2H163.2C63.4 1024 0 960.6 0 860.8V163.2z"/>
  <path fill="#f76929" d="M408 697.7v-81.5L594.3 438H408V290h393.4l-.5-163.3c0-14.8-22.8-15.4-22.8-15.4h-534c-23.3 0-22.4 22.3-22.4 22.3V898s.4 24.5 19.2 24.5c20.2 0 510-.4 531-.6 19.8-.6 28.6-31.8 28.6-31.8s1.2-123-.4-142.6c-1.2-14-22.2-13.3-22.2-13.3s-351-5.6-363.2-7.4c-12-2-7.4-29.7-7.4-29.7z"/>
  <path fill="#fff" stroke="#666" stroke-width="9" d="M800.5 415.6S642 562.2 629.8 571.6c-12 9.2 7.8 14.7 7.8 14.7l163.7 1s-1.4 113-.4 125.2c.4 12-22.8 15-22.8 15s-355.3-1-363.7 0c-8.4.8-7.5-15-7.5-15l2-97.3s157.8-152 170-164c12-12-8.5-20.7-8.5-20.7h-156V297h370.7c9.3 0 15.2 8.6 15.2 8.6v110z"/>
</svg>
