<?xml version="1.0" standalone="no"?>
<!-- Generator: Adobe Fireworks 10, Export SVG Extension by Aaron Beall (http://fireworks.abeall.com) . Version: 0.6.1  -->
<!DOCTYPE svg PUBLIC "-//W3C//DTD SVG 1.1//EN" "http://www.w3.org/Graphics/SVG/1.1/DTD/svg11.dtd">
<svg id="Untitled-%u30DA%u30FC%u30B8%201" viewBox="0 0 1024 1024" style="background-color:#ffffff00" version="1.1"
	xmlns="http://www.w3.org/2000/svg" xmlns:xlink="http://www.w3.org/1999/xlink" xml:space="preserve"
	x="0px" y="0px" width="1024px" height="1024px"
>
	<g id="%u80CC%u666F">
		<path d="M 0 163.2254 C 0 63.3746 63.3746 0 163.2254 0 L 860.7747 0 C 960.6254 0 1024 63.3746 1024 163.2254 L 1024 860.7747 C 1024 960.6254 960.6254 1024 860.7747 1024 L 163.2254 1024 C 63.3746 1024 0 960.6254 0 860.7747 L 0 163.2254 Z" fill="#666666"/>
		<path d="M 408 697.6652 L 408 616.2433 L 594.3375 438 L 408 438 L 408 290 L 801.3644 290 C 801.3644 290 800.877 141.5606 800.877 126.7166 C 800.877 111.8727 778.6111 111.3296 778.6111 111.3296 C 778.6111 111.3296 267.4596 111.3296 244.2659 111.3296 C 221.0723 111.3296 222 133.5955 222 133.5955 L 222 898.0585 C 222 898.0585 222.4883 922.5278 241.2507 922.5278 C 261.5452 922.5278 751.3588 922.0714 772.3488 921.9479 C 792.0634 921.832 800.877 890.6365 800.877 890.6365 C 800.877 890.6365 802.3846 767.7101 800.761 747.9955 C 799.5963 733.8516 778.6111 734.7751 778.6111 734.7751 C 778.6111 734.7751 427.4827 729.2086 415.422 727.3531 C 403.3613 725.4976 408 697.6652 408 697.6652 Z" fill="#f76929"/>
		<path d="M 800.5 415.6303 C 800.5 415.6303 641.8554 562.2142 629.7947 571.4917 C 617.734 580.7692 637.5936 586.3356 637.5936 586.3356 L 801.3409 587.3794 C 801.3409 587.3794 799.9493 700.4485 800.877 712.5092 C 801.8048 724.5699 778.6111 727.3531 778.6111 727.3531 C 778.6111 727.3531 423.2843 726.4254 414.9345 727.3531 C 406.5848 728.2809 407.5126 712.5092 407.5126 712.5092 L 409.3681 615.2118 C 409.3681 615.2118 567.2009 463.203 579.2616 451.1423 C 591.3223 439.0816 570.796 430.5 570.796 430.5 L 414.5 430.5 L 414.5 296.9045 C 414.5 296.9045 776.06 296.8788 785.3375 296.8788 C 794.6149 296.8788 800.5 305.5764 800.5 305.5764 L 800.5 415.6303 Z" stroke="#666666" stroke-width="9" fill="#ffffff"/>
	</g>
	<g id="%u30EC%u30A4%u30E4%u30FC%201">
	</g>
</svg>