<svg xmlns="http://www.w3.org/2000/svg" viewBox="0 0 256 252" preserveAspectRatio="xMidYMid">
  <g fill="#B5010F">
    <path d="M252.7 5c13.5 13.6-24 73-30.2 79.3-6.4 6.3-22.5.5-36-13s-19.3-29.6-13-36c6.5-6.3 65.7-43.6 79.2-30m-189.4 14C42.7 7.8 13.3-5.2 4 4c-9.5 9.5 4 39.5 16 60a126.8 126.8 0 0 1 43.3-44.6"/>
    <path d="M232 79.6c2 6.5 1.7 11.8-1.4 15-7.2 7-26.6-.6-44-17.3a89.4 89.4 0 0 1-3.8-3.4c-6.3-6.7-11.2-13.5-14.4-19.7-6-11-7.6-20.7-3-25.3 2.6-2.3 6.6-3 11.6-2 3-2 7-4.4 11-6.7-17-8.8-36-13.8-56.5-13.8C63.8 6.5 9 61.5 9 129c0 68 54.7 122.8 122.4 122.8S254 196.8 254 129c0-21.8-5.7-42.3-15.7-60-2 4-4.3 7.5-6.2 10.6"/>
  </g>
</svg>
