<svg xmlns="http://www.w3.org/2000/svg" viewBox="0 0 192.76 192.76">
  <g fill-rule="evenodd" clip-rule="evenodd">
    <path fill="#f0cb35" d="M135.3 30c4.05-2.58 5.98-5.78 5.98-9.42 0-3.2-1.7-6.2-5.35-8.77-3.2-2.3-7.27-4-12.83-5.5l-14.75-2.8-11.97-.6-9.2.5L72 5.6c-6.2 1.3-10.9 3.22-14.1 5.36-4.28 2.78-6.42 6-6.42 9.62 0 3.85 2.13 7.06 6.4 9.84 3.65 2.14 8.35 3.85 14.55 5.34l24.16 2.78 10-.43 14.9-2.5c5.7-1.5 10.5-3.4 13.7-5.5z"/>
    <path fill="#f2ca34" d="M132.5 95.2c-1.27-1.28-1.7-2.78-1.7-4.06 0-1.7.43-3.2 1.7-4.7l7.28-7.06c1.07-1.7 1.5-3.2 1.5-5.13 0-3.42-1.7-6.42-5.35-8.98-3.2-2.14-7.27-4.06-12.83-5.35l-14.75-2.78-11.76-.85L72 59c-6.2 1.5-10.9 3.2-14.1 5.56-4.28 2.56-6.42 5.77-6.42 9.62 0 1.7.42 3.2 1.7 4.7l7.28 7.5c1.07 1.48 1.7 2.98 1.7 4.48 0 1.7-.63 3.2-1.7 4.7l-7.27 7.07c-1.3 1.5-1.8 3.2-1.8 4.92 0 1.9.4 3.4 1.7 5.1l7.3 7.06c1 1.5 1.7 2.8 1.7 4.7 0 1.5-.7 3-1.7 4.3l-7.3 7.7c-1.3 1.5-1.7 3-1.7 4.7 0 3.7 1.9 6.7 5.5 9.2 3 2.4 7.5 4.1 13 5.6l15 2.4 20.3.2 15.2-2.1c6-1.5 10.9-3.2 14.3-5.3 4.2-2.7 6.4-6 6.4-9.8 0-1.9-.5-3.6-1.5-5.1l-7.3-7c-1.3-1.5-1.7-3-1.7-4.5s.4-2.96 1.7-4.24l7.23-7.5c1.1-1.7 1.5-3.4 1.5-5.1s-.4-3.2-1.5-4.7l-7.26-7.7z"/>
    <path fill="#f0cb35" d="M148.12 146.94v1.72h3.85v6.4h1.28v-6.4h3.42v-1.7h-8.55zm13.04 0h-1.5v8.13h1.93c-.3-1.7-.5-3.2 0-4.7l1 2.35c.6.85 1.3 1.28 1.9 1.28.6 0 1.5-.2 1.9-1.28l1.3-2.36v4.7h2.1v-8.12h-1.7l-3.7 5.14-3.4-5.14zM31.38 189.92v-10.7h3.85v7.28h8.34v-7.27h3.85v10.7h8.55v-11.56l-2.78-1.92-3-.85H22.8v14.32h8.55zm113.75-2.78l5.13 2.78h19.67v-3.85h-16.68v-1.28h12.62v-4.1h-12.62v-1.3h16.68v-3.9H150.7c-.65 0-1.72.4-3.22 1-1.28.8-2.14 1.3-2.35 1.7v8.8zm-16.04 1.93c1.5-.65 2.5-1.3 2.7-1.93v-8.77l-2.6-1.7c-1.3-.65-2.2-1.08-2.6-1.08H107v14.3h18.83l3.2-.9zm-13.5-3v-6.62h7.9v6.62h-7.9zm-46.4-7.7v8.77c1.7 1.5 3.8 2.36 6.4 2.57l12.4.3c2.3-.2 4.5-1 5.5-2.3.4-.4.6-1.3.6-2.3l-.2-6.4c-.5-1.5-2.2-2.5-5.6-3l-10.1-.2-3.2.2c-2.6.2-4.5 1.1-6 2.6zm16.2 7.7h-7.9v-6.62h7.9v6.62z"/>
  </g>
</svg>
