<svg xmlns="http://www.w3.org/2000/svg" width="750.54" height="115.83" version="1">
  <path fill="#929497" d="M458.94 98.5c0 1.08-.88 2.05-1.97 2.05h-37.8c-1.1 0-1.98-.97-1.98-2.05V71.2c0-1.1.8-1.95 1.9-1.95h37.8c1.1 0 1.92.86 1.92 1.94v27.3zm-1.64-37.45h-38.47c-5.57 0-10.12 4.53-10.12 10.14v27.4c0 5.5 4.6 10.1 10.2 10.1h38.5c5.6 0 10.15-4.7 10.15-10.2V71.2c0-5.62-4.54-10.15-10.12-10.15"/>
  <path fill="#221f1f" d="M15.92 20.03v35.3H7.1V7.63h7.53L50.4 42.36V7.62h8.7v47.7h-6.9l-36.28-35.3"/>
  <path fill="#221e1f" stroke-width=".05" d="M104.43 20.03v35.3H95.6V7.63h7.53l35.76 34.74V7.62h8.7v47.7h-6.9l-36.3-35.3m183.4 0v35.3H279V7.62h7.54l35.76 34.76V7.62h8.73v47.7h-6.9l-36.28-35.3M80.12 7.62h1.63v47.7h-8.82V7.62h7.2m127.6 0h1.63v8.2h-21.3v39.5h-9.16v-39.5h-21.28v-8.2h50.12m56.56 0h1.65v8.2H228.1v10.7h29.28v8.2H228.1v12.4h37.85v8.2h-46.6V7.62h44.94m115.8 39.5H353v-31.3h27.1c8.5 0 11.5 8.42 11.5 15.65 0 7.13-3 15.65-11.5 15.65zm14.5-32.48c-3.5-4.64-8.6-7.02-14.8-7.02h-35.4v47.7h35.4c6.14 0 11.24-2.48 14.7-7 3.23-4.22 4.94-10.05 4.94-16.85 0-6.8-1.7-12.62-4.95-16.83m64.3 30.54c0 .97-.88 1.94-1.97 1.94h-37.8c-1.1 0-2-.97-2-1.94v-27.4c0-1.1.86-1.96 1.96-1.96h37.8c1.1 0 1.97.87 1.97 1.95v27.4zm-1.6-37.56h-38.4c-5.58 0-10.13 4.53-10.13 10.15v27.4c0 5.62 4.6 10.16 10.16 10.16h38.47c5.6 0 10.2-4.54 10.2-10.15v-27.4c0-5.63-4.54-10.16-10.12-10.16M617.6 88.57c9.15 3.67 28.48 6.58 43.57 6.58 16.5 0 23.34-5.6 23.34-12.73 0-6.48-6.3-10.15-24.6-16.84-24.3-8.96-42.2-16.08-42.2-32.16 0-16.52 21.5-26.34 54.3-26.34 17.6 0 23.7 1.08 34.9 3.13L707 26c-11-2-20.7-5.6-35.84-5.6-16.2 0-23.12 5.2-23.12 10.5 0 7.7 10.65 11.37 29.3 18 26 9.3 40.44 16.4 40.44 32.1 0 16.2-18.1 27.86-58.9 27.86-16.77 0-28.33-1.1-41.18-3.24v-17m-87-67.6h-19.43v73.6h19.42c29.8 0 48.6-12.83 48.6-36.68 0-23.86-18.8-36.92-48.7-36.92zm52.13 80.4c-9.6 4.33-27.78 7.13-43.66 7.13h-60.72V7.3h60.72c15.88 0 34.06 2.8 43.7 7.12 23.37 10.58 31 27.52 31 43.5 0 15.97-7.56 32.9-31.04 43.5m140.94-8h-3.9v-1.4h9.5v1.4h-3.93v11.34h-1.67V93.42m17.75 5.72c-.1-1.72-.2-3.88-.2-5.5h-.05c-.45 1.5-.97 3.13-1.6 4.86l-2.27 6.26h-1.25l-2.1-6.16c-.6-1.83-1.1-3.45-1.45-4.96h-.05c-.03 1.62-.13 3.78-.23 5.6l-.35 5.52h-1.57l.9-12.74h2.1l2.18 6.15c.52 1.62.95 3.02 1.3 4.32h.02c.35-1.3.8-2.7 1.37-4.4l2.28-6.2h2.1l.8 12.74h-1.63l-.3-5.6"/>
</svg>
