<svg xmlns="http://www.w3.org/2000/svg" viewBox="0 0 87 88">
  <path fill="#107c10" d="M39.7 87c-6.6-.7-13.3-3-19-7-5-3-6-4.3-6-7 0-5 5.7-14.2 15.5-24.6 5.5-5.8 13.3-12.7 14-12.6 1.7.4 14.7 13 19.6 19C71.5 64.3 75 72 73.2 75.4c-1.4 2.7-9.8 7.8-16 9.7-5.2 2-12 2.7-17.5 2zM8.2 67.6c-4-6.2-6-12.2-7-21C.8 43.6 1 42 2 36c1-7.2 5-16 10.2-21 2-2.4 2.3-2.4 5-1.5 3 1 6.5 3.4 11.8 8.2l3 2.8-1.5 2c-7.8 9.7-16 23.3-19.2 31.7-1.7 4.6-2.3 9.2-1.6 11 .5 1.4 0 1-1.6-1.6zm70.4 1c.4-2 0-5.4-1.2-9-2.6-7.8-11-22.2-19-32l-2.4-3 2.7-2.6c3.5-3 6-5 8.5-6.6 2-1.3 5-2.4 6.2-2.4.8 0 3.5 2.8 5.8 6 3.4 4.7 6 10.5 7.2 16.6.8 4 1 12.3 0 16.2-.5 3.2-1.8 7.4-3 10.2-1 2-3.5 6.2-4.5 7.5-1 .7-1 .7-.7-.8zm-38.2-57c-3.6-2-9-4-12.2-4.4-1-.2-3-.3-4-.2-2.6 0-2.5 0 1.6-2 3.3-1.6 6.2-2.5 10-3.3 4.3-1 12.4-1 16.6 0 4.6 1 10 3 13 4.8l1 .6h-2C60 7 54 8.7 47.6 11.8L44 13.2l-3.6-1.7z"/>
</svg>
