<svg xmlns="http://www.w3.org/2000/svg" viewBox="0 130.75 595.28 580.4">
  <radialGradient id="a" cx="-183.69" cy="328.97" r=".76" gradientTransform="matrix(545.6736 0 0 528.3113 100439.305 -173525.125)" gradientUnits="userSpaceOnUse">
    <stop offset="0" stop-color="#442f55" stop-opacity=".98"/>
    <stop offset="1" stop-color="#12002c"/>
  </radialGradient>
  <path fill="url(#a)" d="M24.8 155.55h545.68v530.8H24.8v-530.8z"/>
  <path fill="#d8a1ff" d="M24.8 155.55h545.68v530.8H24.8v-530.8zM0 711.15h595.28v-580.4H0v580.4zm421.16-300.62c12.65 0 17.1 0 18.35-.5 0-1.73.5-2.97.5-4.2 0-13.4-6.4-38.2-32.2-38.2-23.8 0-34 20.82-36.44 42.9h49.87zM370.8 444.5c.5 33.5 16.38 56.06 54.08 56.06 14.63 0 27.28-1.98 40.43-7.68 1.8-.75 3-.5 3 1.73v31.08c0 2.48-.7 3.72-2.5 4.96-13.1 6.44-29.5 9.4-49.8 9.4-65.5 0-90.02-48.34-90.02-102.2 0-58.5 30.26-106.4 83.58-106.4 54.1 0 72.94 45.4 72.94 82.37 0 11.9-.76 21.58-2 26.3-.5 1.98-1.24 2.7-3.2 3.2-4.98.75-19.6 1.75-41.44 1.75h-65v-.5zm-132.94-25.3c-6.94-27.52-23.8-87.55-30-116.57h-.5c-5.2 29.02-18.86 78.13-29.02 116.58h59.52zm-69.7 40.2l-19.6 74.15c-.48 2-1.23 2.73-3.7 2.73H108.4c-2.5 0-3-.74-2.5-3.72l70.44-246.3c1.24-4.46 2-7.93 2.48-20.34 0-1.73.74-2.48 1.98-2.48h52.1c1.74 0 2.48.5 2.98 2.48l78.87 267.14c.5 1.98 0 3.22-1.98 3.22h-40.93c-1.98 0-3.22-.74-3.72-2.48l-20.34-74.4h-79.6z"/>
</svg>
