<svg xmlns="http://www.w3.org/2000/svg" viewBox="0 0 1021 1021" style="background-color:#666666">
  <path fill="#333" d="M0 0h1021v1021H0V0z"/>
  <path fill="#fff" d="M41.5 22.5v978h-16v-978h16zm104 0v16h-58v-16h58zm61 0v185h614v-185h38v978h-38v-205h-614v205h-38v-978h38zm734 0v16h-58v-16h58zm61 0v978h-16v-978h16zm-856 61v78h-58v-78h58zm795 0v78h-58v-78h58zm-795 123v78h-58v-78h58zm795 0v78h-58v-78h58zm-124 40v507h-606v-507h606zm-671 82v80h-58v-80h58zm795 0v80h-58v-80h58zm-795 124v77h-58v-77h58zm795 0v77h-58v-77h58zm-795 124v77h-58v-77h58zm795 0v77h-58v-77h58zm-795 123v77h-58v-77h58zm795 0v77h-58v-77h58zm-795 120v80h-58v-80h58zm795 0v80h-58v-80h58zm-795 123v58h-58v-58h58zm795 0v58h-58v-58h58z"/>
  <path fill="#333" d="M206 246h614v509H206V246z"/>
</svg>
