<svg xmlns="http://www.w3.org/2000/svg" viewBox="0 0 400 400" style="background-color:#ffffff00">
  <defs>
    <linearGradient id="a" x1="50%" x2="50%" y1="0%" y2="100%">
      <stop stop-color="#0d1077" offset="0%"/>
      <stop stop-color="#7740c2" offset="100%"/>
    </linearGradient>
    <linearGradient id="b" x1="42.3%" x2="42.3%" y1="0%" y2="100%">
      <stop stop-color="#3e269a" offset="0%"/>
      <stop stop-color="#4d2da5" offset="100%"/>
    </linearGradient>
  </defs>
  <path fill="url(#a)" d="M0 0h400v400H0z"/>
  <path fill="#fff" d="M200 31l42.5 123.4 136 .5-108.8 79.3L314.2 367 200 285 85.8 367l44.5-132.6L21.5 155l136-.6L200 31z"/>
  <path fill="url(#b)" d="M230 205v16l22 15v-46l-22 15zm-82-12v13h7v-13h-7zm9-.5v41c0 5.8 3.7 9.5 9.5 9.5h51c5.8 0 9.5-3.7 9.5-9.5v-41c0-5.8-3.7-9.5-9.5-9.5h-51c-5.8 0-9.5 3.7-9.5 9.5z"/>
</svg>
