<?xml version="1.0" standalone="no"?>
<!-- Generator: Adobe Fireworks 10, Export SVG Extension by Aaron Beall (http://fireworks.abeall.com) . Version: 0.6.1  -->
<!DOCTYPE svg PUBLIC "-//W3C//DTD SVG 1.1//EN" "http://www.w3.org/Graphics/SVG/1.1/DTD/svg11.dtd">
<svg id="nive.fw-%u30DA%u30FC%u30B8%201" viewBox="0 0 1024 1009" style="background-color:#ffffff00" version="1.1"
	xmlns="http://www.w3.org/2000/svg" xmlns:xlink="http://www.w3.org/1999/xlink" xml:space="preserve"
	x="0px" y="0px" width="1024px" height="1009px"
>
	<defs>
		<linearGradient id="gradient1" x1="0%" y1="0%" x2="100.0919%" y2="99.8134%">
			<stop stop-color="#8e8eb6" stop-opacity="1" offset="0%"/>
			<stop stop-color="#37375a" stop-opacity="1" offset="100%"/>
		</linearGradient>
	</defs>
	<g id="%u80CC%u666F">
		<path d="M 0 0 L 1024 0 L 1024 1009 L 0 1009 L 0 0 Z" stroke="#ffffff00" stroke-width="15" fill="url(#gradient1)"/>
		<path d="M 527.0588 271.0746 L 466.8235 271.0746 L 466.8235 406.6119 L 466.8235 662.6269 L 420.7059 553.2087 L 293.1765 271.0746 L 210.8235 271.0746 L 210.8235 737.9254 L 271.0588 737.9254 L 271.0588 585.9165 L 271.0588 346.3731 L 309.6471 441.6728 L 443.5294 737.9254 L 527.0588 737.9254 L 527.0588 271.0746 L 527.0588 271.0746 Z" fill="#ffffff"/>
		<path d="M 718.6071 692.7463 L 613.1953 692.7463 L 613.1953 737.9254 L 854.1365 737.9254 L 854.1365 692.7463 L 763.7836 692.7463 L 763.7836 436.7314 L 628.2542 436.7314 L 628.2542 481.9105 L 718.6071 481.9105 L 718.6071 692.7463 L 718.6071 692.7463 ZM 711.313 319.3127 C 706.6071 321.1952 702.6071 324.0189 699.313 327.3132 C 696.0189 330.8428 693.1953 334.843 691.313 339.3139 C 689.4306 343.7848 688.4894 348.7262 688.4894 353.903 C 688.4894 359.0797 689.4306 364.0212 691.313 368.4921 C 693.1953 373.1982 696.0189 377.1985 699.313 380.4928 C 702.6071 384.0224 706.6071 386.8461 711.313 388.7285 C 715.7836 390.611 720.7247 391.5522 726.1365 391.5522 C 731.313 391.5522 736.2542 390.611 740.96 388.7285 C 745.4306 386.8461 749.4306 384.0224 752.7247 380.4928 C 756.0189 377.1985 758.8423 373.1982 760.7247 368.4921 C 762.6071 364.0212 763.7836 359.0797 763.7836 353.903 C 763.7836 348.7262 762.6071 343.7848 760.7247 339.3139 C 758.8423 334.843 756.0189 330.8428 752.7247 327.3132 C 749.4306 324.0189 745.4306 321.1952 740.96 319.3127 C 736.2542 317.4303 731.313 316.2537 726.1365 316.2537 C 720.7247 316.2537 715.7836 317.4303 711.313 319.3127 L 711.313 319.3127 Z" fill="#ffffff"/>
	</g>
	<g id="%u30EC%u30A4%u30E4%u30FC%201">
	</g>
</svg>