<svg xmlns="http://www.w3.org/2000/svg" viewBox="0 0 1024 1009" style="background-color:#ffffff00">
  <defs>
    <linearGradient id="a" x1="0%" x2="100.1%" y1="0%" y2="99.8%">
      <stop stop-color="#8e8eb6" offset="0%"/>
      <stop stop-color="#37375a" offset="100%"/>
    </linearGradient>
  </defs>
  <path fill="url(#a)" stroke="#ffffff00" stroke-width="15" d="M0 0h1024v1009H0V0z"/>
  <path fill="#fff" d="M527 271h-60v391.6l-46-109.4-127.6-282H211V738h60V346.2l38.6 95.3 134 296.2H527V271zm191.6 421.7H613.2V738h241v-45.3h-90.4v-256H628.3V482h90.3v210.7zm-7.3-373.4c-4.7 2-8.7 4.7-12 8-3.3 3.5-6 7.5-8 12s-2.8 9.4-2.8 14.6c0 5 1 10 2.8 14.2 2 4.7 4.7 8.7 8 12 3.3 3.5 7.3 6.3 12 8.2 4.5 2 9.4 3 14.8 3s10.6-1 15-3c4.7-2 8.7-4.7 12-8.2 3.3-3.3 6-7.3 8-12 2-4.5 3-9.4 3-14.6 0-5.3-1-10.2-3-14.7s-4.7-8.5-8-12c-3.3-3.3-7.3-6-11.7-8-4.6-2-9.6-3-15-3-5.2 0-10 1-14.6 3z"/>
</svg>
