<?xml version="1.0" encoding="utf-8"?>
<!-- Generator: Adobe Illustrator 19.2.0, SVG Export Plug-In . SVG Version: 6.00 Build 0)  -->
<svg version="1.1" id="Layer_1" xmlns="http://www.w3.org/2000/svg" xmlns:xlink="http://www.w3.org/1999/xlink" x="0px" y="0px"
	 viewBox="0 0 380.4 579.2" enable-background="new 0 0 380.4 579.2" xml:space="preserve">
<g>
	
		<linearGradient id="SVGID_1_" gradientUnits="userSpaceOnUse" x1="-7708.7969" y1="-803.3601" x2="-7633.1528" y2="-714.9074" gradientTransform="matrix(0.4226 -0.9063 0.9063 0.4226 4226.9761 -6584.5938)">
		<stop  offset="0" style="stop-color:#F69923"/>
		<stop  offset="0.3123" style="stop-color:#F79A23"/>
		<stop  offset="0.8383" style="stop-color:#E97826"/>
	</linearGradient>
	<path fill="url(#SVGID_1_)" d="M267.1,19.6c-8.4,5-22.4,19-39,39.3l15.3,28.9c10.7-15.4,21.7-29.2,32.7-41c0.8-0.9,1.3-1.4,1.3-1.4
		c-0.4,0.5-0.9,0.9-1.3,1.4c-3.6,3.9-14.4,16.5-30.7,41.6c15.7-0.8,39.8-4,59.5-7.4c5.9-32.8-5.7-47.8-5.7-47.8
		S284.4,9.3,267.1,19.6z"/>
	<path fill="none" d="M241.1,184.4c0.1,0,0.2,0,0.3-0.1l-2.2,0.2c-0.1,0.1-0.3,0.1-0.4,0.2C239.6,184.6,240.4,184.5,241.1,184.4z"/>
	<path fill="none" d="M225.5,236.1c-1.2,0.3-2.5,0.5-3.8,0.7C223,236.6,224.3,236.4,225.5,236.1z"/>
	<path fill="none" d="M119.3,352.2c0.2-0.4,0.3-0.9,0.5-1.3c3.4-8.9,6.7-17.5,10-26c3.7-9.4,7.4-18.6,11-27.5
		c3.8-9.3,7.6-18.4,11.3-27.1c3.9-9.2,7.7-18,11.5-26.5c3.1-6.9,6.1-13.6,9.1-20.1c1-2.2,2-4.3,3-6.4c2-4.2,3.9-8.3,5.8-12.3
		c1.8-3.7,3.5-7.3,5.2-10.9c0.6-1.2,1.2-2.4,1.7-3.5c0.1-0.2,0.2-0.4,0.3-0.6l-1.9,0.2l-1.5-2.9c-0.1,0.3-0.3,0.6-0.4,0.9
		c-2.7,5.3-5.4,10.7-8,16.2c-1.5,3.1-3,6.3-4.6,9.5c-4.2,8.8-8.3,17.6-12.3,26.6c-4.1,9-8.1,18.1-12,27.1
		c-3.9,8.9-7.6,17.8-11.3,26.7c-3.7,8.9-7.3,17.7-10.8,26.5c-3.7,9.2-7.3,18.3-10.7,27.3c-0.8,2-1.6,4.1-2.3,6.1
		c-2.8,7.3-5.5,14.4-8.1,21.5l2.4,4.7l2.1-0.2c0.1-0.2,0.2-0.4,0.2-0.6C112.6,370.1,116,361,119.3,352.2z"/>
	<path fill="none" d="M220.7,236.9L220.7,236.9C220.7,236.9,220.7,236.9,220.7,236.9C220.7,236.9,220.7,236.9,220.7,236.9z"/>
	<path fill="#BE202E" d="M215.6,262.2c-2,0.4-4,0.7-6,1c0,0,0,0,0,0c1-0.1,2.1-0.3,3.1-0.5C213.7,262.6,214.7,262.4,215.6,262.2z"/>
	<path opacity="0.35" fill="#BE202E" d="M215.6,262.2c-2,0.4-4,0.7-6,1c0,0,0,0,0,0c1-0.1,2.1-0.3,3.1-0.5
		C213.7,262.6,214.7,262.4,215.6,262.2z"/>
	<path fill="#BE202E" d="M220.8,236.9C220.8,236.9,220.8,236.9,220.8,236.9C220.7,236.9,220.7,236.9,220.8,236.9
		c0.3,0,0.6-0.1,0.9-0.1c1.3-0.2,2.6-0.4,3.8-0.7C224,236.4,222.4,236.6,220.8,236.9L220.8,236.9L220.8,236.9z"/>
	<path opacity="0.35" fill="#BE202E" d="M220.8,236.9C220.8,236.9,220.8,236.9,220.8,236.9C220.7,236.9,220.7,236.9,220.8,236.9
		c0.3,0,0.6-0.1,0.9-0.1c1.3-0.2,2.6-0.4,3.8-0.7C224,236.4,222.4,236.6,220.8,236.9L220.8,236.9L220.8,236.9z"/>
	
		<linearGradient id="SVGID_2_" gradientUnits="userSpaceOnUse" x1="-8268.6387" y1="-813.1232" x2="-7728.9585" y2="-813.1232" gradientTransform="matrix(0.4226 -0.9063 0.9063 0.4226 4226.9761 -6584.5938)">
		<stop  offset="0.3233" style="stop-color:#9E2064"/>
		<stop  offset="0.6302" style="stop-color:#C92037"/>
		<stop  offset="0.7514" style="stop-color:#CD2335"/>
		<stop  offset="1" style="stop-color:#E97826"/>
	</linearGradient>
	<path fill="url(#SVGID_2_)" d="M198.2,162.4c4.7-8.7,9.4-17.2,14.1-25.5c4.9-8.6,9.9-16.9,15-25c0.3-0.5,0.6-1,0.9-1.4
		c5-7.9,10-15.5,15.1-22.8L228,58.9c-1.1,1.4-2.3,2.8-3.5,4.3c-4.4,5.5-9,11.4-13.7,17.7c-5.3,7.1-10.7,14.6-16.3,22.5
		c-5.1,7.3-10.3,15-15.5,22.9c-4.4,6.8-8.8,13.7-13.2,20.8c-0.2,0.3-0.3,0.5-0.5,0.8l19.9,39.3C189.6,178.9,193.9,170.6,198.2,162.4
		z"/>
	
		<linearGradient id="SVGID_3_" gradientUnits="userSpaceOnUse" x1="-8203.4922" y1="-758.994" x2="-7881.895" y2="-758.994" gradientTransform="matrix(0.4226 -0.9063 0.9063 0.4226 4226.9761 -6584.5938)">
		<stop  offset="0" style="stop-color:#282662"/>
		<stop  offset="9.548390e-02" style="stop-color:#662E8D"/>
		<stop  offset="0.7882" style="stop-color:#9F2064"/>
		<stop  offset="0.9487" style="stop-color:#CD2032"/>
	</linearGradient>
	<path fill="url(#SVGID_3_)" d="M107.5,384.1c-2.6,7.2-5.3,14.6-7.9,22.2c0,0.1-0.1,0.2-0.1,0.3c-0.4,1.1-0.8,2.1-1.1,3.2
		c-1.8,5.1-3.3,9.7-6.9,20.1c5.9,2.7,10.6,9.7,15,17.7c-0.5-8.3-3.9-16.1-10.4-22.1c28.9,1.3,53.9-6,66.7-27.2
		c1.1-1.9,2.2-3.9,3.2-6c-5.9,7.4-13.1,10.6-26.8,9.8c0,0-0.1,0-0.1,0c0,0,0.1,0,0.1,0c20.1-9,30.2-17.7,39.1-32
		c2.1-3.4,4.2-7.1,6.3-11.2c-17.6,18.1-38,23.2-59.5,19.3L109,380C108.5,381.4,108,382.7,107.5,384.1z"/>
	
		<linearGradient id="SVGID_4_" gradientUnits="userSpaceOnUse" x1="-8238.3281" y1="-818.1522" x2="-7698.647" y2="-818.1522" gradientTransform="matrix(0.4226 -0.9063 0.9063 0.4226 4226.9761 -6584.5938)">
		<stop  offset="0.3233" style="stop-color:#9E2064"/>
		<stop  offset="0.6302" style="stop-color:#C92037"/>
		<stop  offset="0.7514" style="stop-color:#CD2335"/>
		<stop  offset="1" style="stop-color:#E97826"/>
	</linearGradient>
	<path fill="url(#SVGID_4_)" d="M115,348c3.5-9,7.1-18.1,10.7-27.3c3.5-8.8,7.1-17.6,10.8-26.5c3.7-8.9,7.5-17.8,11.3-26.7
		c3.9-9.1,7.9-18.1,12-27.1c4-8.9,8.2-17.8,12.3-26.6c1.5-3.2,3-6.3,4.6-9.5c2.6-5.4,5.3-10.8,8-16.2c0.1-0.3,0.3-0.6,0.4-0.9
		L165.4,148c-0.3,0.5-0.6,1.1-1,1.6c-4.6,7.6-9.3,15.3-13.8,23.2c-4.6,8-9.1,16.1-13.5,24.4c-3.7,7-7.3,14-10.9,21.1
		c-0.7,1.4-1.4,2.9-2.1,4.3c-4.3,8.9-8.3,17.6-11.8,25.9c-4,9.4-7.5,18.4-10.6,26.9c-2,5.6-3.9,11-5.6,16.2c-1.4,4.4-2.7,8.9-4,13.3
		c-3,10.4-5.5,20.8-7.6,31.2l20,39.5c2.6-7.1,5.4-14.2,8.1-21.5C113.4,352.1,114.2,350.1,115,348z"/>
	
		<linearGradient id="SVGID_5_" gradientUnits="userSpaceOnUse" x1="-8198.9678" y1="-810.8506" x2="-7915.3501" y2="-810.8506" gradientTransform="matrix(0.4226 -0.9063 0.9063 0.4226 4226.9761 -6584.5938)">
		<stop  offset="0" style="stop-color:#282662"/>
		<stop  offset="9.548390e-02" style="stop-color:#662E8D"/>
		<stop  offset="0.7882" style="stop-color:#9F2064"/>
		<stop  offset="0.9487" style="stop-color:#CD2032"/>
	</linearGradient>
	<path fill="url(#SVGID_5_)" d="M84.2,337.5c-2.5,12.6-4.3,25.2-5.2,37.8c0,0.4-0.1,0.9-0.1,1.3c-6.2-10-23-19.8-22.9-19.7
		c12,17.4,21.1,34.6,22.4,51.5c-6.4,1.3-15.2-0.6-25.3-4.3c10.6,9.7,18.5,12.4,21.6,13.1c-9.7,0.6-19.8,7.3-30,15
		c14.9-6.1,27-8.5,35.6-6.5c-13.7,38.7-27.4,81.5-41.1,126.9c4.2-1.2,6.7-4.1,8.1-7.9c2.4-8.2,18.7-62.2,44.1-133.1
		c0.7-2,1.5-4,2.2-6.1c0.2-0.6,0.4-1.1,0.6-1.7c2.7-7.4,5.5-15,8.4-22.8c0.7-1.8,1.3-3.5,2-5.3c0,0,0-0.1,0-0.1l-20-39.5
		C84.4,336.6,84.3,337,84.2,337.5z"/>
	
		<linearGradient id="SVGID_6_" gradientUnits="userSpaceOnUse" x1="-8238.3281" y1="-762.2971" x2="-7698.647" y2="-762.2971" gradientTransform="matrix(0.4226 -0.9063 0.9063 0.4226 4226.9761 -6584.5938)">
		<stop  offset="0.3233" style="stop-color:#9E2064"/>
		<stop  offset="0.6302" style="stop-color:#C92037"/>
		<stop  offset="0.7514" style="stop-color:#CD2335"/>
		<stop  offset="1" style="stop-color:#E97826"/>
	</linearGradient>
	<path fill="url(#SVGID_6_)" d="M188.4,190.6c-0.6,1.2-1.1,2.3-1.7,3.5c-1.7,3.6-3.5,7.2-5.2,10.9c-1.9,4-3.8,8.1-5.8,12.3
		c-1,2.1-2,4.2-3,6.4c-3,6.5-6,13.2-9.1,20.1c-3.8,8.5-7.6,17.3-11.5,26.5c-3.7,8.7-7.5,17.8-11.3,27.1c-3.6,8.9-7.3,18-11,27.5
		c-3.3,8.4-6.6,17.1-10,26c-0.2,0.4-0.3,0.9-0.5,1.3c-3.3,8.8-6.7,17.9-10.1,27.2c-0.1,0.2-0.2,0.4-0.2,0.6l16.1-1.8
		c-0.3-0.1-0.6-0.1-1-0.2c19.3-2.4,44.9-16.8,61.4-34.6c7.6-8.2,14.5-17.8,20.9-29.1c4.8-8.4,9.2-17.7,13.5-28.1
		c3.7-9,7.3-18.8,10.7-29.4c-4.4,2.3-9.5,4-15.1,5.2c-1,0.2-2,0.4-3,0.6c-1,0.2-2,0.3-3.1,0.5l0,0l0,0c0,0,0,0,0,0
		c18-6.9,29.3-20.2,37.5-36.6c-4.7,3.2-12.4,7.4-21.6,9.5c-1.2,0.3-2.5,0.5-3.8,0.7c-0.3,0-0.6,0.1-1,0.1l0,0l0,0c0,0,0,0,0,0
		c0,0,0,0,0,0l0,0c6.2-2.6,11.5-5.5,16.1-9c1-0.7,1.9-1.5,2.8-2.3c1.4-1.2,2.7-2.5,4-3.8c0.8-0.9,1.6-1.7,2.4-2.6
		c1.8-2.1,3.5-4.4,5-6.9c0.5-0.8,1-1.5,1.4-2.3c0.6-1.2,1.2-2.3,1.7-3.4c2.5-5,4.5-9.5,6.1-13.5c0.8-2,1.5-3.8,2.1-5.5
		c0.2-0.7,0.5-1.3,0.7-2c0.6-1.9,1.2-3.6,1.6-5.1c0.6-2.2,1-4,1.2-5.3l0,0l0,0c-0.6,0.5-1.3,1-2.1,1.4c-5.4,3.2-14.7,6.2-22.2,7.6
		l14.8-1.6l-14.8,1.6c-0.1,0-0.2,0-0.3,0.1c-0.7,0.1-1.5,0.2-2.3,0.4c0.1-0.1,0.3-0.1,0.4-0.2l-50.6,5.5
		C188.6,190.3,188.5,190.5,188.4,190.6z"/>
	
		<linearGradient id="SVGID_7_" gradientUnits="userSpaceOnUse" x1="-8271.8057" y1="-765.0707" x2="-7732.125" y2="-765.0707" gradientTransform="matrix(0.4226 -0.9063 0.9063 0.4226 4226.9761 -6584.5938)">
		<stop  offset="0.3233" style="stop-color:#9E2064"/>
		<stop  offset="0.6302" style="stop-color:#C92037"/>
		<stop  offset="0.7514" style="stop-color:#CD2335"/>
		<stop  offset="1" style="stop-color:#E97826"/>
	</linearGradient>
	<path fill="url(#SVGID_7_)" d="M245.4,88.4c-4.5,6.9-9.4,14.8-14.7,23.6c-0.3,0.5-0.6,0.9-0.8,1.4c-4.6,7.7-9.4,16.1-14.5,25.4
		c-4.4,8-9,16.5-13.8,25.8c-4.2,8-8.4,16.5-12.9,25.5l50.6-5.5c14.7-6.8,21.3-12.9,27.7-21.8c1.7-2.4,3.4-5,5.1-7.7
		c5.2-8.1,10.3-17,14.8-25.9c4.4-8.6,8.3-17.1,11.2-24.7c1.9-4.9,3.4-9.4,4.5-13.4c0.9-3.5,1.6-6.8,2.2-10
		C285.2,84.4,261.1,87.6,245.4,88.4z"/>
	<path fill="#BE202E" d="M212.7,262.8c-1,0.2-2,0.3-3.1,0.5l0,0C210.6,263.1,211.6,262.9,212.7,262.8z"/>
	<path opacity="0.35" fill="#BE202E" d="M212.7,262.8c-1,0.2-2,0.3-3.1,0.5l0,0C210.6,263.1,211.6,262.9,212.7,262.8z"/>
	
		<linearGradient id="SVGID_8_" gradientUnits="userSpaceOnUse" x1="-8238.3281" y1="-745.6848" x2="-7698.647" y2="-745.6848" gradientTransform="matrix(0.4226 -0.9063 0.9063 0.4226 4226.9761 -6584.5938)">
		<stop  offset="0.3233" style="stop-color:#9E2064"/>
		<stop  offset="0.6302" style="stop-color:#C92037"/>
		<stop  offset="0.7514" style="stop-color:#CD2335"/>
		<stop  offset="1" style="stop-color:#E97826"/>
	</linearGradient>
	<path fill="url(#SVGID_8_)" d="M212.7,262.8c-1,0.2-2,0.3-3.1,0.5l0,0C210.6,263.1,211.6,262.9,212.7,262.8z"/>
	<path fill="#BE202E" d="M220.7,236.9c0.3,0,0.6-0.1,1-0.1C221.4,236.8,221.1,236.9,220.7,236.9L220.7,236.9z"/>
	<path opacity="0.35" fill="#BE202E" d="M220.7,236.9c0.3,0,0.6-0.1,1-0.1C221.4,236.8,221.1,236.9,220.7,236.9L220.7,236.9z"/>
	
		<linearGradient id="SVGID_9_" gradientUnits="userSpaceOnUse" x1="-8238.3281" y1="-747.5856" x2="-7698.647" y2="-747.5856" gradientTransform="matrix(0.4226 -0.9063 0.9063 0.4226 4226.9761 -6584.5938)">
		<stop  offset="0.3233" style="stop-color:#9E2064"/>
		<stop  offset="0.6302" style="stop-color:#C92037"/>
		<stop  offset="0.7514" style="stop-color:#CD2335"/>
		<stop  offset="1" style="stop-color:#E97826"/>
	</linearGradient>
	<path fill="url(#SVGID_9_)" d="M220.7,236.9c0.3,0,0.6-0.1,1-0.1C221.4,236.8,221.1,236.9,220.7,236.9L220.7,236.9z"/>
	<path fill="#BE202E" d="M220.8,236.9C220.8,236.9,220.8,236.9,220.8,236.9L220.8,236.9L220.8,236.9L220.8,236.9
		C220.8,236.9,220.8,236.9,220.8,236.9z"/>
	<path opacity="0.35" fill="#BE202E" d="M220.8,236.9C220.8,236.9,220.8,236.9,220.8,236.9L220.8,236.9L220.8,236.9L220.8,236.9
		C220.8,236.9,220.8,236.9,220.8,236.9z"/>
	
		<linearGradient id="SVGID_10_" gradientUnits="userSpaceOnUse" x1="-7935.1431" y1="-747.9668" x2="-7815.856" y2="-747.9668" gradientTransform="matrix(0.4226 -0.9063 0.9063 0.4226 4226.9761 -6584.5938)">
		<stop  offset="0.3233" style="stop-color:#9E2064"/>
		<stop  offset="0.6302" style="stop-color:#C92037"/>
		<stop  offset="0.7514" style="stop-color:#CD2335"/>
		<stop  offset="1" style="stop-color:#E97826"/>
	</linearGradient>
	<path fill="url(#SVGID_10_)" d="M220.8,236.9C220.8,236.9,220.8,236.9,220.8,236.9L220.8,236.9L220.8,236.9L220.8,236.9
		C220.8,236.9,220.8,236.9,220.8,236.9z"/>
</g>
<g>
	<path fill="#B0AFB0" d="M327.7,68.1v9.6H325v-9.6h-3.4v-2.3h9.4v2.3H327.7z"/>
	<path fill="#B0AFB0" d="M343.6,70.2l-3.2,6.5h-1.6l-3.2-6.5v7.5H333V65.8h3.6l3.1,6.5l3.1-6.5h3.6v11.9h-2.6V70.2z"/>
</g>
<g>
</g>
<g>
</g>
<g>
</g>
<g>
</g>
<g>
</g>
<g>
</g>
</svg>
