<svg xmlns="http://www.w3.org/2000/svg" viewBox="0 0 380.4 579.2">
  <linearGradient id="a" x1="-7708.8" x2="-7633.15" y1="-803.36" y2="-714.91" gradientUnits="userSpaceOnUse" gradientTransform="rotate(-65 -3054.3 -6609.8)">
    <stop offset="0" stop-color="#F69923"/>
    <stop offset=".31" stop-color="#F79A23"/>
    <stop offset=".84" stop-color="#E97826"/>
  </linearGradient>
  <path fill="url(#a)" d="M267.1 19.6c-8.4 5-22.4 19-39 39.3l15.3 28.9c10.7-15.4 21.7-29.2 32.7-41 .8-.9 1.3-1.4 1.3-1.4-.4.5-.9.9-1.3 1.4-3.6 3.9-14.4 16.5-30.7 41.6 15.7-.8 39.8-4 59.5-7.4 5.9-32.8-5.7-47.8-5.7-47.8s-14.8-23.9-32.1-13.6z"/>
  <path fill="none" d="M241.1 184.4c.1 0 .2 0 .3-.1l-2.2.2c-.1.1-.3.1-.4.2l2.3-.3zm-15.6 51.7c-1.2.3-2.5.5-3.8.7 1.3-.2 2.6-.4 3.8-.7zM119.3 352.2c.2-.4.3-.9.5-1.3 3.4-8.9 6.7-17.5 10-26 3.7-9.4 7.4-18.6 11-27.5 3.8-9.3 7.6-18.4 11.3-27.1 3.9-9.2 7.7-18 11.5-26.5 3.1-6.9 6.1-13.6 9.1-20.1 1-2.2 2-4.3 3-6.4 2-4.2 3.9-8.3 5.8-12.3 1.8-3.7 3.5-7.3 5.2-10.9.6-1.2 1.2-2.4 1.7-3.5l.3-.6-1.9.2-1.5-2.9c-.1.3-.3.6-.4.9-2.7 5.3-5.4 10.7-8 16.2-1.5 3.1-3 6.3-4.6 9.5-4.2 8.8-8.3 17.6-12.3 26.6-4.1 9-8.1 18.1-12 27.1-3.9 8.9-7.6 17.8-11.3 26.7-3.7 8.9-7.3 17.7-10.8 26.5-3.7 9.2-7.3 18.3-10.7 27.3-.8 2-1.6 4.1-2.3 6.1-2.8 7.3-5.5 14.4-8.1 21.5l2.4 4.7 2.1-.2c.1-.2.2-.4.2-.6 3.1-9.5 6.5-18.6 9.8-27.4zm101.4-115.3z"/>
  <path fill="#BE202E" d="M215.6 262.2c-2 .4-4 .7-6 1 1-.1 2.1-.3 3.1-.5 1-.1 2-.3 2.9-.5z"/>
  <path fill="#BE202E" d="M215.6 262.2c-2 .4-4 .7-6 1 1-.1 2.1-.3 3.1-.5 1-.1 2-.3 2.9-.5z" opacity=".35"/>
  <path fill="#BE202E" d="M220.8 236.9c-.1 0-.1 0 0 0 .3 0 .6-.1.9-.1 1.3-.2 2.6-.4 3.8-.7-1.5.3-3.1.5-4.7.8z"/>
  <path fill="#BE202E" d="M220.8 236.9c-.1 0-.1 0 0 0 .3 0 .6-.1.9-.1 1.3-.2 2.6-.4 3.8-.7-1.5.3-3.1.5-4.7.8z" opacity=".35"/>
  <linearGradient id="b" x1="-8268.64" x2="-7728.96" y1="-813.12" y2="-813.12" gradientUnits="userSpaceOnUse" gradientTransform="rotate(-65 -3054.3 -6609.8)">
    <stop offset=".32" stop-color="#9E2064"/>
    <stop offset=".63" stop-color="#C92037"/>
    <stop offset=".75" stop-color="#CD2335"/>
    <stop offset="1" stop-color="#E97826"/>
  </linearGradient>
  <path fill="url(#b)" d="M198.2 162.4c4.7-8.7 9.4-17.2 14.1-25.5 4.9-8.6 9.9-16.9 15-25 .3-.5.6-1 .9-1.4 5-7.9 10-15.5 15.1-22.8L228 58.9c-1.1 1.4-2.3 2.8-3.5 4.3-4.4 5.5-9 11.4-13.7 17.7-5.3 7.1-10.7 14.6-16.3 22.5-5.1 7.3-10.3 15-15.5 22.9-4.4 6.8-8.8 13.7-13.2 20.8-.2.3-.3.5-.5.8l19.9 39.3c4.4-8.3 8.7-16.6 13-24.8z"/>
  <linearGradient id="c" x1="-8203.49" x2="-7881.9" y1="-758.99" y2="-758.99" gradientUnits="userSpaceOnUse" gradientTransform="rotate(-65 -3054.3 -6609.8)">
    <stop offset="0" stop-color="#282662"/>
    <stop offset=".1" stop-color="#662E8D"/>
    <stop offset=".79" stop-color="#9F2064"/>
    <stop offset=".95" stop-color="#CD2032"/>
  </linearGradient>
  <path fill="url(#c)" d="M107.5 384.1c-2.6 7.2-5.3 14.6-7.9 22.2 0 .1-.1.2-.1.3-.4 1.1-.8 2.1-1.1 3.2-1.8 5.1-3.3 9.7-6.9 20.1 5.9 2.7 10.6 9.7 15 17.7-.5-8.3-3.9-16.1-10.4-22.1 28.9 1.3 53.9-6 66.7-27.2 1.1-1.9 2.2-3.9 3.2-6-5.9 7.4-13.1 10.6-26.8 9.8h-.1.1c20.1-9 30.2-17.7 39.1-32 2.1-3.4 4.2-7.1 6.3-11.2-17.6 18.1-38 23.2-59.5 19.3L109 380c-.5 1.4-1 2.7-1.5 4.1z"/>
  <linearGradient id="d" x1="-8238.33" x2="-7698.65" y1="-818.15" y2="-818.15" gradientUnits="userSpaceOnUse" gradientTransform="rotate(-65 -3054.3 -6609.8)">
    <stop offset=".32" stop-color="#9E2064"/>
    <stop offset=".63" stop-color="#C92037"/>
    <stop offset=".75" stop-color="#CD2335"/>
    <stop offset="1" stop-color="#E97826"/>
  </linearGradient>
  <path fill="url(#d)" d="M115 348c3.5-9 7.1-18.1 10.7-27.3 3.5-8.8 7.1-17.6 10.8-26.5 3.7-8.9 7.5-17.8 11.3-26.7 3.9-9.1 7.9-18.1 12-27.1 4-8.9 8.2-17.8 12.3-26.6 1.5-3.2 3-6.3 4.6-9.5 2.6-5.4 5.3-10.8 8-16.2.1-.3.3-.6.4-.9L165.4 148c-.3.5-.6 1.1-1 1.6-4.6 7.6-9.3 15.3-13.8 23.2-4.6 8-9.1 16.1-13.5 24.4-3.7 7-7.3 14-10.9 21.1-.7 1.4-1.4 2.9-2.1 4.3-4.3 8.9-8.3 17.6-11.8 25.9-4 9.4-7.5 18.4-10.6 26.9-2 5.6-3.9 11-5.6 16.2-1.4 4.4-2.7 8.9-4 13.3-3 10.4-5.5 20.8-7.6 31.2l20 39.5c2.6-7.1 5.4-14.2 8.1-21.5.8-2 1.6-4 2.4-6.1z"/>
  <linearGradient id="e" x1="-8198.97" x2="-7915.35" y1="-810.85" y2="-810.85" gradientUnits="userSpaceOnUse" gradientTransform="rotate(-65 -3054.3 -6609.8)">
    <stop offset="0" stop-color="#282662"/>
    <stop offset=".1" stop-color="#662E8D"/>
    <stop offset=".79" stop-color="#9F2064"/>
    <stop offset=".95" stop-color="#CD2032"/>
  </linearGradient>
  <path fill="url(#e)" d="M84.2 337.5c-2.5 12.6-4.3 25.2-5.2 37.8 0 .4-.1.9-.1 1.3-6.2-10-23-19.8-22.9-19.7 12 17.4 21.1 34.6 22.4 51.5-6.4 1.3-15.2-.6-25.3-4.3 10.6 9.7 18.5 12.4 21.6 13.1-9.7.6-19.8 7.3-30 15 14.9-6.1 27-8.5 35.6-6.5-13.7 38.7-27.4 81.5-41.1 126.9 4.2-1.2 6.7-4.1 8.1-7.9 2.4-8.2 18.7-62.2 44.1-133.1.7-2 1.5-4 2.2-6.1.2-.6.4-1.1.6-1.7 2.7-7.4 5.5-15 8.4-22.8.7-1.8 1.3-3.5 2-5.3v-.1l-20-39.5c-.2.5-.3.9-.4 1.4z"/>
  <linearGradient id="f" x1="-8238.33" x2="-7698.65" y1="-762.3" y2="-762.3" gradientUnits="userSpaceOnUse" gradientTransform="rotate(-65 -3054.3 -6609.8)">
    <stop offset=".32" stop-color="#9E2064"/>
    <stop offset=".63" stop-color="#C92037"/>
    <stop offset=".75" stop-color="#CD2335"/>
    <stop offset="1" stop-color="#E97826"/>
  </linearGradient>
  <path fill="url(#f)" d="M188.4 190.6c-.6 1.2-1.1 2.3-1.7 3.5-1.7 3.6-3.5 7.2-5.2 10.9-1.9 4-3.8 8.1-5.8 12.3-1 2.1-2 4.2-3 6.4-3 6.5-6 13.2-9.1 20.1-3.8 8.5-7.6 17.3-11.5 26.5-3.7 8.7-7.5 17.8-11.3 27.1-3.6 8.9-7.3 18-11 27.5-3.3 8.4-6.6 17.1-10 26-.2.4-.3.9-.5 1.3-3.3 8.8-6.7 17.9-10.1 27.2-.1.2-.2.4-.2.6l16.1-1.8c-.3-.1-.6-.1-1-.2 19.3-2.4 44.9-16.8 61.4-34.6 7.6-8.2 14.5-17.8 20.9-29.1 4.8-8.4 9.2-17.7 13.5-28.1 3.7-9 7.3-18.8 10.7-29.4-4.4 2.3-9.5 4-15.1 5.2l-3 .6c-1 .2-2 .3-3.1.5 18-6.9 29.3-20.2 37.5-36.6-4.7 3.2-12.4 7.4-21.6 9.5-1.2.3-2.5.5-3.8.7-.3 0-.6.1-1 .1 6.2-2.6 11.5-5.5 16.1-9 1-.7 1.9-1.5 2.8-2.3 1.4-1.2 2.7-2.5 4-3.8.8-.9 1.6-1.7 2.4-2.6 1.8-2.1 3.5-4.4 5-6.9.5-.8 1-1.5 1.4-2.3.6-1.2 1.2-2.3 1.7-3.4 2.5-5 4.5-9.5 6.1-13.5.8-2 1.5-3.8 2.1-5.5.2-.7.5-1.3.7-2 .6-1.9 1.2-3.6 1.6-5.1.6-2.2 1-4 1.2-5.3-.6.5-1.3 1-2.1 1.4-5.4 3.2-14.7 6.2-22.2 7.6l14.8-1.6-14.8 1.6c-.1 0-.2 0-.3.1-.7.1-1.5.2-2.3.4.1-.1.3-.1.4-.2l-50.6 5.5c.1.4 0 .6-.1.7z"/>
  <linearGradient id="g" x1="-8271.81" x2="-7732.13" y1="-765.07" y2="-765.07" gradientUnits="userSpaceOnUse" gradientTransform="rotate(-65 -3054.3 -6609.8)">
    <stop offset=".32" stop-color="#9E2064"/>
    <stop offset=".63" stop-color="#C92037"/>
    <stop offset=".75" stop-color="#CD2335"/>
    <stop offset="1" stop-color="#E97826"/>
  </linearGradient>
  <path fill="url(#g)" d="M245.4 88.4c-4.5 6.9-9.4 14.8-14.7 23.6-.3.5-.6.9-.8 1.4-4.6 7.7-9.4 16.1-14.5 25.4-4.4 8-9 16.5-13.8 25.8-4.2 8-8.4 16.5-12.9 25.5l50.6-5.5c14.7-6.8 21.3-12.9 27.7-21.8 1.7-2.4 3.4-5 5.1-7.7 5.2-8.1 10.3-17 14.8-25.9 4.4-8.6 8.3-17.1 11.2-24.7 1.9-4.9 3.4-9.4 4.5-13.4.9-3.5 1.6-6.8 2.2-10-19.6 3.3-43.7 6.5-59.4 7.3z"/>
  <path fill="#BE202E" d="M212.7 262.8c-1 .2-2 .3-3.1.5 1-.2 2-.4 3.1-.5z"/>
  <path fill="#BE202E" d="M212.7 262.8c-1 .2-2 .3-3.1.5 1-.2 2-.4 3.1-.5z" opacity=".35"/>
  <linearGradient id="h" x1="-8238.33" x2="-7698.65" y1="-745.68" y2="-745.68" gradientUnits="userSpaceOnUse" gradientTransform="rotate(-65 -3054.3 -6609.8)">
    <stop offset=".32" stop-color="#9E2064"/>
    <stop offset=".63" stop-color="#C92037"/>
    <stop offset=".75" stop-color="#CD2335"/>
    <stop offset="1" stop-color="#E97826"/>
  </linearGradient>
  <path fill="url(#h)" d="M212.7 262.8c-1 .2-2 .3-3.1.5 1-.2 2-.4 3.1-.5z"/>
  <path fill="#BE202E" d="M220.7 236.9c.3 0 .6-.1 1-.1-.3 0-.6.1-1 .1z"/>
  <path fill="#BE202E" d="M220.7 236.9c.3 0 .6-.1 1-.1-.3 0-.6.1-1 .1z" opacity=".35"/>
  <linearGradient id="i" x1="-8238.33" x2="-7698.65" y1="-747.59" y2="-747.59" gradientUnits="userSpaceOnUse" gradientTransform="rotate(-65 -3054.3 -6609.8)">
    <stop offset=".32" stop-color="#9E2064"/>
    <stop offset=".63" stop-color="#C92037"/>
    <stop offset=".75" stop-color="#CD2335"/>
    <stop offset="1" stop-color="#E97826"/>
  </linearGradient>
  <path fill="url(#i)" d="M220.7 236.9c.3 0 .6-.1 1-.1-.3 0-.6.1-1 .1z"/>
  <path fill="#B0AFB0" d="M327.7 68.1v9.6H325v-9.6h-3.4v-2.3h9.4v2.3h-3.3zm15.9 2.1l-3.2 6.5h-1.6l-3.2-6.5v7.5H333V65.8h3.6l3.1 6.5 3.1-6.5h3.6v11.9h-2.6v-7.5z"/>
</svg>
