<svg xmlns="http://www.w3.org/2000/svg" id="Layer_1" viewBox="0 0 193.8 343.5">
  <style>
    .st0{fill:#333333;} .st1{display:none;} .st2{display:inline;} .st3{fill:#CC0000;}
  </style>
  <g id="logo-black">
    <g id="test-tube_1_">
      <path id="tube_1_" d="M40.7 343.5c-5 0-10-1-14.6-2.7-19-7.5-30-29-24-48.8l2-3 99-260c2-4 1-13 0-18V6.8C105 2 110 0 118 0c9.6 0 23 3 36.5 8.2 11.5 4.4 22 10 29.2 15.4 8.6 6.5 12 12.3 10 17.3h-.2c-.6 1-1.3 2-2.2 2-4.2 4-11 10-12 13L78 321h-.3c-7 13.5-21 22-36.6 22zM9.4 290.2l-.3.7c-6 17 3 36 20 43 4 1 8 2 12 2 14 0 26-8 31-21l1-1 99-259c2-6 12-15 14-17 1 0 1 0 1-1s0-4-7-9c-6-5-16-10-27-15-13-4-26-7-34-7-6 0-8 1-8 1v1c0 2 2 15 0 22L10 290z" class="st0"/>
      <path id="liquid_1_" d="M137.5 125.6s-13.8 16-26.4 21.6c-12 5.6-21 4.2-33 10.8s-17 15.8-17 15.8L15 293.5c-5 13.5 2.3 29.3 16 34.6 13.7 6 29.2-1 34.5-15l72-187zm-46.3 69c2.2-1 4.8 0 5.7 2.3 1 2 0 4-3 5-2 1-5 0-6-2s0-5 2-6zM72.7 175c1.5-.6 3.2 0 3.8 1.5.6 1.5 0 3.2-1.5 3.8s-3.2 0-3.8-1.5 0-3.2 1.5-3.8zm-20.3 67.7c-2.2 1-4.8 0-5.7-2.2-1-2.2 0-4.8 2.2-5.7 2-1 4 0 5 2.2s0 4.7-2 5.7zm4-15.7c-1.7-4 0-9 4.2-10.8 4-1.8 9 0 10.8 4 1.8 4.2 0 9-4 11-4.3 1.7-9 0-11-4.2zM67 268.5c1.4-.6 3 0 3.7 1.5.6 1.5 0 3.2-1.5 3.8-1.5.6-3.2 0-3.8-1.5-.6-1.4 0-3 1.5-3.8z" class="st3"/>
      <ellipse id="top_1_" cx="146.9" cy="26.3" transform="rotate(-69 146.9 26.3)" class="st0" rx="7.3" ry="27.8"/>
    </g>
  </g>
  <g id="logo-black-red" class="st1">
    <g id="test-tube_2_" class="st2">
      <path id="tube_2_" d="M40.7 343.5c-5 0-10-1-14.6-2.7-19-7.5-30-29-24-48.8l2-3 99-260c2-4 1-13 0-18V6.8C105 2 110 0 118 0c9.6 0 23 3 36.5 8.2 11.5 4.4 22 10 29.2 15.4 8.6 6.5 12 12.3 10 17.3h-.2c-.6 1-1.3 2-2.2 2-4.2 4-11 10-12 13L78 321h-.3c-7 13.5-21 22-36.6 22zM9.4 290.2l-.3.7c-6 17 3 36 20 43 4 1 8 2 12 2 14 0 26-8 31-21l1-1 99-259c2-6 12-15 14-17 1 0 1 0 1-1s0-4-7-9c-6-5-16-10-27-15-13-4-26-7-34-7-6 0-8 1-8 1v1c0 2 2 15 0 22L10 290z"/>
      <path id="liquid_2_" d="M137.5 125.6s-13.8 16-26.4 21.6c-12 5.6-21 4.2-33 10.8s-17 15.8-17 15.8L15 293.5c-5 13.5 2.3 29.3 16 34.6 13.7 6 29.2-1 34.5-15l72-187zm-46.3 69c2.2-1 4.8 0 5.7 2.3 1 2 0 4-3 5-2 1-5 0-6-2s0-5 2-6zM72.7 175c1.5-.6 3.2 0 3.8 1.5.6 1.5 0 3.2-1.5 3.8s-3.2 0-3.8-1.5 0-3.2 1.5-3.8zm-20.3 67.7c-2.2 1-4.8 0-5.7-2.2-1-2.2 0-4.8 2.2-5.7 2-1 4 0 5 2.2s0 4.7-2 5.7zm4-15.7c-1.7-4 0-9 4.2-10.8 4-1.8 9 0 10.8 4 1.8 4.2 0 9-4 11-4.3 1.7-9 0-11-4.2zM67 268.5c1.4-.6 3 0 3.7 1.5.6 1.5 0 3.2-1.5 3.8-1.5.6-3.2 0-3.8-1.5-.6-1.4 0-3 1.5-3.8z" class="st3"/>
      <ellipse id="top_2_" cx="146.9" cy="26.3" transform="rotate(-69 146.9 26.3)" rx="7.3" ry="27.8"/>
    </g>
    <path id="jekyll-text_1_" d="M-462.4 158.8c4.4 3.5 12.4 1.5 17.8-4.4 5.6-6.2 6.5-14 2-17.7-4.3-3.5-12.3-1.5-17.7 4.7-5.7 6.2-6.7 13.8-2 17.4zm-13 11.5c-1.3 0-3.3 2-1.6 3 2.4.8 3.5 2.8 3.5 5.8-2 13-17 26-23 31-1.6 2 .5 5 2 4 3.2-2 10-8 15.6-15-9 21-26 47-33 56-26 37-67 71-95 71-22 0-41-15-45-37 0-2-3-3-3 1 5 31 29 42 57 42 31 0 68-22 88-45 33-37 54-80 48-104-2-9-8-11-12-10zm199 80.8c8.6-2 15.7-6 15.7-14h-1.5c0 5-5 8-10.6 9-13.2 2-39.5-13-52-29 13.3 5 40.5-2 53.3-11 11.8-8 16.5-18 17.5-25 1.5-12-12.4-20-31.6-12-12.4 5-27.2 16-42.5 37 16-27 48-70 79-98 38-34 60-27 26 9-14 15-41 34-59 42-6 3-3 6 1 4 19-8 45-26 61-41 46-44 7-78-44-31-35 32-58 66-78 110-7 8-12 15-18 20-1 1-2 1-2 2-17 15-44 34-61 35-12 0-17-8.5-15-20 3-18 22-39.3 38-47 20-9 33 9 5 24-11 5-23 8-28 8-6 0-6 2-1 2 8 .7 21-3 30-7 28-13 29-38-1-39-33-1-72 27-72 62 0 16 13 25 30 25 29-.5 55-23 76-42l9-8.2c-8 19-12 36.3-10 49 1 9 6 14 10 17 1 .6 2 0 1-2-6.5-7.3-4.7-29 4-50.3 7 14 35 32 64 26zm-34.6-61c33.6-30 47-3 25.4 14-11.2 9-33.4 15-40.4 11l-1.4-1c-1-1-1.8-3-2.4-4 5.6-6 12-13 18.6-19zm188-34c13.5 2 8-15-6-11-6 2-12 14-16.4 24-13.5 21-36.3 48-52.3 63-14 12-27.2 16-11.2-7 7-9 15-19 20-28 11-24-12-35-32-21-11 9-26 27-38 36-3 3-2 7 1 4 10-7 26-25 40-35 12-9 17-3 10 5-9 11-26 30-30 42-6 18 1 26 13 26 17 0 41-25 57-45 6-7 11-15 16-22-14 28-29 55-47 80-26 36-58 62-89 62-22 0-41-15-45-37 0-2-3-3-3 1 5 31 29 42 57 42 31 0 61-18 82-40 42-44 47-94 60-122 7-12.2 12-13 17-12.2zm171.6-43c6.2-10 6-19-8.5-19-11 1-30 8-39 15-2 2-1 4 2 2 2 0 4-2 6-2 10-5 6 6 4 11-12 22-34 52-46 67-5 8-12 15-18 21-11 11-33 30-49 36-53 20 15-71 21-79 13-16 41-43 50-57 6-11 6-19-8-19-11 1-31 8-40 15-2 2-1 4 2 2 2 0 4-1 6-2 10-5 6 6 4 11-12 22-34 52-46 67-9 13-21 26-30 33-3 3-1 6 2 3 4-2 8-7 14-12-10 20-18 47 8 50 22 3 48-19 65-35l6-6 1-1c-9 19-17 46.7 8 50 28 3.7 63-34 77-48 2.7-2.5 2-7-3-2.5-8 8-35 32.6-54 40-54 19 14.6-72 20.6-80 12.6-16 41-44 49.4-58z" class="st2"/>
  </g>
</svg>
