<svg xmlns="http://www.w3.org/2000/svg" viewBox="0 0 256 256" preserveAspectRatio="xMidYMid">
  <path fill="#3A3C5B" d="M255.76 127.76c0 70.56-57.2 127.76-127.76 127.76S.24 198.32.24 127.76 57.44 0 128 0s127.76 57.2 127.76 127.76"/>
  <path fill="#FFF" d="M217 137.2c-4.3-27.15-32.8-44.75-54.02-58.02-9.27-5.8-24.3-13.35-26.25-25.54-.8-5.04-.77-10.24-.94-15.33-.1-2-.1-4-.3-6-.3-2.5-2.9.6-4.3-1.6-3.6-5.5-2.2 1.7-1.8 4.6.8 6.9 1.8 13.7 1.7 20.7-.1 13.3-2.3 26-5.6 38.7-7.8 29.9-13.9 60.6-6.2 91.2 1.5 6.4 3.6 12.6 6.3 18.6.8 1.8 2.4 6.9 4.6 7.5 8.1 2.2 14.3 2.8 20.7 8.87 4 3.77 7.02 1.7 11.8-.2 14.42-5.8 26.93-13.03 37.2-24.93 14.34-16.7 20.3-36.3 16.8-58.2m-15.25 27.3c-1.3 11.2-8.3 21.2-15.45 29.5-5.2 6-12.22 13.8-19.9 16.56-2.8 1 .5-4.56.9-5.17 2.38-3.58 5.3-6.74 8.04-10.05 4-4.9 7.5-10.04 9.84-15.97 7.82-19.7 6.04-43.55-5.55-61.3-6.3-9.65-14.97-17.8-23.7-25.26-4.22-3.6-8.5-7-12.03-11.3-.8-1-8.07-10.5-5.8-11.9.7-.44 16.55 16.22 18.3 17.53 6.53 4.96 13.3 9.54 19.33 15.1 8.2 7.55 16.7 15.98 21.4 26.2 5.14 11.27 6 23.95 4.6 36.1"/>
  <path fill="#FFF" d="M123.3 3.44c2.37 1.6 2.9 10.84 2.9 19.3 0 8.45.8 44.93-1.85 54.7-2.64 9.78-8.72 20.62-15.33 30.14-6.6 9.5-14.27 29.6-14 42.02.26 12.42 7.4 32.77 12.94 41.23 5.58 8.48 15.03 20.32 12.95 23-3.7 4.75-18.7-11.64-26.6-21.15-7.9-9.52-15.8-28.8-16.1-43.88-.2-15.06 8.2-29.07 14.3-37.53 6.1-8.45 18-23 21.2-29.6 3.2-6.6 6.6-13.74 7.7-23 1.1-9.24 0-42.28 0-42.28s-.2-14.6 2.1-13"/>
  <path fill="#FFF" d="M116.95 19.04c2.38 1.05 2.64 3.96 2.64 6.87s-.8 14.8-1.6 26.5-10.1 21.4-16.9 28.3C94.2 87.6 74.4 109 67 119.6c-7.4 10.57-11.1 24.5-10.3 36.2.7 11.9 3.7 23.53 14.8 35.95 11.1 12.4 18.7 18.2 24.5 21.1 5.8 2.9 11.6 5 10.3 7.68-1.3 2.65-6.9.8-12.97-1.3-6.08-2.1-26.7-10.56-38.6-24.04-11.88-13.5-17.96-31.5-17.43-48.7.53-17.2 5.3-24.3 13.2-35.4 8-11.2 29.96-27.6 36.8-31.8 6.88-4.2 16.13-11.4 20.63-17.2 4.5-5.9 6.87-10.6 6.6-18.5-.26-8 .53-15.1.27-17.7-.25-2.7-.25-8 2.1-6.9m.7 207.1c1.1-.03.4 4.63-1.5 6.94-1.9 2.3-5.1 3.7-5.5 2.77-.4-.9 2.32-1.45 4.34-3.7 1.86-2.06 1.37-5.92 2.68-6m21.4-.1c-1.06-.04-.4 4.6 1.5 6.9 1.9 2.3 5.17 3.7 5.57 2.8.4-.93-2.4-1.47-4.4-3.72-1.9-2.07-1.4-5.94-2.7-6m-9.5 5.05c0 4.07.2 7.37-.7 7.37-1.1 0-.7-3.3-.7-7.35s-.4-7.4.7-7.4c.9 0 .6 3.3.6 7.37"/>
</svg>
