<svg xmlns="http://www.w3.org/2000/svg" viewBox="9 0 693 383.6">
  <defs>
    <clipPath id="a">
      <path d="M11.52 162c0-80.32 123.8-145.44 276.48-145.44 152.7 0 276.48 65.12 276.48 145.44S440.68 307.44 288 307.44c-152.7 0-276.48-65.12-276.48-145.44"/>
    </clipPath>
    <radialGradient id="b" cx="0" cy="0" r="1" fx="0" fy="0" gradientTransform="matrix(363.06 0 0 -363.06 177.52 256.31)" gradientUnits="userSpaceOnUse" spreadMethod="pad">
      <stop offset="0" stop-color="#aeb2d5"/>
      <stop offset=".3" stop-color="#aeb2d5"/>
      <stop offset=".75" stop-color="#484c89"/>
      <stop offset="1" stop-color="#484c89"/>
    </radialGradient>
    <clipPath id="c">
      <path d="M0 324h576V0H0v324z"/>
    </clipPath>
    <clipPath id="d">
      <path d="M0 324h576V0H0v324z"/>
    </clipPath>
  </defs>
  <g clip-path="url(#a)" transform="matrix(1.25 0 0 -1.25 -4.4 394.3)">
    <path fill="url(#b)" d="M11.52 162c0-80.32 123.8-145.44 276.48-145.44 152.7 0 276.48 65.12 276.48 145.44S440.68 307.44 288 307.44c-152.7 0-276.48-65.12-276.48-145.44"/>
  </g>
  <g clip-path="url(#c)" transform="matrix(1.25 0 0 -1.25 -4.4 394.3)">
    <path fill="#777bb3" d="M288 27.36c146.73 0 265.68 60.28 265.68 134.64 0 74.36-118.95 134.64-265.68 134.64-146.73 0-265.68-60.28-265.68-134.64C22.32 87.64 141.27 27.36 288 27.36"/>
  </g>
  <g clip-path="url(#d)" transform="matrix(1.25 0 0 -1.25 -4.4 394.3)">
    <path d="M161.73 145.3c12.07 0 21.08 2.23 26.78 6.62 5.7 4.34 9.6 11.86 11.6 22.35 1.9 9.8 1.2 16.65-2.1 20.35-3.4 3.77-10.7 5.7-21.9 5.7h-19.3l-10.7-55h15.7zM98.67 77.57c-.9 0-1.74.4-2.3 1.1-.58.68-.8 1.6-.64 2.47l28.33 145.75c.27 1.4 1.5 2.4 2.94 2.4h61.05c19.2 0 33.47-5.2 42.45-15.5 9.03-10.4 11.8-24.8 8.28-42.9-1.43-7.4-3.9-14.3-7.34-20.4-3.44-6.2-7.98-11.9-13.5-17-6.62-6.2-14.1-10.7-22.24-13.3-8-2.6-18.28-4-30.55-4h-24.72L133.37 80c-.28-1.4-1.5-2.42-2.95-2.42H98.67z"/>
    <path fill="#fff" d="M159.22 197.3h16.8c13.43 0 18.1-2.94 19.68-4.7 2.63-2.9 3.12-9.05 1.43-17.76-1.9-9.75-5.4-16.66-10.45-20.54-5.17-3.98-13.56-6-24.95-6H149.7l9.52 49zm28.83 35H127c-2.87 0-5.34-2.03-5.9-4.85L92.8 81.7c-.34-1.76.12-3.58 1.26-4.96 1.14-1.38 2.84-2.18 4.63-2.18h31.7c2.8 0 5.3 2.03 5.9 4.85l6.6 33.9h22.2c12.6 0 23.1 1.4 31.5 4.1 8.5 2.8 16.4 7.5 23.3 14 5.7 5.3 10.5 11.2 14 17.7 3.6 6.4 6.1 13.6 7.6 21.3 3.7 19.1.7 34.4-9 45.5-9.6 11-24.6 16.5-44.7 16.5m-45.7-90h19.3c12.8 0 22.3 2.5 28.6 7.3 6.2 4.9 10.5 12.9 12.7 24.2 2.1 10.9 1.1 18.5-2.9 23-4.1 4.5-12.1 6.7-24.2 6.7H154l-11.82-61m45.66 84c18.36 0 31.76-4.8 40.2-14.4 8.4-9.6 10.94-23.1 7.6-40.4-1.4-7.1-3.74-13.6-7.04-19.5s-7.6-11.3-12.9-16.2c-6.32-5.9-13.4-10.1-21.1-12.7-7.8-2.5-17.7-3.8-29.7-3.8h-27.2l-7.5-38.7H98.7L127 226.3h61.05"/>
    <path d="M311.58 116.3c-.9 0-1.74.4-2.3 1.1-.58.7-.8 1.6-.64 2.48l12.53 64.5c1.2 6.12.9 10.52-.83 12.38-1.05 1.14-4.23 3.05-13.6 3.05h-22.7l-15.76-81c-.28-1.4-1.5-2.4-2.95-2.4h-31.5c-.9 0-1.74.4-2.3 1.1-.58.7-.8 1.6-.64 2.5l28.3 145.8c.2 1.4 1.5 2.5 2.9 2.5h31.5c.9 0 1.7-.4 2.3-1.1.5-.7.8-1.6.6-2.5l-6.9-35.1H314c18.6 0 31.2-3.2 38.54-10 7.5-6.9 9.83-17.9 6.95-32.7L346.3 119c-.3-1.4-1.5-2.44-2.97-2.44h-32z"/>
    <path fill="#fff" d="M293.66 271.06h-31.5c-2.87 0-5.34-2.04-5.9-4.86l-28.32-145.75c-.34-1.76.12-3.58 1.26-4.96 1.14-1.4 2.84-2.2 4.63-2.2h31.5c2.88 0 5.35 2 5.9 4.8l15.28 78.6h20.3c9.4 0 11.3-2 11.4-2.1.6-.6 1.3-3.5.1-9.8l-12.5-64.5c-.3-1.8.1-3.6 1.3-5s2.9-2.2 4.7-2.2h32c2.9 0 5.4 2 5.9 4.8l13.2 67.9c3.1 15.9.5 27.8-7.8 35.5-7.9 7.3-21.2 10.8-40.6 10.8h-20.8l6.2 31.6c.3 1.8-.14 3.6-1.3 5-1.14 1.4-2.84 2.2-4.63 2.2m0-6l-7.55-38.8h28.1c17.65 0 29.83-3.1 36.53-9.2 6.7-6.2 8.7-16.2 6-30L343.8 119h-32l12.57 64.5c1.42 7.35.9 12.36-1.58 15-2.5 2.7-7.8 4-15.8 4h-25.2L265.5 119H234l28.2 146h31.5"/>
    <path d="M409.55 145.3c12.06 0 21.07 2.23 26.77 6.62 5.64 4.34 9.53 11.86 11.57 22.35 1.9 9.8 1.1 16.65-2.2 20.35-3.4 3.77-10.8 5.7-21.9 5.7h-19.3l-10.7-55h15.6zM346.5 77.57c-.9 0-1.76.4-2.33 1.1-.57.68-.8 1.6-.63 2.47l28.33 145.75c.28 1.4 1.5 2.4 2.95 2.4h61.05c19.2 0 33.47-5.2 42.45-15.5 9.02-10.4 11.8-24.8 8.28-42.9-1.44-7.4-3.9-14.3-7.34-20.4-3.44-6.2-8-11.9-13.5-17-6.63-6.2-14.12-10.7-22.25-13.3-8-2.6-18.2-4-30.5-4h-24.7L381.2 80c-.27-1.4-1.5-2.42-2.94-2.42H346.5z"/>
    <path fill="#fff" d="M407.04 197.3h16.8c13.43 0 18.1-2.94 19.67-4.7 2.7-2.9 3.2-9.05 1.5-17.76-1.9-9.75-5.4-16.66-10.4-20.54-5.1-3.98-13.5-6-24.9-6h-12.1l9.5 49zm28.83 35h-61.05c-2.88 0-5.34-2.03-5.9-4.85L340.6 81.7c-.34-1.76.12-3.58 1.26-4.96 1.14-1.38 2.84-2.18 4.63-2.18h31.7c2.8 0 5.3 2.03 5.9 4.85l6.6 33.9h22.2c12.6 0 23.2 1.4 31.5 4.1 8.5 2.8 16.4 7.5 23.3 14 5.7 5.3 10.5 11.2 14 17.7 3.6 6.4 6.1 13.6 7.6 21.3 3.7 19.1.7 34.4-9 45.5-9.6 11-24.6 16.5-44.7 16.5m-45.6-90h19.3c12.8 0 22.3 2.5 28.6 7.3 6.2 4.9 10.5 12.9 12.7 24.2 2.1 10.9 1.1 18.5-2.9 23s-12.1 6.7-24.1 6.7H402l-11.83-61m45.63 84c18.36 0 31.76-4.8 40.2-14.4 8.4-9.6 10.94-23.1 7.6-40.4-1.4-7.1-3.75-13.6-7.04-19.5-3.3-5.9-7.6-11.3-12.9-16.2-6.35-5.9-13.4-10.1-21.14-12.7-7.8-2.5-17.66-3.8-29.66-3.8h-27.2l-7.52-38.8h-31.7l28.3 145.8h61.04"/>
  </g>
</svg>
