<svg xmlns="http://www.w3.org/2000/svg" viewBox="8 0 262 200">
  <path fill="#D1A41A" d="M53.73 130c2.96 3.65 6.25 7.35 9.87 11.07-10.54 3.17-17.45 9.06-21.76 14.26-6.82 8.23-10.43 19.1-9.6 28.43H14.1c3.63-7.9 18.16-30.72 39.63-53.76zM264 188.7h-22.1c-50.63-26.4-95.08-45.04-142.3-49.1.1-6.58 1.27-14.02 3.52-22.3l-4.35-1.18c-2.32 8.52-3.53 16.23-3.67 23.13-4.92-.33-9.87-.5-14.87-.5-4.23 0-8.1.4-11.6 1.08-4.6-4.58-8.5-8.96-11.83-13.1 21.78-22.7 57.65-43.2 88.87-50.93 8.8 29.22 27.66 49.24 50.56 62.7 1.68-.95 3.33-1.95 4.95-3l39.96 43 1.75-.15c10.9-.94 17.1 4.98 18.7 6.82 1.2 1.34 1.9 2.57 2.3 3.54z"/>
  <path fill="#FFDC76" d="M244.5 44.85c.8 39.7-19.44 71.28-47.8 87.48-48.1-23.97-57.17-84.7-48.97-117.3 2.28 12.47 6.43 20.28 15.4 24.1 19.53-5.58 46.42-6.02 66.23-.56 8.25-6 11.45-15.17 13.2-23.18 2.18 9.3 1.93 29.4 1.94 29.4z"/>
  <path d="M123.46 82.43l7.34 21.75-22.3-14.95m-6.52 2.72l7.88 13.6-16.6-8.44m-9.23 5.5l3.8 13.6-11.42-7.9M205.6 139l-7.07 10.87 12.53-5.7m5.7 7.33l-11.42 8.7 15.8-4.07M189 33.48l8.43 18.5 5.44-18.77M146.3 60.4l13.33 7.07-11.97.82m1.9 6.5l8.16 3.2-6.8 1.9m93.83-14.4l-10.88 4.6 8.97 1.3m-2.44 7.3l-8.44 2.4 6.8 2.45"/>
  <path d="M141.92 99.3h26.24v3.24h-26.24zm0-7.77h26.24v3.24h-26.24zm80.14 7.77h26.24v3.24h-26.24zm0-7.77h26.24v3.24h-26.24zm-9.26-19.2h-42.75V69.4h13.3c1.65-7.02 1.98-13.72 0-17.12-.84-1.45-2-2.13-3.67-2.13-7.6 0-10.76 8.05-10.9 8.4h.02l-2.75-1.03c.16-.42 3.97-10.28 13.62-10.28 2.7 0 4.83 1.23 6.2 3.57 2.4 4.2 2.12 11.3.48 18.6h23.36c3.1-9.1 9.6-13.4 20.4-13.4v2.9c-11.7 0-15 5-17.3 10.5h12.8v2.9l-12.6.1z"/>
  <path d="M214.73 86.72h.02c-3.46-5.1-4.56-9.46-3.1-14.42l-2.98.02c-1.04 3.3-.62 8.27 1.93 12.54h-29.68c1.8-3.62 3.48-8.03 4.7-12.54h-3c-1.36 4.78-3.26 9.52-5.4 13.27l-.68 1.2 16.66 10.5-9.38 6.1 1.6 2.4 10.5-6.9 11.3 7.3 1.55-2.5-10.5-6.5 16.47-10.7zm-18.86 8.8l-12.32-7.75h24.07l-11.75 7.76z"/>
  <path d="M249.4 41.33c-.02-5.07-1.6-26.5-4.5-32.4-7.88 3-22.2 12.68-25.44 22.6-15.53-2.33-33.04-2.05-48.38.6-2.56-10.66-15.42-18.82-25.12-23.4-4.1 6.9-5.9 22.9-5.45 34.27v.03c1.8 47.7 25.2 77.4 55.8 95.4 31.5-18 54-53.06 53.1-97.12 0 .1 0 .1.1.1zm-26.2-9.2l.34.07-.34-.06zm-1.96-.33l.83.14-.83-.14zm23.26 12.97c.8 39.7-19.44 71.28-47.8 87.48-48.1-23.97-57.18-84.7-48.97-117.28 2.28 12.45 6.42 20.26 15.4 24.1 19.53-5.6 46.42-6.04 66.22-.57 8.26-6 11.46-15.17 13.2-23.18 2.2 9.32 1.94 29.45 1.95 29.45z"/>
  <path d="M265.02 182.1c-4.94-5.54-14.63-8.15-22.7-7.96-5.75-6.83-39-41.86-39-41.86l-2.32 2.9 40.16 43.24 1.75-.15c11-.93 17.2 4.98 18.8 6.82 1.2 1.3 2 2.5 2.4 3.5H242c-50.6-26.4-95.06-45.1-142.28-49.1.1-6.6 1.27-14 3.5-22.3l-4.4-1.2c-2.32 8.5-3.53 16.2-3.67 23.1-4.92-.3-9.87-.5-14.87-.5-4.23 0-8.1.4-11.6 1.1-4.6-4.6-8.5-9-11.83-13.1 21.93-22.9 58.15-43.5 89.53-51.1l-1.02-4.4c-33.8 8.1-70.78 30.3-91.4 51.7C44.4 109.9 40.6 99.3 39.5 91.3c-1.5-10.15 1-19.45 7-26.9C55.8 52.8 69.2 52 82.9 54.3c-.27 2.17.02 4.24.9 5.52 3.62 5.37 23.13 7.25 34.78 2.05-8.6-12.04-26-17.92-30.82-15.57-1.6.78-2.9 2.22-3.7 3.9-4.8-.86-9.5-1.5-12.9-1.46-12.1.08-21.4 4.3-28.3 12.93C36.1 70.12 33.4 80.6 35 92c1.53 10.8 6.87 22.3 15.83 34.2-1.48 1.6-2.92 3.2-4.3 4.74-21.85 24.44-37.82 50.65-37.82 55v2.24h28.9l-.5-2.67c-1.6-8.6 1.7-19.3 8.3-27.3 4.2-5 11.1-10.8 22-13.4 9.7 9.5 22 19.5 35.7 29.1h21.4v-2.2c0-2.5-1.2-4.7-3.5-6.2-3.4-2.2-8.6-2.53-13.4-.9-4.6-5.1-7.1-11.9-7.7-20.35 46.5 4.13 91 22.9 141.1 49.1h27.6l.4-1.8c.5-2.6-.9-6.04-3.7-9.24zM41.84 155.24c-6.82 8.23-10.43 19.1-9.6 28.43H14.08c3.65-7.9 18.18-30.7 39.65-53.76 2.96 3.7 6.25 7.4 9.87 11.1-10.54 3.2-17.45 9.1-21.76 14.3z"/>
</svg>
