<svg xmlns="http://www.w3.org/2000/svg" width="187" height="161.79">
  <g fill="#0d597f">
    <path d="M67.62 100.64v-19.6L53.5 95.14c1.52 1.07 2.95 1.94 4.3 2.65 1.35.7 2.6 1.2 3.8 1.6 1.17.42 2.26.7 3.26.9 1 .17 1.92.25 2.76.27m72.2-1.63c0 .02.15.13.4.3.26.16.63.37 1.12.57.5.2 1.12.4 1.86.57.75.17 1.62.27 2.62.27.84 0 1.77-.1 2.78-.27 1.02-.17 2.12-.45 3.3-.87 1.2-.4 2.48-.96 3.84-1.67 1.37-.72 2.83-1.6 4.37-2.68l-10.7-10.5L113.9 49 98.3 64.6l-21-21.7-52.7 52.2c1.54 1.08 3 1.96 4.36 2.68 1.37.7 2.65 1.26 3.84 1.68 1.2.4 2.3.7 3.3.87 1 .18 1.94.25 2.78.25 1 0 1.9-.1 2.64-.25.73-.15 1.35-.36 1.84-.56.5-.2.87-.4 1.1-.58.28-.2.4-.3.44-.3l23.8-23.8 8.5-8.2 23.6 23.6 8.22 8.45c.02.03.16.14.4.3.26.17.63.38 1.1.58.5.2 1.14.4 1.88.56.74.15 1.62.25 2.62.25.82 0 1.75-.1 2.76-.27 1-.2 2.12-.5 3.3-.9 1.2-.4 2.48-1 3.84-1.7 1.38-.7 2.84-1.6 4.38-2.68l-18.92-18.5 3.52-3.53 16.38 16.37 9.54 9.5M139.6.24l46.53 80.6-46.53 80.6H46.52L0 80.84 46.52.24h93.08z"/>
    <path d="M110.57 76.9l-12.4-12.36.9-.88L111.53 76l-.97.9z"/>
  </g>
</svg>
