<?xml version="1.0" standalone="no"?>
<!-- Generator: Adobe Fireworks 10, Export SVG Extension by Aaron Beall (http://fireworks.abeall.com) . Version: 0.6.1  -->
<!DOCTYPE svg PUBLIC "-//W3C//DTD SVG 1.1//EN" "http://www.w3.org/Graphics/SVG/1.1/DTD/svg11.dtd">
<svg id="atomic-host.fw-%u30DA%u30FC%u30B8%201" viewBox="0 0 1024 1024" style="background-color:#ffffff00" version="1.1"
	xmlns="http://www.w3.org/2000/svg" xmlns:xlink="http://www.w3.org/1999/xlink" xml:space="preserve"
	x="0px" y="0px" width="1024px" height="1024px"
>
	<g>
		<path id="%u6955%u5186%u5F62" d="M 0 512 C 0 229.2266 229.2266 0 512 0 C 794.7734 0 1024 229.2266 1024 512 C 1024 794.7734 794.7734 1024 512 1024 C 229.2266 1024 0 794.7734 0 512 Z" fill="#6a6a6a"/>
		<path d="M 509.6296 338.963 C 561.7778 286.8148 685.037 163.5556 751.4074 163.5556 C 775.1111 163.5556 784.5926 189.6296 784.5926 199.1111 C 784.5926 241.7778 737.1852 350.8148 713.4815 384 L 699.2593 384 C 704 355.5555 756.1481 270.2222 756.1481 237.037 C 756.1481 218.0741 746.6667 201.4815 732.4445 201.4815 C 694.5185 201.4815 533.3333 348.4445 533.3333 367.4074 C 533.3333 376.8889 637.6296 504.8889 685.037 571.2593 C 689.7778 580.7407 699.2593 590.2222 708.7407 590.2222 C 732.4445 590.2222 891.2593 557.037 891.2593 523.8519 C 891.2593 462.2222 720.5926 466.963 687.4074 452.7408 L 687.4074 440.8889 L 701.6296 440.8889 C 715.8519 440.8889 931.5555 464.5926 931.5555 530.963 C 931.5555 587.8519 756.1481 609.1852 732.4445 613.9259 C 727.7037 618.6667 722.963 618.6667 722.963 628.1481 C 722.963 642.3704 732.4445 651.8519 737.1852 666.0741 C 746.6667 685.037 784.5926 765.6296 784.5926 798.8148 C 784.5926 832 758.5185 836.7407 749.037 836.7407 C 696.8889 836.7407 597.3333 741.9259 564.1481 708.7407 L 564.1481 694.5185 C 592.5926 704 682.6667 803.5555 725.3333 803.5555 C 749.037 803.5555 746.6667 775.1111 746.6667 770.3704 C 746.6667 741.9259 699.2593 632.8889 675.5555 623.4074 C 670.8148 618.6667 666.0741 623.4074 651.8519 623.4074 C 642.3704 623.4074 519.1111 632.8889 509.6296 632.8889 C 495.4074 632.8889 400.5926 628.1481 343.7037 623.4074 C 334.2222 632.8889 272.5926 746.6667 272.5926 770.3704 C 272.5926 794.0741 286.8148 805.9259 296.2963 805.9259 C 334.2222 805.9259 419.5555 715.8519 448 696.8889 L 464.5926 696.8889 L 464.5926 711.1111 C 421.9259 753.7778 322.3704 836.7407 274.963 836.7407 C 237.037 836.7407 239.4074 808.2963 239.4074 794.0741 C 239.4074 756.1481 301.037 632.8889 301.037 628.1481 C 301.037 604.4445 87.7037 594.963 87.7037 528.5926 C 87.7037 471.7037 310.5185 438.5185 320 438.5185 C 334.2222 438.5185 329.4815 438.5185 334.2222 443.2592 C 334.2222 448 334.2222 452.7408 329.4815 452.7408 C 301.037 462.2222 135.1111 471.7037 135.1111 523.8519 C 135.1111 566.5185 301.037 590.2222 310.5185 590.2222 C 329.4815 590.2222 485.9259 367.4074 485.9259 367.4074 C 485.9259 334.2222 353.1852 234.6667 324.7408 215.7037 C 315.2592 210.963 296.2963 201.4815 286.8148 201.4815 C 258.3704 201.4815 267.8518 234.6667 267.8518 234.6667 C 267.8518 277.3333 301.037 329.4815 324.7408 376.8889 C 324.7408 376.8889 324.7408 381.6296 315.2592 381.6296 C 277.3333 381.6296 239.4074 210.963 239.4074 201.4815 C 239.4074 173.037 244.1481 163.5556 272.5926 163.5556 C 343.7037 163.5556 448 296.2963 509.6296 338.963 ZM 651.8519 592.5926 L 376.8889 592.5926 C 376.8889 592.5926 372.1482 590.2222 372.1482 580.7407 C 372.1482 566.5185 462.2222 459.8518 509.6296 402.963 C 561.7778 450.3704 613.9259 526.2222 651.8519 592.5926 Z" fill="#ffffff"/>
		<path d="M 508 402.2222 C 506.8148 402.8148 496.7408 421.1852 436.8889 492.2963 C 377.037 563.4074 361.037 591.8519 361.037 591.8519 C 361.037 591.8519 400.1482 596.5926 503.2593 596.5926 C 606.3704 596.5926 645.4815 591.8519 645.4815 591.8519 C 645.4815 591.8519 634.2222 567.5555 583.8519 497.037 C 533.4815 426.5185 509.1852 401.6296 508 402.2222 Z" fill="#6a6a6a"/>
		<path id="%u591A%u89D2%u5F62" d="M 509.6296 459.8518 L 587.8519 559.4074 L 431.4074 559.4074 L 509.6296 459.8518 Z" fill="#45d300"/>
	</g>
</svg>