<svg xmlns="http://www.w3.org/2000/svg" viewBox="0 0 1024 1024" style="background-color:#ffffff00">
  <path fill="#6a6a6a" d="M0 512C0 229.2 229.2 0 512 0s512 229.2 512 512-229.2 512-512 512S0 794.8 0 512z"/>
  <path fill="#fff" d="M509.6 339c52.2-52.2 175.4-175.4 241.8-175.4 23.7 0 33.2 26 33.2 35.5 0 43-47.4 152-71 185h-14.3C704 356 756 271 756 237c0-19-9.3-35.5-23.6-35.5-38 0-199 147-199 166 0 9.4 104.2 137.4 151.6 203.8 4.8 9.4 14.3 19 23.7 19 23.7 0 182.6-33.3 182.6-66.4 0-62-170.7-57-204-72v-11h14.3c14.3 0 230 23 230 90 0 57-175.5 78-199.2 83-4.7 4-9.4 4-9.4 14 0 14 9.4 24 14.2 38 9.5 19 47.4 99 47.4 132s-26 38-35.6 38c-52 0-151.7-95-185-128v-14c28.6 9.3 118.7 109 161.3 109 23.7 0 21.4-28.6 21.4-33 0-28.8-47.4-137.8-71-147-5-5-9.6 0-23.8 0-10 0-133 9.2-143 9.2-14 0-109-5-166-10-10 9.3-71 123-71 147 0 23.5 14 35.3 23 35.3 38 0 123-90 151.4-109h17v14C421.4 753 322 836 274.4 836c-38 0-35.6-28.4-35.6-42.6 0-38 61-161 61-166 0-23.4-213-33-213-99.4 0-57 223-90 232.3-90 14.7 0 10 0 14.7 4.8 0 4.8 0 9.5-4.8 9.5-28 9.5-194 19.2-194 71.5 0 42.5 166 66.2 175.3 66.2 19 0 175.5-222.8 175.5-222.8 0-33.2-133-132.7-161.8-151.7-9.5-4.7-28.5-14.2-38-14.2-28.4 0-19 33.2-19 33.2 0 42.6 33 94.8 56.6 142.2 0 0 0 4-9.4 4-38 0-76-170.6-76-180 0-28.6 5-38 33.4-38 71 0 175.4 132.7 237 175.4zM652 592.6H377s-5-2.4-5-12c0-14 90.2-120.7 137.6-177.6C561.8 450.4 614 526.2 652 592.6z"/>
  <path fill="#6a6a6a" d="M508 402.2c-1.2.6-11.3 19-71 90-60 71.2-76 99.7-76 99.7s39 4 142.3 4c103 0 142.2-5 142.2-5s-11.3-25-61.5-95c-51-71-75-96-76-95z"/>
  <path fill="#45d300" d="M509.6 460l78.3 99.4H431l78.2-99.5z"/>
</svg>
