<svg xmlns="http://www.w3.org/2000/svg" viewBox="0 0 256 256" preserveAspectRatio="xMidYMid">
  <path fill="#932279" d="M108 118.6l9 9.2-9 9.2H43v30.6L3.2 127.8l39.6-39v29.8h65zm28.4-78h79v79h-79v-79z"/>
  <path fill="#EFA724" d="M137.3 108l-9.2 9-9-9V43H88.5L128 3.2 167.3 43h-30v65zm-1 28.4h79v79h-79v-79z"/>
  <path fill="#262577" d="M148 137.3l-9-9.3 9.3-9h65V88.3L253 128l-39.7 39.2v-30h-65zm-107.4-1h79v79h-79v-79z"/>
  <path fill="#9CCD2A" d="M118.6 148l9.2-9.2 9.2 9.3v65h30.6L127.8 253l-39-39.6h29.8v-65zm-78-107.4h79v79h-79v-79z"/>
  <path fill="#FFF" d="M37.8 37.8h84.5v84.5H37.8V37.8zm5.6 79h73.3V43.3H43.4v73.3zm90.2-79h84.6v84.5h-84.6V37.8zm5.6 79h73.3V43.3h-73.3v73.3zm-5.6 16.8h84.6v84.6h-84.6v-84.6zm5.6 79h73.3V139h-73.3v73.3zm-101.4-79h84.5v84.6H37.8v-84.6zm5.6 79h73.3V139H43.4v73.3z"/>
  <path fill="#FFF" d="M60.2 187.8L.4 128l59.8-59.8L120 128l-59.8 59.8zM8.4 128l51.8 51.8L112 128 60.2 76 8.4 128zm119.6-8L68.2 60.2 128 .4l59.8 59.8L128 120zM76 60.2l52 51.8 51.8-51.8L128 8.4 76 60.2zm119.7 127.6L136 128l59.7-59.8 59.8 59.8-59.8 59.8zM144 128l51.7 51.8 52-51.8-52-52-51.8 52zm-16 127.5l-59.8-59.8L128 136l59.8 59.7-59.8 59.8zm-52-59.8l52 52 51.8-52L128 144l-52 51.7z"/>
</svg>
