<svg xmlns="http://www.w3.org/2000/svg" viewBox="0 0 256 256" preserveAspectRatio="xMidYMid">
  <path fill="#53A3DA" d="M128 0C57.4 0 0 57.4 0 128s57.4 128 128 128 128-57.4 128-128S198.6 0 128 0z"/>
  <path fill="#F1606D" d="M128.6 11.3c-20.4 0-37.7 32.6-44 78 0 1.3-.3 2.8-.5 4.3-.7 7-1.2 14.5-1.5 22.2-.2 3.5-.2 7-.2 10.6 0 3.5 0 7 .2 10.6.3 7.6.8 15 1.7 22.2 9.7 1.2 20 2 30.5 2.4 4.6.2 9.3.3 14 .3 4.8 0 9.5-.3 14-.5 10.8-.4 21-1.2 30.6-2.4l3.2-.4c39.8-5.6 67.5-18 67.5-32.3 0-63.6-51.6-115-115-115z"/>
  <path fill="#FFF" d="M176.2 94c-1.2-1.7-2.4-3.3-3.7-4.8-10.6-12.5-26.3-20.4-44-20.4-5.6 0-10.7 8.7-14 22.3-1.3 5.6-2.3 11.8-3 18.5-.4 5.4-.7 11-.7 17s.3 11.6.8 17c5.4.5 11 .7 17 .7s11.6 0 17-.6c11.8-1.2 22-3.4 29.2-6.4 7-3 11.3-6.7 11.3-10.6 0-12-3.4-23.2-9.7-32.4z"/>
</svg>
