<svg xmlns="http://www.w3.org/2000/svg" viewBox="-35 -70 160 250">
  <g fill="#D70751">
    <path d="M64.5 62c-4 0 .8 2.2 6.2 3 1.5-1.2 2.8-2.3 4-3.5-3.3.8-6.7 1-10.2.6m22.2-5c2.3-3 4.3-7 4.8-11-.5 3-2 6-3.4 8-7 5 0-3 0-6-8 11-1 6-1 9m8-21c1-7-1-5-2-2 1 1 2 6 2 3M49-66c2 .4 4.8.7 4.5 1.3 2.4-.5 3-1-4.4-1.2m4 2h-1 1"/>
    <path d="M122 38c.2 6.8-2 10-4 15.7l-3.6 1.8c-3 5.7.3 3.6-1.8 8C108 67.7 98.8 76.3 95.8 77c-2 0 1.5-2.4 2-3.4-6 4.2-5 6.3-14.2 9l-.3-.7c-23 10-55-11-54.5-40-.3 2-.7 1-1.2 2-1.2-15 7-30 20.6-37C61.7 0 77.4 3 87 12 81.7 5 71.2-2 58.8-1.3 46.5-1 35 7 31.3 15.4c-6.2 4-7 15.2-9.7 17.3-3.6 27 7 38.4 24.8 52 2.8 2 .8 2.3 1.2 3.8-6-2.8-11.4-7-16-12.2 2.5 3.5 5 7 8.4 9.5-5.6-2-13-13.7-15.3-14 9.6 17 39 30 54.6 24C72 96 63 96 55 93c-3.3-1.7-8-5.3-7-6 21 8 42.7 6 61-8.6 4.6-3.7 9.7-9.8 11-10-2 3.4.5 1.7-1.2 4.6 4.7-7.4-2-3 4.8-12.8l2.5 3.4c0-6.2 8-13.7 7-23.5 2-3 2 4 0 11 3-7 1-9 2-15 1 2 2 4 3 7-2-7 2-12 3-17-1 0-3 4-3-5 0-4 1-2 2-3-1 0-3-3-4-9 1-1 3 4 4 4 0-4-2-8-2-11-3-7-1 1-4-3-3-11 3-2 4-7 6 8 9 21 10 26-2-7-4-13-6-19 2 1-3-13 2-4-5-19-22-37-38-45 2 2 5 4 4 5-8-5-7-5-8-7-6-2-7 0-11 0-13-9-16-8-27-12l1 2c-8-2-9 1-18 0l6-2c-7.3 1-7-1-15 1 1-1 3-2 5-3-7 1-15 4-13 1C19-62 1-55-9-46l-1-2c-5 5.4-21 16.4-22 24h-1c-3 4-4 8.7-6 13-3 5.4-5 2-5 3-6 12.6-9.2 23-12 32 2 3 0 17 1 28.7C-56 109-13 164 34 177c6.8 2.3 17 2.2 25.7 2.5-10.2-3-11.6-1.6-21.6-5-7-3.5-8-7.4-13-11.8l2 3.6c-10-3.6-6-4.4-14-7l2-2.8c-3-.2-8-5.5-10-8.4l-3 1c-5-5-7-9-7-12l-1 2c-1-2-16-20-8-16-1-1-3-2-5-5l2-2c-4-4-7-10-6-12 2 3 3 3 5 4-9-22-9-1-16-23h2l-3-5 1-6c-6-8-1-32-1-46 1-5 6-11 10-20h-3c3-8 23-31 32-30 4-6-2 0-2-2 10-11 13-8 19-10 7-4-6 2-3-1 13-3 9-7 25-8.6 2 1-4 1.7-5 3 10.7-5 33-4 47.7 3 17 8 36 31 37 53l1 .3c0 9 1 19-2 28l2-4"/>
    <path d="M19.5 67.7l-.6 3c2 3.6 4 7.6 8 10.5-3-5-5-7-8-13.5m6-.2C24 66 23 64 22 62c1 3.4 2.8 6.3 4.6 9.2l-1-3.7M139 42.8l-.5 1.5c-1 8-3.5 15.7-7.2 23 4-7.7 6.7-16 7.8-24.5m-89-111c3-1 7-.6 10-1.3-4 .3-7 .5-11 1l2 .3m-98 52c1 6-4 8.3 1 4.4 3-6.8-1-2-1-4.4m-7 27.6c2-4 2-6.4 2-8.7-3 4.6-1 5.6-2 8.7"/>
  </g>
</svg>
