<svg xmlns="http://www.w3.org/2000/svg" viewBox="0 0 267 267" xmlns:xlink="http://www.w3.org/1999/xlink" version="1">
  <path fill="#294172" d="M266.63 133.5C266.63 60 207.03.4 133.5.4 60 .38.43 59.93.37 133.4v103.03c.04 16.7 13.58 30.2 30.27 30.2h102.9c73.5-.03 133.1-59.62 133.1-133.12"/>
  <path id="a" fill="none" stroke="#3c6eb4" stroke-width="29.21" d="M77.13 142.1h47.84v47.84c0 26.4-21.43 47.85-47.84 47.85-26.4 0-47.85-21.5-47.85-47.9s21.44-47.85 47.85-47.85z"/>
  <use transform="rotate(180 124.856 142.144)" xlink:href="#a"/>
  <path id="b" fill="#fff" d="M139.6 127.53v62.35c0 34.5-27.97 62.48-62.47 62.48-5.24 0-8.96-.6-13.8-1.86-7.07-1.85-12.85-7.64-12.85-14.38 0-8.15 5.9-14.07 14.75-14.07 4.2 0 5.73.8 11.9.8 18.2 0 32.94-14.73 32.98-32.92v-28.66c0-2.57-2.03-4.65-4.6-4.65H83.8c-8.07 0-14.6-6.44-14.6-14.53 0-8.2 6.6-14.6 14.76-14.6"/>
  <use transform="rotate(180 124.856 142.144)" xlink:href="#b"/>
  <path fill="#3c6eb4" d="M243.65 243.58v-5.53l-2.52 5.8-2.47-5.8v5.53h-1.4v-8.73h1.47l2.44 5.58 2.4-5.58h1.5v8.73h-1.42zm-10.33-7.27v7.3h-1.48v-7.24h-2.5v-1.45h6.46v1.46"/>
</svg>
