<svg xmlns="http://www.w3.org/2000/svg" viewBox="0 0 168 168">
  <path fill="#73ba25" d="M83.8.3C37.6.3 0 37.7 0 84c0 46 37.6 83.6 83.8 83.6 46.2 0 83.6-37.5 83.6-83.7C167.4 37.6 130 .2 83.8.2zm.4 11.6c39.8 0 72 32 72 72 0 39.7-32.2 72-72 72-21.5 0-40.8-9.4-54-24.3 5.4-4.2 14.5-3.2 25.7-2 5.3.7 11.4 1.4 17.7 1.5 17.6 0 36.6-3 48.3-8.2 7.5-3.3 12.4-5.5 15.4-8.3 1-1 1.7-2.4 2.3-4l.4-1c.5-1.2 1.2-4 1.6-5.4 0-.6.2-1.3-.3-1.7l-1.6.3c-5.2 3-18 9-30 9-15 .4-45-15-48-16.5l-.3-.4-6.2-14.6c21.6 14.3 39.5 22 53.2 23.4 15.3 1.3 27.2-7 32.3-10.6l2-1.3.4-.7c-.8-5.3-8.8-31.3-14.8-37.5-1.7-1.7-3-3.4-5.7-5C100.7 36 48.8 28.4 46.5 28l-.5.2v.3l-.4 12C44 40 38.4 38 30.6 36 40.7 23 56.5 12 84 12zm19 38h1c12.4.5 22 10.8 21.6 23-.3 6-2.8 11.3-7 15.4-4.4 4-10 6-16 6-12.2-.5-21.8-10.8-21.4-23 .2-6 2.7-11.4 7-15.4 4-3.8 9.3-6 14.8-6zm-.6 6.6c-3.5.2-7 1.6-9.5 4-3 3-4.7 6.7-4.8 10.8-.3 8.6 6.4 15.7 15 16 4 .2 8-1.3 11-4 3-3 4.8-6.7 5-11 .2-8.4-6.5-15.5-15-15.8h-1.6zm4 7.7c4 0 7 2 7 4.6 0 2.4-3 4.5-7 4.5-3.7 0-6.8-2-6.8-4.6 0-2.7 3-4.7 7-4.7z"/>
</svg>
