<svg xmlns="http://www.w3.org/2000/svg" viewBox="0 0 273 273" style="background-color:#ffffff00">
  <path fill="#80bb01" d="M0 0l273 38v195L0 273V0z"/>
  <path fill="#fff" d="M47 161c8.5 0 15-2.4 19.8-7 4.8-5 7.2-11 7.2-18.7 0-8-2.2-14-6.7-18C63 113 56.3 111 48 111H35v50h12zm-.2-47c15.5 0 23.2 7 23.2 21.4 0 7.3-2 13-6.2 16.8-4 4-10 5.8-17.7 5.8h-8v-44h9zm40.5 1.3c.5-.5.7-1.2.7-2 0-.6-.3-1.2-.8-1.6-.5-.5-1-.7-1.7-.7s-1.2.2-1.7.7c-.5.4-.8 1-.8 1.7 0 .8.3 1.4.8 2 .5.4 1 .6 1.7.6s1.3-.3 1.8-.8zM87 161v-36h-3v36h3zm29-36.3c-1-.5-2.3-.7-3.6-.7-2.4 0-4.5.8-6.3 2.3-1.4 1.5-3 3.7-4 6.5V125h-3v36h3v-17c0-5.4 1-9.6 3-12.6s4.6-4.4 7.5-4.4c1.4 0 2.7.4 3.8 1.2v-3.5zm32 18.3v-1.4c0-5.5-1.2-9.8-3.6-13-2.4-3-5.8-4.6-10.3-4.6-4.4 0-8.2 1.8-11.2 5.4-3 3.7-4.5 8-4.5 13.4 0 6 1.5 10.8 4.4 14.2 2.8 3.3 6.6 5 11.2 5s8.7-1.3 12.4-4v-3.4c-4 3-8 4.4-12 4.4s-7.2-1.4-9.5-4.2c-2.5-3-3.6-6.8-3.6-11.8h27zm-27-3c.5-4.2 2-7.4 4.3-9.6 2.2-2.3 5.2-3.4 8.7-3.4 3.3 0 6 1 8 3.4 1.8 2.3 2.8 5.5 3 9.6h-24zm59 16c-3 2-6 3-9.7 3-4 0-7.2-1.4-9.6-4.3-2.5-2.8-3.7-6.6-3.7-11.3 0-4.8 1.3-8.8 4-11.8 2.6-3 6-4.6 10.4-4.6 3 0 6 .8 8.6 2.4v-3.7c-2.6-1-5.2-1.7-8-1.7-5.3 0-9.6 1.8-13 5.5-3.3 3.7-5 8.4-5 14s1.5 10 4.5 13.4c3 3 7 5 11.8 5 3.7 0 7-1 9.6-2.8V156zm23 1.7c-1.6 1-3.2 1.3-4.6 1.3-2 0-3.3-.5-4.2-1.7-.8-1-1.2-3-1.2-5.4v-24h10v-3h-10v-10l-1.5.2-1.5.5v9h-6.5v3h6.5V152c0 6.5 2.7 9.7 8.2 9.7 1.5 0 3-.5 4.8-1.3v-3zm39 3.3l-15.5-25.3 15.2-24.7h-4l-11.4 18.8-1.8 3.3h-.2l-1.8-3-11.3-19H207l15 25-16 25h4.2l12-19 2-3.3 2 3.5 11.6 19h4.2z"/>
</svg>
