<?xml version="1.0" standalone="no"?>
<!-- Generator: Adobe Fireworks 10, Export SVG Extension by Aaron Beall (http://fireworks.abeall.com) . Version: 0.6.1  -->
<!DOCTYPE svg PUBLIC "-//W3C//DTD SVG 1.1//EN" "http://www.w3.org/Graphics/SVG/1.1/DTD/svg11.dtd">
<svg id="Untitled-%u30DA%u30FC%u30B8%201" viewBox="0 0 273 273" style="background-color:#ffffff00" version="1.1"
	xmlns="http://www.w3.org/2000/svg" xmlns:xlink="http://www.w3.org/1999/xlink" xml:space="preserve"
	x="0px" y="0px" width="273px" height="273px"
>
	<g id="%u80CC%u666F">
		<g>
			<path d="M 0 0 L 273 38 L 273 233 L 0 273 L 0 0 Z" fill="#80bb01"/>
			<g>
				<path d="M 47.1094 161 C 55.5 161 62.0781 158.625 66.8438 153.875 C 71.6094 149.125 74 142.9219 74 135.2969 C 74 127.375 71.7656 121.3438 67.3281 117.2031 C 62.8906 113.0781 56.4063 111 47.875 111 L 35 111 L 35 161 L 47.1094 161 L 47.1094 161 ZM 46.8438 114 C 62.2813 114 70 121.1406 70 135.4219 C 70 142.7344 67.9375 148.3125 63.8125 152.1875 C 59.6875 156.0625 53.7969 158 46.125 158 L 38 158 L 38 114 L 46.8438 114 L 46.8438 114 Z" fill="#ffffff"/>
				<path d="M 87.25 115.25 C 87.75 114.75 88 114.1406 88 113.4375 C 88 112.6875 87.7344 112.0938 87.2344 111.6563 C 86.7188 111.2188 86.125 111 85.4688 111 C 84.8438 111 84.2656 111.2344 83.7656 111.6719 C 83.25 112.125 83 112.7188 83 113.4375 C 83 114.1875 83.25 114.7969 83.75 115.2813 C 84.25 115.7656 84.8125 116 85.4688 116 C 86.1563 116 86.75 115.75 87.25 115.25 L 87.25 115.25 ZM 87 161 L 87 125 L 84 125 L 84 161 L 87 161 L 87 161 Z" fill="#ffffff"/>
				<path d="M 116 124.6563 C 114.9219 124.2188 113.7031 124 112.3594 124 C 109.9844 124 107.8906 124.7813 106.0938 126.3125 C 104.2813 127.8438 102.9688 130 102.1406 132.75 L 102 132.75 L 102 125 L 99 125 L 99 161 L 102 161 L 102 143.9844 C 102 138.5625 102.9688 134.375 104.9219 131.4219 C 106.8594 128.4844 109.2813 127 112.1563 127 C 113.625 127 114.9063 127.3906 116 128.1563 L 116 124.6563 L 116 124.6563 Z" fill="#ffffff"/>
				<path d="M 148 143 L 148 141.5625 C 148 136.125 146.7969 131.8438 144.4063 128.7031 C 142.0156 125.5781 138.5938 124 134.125 124 C 129.3438 124 125.4531 125.8125 122.4688 129.4375 C 119.4844 133.0625 118 137.5 118 142.7813 C 118 148.9063 119.4219 153.6406 122.2813 156.9844 C 125.1406 160.3281 128.8906 162 133.5313 162 C 138.1094 162 142.2656 160.6875 146 158.0313 L 146 154.5781 C 142.0781 157.5313 138.0625 159 133.9531 159 C 129.8906 159 126.6875 157.5938 124.3594 154.7656 C 122.0156 151.9375 120.8594 148.0156 120.8594 143 L 148 143 L 148 143 ZM 121 140 C 121.5313 135.8125 122.9375 132.6094 125.25 130.3594 C 127.5469 128.125 130.4531 127 133.9531 127 C 137.3281 127 139.9688 128.1406 141.8906 130.4219 C 143.8125 132.7031 144.8438 135.8906 145 140 L 121 140 L 121 140 Z" fill="#ffffff"/>
				<path d="M 179.8594 156.125 C 177.1406 158.0469 173.9531 159 170.2969 159 C 166.2969 159 163.0938 157.5781 160.6563 154.7344 C 158.2188 151.8906 157 148.1094 157 143.4219 C 157 138.5781 158.3281 134.625 160.9844 131.5781 C 163.6406 128.5313 167.125 127 171.4063 127 C 174.5156 127 177.375 127.7969 180 129.3906 L 180 125.7188 C 177.4219 124.5781 174.7656 124 172.0313 124 C 166.75 124 162.4219 125.8438 159.0469 129.5 C 155.6719 133.1719 154 137.8906 154 143.6406 C 154 149.1094 155.4844 153.5469 158.4844 156.9219 C 161.4844 160.3125 165.4219 162 170.3125 162 C 174 162 177.1875 161.1563 179.8594 159.5 L 179.8594 156.125 L 179.8594 156.125 Z" fill="#ffffff"/>
				<path d="M 203 157.7031 C 201.375 158.5781 199.8438 159 198.4375 159 C 196.4688 159 195.0625 158.4531 194.2344 157.3281 C 193.4063 156.2031 193 154.3906 193 151.8906 L 193 128 L 203 128 L 203 125 L 193 125 L 193 115 C 192.5156 115.1875 192.0156 115.3438 191.5 115.5 C 190.9688 115.6875 190.4688 115.875 190 116.0469 L 190 125 L 183.5313 125 L 183.5313 128 L 190 128 L 190 152.3594 C 190 158.7969 192.7188 162 198.1563 162 C 199.6563 162 201.2813 161.5781 203 160.7656 L 203 157.7031 L 203 157.7031 Z" fill="#ffffff"/>
				<path d="M 242 161 L 226.4688 135.7188 L 241.6563 111 L 237.5938 111 L 226.3438 129.7969 L 224.4688 133.1406 L 224.3281 133.1406 C 223.6875 131.8906 223.0781 130.7656 222.4844 129.7969 L 211.1563 111 L 206.9531 111 L 222 135.7969 L 206 161 L 210.2031 161 L 222.0625 141.9219 C 222.7656 140.8906 223.4375 139.7188 224.0781 138.4375 L 224.25 138.4375 C 224.7656 139.5781 225.3906 140.7344 226.125 141.9219 L 237.7656 161 L 242 161 L 242 161 Z" fill="#ffffff"/>
			</g>
		</g>
	</g>
	<g id="%u30EC%u30A4%u30E4%u30FC%201">
	</g>
</svg>