<svg xmlns="http://www.w3.org/2000/svg" baseProfile="basic" viewBox="0 0 592.2 583.9">
  <path fill="#393939" d="M71.5 573.4v-56.9L48 573.4h-3.5l-23.4-56.9v56.9h-8.6v-69.1h12.3l21.4 52 21.5-52H80v69.1h-8.5zm50.5 1.3c-5.1 0-9.8-.9-14-2.7-4.2-1.8-7.8-4.3-10.8-7.5-3-3.2-5.3-7-7-11.4-1.7-4.3-2.5-9.1-2.5-14.2s.8-9.8 2.5-14.2c1.7-4.4 4-8.1 7-11.4 3-3.2 6.6-5.7 10.8-7.5 4.2-1.8 8.9-2.7 14-2.7s9.8.9 14 2.7c4.2 1.8 7.8 4.3 10.8 7.5 3 3.2 5.3 7 7 11.4 1.7 4.3 2.5 9.1 2.5 14.2s-.8 9.8-2.5 14.2c-1.7 4.4-4 8.1-7 11.4-3 3.2-6.6 5.7-10.8 7.5-4.3 1.8-8.9 2.7-14 2.7zm0-7.7c3.9 0 7.3-.7 10.5-2.1 3.1-1.4 5.8-3.4 8-5.9 2.2-2.5 3.9-5.5 5.1-8.9 1.2-3.4 1.8-7.1 1.8-11.1s-.6-7.7-1.8-11.2c-1.2-3.4-2.9-6.4-5.1-8.9-2.2-2.5-4.9-4.4-8-5.8-3.1-1.4-6.6-2.1-10.5-2.1-3.9 0-7.4.7-10.5 2.1-3.1 1.4-5.8 3.4-8 5.8-2.2 2.5-3.9 5.5-5.1 8.9-1.2 3.5-1.8 7.2-1.8 11.2 0 4 .6 7.7 1.8 11.1 1.2 3.4 2.9 6.4 5.1 8.9 2.2 2.5 4.9 4.5 8 5.9 3.1 1.4 6.6 2.1 10.5 2.1zm90.8 6.4l-40.3-55.1v55.1h-8.6v-69.1h8.8l39.8 54v-54h8.6v69.1h-8.3zm50.5 1.3c-5.1 0-9.8-.9-14-2.7-4.2-1.8-7.8-4.3-10.8-7.5-3-3.2-5.3-7-7-11.4-1.7-4.3-2.5-9.1-2.5-14.2s.8-9.8 2.5-14.2c1.7-4.4 4-8.1 7-11.4 3-3.2 6.6-5.7 10.8-7.5 4.2-1.8 8.9-2.7 14-2.7s9.8.9 14 2.7c4.2 1.8 7.8 4.3 10.8 7.5 3 3.2 5.3 7 7 11.4 1.7 4.3 2.5 9.1 2.5 14.2s-.8 9.8-2.5 14.2c-1.7 4.4-4 8.1-7 11.4-3 3.2-6.6 5.7-10.8 7.5-4.2 1.8-8.9 2.7-14 2.7zm0-7.7c3.9 0 7.3-.7 10.5-2.1 3.1-1.4 5.8-3.4 8-5.9 2.2-2.5 3.9-5.5 5.1-8.9 1.2-3.4 1.8-7.1 1.8-11.1s-.6-7.7-1.8-11.2c-1.2-3.4-2.9-6.4-5.1-8.9-2.2-2.5-4.9-4.4-8-5.8-3.1-1.4-6.6-2.1-10.5-2.1-3.9 0-7.4.7-10.5 2.1-3.1 1.4-5.8 3.4-8 5.8-2.2 2.5-3.9 5.5-5.1 8.9-1.2 3.5-1.8 7.2-1.8 11.2 0 4 .6 7.7 1.8 11.1 1.2 3.4 2.9 6.4 5.1 8.9 2.2 2.5 4.9 4.5 8 5.9 3.1 1.4 6.6 2.1 10.5 2.1z"/>
  <path fill="#E73C00" d="M340.6 574.8c-5 0-9.8-.8-14.2-2.5-4.4-1.7-8.4-4.1-11.7-7.2-3.3-3.1-6-6.9-7.9-11.3-1.9-4.4-2.9-9.4-2.9-14.8s1-10.4 2.9-14.8 4.6-8.2 7.9-11.3c3.4-3.1 7.3-5.5 11.7-7.1 4.4-1.7 9.2-2.5 14.2-2.5 3.6 0 6.9.4 9.8 1.2 2.9.8 5.6 2 7.9 3.4 2.4 1.4 4.4 3.1 6.2 4.9 1.8 1.9 3.4 3.8 4.7 5.9l-12.2 6.6c-1.6-2.4-3.8-4.5-6.6-6.3-2.8-1.8-6.1-2.7-9.8-2.7-3.1 0-6 .6-8.7 1.7-2.7 1.1-4.9 2.7-6.9 4.8-1.9 2-3.4 4.4-4.5 7.2s-1.6 5.8-1.6 9c0 3.3.5 6.3 1.6 9.1s2.6 5.2 4.5 7.2 4.2 3.6 6.9 4.7 5.6 1.7 8.7 1.7c3.1 0 6-.6 8.7-1.7 2.6-1.1 4.7-2.3 6.1-3.7v-8.4h-18.2V535h32.9v26.6c-3.5 4-7.7 7.1-12.6 9.5-5 2.5-10.6 3.7-16.9 3.7zm85.5-1.4l-4.2-11.7h-29.6l-4.3 11.7h-16.8l26.7-69.1h18.4l26.6 69.1h-16.8zM407 519.1l-10.8 29.7h21.5L407 519.1zm99.8 54.3V525l-19.5 48.4h-6.4L461.4 525v48.4h-14.7v-69.1h20.6l16.8 41.7 16.8-41.7h20.7v69.1h-14.8zm25.9 0v-69.1h48.9v12.9h-34.2v14.6h33.5v12.9h-33.5v15.6h34.2v12.9h-48.9zm-10.9-360.6v-61.4c0-73.2-59.5-132.7-132.7-132.7-35.7 0-68.2 14.2-92.1 37.3-23.9-23-56.4-37.3-92.1-37.3-73.2 0-132.7 59.6-132.7 132.7v184.2c0 73.2 59.5 132.7 132.7 132.7h184.2c73.2 0 132.7-59.5 132.7-132.7v-89.2H256.4v81.2h184.2v8c0 28.4-23.1 51.5-51.5 51.5H204.9c-28.4 0-51.5-23.1-51.5-51.5V151.4c0-28.4 23.1-51.5 51.5-51.5s51.5 23.1 51.5 51.5v61.4h81.2v-61.4c0-28.4 23.1-51.5 51.5-51.5s51.5 23.1 51.5 51.5v61.4h81.2z"/>
</svg>
