<svg xmlns="http://www.w3.org/2000/svg" viewBox="0 0 256 228" preserveAspectRatio="xMidYMid">
  <path fill="#3498DB" d="M74 0C67 0 60 4 56.6 10l-54 94c-3.6 6-3.6 13.8 0 19.8l54 94c3.5 6 10.3 10 17.2 10h108c7 0 13.8-4 17.3-10l54-94c3.6-6 3.6-13.8 0-19.8l-54-94C195.8 4 189 0 182 0H74zm.8 55H94a2.5 2.5 0 0 1 2 1.2l31.7 56.5c.2.3.3.6.3 1 0-.4 0-.7.3-1L160 56.2a2.5 2.5 0 0 1 2-1.2h18.7c1.6 0 3 2 2 3.6L152 114l30.8 55c1 1.6-.4 3.8-2 3.8H162a2.5 2.5 0 0 1-2-1.3L128.2 115c-.2-.3-.3-.6-.3-1a2.4 2.4 0 0 1-.3 1L96 171.5a2.5 2.5 0 0 1-2 1.3H75.3c-1.7 0-3-2.2-2-3.7l30.8-55-30.8-55.4c-.8-1.4 0-3.3 1.6-3.6z"/>
</svg>
