<?xml version="1.0" encoding="UTF-8" standalone="no"?>
<svg xmlns:dc="http://purl.org/dc/elements/1.1/" xmlns:cc="http://creativecommons.org/ns#" xmlns:rdf="http://www.w3.org/1999/02/22-rdf-syntax-ns#" xmlns:svg="http://www.w3.org/2000/svg" xmlns="http://www.w3.org/2000/svg" xmlns:sodipodi="http://sodipodi.sourceforge.net/DTD/sodipodi-0.dtd" width="220" height="220" id="svg3730" version="1.1" sodipodi:docname="Neues Dokument 4">
  <g id="layer1" transform="translate(43.22928,-382.06869)">
    <g transform="matrix(0.55487813,0,0,0.55487813,727.78246,-528.61522)" id="g3691">
      <g transform="translate(-1454.0032,1285.7358)" id="g3672">
        <path style="fill:#8c9da7;fill-opacity:1;stroke:none" d="m 456.74457,468.41489 -68.33491,0 -207.90847,274.85837 71.35524,0 204.88814,-274.85837 z" id="path3648" sodipodi:nodetypes="ccccc"/>
        <g id="g3666" style="fill:#f4793b;fill-opacity:1" transform="translate(367.19122,-213.65852)">
          <path transform="matrix(1.0485437,0,0,1.0485437,-7.6630389,153.27668)" d="m -114.33557,517.21851 c 0,7.66983 -6.21762,13.88745 -13.88745,13.88745 -7.66983,0 -13.88746,-6.21762 -13.88746,-13.88745 0,-7.66983 6.21763,-13.88746 13.88746,-13.88746 7.66983,0 13.88745,6.21763 13.88745,13.88746 z" sodipodi:ry="13.887457" sodipodi:rx="13.887457" sodipodi:cy="517.21851" sodipodi:cx="-128.22302" id="path3652" style="fill:#f4793b;fill-opacity:1;fill-rule:nonzero;stroke:none" sodipodi:type="arc"/>
          <path sodipodi:type="arc" style="fill:#f4793b;fill-opacity:1;fill-rule:nonzero;stroke:none" id="path3654" sodipodi:cx="-128.22302" sodipodi:cy="517.21851" sodipodi:rx="13.887457" sodipodi:ry="13.887457" d="m -114.33557,517.21851 c 0,7.66983 -6.21762,13.88745 -13.88745,13.88745 -7.66983,0 -13.88746,-6.21762 -13.88746,-13.88745 0,-7.66983 6.21763,-13.88746 13.88746,-13.88746 7.66983,0 13.88745,6.21763 13.88745,13.88746 z" transform="matrix(1.2891259,0,0,1.2891259,58.405347,62.65572)"/>
          <path id="path3656" transform="translate(0,152.36224)" d="M -68.46875,596.625 C -80.366665,596.625 -90,606.28958 -90,618.1875 c 0,4.57472 1.443358,8.79283 3.875,12.28125 l -0.03125,0 c 0,0 37.084152,55.40298 54.5,83.8125 15.953798,26.02456 24.6776696,53.81487 45.78125,79.3125 5.268348,6.36529 13.372185,10.41969 21.34375,12.59375 12.631866,3.44505 39.28125,0 39.28125,0 0,0 -22.07759,-56.80237 -56.0625,-110.21875 -22.6571853,-35.61183 -60.788831,-80.19138 -69.96875,-90.78125 -0.103183,-0.11903 -0.06045,-0.0771 -0.15625,-0.1875 -0.558941,-0.72147 -1.136874,-1.41812 -1.78125,-2.0625 -0.03135,-0.0313 -0.06221,-0.0626 -0.09375,-0.0937 -3.890849,-3.8434 -9.25513,-6.21875 -15.15625,-6.21875 z" style="fill:#f4793b;fill-opacity:1;fill-rule:nonzero;stroke:none"/>
          <path sodipodi:nodetypes="cscsssscssc" id="path3658" transform="translate(0,152.36224)" d="m -299.0625,422.6875 c 0,0 44.62849,35.47395 65.00102,52.88409 20.90064,17.86146 45.72329,41.42193 50.65523,46.39716 0.49838,0.63418 1.06572,1.20561 1.6875,1.71875 0.0744,0.0614 0.14275,0.128 0.21875,0.1875 1.89993,1.48744 4.30626,2.375 6.90625,2.375 6.18054,0 11.1875,-5.00696 11.1875,-11.1875 0,-3.70932 -1.81452,-6.99507 -4.59375,-9.03125 0,0 -0.49584,-0.31933 -0.53125,-0.34375 -1.52504,-1.05159 -28.09817,-19.7274 -51.77318,-34.98034 -25.67213,-16.53961 -78.75807,-48.01966 -78.75807,-48.01966 z" style="fill:#f4793b;fill-opacity:1;fill-rule:nonzero;stroke:none"/>
        </g>
      </g>
    </g>
  </g>
</svg>