<svg xmlns="http://www.w3.org/2000/svg" viewBox="0 0 220 220" width="220" height="220">
  <path fill="#8c9da7" d="M217.7 62.7h-38L64.4 215.2H104L217.7 62.7z"/>
  <path fill="#f4793b" d="M97.2 70.2c0 4.4-3.6 8-8 8-4.6 0-8.2-3.6-8.2-8 0-4.5 3.6-8 8-8 4.6 0 8.2 3.5 8.2 8zM118.6 89c0 5.4-4.5 10-10 10-5.4 0-10-4.6-10-10 0-5.6 4.6-10 10-10 5.5 0 10 4.4 10 10zM130 99.8c-6.6 0-12 5.3-12 12 0 2.5.8 4.8 2.2 6.8 0 0 20.5 30.7 30.2 46.5 9 14.7 13.7 30 25.4 44 3 3.8 7.4 6 11.8 7 7 2 21.8 0 21.8 0s-12.2-31.3-31-61c-12.6-20-33.8-44.4-39-50.3-.3-.5-.6-1-1-1.2-2.2-2.2-5.2-3.5-8.4-3.5zM2 3.3S26.8 23 38 32.6c11.7 10 25.5 23 28.2 25.8l1 1c1 .8 2.4 1.3 4 1.3 3.3 0 6-2.7 6-6.2 0-2-1-4-2.5-5l-.3-.2c-.8-.6-15.5-11-28.7-19.4C31.5 20.4 2 3 2 3z"/>
</svg>
