<svg xmlns="http://www.w3.org/2000/svg" viewBox="0 0 256 315" preserveAspectRatio="xMinYMin meet">
  <path fill="#1A1918" d="M67.52 313.86c-.55 0-1.13-.13-1.54-.68L48.6 290.32v23.32h-3.96v-28.72c0-1.14.94-2.06 2.02-2.06.63 0 1.17.18 1.58.73l17.34 22.8v-23.2h3.96v28.6c0 1.2-.94 2-2.02 2m32.8.3c-3.98 0-8.12-.9-12-2.3l.95-3.3c3.56 1.1 7.43 2 11.04 2 5 0 7.7-1.8 7.7-4.3 0-2.3-2-3.5-9-6.7-7-3.3-9.7-5.4-9.7-9.5 0-5.2 4-7.3 11.5-7.3 3.1 0 7.88.6 10.63 1.4l-.63 3.33c-3.05-.74-6.8-1.24-9.9-1.24-5.3 0-7.47 1-7.47 3.5s1.56 3.53 8.94 6.96c7.8 3.63 9.78 5.46 9.78 9.2 0 5.45-5.1 8.15-11.7 8.15m30.5-30.97h4.1v30.47h-4.1v-30.4zm38.98 16.67h-10.2v10.35h10.16c3.45 0 5.56-2.2 5.56-5.28 0-2.88-2.2-5.07-5.57-5.07m-2-13.2h-8.2v9.74h8.2c3.24 0 5.63-2.1 5.63-5 0-2.87-2.03-4.7-5.63-4.7m2 27h-12.3a2.04 2.04 0 0 1-2.04-2.08v-26.3c0-1.1.9-2.07 2.06-2.07h10.1c6.2 0 9.9 3.1 9.9 7.9 0 2.6-1.54 5-3.9 6.4 3.48 1.1 5.8 3.95 5.8 7.4 0 4.9-4 8.75-9.7 8.75m29.4 0c-1.1 0-2-.95-2-2.04v-28.4h4.1v26.75h16.3v3.7h-18.3zm46.32.5c-8.36 0-13.4-3.1-13.4-9.36 0-2.9 1.7-5.8 4.94-7.1-2.6-1.6-3.96-4-3.96-6.5 0-5.67 4.36-8.36 12.56-8.36 2.75 0 6.62.3 9.86 1.06l-.44 3.37c-3.4-.53-6.6-.85-9.7-.85-5.3 0-8.18 1.44-8.18 4.96 0 2.8 2.6 4.97 6.1 4.97h7c1 0 1.75.77 1.75 1.73 0 1-.76 1.77-1.75 1.77h-7.56c-4 0-6.5 2-6.5 5 0 4.45 4.1 5.78 9.2 5.78 2.8 0 6.57-.36 9.63-1.1l.6 3.35c-2.97.82-6.8 1.4-10.17 1.4M14.03 289l7.2 17.97-10.86-8.67 3.66-9.3zm12.86 22l-11.1-26.97c-.3-.78-.96-1.2-1.7-1.2a1.84 1.84 0 0 0-1.78 1.2l-12.1 29.6H4.4l4.8-12.2 14.32 11.75c.58.47 1 .68 1.53.68 1.08 0 2.03-.82 2.03-2 0-.2-.07-.5-.2-.84zm228.93-183.13c0 70.45-57.1 127.56-127.57 127.56C57.9 255.43.8 198.33.8 127.87.78 57.42 57.88.3 128.3.3c70.48 0 127.6 57.12 127.6 127.57"/>
  <path fill="#FFF" d="M130.46 78.23l33 81.47-49.85-39.27 16.9-42.2zm58.64 100.24l-50.77-122.2c-1.45-3.52-4.35-5.4-7.87-5.4-3.53 0-6.63 1.88-8.08 5.4L66.64 190.3H85.7l22.07-55.25 65.84 53.2c2.7 2.13 4.6 3.1 7.1 3.1 5 0 9.3-3.73 9.3-9.1 0-.9-.3-2.28-.8-3.78z"/>
</svg>
