<svg xmlns="http://www.w3.org/2000/svg" viewBox="0 0 256 313" preserveAspectRatio="xMinYMin meet">
  <path fill="#3185B8" d="M255.3 19.2c-2-1.5-16.3-9.3-16.3-9.3l-15.5 9 15.5-9-15.5-10v19l-16-9.4L187.8 21 160 37.8V55l-16.3 42.4v23l-11.4 6.7-4.5 12-32-83V38l-64-37L0 19v19l20 47.8 12 7v22L80 231l47.8 27.5 47.8-27.5 80-193.5-.3-18.3"/>
  <path fill="#3185B8" d="M127.8 258.5l-48-27.4L32 115V93l-12-7.2-20-48V19.2l15.7 9.3V47L32 56.2V37.6L63.8 56l1.5 18.2 46.2 120 32 18.6v36.7l-15.8-9.4v19"/>
  <path fill="#61A5CE" d="M95.7 56l32 83v45.8l-16.2 9.2L65.3 74l-1.5-18 32-18.3V56m-80-27.7v18.5L32 37.6l-16.3-9.3"/>
  <path fill="#EAE9E6" d="M32 56.2V37.6l-16.3 9.2L32 56.2"/>
  <path fill="#3185B8" d="M127.7 184.8l16 9 17.8-44.6 13.8 8v-42.8l4.3-10.3 11.7 7V93l-16-9.2 16-9.3-15.6-9V46.7l-15.7-9V55l-16.3 42.4v23l-11.4 6.7-4.5 12v46"/>
  <path fill="#61A5CE" d="M127.5 203.5l16 9.3v36.7l32-18.5 80-193.5-.2-18.3-48 27.6v36.8l-16 9.2v18l-11.7-6.7-4.3 11v43L153 171l-9.3 23.7-16.2 9.6"/>
  <path fill="#EAE9E6" d="M63.7 74.4l16-9.3v19l-16-9"/>
  <path fill="#3185B8" d="M79.7 83.5l16 9v-18l-16-9.4v19"/>
  <path fill="#61A5CE" d="M47.8 120.2v18.6l16-9.3-16-9.3"/>
  <path fill="#EAE9E6" d="M80 139l-16.2 9.3-16-9.5 16-9.3L80 139"/>
  <path fill="#61A5CE" d="M79.8 194v19l16-9.5-16-9.4"/>
  <path fill="#EAE9E6" d="M111.5 231l16.3 9.4v-19l-16.3 9.5"/>
  <path fill="#61A5CE" d="M127.8 258.6v-18.3l15.7 9.2-15.7 9"/>
  <path fill="#EAE9E6" d="M127.7 184.8l-16.2 9.2 16 9.5 16.2-9.6-16-10"/>
  <path fill="#3185B8" d="M207.4 83.6V46.8l-16-9V56l-15.7 9.2 31.7 18.4"/>
  <path fill="#EAE9E6" d="M175.4 83.6l16-9.3 16 9.3-16 9.2-16-9.2"/>
  <path fill="#61A5CE" d="M175.7 65.2l15.8-9V37.6l-16 9 .2 18.5"/>
  <path fill="#3185B8" d="M223.5 19V.6L239 10l-15.5 9"/>
  <path fill="#EAE9E6" d="M255.3 19.2l-48 27.6-15.8-9-16 9-15.5-9L187.8 21l19.6-11.4 16 9 15.6-9s14.4 8 16.3 9.4c-4.4 2.5 0 0 0 0M95.7 37.7L63.7 56 0 19 32 .8l63.7 37"/>
  <path fill="#3185B8" d="M239.2 46.3v-18l-15.6 9 15.6 9M192 129.6l15.5-9v18l-15.5-9"/>
  <path fill="#EAE9E6" d="M159.6 203.4V222l16-9.5-16-9"/>
  <path fill="#3185B8" d="M175.8 212.5l-.2-18.3-16 9.2 16.2 9"/>
  <path fill="#3285B7" d="M17.4 311.5h7l13-39.8h-5L21 307 9 271.7H4l13.2 39.8zm40-39.8h-7L37 311.5h5l3.4-9.6h17l3.2 9h5.2l-13.5-40zm3.6 25.7H46.7l7.2-22 7 22zM81.3 283c0-5.3 2-7.3 8.6-7.3 3 0 6 .4 10 1l.4-4.4c-3.7-.8-7.7-1.2-11-1.2-10 0-14 4-14 12v18c0 7.6 3 12 13.3 12 4 0 8.7-.5 12.6-1.7v-17h-5v13a39.6 39.6 0 0 1-7.5.7c-6.8 0-8.3-2.4-8.3-7.4v-17zm55 28.5h6l-10.3-15c4.6-1.3 6.3-4.6 6.3-9.3v-5.7c0-6-3-9.8-11.5-9.8h-15.2v39.8h5.2V297h9.7l10 14.5zm-3-30v5.8c0 4-1.8 5.2-6.7 5.2h-9.8v-16.2h9.8c5 0 6.6 1.3 6.6 5.2zm33.5-9.8h-7l-13.4 39.8h5.2l3.3-9.6h16l3.2 9h5L166 271zm3.7 25.7h-14.3l7-22 7.3 22zm38.7 14h7v-39.7h-4.8v34l-17.4-34h-7v39.8h5v-34l17.2 34zm25.2 0h5.2v-35h12v-4.7h-29v4.6h11.8v35.2z"/>
</svg>
