<svg width="2045" height="2069" viewBox="0 0 256 259" xmlns="http://www.w3.org/2000/svg" preserveAspectRatio="xMinYMin meet"><path d="M255.28 19.166c-1.842-1.51-16.319-9.274-16.319-9.274l-15.447 8.975-.009-.005 15.448-8.974L223.51.685l-.005 18.177-16.11-9.018s-13.18 7.704-19.578 11.397c-8.055 4.647-27.81 16.41-27.81 16.41V55.02l-16.274 42.4v23.023l-11.422 6.666-4.545 11.89L95.74 55.913l.005-18.221L31.914.665.032 19.12 0 19.114V37.89l19.884 47.891 12.083 7.117.01 21.84 47.901 116.344 47.872 27.396v.158l47.81-27.666 79.893-193.462-.173-18.342" fill="#3185B8"/><path d="M127.786 258.498l-47.908-27.416-47.9-116.344-.011-21.84-12.083-7.117L0 37.891V19.113l15.733 9.173V46.77l16.262 9.437.002-18.592 31.772 18.383L65.3 74.197l46.19 119.892 32.098 18.698v36.668l-15.847-9.322.045 18.365" fill="#3185B8"/><path d="M95.739 55.914l32.027 83.084-.066 45.767-16.233 9.233L65.3 74.064 63.77 55.999l31.975-18.306-.005 18.22M15.733 28.287V46.77l16.264-9.155-16.264-9.33" fill="#61A5CE"/><path d="M31.995 56.208l.002-18.592-16.264 9.155 16.262 9.437" fill="#EAE9E6"/><path d="M127.7 184.765l16.01 9.161 17.827-44.757 13.728 8.169v-42.895l4.38-10.357 11.688 6.845V92.798l-15.911-9.245 16-9.288-15.733-9.067-.042-18.43-15.64-9.118v17.37l-16.274 42.4v23.023l-11.422 6.666-4.545 11.89-.066 45.766" fill="#3185B8"/><path d="M127.48 203.5l16.108 9.287-.08 36.676 32.051-18.493 79.894-193.462-.173-18.342-47.886 27.602v36.825l-16.06 9.205v18.133l-11.69-6.845-4.379 10.357v42.805l-22.244 13.08-9.31 23.598-16.23 9.575" fill="#61A5CE"/><path d="M63.667 74.398l16.066-9.333V83.53l-16.066-9.133" fill="#EAE9E6"/><path d="M79.733 83.53l15.933 9.001V74.398l-15.933-9.333V83.53" fill="#3185B8"/><path d="M47.845 120.196v18.6l16.087-9.257-16.087-9.343" fill="#61A5CE"/><path d="M79.988 138.882l-16.143 9.4-16-9.486 16.087-9.257 16.056 9.343" fill="#EAE9E6"/><path d="M79.77 194.133v18.758l16.17-9.35-16.17-9.408" fill="#61A5CE"/><path d="M111.522 230.883l16.287 9.467.059-19.052-16.346 9.585" fill="#EAE9E6"/><path d="M127.75 258.636l.06-18.286 15.698 9.113-15.758 9.173" fill="#61A5CE"/><path d="M127.7 184.765l-16.233 9.233 16.014 9.503 16.23-9.575-16.01-9.161" fill="#EAE9E6"/><path d="M207.394 83.593V46.768l-15.854-9.025V56.09l-15.851 9.108 31.705 18.395" fill="#3185B8"/><path d="M175.422 83.553l16-9.288 15.972 9.328-16.06 9.205-15.912-9.245" fill="#EAE9E6"/><path d="M175.689 65.198l15.851-9.108V37.743l-15.893 9.025.042 18.43" fill="#61A5CE"/><path d="M223.505 18.863L223.51.685l15.443 9.203-15.448 8.975" fill="#3185B8"/><path d="M255.28 19.166l-47.886 27.602-15.854-9.025-15.893 9.025-15.64-9.118s19.755-11.762 27.81-16.41c6.398-3.692 19.577-11.396 19.577-11.396l16.12 9.023 15.447-8.975s14.477 7.763 16.319 9.274c-4.356 2.545 0 0 0 0M95.744 37.693L63.769 55.999.03 19.12 31.915.665l63.829 37.028" fill="#EAE9E6"/><path d="M239.204 46.348V28.432l-15.58 8.99 15.58 8.926M191.98 129.638l15.503-8.893v17.837l-15.503-8.944" fill="#3185B8"/><path d="M159.583 203.378v18.484l16.148-9.341-16.148-9.143" fill="#EAE9E6"/><path d="M175.831 212.52l-.199-18.334-16.05 9.192 16.25 9.143" fill="#3185B8"/></svg>