<svg xmlns="http://www.w3.org/2000/svg" viewBox="0 0 340 390">
  <ellipse cx="170.67" cy="307.68" fill="#323A53" rx="98.73" ry="87.06"/>
  <path fill="#EFF1F4" d="M170.67 394.74c-54.52 0-98.73-38.98-98.73-87.06 0-48.08 44.2-87.06 98.73-87.06v174.12z"/>
  <path fill="#D2E2ED" d="M286.25 51.15c14.33 6.23 28.7 12.4 42.98 18.76 3.36 1.5 5.85 4 5.8 8.2-.7 1.4-1.48 2.6-3.26 2.6-1.84-.3-3.35.5-4.78 1.5-1.2.7-2.3 1.6-3.7.9-1.8-3.3-1.8-3.3-5.2-1.4-2.6 1.4-4.8 3.5-7.9 3.7-5.6-1.3-11.1-2.7-16.5-4.5-3.3-1.1-3.7-1.9-1.7-4.5 1.6-2.1.7-2.9-1.1-3.8-2.1-1-4.1-2.1-6.2-2.8C260.8 58.9 237 48 213.2 37.2c-1.1-.46-2-1.25-3.1-1.43-1.8-.3-3.2-3.83-5.3-.6-4.9-1-9.1-3.6-13.6-5.63-7.47-3.47-15.14-6.5-22.3-10.56-1.2-1.36-2.6-1.3-4.1-.6-4.26 2.1-8.73 3.8-12.9 6.1-4.1 1.16-7.5 4.2-11.87 4.64-.8-.1-1.6-.15-2.4-.22-4.24-.33-5.48-2.9-3.3-6.6 3.14-5.35 8.2-8.52 13.42-11.4 5-2.76 10.12-5.3 15.4-7.54 2.94-1.2 5.76-1.1 8.63.1 22 9.4 43.84 19.2 65.85 28.6 15.44 6.6 30.8 13.5 46.6 19.27.53.2 1.1.4 1.65.17z"/>
  <path fill="#EBF0F5" d="M2.02 103.42c-1.7-3.17-.5-6.68-1.15-10.04-.9-4.65-.82-9.52-.87-14.3-.04-4.25 1.96-7.52 5.92-9.25 13.9-6.1 27.84-12.1 41.75-18.2C61.37 45.66 75.03 39.6 88.7 33.6a16586.8 16586.8 0 0 1 34.5-15.14c.6-.27 1.33-.25 2-.36-.56 3.28-3.6 3.9-5.85 5.1-7.38 3.92-14.86 7.65-22.33 11.38-1.82.9-4.62 1.86-4.54 3.7.07 2.08 3.2 1.93 4.97 2.83 2.14 1.1 4.4.9 6.72.5 1.64-.2 3.67-1.1 4.65 1.3-.66 1.1-1.77 1.4-2.78 1.9-16.96 8.5-34.4 15.9-51.58 23.9-3.94 1.8-7.8 3.8-11.93 5.2-2.92 2.9-6.27 2.6-10.06 2.1-7-.9-14.1-.4-21.15-.2-2.6.1-4.55 1.4-5.53 3.9-2.7 2.4-2.3 5.5-1.9 8.6.5 4.5.7 9 .8 13.5-.5 1.2-1.4 1.9-2.7 1.9z"/>
  <path fill="#E1EAF1" d="M108.7 42.8c-1.2-1.08-2.76-.9-3.9-.48-5.08 1.9-9.05-1.22-13.38-2.64-1.47-.48-1.28-1.45-.26-2.28 1.14-.94 2.26-1.98 3.56-2.64 7.92-4.06 15.9-8 23.83-12.03 2.42-1.24 4.84-2.52 6.65-4.65 4-2.7 8.63-4.12 12.98-6.1 8.22-3.7 16.63-7 24.8-10.84 3.46-1.62 6.37-1.43 9.7.06a9680.4 9680.4 0 0 0 58.65 25.87C248.5 34.6 265.7 42 282.87 49.47c1.15.5 2.26 1.1 3.38 1.68-1.2 1.37-2.37.14-3.45-.16-9.27-2.7-17.78-7.2-26.7-10.8-25.02-10-49.46-21.4-74.25-32-3.26-1.4-6.54-2.7-9.75-4.2-3.28-1.6-6.36-1.3-9.55.3-7.82 3.8-15.78 7.3-22.7 12.7-2.3 1.7-3.78 4.3-5.27 6.7-1.08 1.7.36 3.8 2.5 4 1.1.1 2.32-.4 3.27.6-.33 1.4-1.6 1.8-2.7 2.3-8.42 3.7-16.75 7.6-25.1 11.5-1.2.5-2.43 1.3-3.86.5z"/>
  <path fill="#DBE0E8" d="M14.4 257.58c-1.12-3.36-.88-6.9-1.4-10.36-.88-11.12-1.8-22.25-2.65-33.37-.53-6.82-.9-13.65-1.47-20.47-.83-10.33-1.92-20.64-2.58-30.97-.42-6.4-1-12.9-1.5-19.4-.83-10.8-1.48-21.6-2.67-32.3-.26-2.4-.1-4.8-.1-7.2l2-1.4c1.37.8 1.63 2.2 1.7 3.6.76 12.5 1.9 24.9 2.9 37.3 1.02 13 2.12 26 3.13 39 .77 10 1.78 20.1 2.27 30.1 1.03 11.9 1.87 23.8 2.85 35.6.24 3 2.54 4.5 4.07 6.6.6 1.5 1.6 2.9 1.36 4.7-1 1.3-1.7.1-2.5-.3-.9-.7-1.9-1.4-2.8-2.2-.3-.2-.6-.5-.9-.7-1.3.3-.6 1.9-1.6 2.3z"/>
  <path fill="#8D9EBD" d="M333.16 107.53l-1.4 19.3c1.74 2.94-.23 5.98.22 8.96-.6 3.6-.58 7.2-.94 10.9a145.1 145.1 0 0 0-1.2 15.5c-.18 1.4-.5 2.8-1.36 4-1 .8-2.04 1.4-3.28.4-.64-4.3.24-8.4.56-12.6.4-10.6 1.6-21.1 2.4-31.7.22-2.9.46-5.7.44-8.5.76-8.6 1.6-17.2 2.1-25.9.05-.7.2-1.4.5-2 2.08-1.6 1.96 1.3 3.2 1.5.26 6.7-.95 13.3-1.24 19.9z"/>
  <path fill="#B5C2D4" d="M334.4 87.6c-2.74 1.32-1.75-1.04-2.08-2.1-1.22-1.7-1.24-3.56-.63-5.5 1.5.08 2.1-1.52 3.3-1.97-.2 3.2.7 6.47-.7 9.58z"/>
  <path fill="#27334E" d="M151.9 23.48l13.14-6.14c1.53-.42 2.93.02 4.3.68l35.73 16.43c5.22.36 9.37 3.5 13.9 5.55 21.3 9.6 42.45 19.47 63.75 29.03 1.32.7 2.65 1.4 4.02 2.03l2.17 1c1.4.66 3.5.83 3.6 2.74.1 1.63-1.8 2.14-3.1 2.87-7 4.15-14.2 8.17-21.2 12.36-1.4.64-2.8 1.46-4.1 2.33-.4.27-.8.5-1.2.73-19 10.9-37.9 21.8-56.8 32.9-11.1 6.3-22.2 12.7-33.3 19.2-3.4 2-6.5 2-9.9 0-12.3-7-24.4-14.5-36.9-21.2-8.1-4.6-16.5-8.8-24.2-14-8.2-5.2-16.8-9.9-25.2-14.8C66 89.1 55.5 83 45 77c-1.08-.7-2.3-1.2-2.2-2.8.72-1.15 2-1.46 3.1-1.97C58.4 66.7 71 60.8 83.7 55c17.77-8.1 35.52-16.24 53.3-24.36 5.04-2.3 10.33-4.13 15-7.24z"/>
  <path fill="#FDFDFE" d="M101.9 109.4l24 14.07c2.8 3.24 4.64 7.08 6.7 10.78 2.96 5.4 6.98 9.47 12.7 12.04 6.15 2.7 12.2 5.7 18.46 8.3 4.04 1.6 8.03 1.8 12.1 1.4 3.76-.4 7.56-1 11.1-2.3 10.38-3.9 20.87-7.4 30.55-13.1 14.1-8.2 28.2-16.4 42.1-24.8 1.2-.7 2.5-1.3 3.2-2.5 3.7-3.5 8.4-5.5 12.6-8.1 2.1-1.3 4.3-2.5 6.5-3.8 8.6-5.1 17.2-10.2 25.7-15.4.9-.6 1.8-1.1 2.8-1.2 3-1.6 5.9-3.3 8.9-4.8 3.3-1.7 3.9-1.4 4.2 2.6-.9 2.5-3.2 3.4-5.2 4.6-12.1 7.6-24.5 14.6-36.5 22.2-35.6 21-70.8 42.7-106.2 64-2.8 1.7-4 3.7-3.9 6.9.2 7.4 0 14.9.1 22.3a8.88 8.88 0 0 1-.5 2.9c-1 3.8-1.8 7.8-1.1 11.8.2 1 .2 2 .3 3.1 1 22 .7 44 .7 66V347c0 1.36.2 2.73-.6 3.95-2.1 1.55-3.9 1.06-5.5-.7-.6-1.15-.7-2.4-.7-3.67 0-19.54-.1-39.1.1-58.64 1.2-12.86 2-25.7.9-38.6-.5-5.7-.1-11.5-.1-17.2 0-3.6-.6-7.05-1.2-10.5-.6-8.47-.1-16.9-.3-25.35v-15.1c0-2-.1-3.9-1.2-5.6-1-2.5-3.1-3.5-5.5-4.3-6.6-2.8-12.2-7.4-18.6-10.6-15.6-9.7-31.4-19.1-47.1-28.7-14.4-8.8-28.8-17.6-43.3-26.2-7.9-5-16-9.8-23.9-14.7-2-1.3-4-2.4-6-3.7-1-.7-2.3-1.2-2.3-2.7 1.4-3.2 2.3-3.6 5.8-2 7.3 3.2 14 7.2 20.9 11.2 3 1.7 6 3.2 9.6 3.4.4 0 .9 0 1.3.3 5.7 3.4 12.27 4.8 18.27 7.5 1.5.6 2.86 1.6 4.5 1.6 7.1-.1 14.04 2.1 21.18 1.5 1.8-.2 3.4.5 5.1.7z"/>
  <path fill="#516494" d="M281.42 108.92c10.3-6.32 20.55-12.7 30.9-18.93a169.35 169.35 0 0 0 11.07-7.3c1.4.3 2.1-1.2 3.4-1.3 1 1.7.1 3.2-1 4.3-3.8 3.9-5.1 9.1-7.1 13.8-1 2.2-1.7 4.5-2.3 6.8-1.2 4.1-4.3 6.5-7.3 9.1-.7 1-1.6 1.6-2.6 2.2l-83.4 52c-.9.5-1.7 1.1-2.8 1.4-2-.4-3.3 2.1-5.4 1.1-.6-1.4.2-2.3 1.2-2.9 5.6-3.4 9.3-8.4 12.6-13.8 5.5-9.2 14.2-14.8 22.8-20.4 6.9-4.6 13.5-9.5 19.9-14.6 3.8-3.1 8-6.6 9.6-11.8z"/>
  <path fill="#DAE7F0" d="M310.34 84.86c-3.78 3.33-8.4 5.36-12.63 7.98-5.1 3.18-10.3 6.15-15.6 9.2-9.4 3.12-19.1 2.32-28.8 2.27-1.2 0-2.6-.3-2.9-1.8-.3-1.5.7-2.6 1.9-3.4 3.5-2.4 7.4-4.1 10.6-6.8l.8-.4c1.8 0 2.9-1.2 4.1-2.3L292.3 75c-1.67-1.84-4.27-1.7-5.9-3.3-.15-.97-1.27-1.26-1.55-2.14l.13-.42c3.2.24 5.7 2.25 8.4 3.6 2.03 1 1 2.32-.1 3.56-2.44 2.8-2.3 2.6 1.26 3.9 5.2 1.9 10.8 2.5 15.9 4.76z"/>
  <path fill="#5A6E9E" d="M309 115.15c-.8-1.23.43-1.3 1-1.56 3-1.5 4.54-4.1 5.57-7 1.77-5.1 3.4-10.1 5.6-15 1.02-2.2 1.88-4.3 3.77-5.9 1.3-1.1 1.5-2.8 1.9-4.3 1.43-1.2 2.73-2.7 4.85-1.5 1.1 1.7.5 3.6.6 5.5-1.5 3.3-.7 6.9-1.1 10.3-.8 5.9-1 11.9-1.6 17.9-3.9 10-7 20.3-11.9 29.8-1 1.8-1.9 3.6-3.3 5.2-.7.7-1.4 1.7-2.6 1.3-1.1-.3-1-1.5-1.1-2.3-.2-.8-.5-1.6-.6-2.4.3-7.6.9-15.2 1.5-22.8.2-2.4.5-4.8 0-7.2-.8-1-2 .2-2.9-.4z"/>
  <path fill="#ECEEEF" d="M282.62 69.8c-11.96-5.37-23.95-10.72-35.88-16.16-13.9-6.35-27.78-12.8-41.67-19.2.63-1.7 1.43-1.88 3.2-1.06 24.24 11.2 48.54 22.3 72.8 33.42 1.33.6 2.8 1.04 3.82 2.2l-.1.03c-.6.67-1.3 1.07-2.3.78z"/>
  <path fill="#2D2E31" d="M151.9 23.48c-1.23 2.53-3.97 2.8-6.1 3.82-9.6 4.54-19.32 8.8-28.97 13.22a55460.58 55460.58 0 0 0-63.24 28.9c-3.7 1.65-7.3 3.4-10.9 5.1-.5-.42-.5-.87-.1-1.35l57-26.1c3-1.4 6-2.84 9-4.27l31.6-14.48 11.5-4.84z"/>
  <path fill="#868887" d="M169.33 18.02c-1.52.34-2.87-.4-4.3-.7 1.6-.8 3.18-1.5 4.3.7z"/>
  <path fill="#C0BFCC" d="M15.75 85.58l8.3 5.4c1 1 1.74 2.16 1.96 3.56.9 5.66 2.9 11.04 4.3 16.57.7 2.5.4 4.1-2.4 4.5-1.9.7-3.3-1.8-5.2-.8-.8 4 .2 8 .5 11.9.4 4.3.6 8.7 1 12.9.8 10.1 1.4 20.2 2.3 30.3.1.8 0 1.6-.1 2.4-.8 2.8-.5 5.7-.3 8.5 1.1 11.7 1.6 23.4 2.6 35 .1 1.5.1 3-.2 4.5-1.3 2.8-3.3 2.4-5.3 1-3.6-2.6-7-5.4-9.9-8.9l-2.7-31.9c-.5-6.6-.9-13.1-1.4-19.7-.8-10.6-1.8-21.3-2.6-31.9A927.18 927.18 0 0 1 5 107.7c-.1-1.8-.18-3.6-.8-5.4l-1.4-19c-.16-2.06.44-3.6 2.76-3.9 4 1.13 7.37 3.3 10.27 6.27z"/>
  <path fill="#FDFDFD" d="M15.75 85.58L5.47 79.3c-.37-4.3 3.2-4.62 5.72-4.64 8.6-.05 17.3-1 25.8.92 1.3.3 2.1.02 2.8-1.08.6-.85 1-2.62 2.7-1.33 0 .45.1.9.1 1.34.5 1.3 1.8 1.6 2.9 2.2L99 107.6c.98.58 1.9 1.24 2.85 1.85-4.7.47-9.4.3-14.08 0-1.8-.1-3.65-1-5.38-.76-7.7 1-13.8-4.5-20.9-5.3-1.2-.2-2.1-.9-3.1-1.5-2.8-1.7-5.6-3.1-9.2-3.5-4.8-.5-8.5-3.8-12.6-6.1a288.54 288.54 0 0 0-16-8.5c-2.3-1.2-4.1-1.3-5 1.7z"/>
  <path fill="#CFCACE" d="M13.04 212.15c3.6 1.56 5.62 5.07 8.8 7.16 1.76 1.2 3.2 3 5.64 1.8 2 .4 1.68 2.1 1.52 3.2-.97 6.7 1.68 11.3 7.48 14.6 2.54 1.5 4.76 3.6 7 5.5 10.57 8.2 21.48 15.9 32.13 24 1.3 1 2.8 1.8 3.4 3.4.3 4.5-1.7 6.5-6 5.9-2.1-.3-4.2-1-6.3-1.4-4.3-.9-8.7-1.7-13.2-1.8-4-.1-7.8-1.1-11.3-3.4-7.4-4.9-14.9-9.7-21.4-15.9-5.5-3.1-4.8-8.8-5.4-13.8-.8-7.3-1-14.7-1.4-22.1-.1-2.2-1.1-4.4-.7-6.7z"/>
  <path fill="#DBD5D6" d="M20.6 254.83c4.74 2.32 8.4 6.17 12.76 9 3.9 2.54 7.8 5.1 11.7 7.7 2.3 1.52 5.05 1.7 7.55 1.75 6.7.1 13.1 1.64 19.5 3.18 4.7 1.1 6.3-.16 6.3-5.08 4.1 1.16 7.4 3.74 10.6 6.24 3.4 2.6 6.7 5.2 10.6 7.17 2.2 1.1 3.7 3.3 5.5 4.9 2.6 2.3 5.3 4.2 8.2 6 3.2 1.9 7.1 3.3 8.3 7.5.5 4.1-1.2 5.8-5.5 5.3-4.5-.6-8.9-2.2-13-4.3-10.3-5.2-21.2-8.9-32.4-11.4-2.8-1.1-5.1-2.9-7.4-4.8-4.3-3.5-9.2-6.2-13.8-9.4-.6-.4-1.2-.5-1.9-.4-3.9-1.3-6.3-4.7-9.7-6.7-2.4-2-5-3.8-7.6-5.6-2.1-2.1-4.7-3.5-6.8-5.5-.5-.6-1.1-1.1-1.1-2l-1.3-4z"/>
  <path fill="#8EA2C6" d="M325.5 166.74l2.7-.7c1.57 1.77 1.1 3.88.86 5.88-.26 2.15-.47 4.3-.5 6.47-.72 6.3-1.14 12.7-1.63 19.1-1 6.6-.85 13.4-1.78 20.1.13 4.3-.86 8.5-.8 12.7-.26 1.7-.66 3.5-.65 5.2-.64 3.6-.57 7.3-.9 11-.56 3.4-.88 6.9-4.26 8.9-2.28 1.5-4.4 3.3-6.5 5.1-8.7 6-16.55 13.1-25.22 19.2l-1.1.9c-17.93 13.7-35.87 27.4-53.76 41.1-13.7 10.5-27.64 20.8-41.35 31.3-1.1.9-2.3 1.8-3.7 2.4-1.8.5-3.3 1.5-4.2 3.2-1.7 1.6-2.9 4.1-5.8 3.9-.9-1-.4-2.2-.3-3.3.5-1.6 1.9-2.2 3.1-3.1 9-6.6 17.7-13.5 26.5-20.4 18.2-13.7 36.2-27.8 54.4-41.5 2.2-1.7 4.4-3.4 6.5-5.1 14.1-10.7 28.2-21.6 42.3-32.3 9.2-7 9.2-6.9 9.9-18.3.9-13.9 2.1-27.8 3.3-41.7.3-3.5.6-7.1.8-10.6.1-5.9.7-11.7 1.4-17.6.1-.9.3-1.8 1-2.5z"/>
  <path fill="#768EBA" d="M325.5 166.74l-1.42 20.64c-2.42 6.28-5.35 12.38-7.3 18.83-2.37 7.9-5.2 15.7-7.55 23.6-.46 1.6-.97 3.7-3.47 2-.57-1-.56-2.2-.45-3.3.8-7.6 1-15.4 1.6-23 .8-3.5.7-7 0-10.5.3-6.1.5-12.2 1.5-18.3.4-.8.9-1.4 1.7-.4.6.8.2 1.8.9 2.6 2.7-5.1 6.8-9.2 9.6-14.1 1.5-2.6 3.2-5.2 4.2-8.1.4-1 .6-2.3 2.2-2l-1.3 12.4z"/>
  <path fill="#6D83B3" d="M326.83 154.35c-1.98.98-1.46 3.2-2.27 4.76-2.9 5.6-6.4 10.8-10.32 15.7-1.5 1.9-1.92 4.4-4 6.1-1.35-1.6.18-3.7-1.14-5.1-.63-.4-1-1-.93-1.7.82-8.9.9-17.9 2.2-26.8.05-.4.4-.8.8-1 1.03 1.1.2 2.5.97 4 3.97-3.7 5.82-8.5 7.75-13.1 2.7-6.7 5.1-13.6 7.7-20.4.4-1.1.7-2.2 1.9-2.7 0 8.7-1.2 17.3-2 25.9-.5 4.9-.6 9.8-.8 14.7z"/>
  <path fill="#FEFEFD" d="M266.67 74.95c-.4 1.06-1.4 1.26-2.15 1.7-31.93 17.94-63.87 35.86-95.78 53.84-1.54.8-2.65 1.1-4.33.1-31.6-18.2-63.3-36.3-95-54.4-.4-.3-.9-.6-1.8-1.3l3-1.4L164.7 30c1.5-.7 2.74-1.15 4.47-.36 32.3 14.93 64.6 29.8 96.9 44.65.3.1.53.3.78.5z"/>
  <path fill="#FDFDFD" d="M263.53 113.74c-3.1 3.52-7.48 5.1-11.3 7.5-15.4 9.63-30.86 19.3-47.4 26.73-10.78 4.82-21.96 9.5-34.37 9.24-3.9 0-7.06-1.8-10.38-3.1-6.26-2.4-12.4-5.3-18.33-8.5-5.9-3.1-9.13-8.8-11.98-14.6-1.24-2.5-3.7-4.4-3.88-7.5 2.2.4 3.8 1.9 5.7 2.9 10.7 6.1 21.4 12.3 32 18.5 2.8 1.7 5.1 1.7 7.9 0 10.5-6.3 21.2-12.5 31.8-18.6.6-.4 1.4-.5 2.2-.8.3-.1.8-.2.8.1.4 3.6 3.2 3.5 5.8 4 13 2.4 24.6-1.6 35.6-8 3.9-2.3 7.9-4.5 11.8-6.9 1.1-.7 2.2-1.7 3.7-.7z"/>
  <path fill="#EAF4F8" d="M263.53 113.74c-5.2 2.1-9.74 5.37-14.57 8.13-9.83 5.6-19.96 10-31.64 9.07-2.5-.2-4.97-.6-7.45-.76-3.12-.18-4.3-1.94-4.3-4.82 13.32-7.78 26.6-15.58 39.94-23.32 5.8-3.32 11.6-6.54 17.3-9.8-1.1 2.72-4.1 3-6.1 4.63-2 1.7-6 2.7-5.4 5.4.6 2.5 4.4.94 6.7 1.1 8.1.57 16.2-.66 24.2-1.33l-16.5 10c-.8.46-1.6.76-2 1.7z"/>
  <path fill="#D2E2ED" d="M282.62 69.8c.75-.25 1.5-.5 2.26-.77-.3 1.27 3.57.27 1.4 2.57-1.3-.44-2.6-.84-3.66-1.8z"/>
  <path fill="#EAF4F8" d="M267.6 89.45c-.83 1.67-1.8 3.12-4.05 2.33l4.06-2.33z"/>
  <path fill="#EEE7DD" d="M165.12 287.87v62.62c.88.9 1.02 2 .9 3.1-.3 3 1.03 4.7 3.87 5.4.4.4.6.8.7 1.4 0 1.5-.8 2.9-2.3 2.8-3.6-.2-7.6.6-10.4-2.7-5.2-4.6-11-8.4-16.1-13-1.2-1.1-2.7-1.8-2.5-3.8 1.1-1.8 3.7-1 4.8-2.7 2.6-7.2 6.9-13.7 9.5-20.9 1.3-3.8 2-7.3 1.4-11.4-1.3-8-1.5-16.2-1.6-24.3-.1-5.5-1.1-11-1.4-16.4-.6-10.2-2.7-20.2-4.1-30.3-.8-6.3-.6-12.7-2-18.8-2.1-9.2-.9-18.5-1.3-27.7-.1-1.9-.2-3.6-1.7-5-1-.9-1.4-2.1-1.6-3.4-.9-7.1-2.3-14-3.6-21-.1-.6-.1-1.2.2-1.7 3 .8 5.4 2.7 8 4.3 3.4 2.1 6.9 4.3 10.6 6 1.8 1.2 3.9 1.9 5.5 3.4 1.7 1.7 2.1 3.8 2.1 6.2-.1 13.7 0 27.5 0 41.2.6 2.7.6 5.4.6 8.1-.1 12.9.7 25.7.4 38.5-.2 6.5-.4 13-.3 19.4z"/>
  <path fill="#495C8F" d="M281.42 108.92c1.2 1.98-.23 3.17-1.34 4.46-8.15 9.43-18.54 16.05-28.7 23-9.3 6.38-18.56 12.83-24 23.3-2.3 4.42-6.13 7.56-10.27 10.27-.9.58-1.7 1.08-1.7 2.3 0 1.88-1.6 2.33-2.8 3.08-5.3 3.4-10.6 6.86-16 10-3.4 1.97-6.2 4.1-6.3 8.45-4.8 4.06-10.6 6.27-16.2 9-1 .53-2.2.68-3.2-.26l-.1-23.38c0-2.56 1-4.18 3.4-5.62 12.3-7.26 24.4-14.84 36.6-22.25 12.4-7.5 24.7-14.93 37.1-22.36l32.2-19.2c.5-.3 1.1-.4 1.6-.7z"/>
  <path fill="#E6DED8" d="M138.28 160.53c2.25 6.85 3.06 13.98 4.1 21.06.27 1.8.4 3.5 2.02 4.8 1.2 1 1.5 2.5 1.47 4-.04 3.5.2 7.1-.05 10.6-.7 9.3 2.05 18.3 2.53 27.4.42 8.1 1.75 16 3.08 24 1.68 10 1.64 20.1 3.2 30.1.42 2.5.08 5.3.12 8 .1 7.3.53 14.6 2 21.7.24 1.2-.08 2.2-.45 3.3-2.27 6.8-5.05 13.4-8.7 19.6-1.26 2.1-.84 5-3.12 6.6-1.47-1.7-1.32-3.8-.8-5.5 1.4-5 1.3-9.9.8-15-.06-.6.02-1.1.2-1.7.5-1.1.88-2.1.88-3.3 0-9 .04-17.9-.02-26.8 0-.7-.2-1.4-.4-2-.7-3.9.32-7.9-.7-11.8-.4-2.1-.3-4.1-.3-6.2-.02-24.5-.1-49.1.07-73.6.1-4.9-1.3-8.1-5.7-10.7-6.2-3.6-12.5-7.2-18.2-11.7-3-3.2-5-7-6.1-11.34-1.6-6.4-5.9-11.1-9.9-15.9-3.3-4.1-6.4-8.4-10.9-11.4-1.2-.8-2.8-1.8-1.9-3.86 15 9 29.9 18.1 44.8 27.1.8.5 1.7.8 2.1 1.7z"/>
  <path fill="#526596" d="M170.74 202.52c1.15.07 2.24-.1 3.3-.66 5.27-2.78 10.55-5.53 15.83-8.3 1.25 1.2.98 2.75.98 4.2.03 16.2.02 32.43.02 48.65 0 3-.9 5.9-.8 8.9-.3 1.6-.9 3.1-1.5 4.6-1.55 4-3.75 5.2-8.04 4.2-.67-.1-1.35-.4-2.02-.3-4.5.9-6.5-2.2-8.2-5.6.1-14-.1-28.1-.6-42.2-.1-3.4-.1-7.1.8-10.5l.3-2.7z"/>
  <path fill="#CBC6D0" d="M27.43 115.27c2.34-.8 2.5-2.1 1.8-4.47-1.95-6.53-3.48-13.2-5.17-19.8 8.2 4.53 16.17 9.48 24.06 14.55 8.16 12.48 20.16 21.08 31.2 30.64 4.18 3.6 8.1 7.4 10.32 12.6.88 2 2.2 3.7 3.76 5.3.83.8 2.08 1.6 1.5 3.1-1.52.7-2.63-.3-3.76-1-20.04-12.5-40.1-25-60.14-37.6-1.4-.8-3.23-1.4-3.58-3.4z"/>
  <path fill="#D7D2D1" d="M94.83 157.32c-5.52-5.23-7.32-13.15-13.27-18.1-7.37-6.13-14.9-12.12-21.76-18.77-4.5-4.36-9.82-8.36-11.7-14.9l35.5 21.3c2.63 1.6 5.25 3.22 7.87 4.83.05 1.44 1.08 2.34 2.08 3 7.4 4.85 11.56 12.67 17.33 19.02 1.82 2 2.7 5 3.64 7.65 1.47 4.18 2.75 8.4 5.78 11.8-1.24.56-2.22-.12-3.16-.72-6.8-4.33-13.7-8.5-20.5-12.85-.86-.54-1.82-1.02-1.8-2.26z"/>
  <path fill="#7E91B4" d="M169.95 360.78a200.68 200.68 0 0 0-.13-1.36c-1.4-2.76-1.4-5.5.04-8.24l.12-24.65c.42-.3.77-.22 1.05.2 1.36 5.12.37 10.33.6 15.48.02 4.4.7 5.2 5 4.5 8.36-1.4 16.44-3.8 23.9-8.1 1.77-1 3.45-2.8 5.9-1.7-5.1 4.9-11.2 8.6-16.52 13.1-4.2 3.7-9.1 6.3-13 10.3-1.1 1.8-2.7 2.9-4.8 3.2-1.5-.1-1.5-1.5-2-2.5z"/>
  <path fill="#FDFDFD" d="M170.5 326.2a4.42 4.42 0 0 0-.52.33c0-29.75.22-59.5-.22-89.23-.1-6.88-.22-13.85-.97-20.78-.4-3.63-.5-7.72 1.7-11.22v49.2c0 1.48 0 2.96.1 4.45.9 1.13 1 2.5 1 3.88 0 13.78.1 27.56-.1 41.34 0 6.57.2 13.14-.1 19.7-.1.92-.3 1.77-1.1 2.34zm-5.38-38.33c-1.02-.9-.67-2.13-.67-3.22V221.8c1.17 2.52 1.3 5.36 1.25 7.94-.27 12.6 1.46 25.15.67 37.7-.43 6.8.06 13.68-1.25 20.43zm4.74 63.3l-.04 8.25c-4.23-.08-4.68-.54-4.7-4.8v-4.13c1.56.3 3.1.9 4.74.6zm-7.5-176.83c-2.03-.85-4.07-1.7-5.52-3.46 2.2.6 4.33 1.27 5.52 3.46z"/>
  <path fill="#27334E" d="M309 115.15l2.74-1.27c.92 1.08.67 2.4.64 3.63-.26 8.3-1.1 16.5-1.64 24.7-.56 8.6-1.2 17.1-1.78 25.7-.52 7.7-.94 15.3-1.68 22.9-.4 4.2-.18 8.4-.44 12.7-.58 9.1-1.92 18.2-1.6 27.4 1 3.4-2.04 3.9-3.82 5.3a18416.13 18416.13 0 0 1-80.14 59.4c-8.9 6.8-17.95 13.3-26.9 20-1.2.9-2.3 2.4-4.17 1.3a3.3 3.3 0 0 1-.4-1c-.3-10.3 0-20.5-.1-30.8.1-30.5 1.1-61.1.6-91.7 0-3.1 1.2-4.9 3.9-6.5 7.9-4.7 15.5-9.7 23.3-14.4.9-.5 1.7-1.1 2.8-1.2l50.7-31.5a19592.43 19592.43 0 0 0 35.2-21.9c1.1-.6 2.1-1.4 3.1-2.1z"/>
  <path fill="#6B7997" d="M220.1 170.72c-8.44 5.3-16.8 10.72-25.35 15.8-3.1 1.84-4.14 4.05-4.14 7.52.1 28.65 0 57.3 0 85.95 0 1.4 0 2.9-.1 4.4-.6 3.2-.1 6.5-.2 9.8-.7 3.9-.3 7.9-.3 11.9 0 2.3-.5 4.1-2.3 5.7-4.3 3.9-8.5 7.9-13.3 11.2-1.1.7-2.2 1.7-3.7 1.1l.1-20c3-2 6.4-3 9.6-4.6 5.3-2.8 8.3-6.4 8.3-12.9 0-7.6-.3-15.1-.2-22.6.1-2.8.3-5.5 1-8.1 1.4-20.9.5-41.8.7-62.7-.4-3.6.9-5.8 4.2-7.7 7.3-4.3 14.3-9.1 21.4-13.6 1.8.1 2.6-2.7 4.8-1.6z"/>
  <path fill="#25272B" d="M304.78 231.43c-.92-.8-.7-1.9-.62-2.9.62-8.98 1.38-17.94 1.92-26.93.23-3.87.47-7.74.75-11.6.85-11.6 1.3-23.23 2.2-34.83 1.07-13.75 2.45-27.48 2.7-41.3 2.2.1 1.4 1.82 1.34 2.83-.56 8.67-1.23 17.33-1.85 26-.08 1.12-.04 2.27-.06 3.4l-2.06 29.6c-.47 6.43-.92 12.86-1.4 19.3.65 2.84-.16 5.65-.13 8.48-.74 7.9-1.14 15.85-1.7 23.78-.1 1.46 0 2.97-1.1 4.17z"/>
  <path fill="#27334E" d="M94.83 157.32c8.37 5.47 16.8 10.86 25.47 15.83 7.05 4.47 14.04 9.05 21.2 13.36 2.6 1.6 3.53 3.5 3.53 6.5-.03 26.5.07 53 .13 79.5 0 1.3.07 2.6.1 3.8.68 13 .65 26 .55 39 0 2.9-1.3 3.5-4 1.6-5.7-4-11.3-8.4-17-12.6-26.5-20.4-53.9-39.6-80.6-59.7-4.6-3.1-8.7-6.8-13.5-9.7-1.7-1-1.5-2.5-1.4-4.1.1-10.3-1.1-20.5-1.8-30.7-.2-3.6-.3-7.3-.7-10.9-.8-7.9-.7-15.9-1.2-23.9a8116.75 8116.75 0 0 0-2.5-35.9c-.3-4-.4-8-.8-12-.1-1.3-.3-2.7.7-3.9 2 0 3 1.9 4.8 2.3l67.4 42z"/>
  <path fill="#2E2F31" d="M22.67 113.03c.14 10.14 1.18 20.2 2 30.3.63 7.94.9 15.9 1.45 23.85.82 11.45 1.75 22.9 2.68 34.33.26 3.2.2 6.4.36 9.6.33 6.8 2.02 13.6.6 20.4-1.13-.9-1.2-2.1-1.23-3.4-.27-9.8-1.1-19.5-1.78-29.3-.55-8.1-1.5-16.2-1.67-24.4 0-.7-.08-1.3.24-2-.76-11.2-1.52-22.4-2.3-33.6-.55-7.6-1.18-15.2-1.66-22.8-.06-.9-1-2.7 1.3-2.7z"/>
  <path fill="#DDDCDE" d="M25.32 172.27c.22 15.32 2.7 30.47 3.1 45.8.1 4.37-.38 9.05 1.33 13.37-.32 1.6.86 2.08 1.9 2.83 4.35 3.14 8.62 6.4 12.92 9.6.47 1.3.38 2.07-1.28 1.33-4.4-3.3-8.7-6.66-13.1-9.92-2.3-1.7-1.7-4.25-2.1-6.5-.5-2.53.7-5.22-.7-7.67-.4-13.5-1.6-26.9-2.7-40.4-.2-2.7-.8-5.6.5-8.4z"/>
  <path fill="#E8E7E8" d="M43.3 245.2c1.2.3.84-.9 1.27-1.33 15.1 11.08 30.26 22.14 45.34 33.28 11.6 8.55 23.1 17.23 34.7 25.85.3.84.7 1.8-.4 2.26-.8.37-1.4-.3-1.8-1-.4-.8-1.3-.76-1.8-1.26 0-2.75-2.8-3.07-4.2-4.27-3.8-3.15-8.3-5.28-12.1-8.8-1.9-1.8-3.2-5.57-7-4.98-.9-2.82-5-1.78-6-4.94-.3-.9-2.2-1.9-3.2-2.5-3.2-1.9-6.3-3.9-9.4-6.1a71043.84 71043.84 0 0 0-35.1-26.2z"/>
  <path fill="#E2DCDB" d="M120.4 303c.77.3 2.07-1.3 2.38.58.13.76.32 1.48 1.1 1.2.4-.16.44-1.16.64-1.78l20.75 14.97v-41.8c1.26 3.86.24 7.82.6 11.7.72 8.22.15 16.45.3 24.66.05 2.6.33 5.26-1 7.7.8 5.42 1.4 10.8-.54 16.2-.62 1.72-.13 3.85-.15 5.8-.9 2.37-3.58.53-4.82 2.06-1.47 1-2.4-.3-3.3-1-14.66-11.7-30.03-22.4-44.84-33.9-6.23-4.9-12.73-9.3-18.96-14.2-1.1-.9-2.7-1.5-2.4-3.4 4.18 1 8.24 2.4 12.58 3 3.56.5 6.94 1.9 10.2 3.7 6.95 3.9 14.5 6.7 22.24 8.7 1.74.4 3.64.8 5.15-.8 1.2-1.2.7-2.5.06-3.8z"/>
  <path fill="#DBE0E8" d="M70.15 292c4.57 4.65 10.12 8.07 15.28 12 16.5 12.52 33.37 24.6 49.7 37.4 1.38 1.07 2.56 2.64 4.52 2.9 4.88 5.27 10.85 9.27 16.45 13.68.8.64 1.68 1.17 2.15 2.13-1.5 1.3-3.03.2-4.54.1-2.3-.7-4-2.5-5.9-3.9-22.2-16.7-44.2-33.7-66.3-50.6-2.4-1.8-4.7-3.9-7.3-5.6-8-6.7-16.8-12.5-24.9-19.2-.6-.8-1.9-1.2-1.7-2.6 1.2-2.4 1.9-.1 2.7.3 7.1 3.9 13.2 9.3 20.1 13.5z"/>
  <path fill="#7689B6" d="M206.43 336.73c-1.65.16-3.06 1.02-4.36 1.88-7.45 5-16 6.9-24.45 9-.65.2-1.35.2-2.03.2-5 .2-5.1.1-4.9-4.8.6-.6 1.4-.6 2.2-.6 5 .1 9.3-1.8 13.6-4.2 7.5-4.1 14.3-9.4 21.4-14.1 11.9-7.9 22.4-17.6 33.3-26.9 7.9-6.7 13.4-15.5 18.1-24.7.6-1.2.7-2.4.4-3.7.3-1.5 1.6-2.1 2.7-2.9 10.4-7.8 21-15.4 31.4-23.2 1-.7 1.9-1.6 3.3-1.6 2.8 1 2 3 1.1 4.8-2.4 4.4-4.5 9-7.6 13-5.4 6.9-10.1 14.2-14.9 21.5-2.6 4-5.7 7.5-9 10.8l-44.5 34-16.1 12.2z"/>
  <path fill="#7E95BE" d="M266.97 290.6c3.32-4.57 6.94-8.97 9.9-13.77 6.64-10.76 15.3-20.2 20.77-31.72.67-1.4 1.85-2.8-.38-4-.07-1.8 1.54-2.3 2.6-3.1 2.26-1.8 4.74-3.3 6.36-5.8 1.67 0 1.76-1.3 2.16-2.5 3.12-9.8 6.23-19.7 9.6-29.4 1.24-3.6 3.24-7 4-10.8.24-1.1.9-1.8 2.1-1.9-1.14 12.9-2.32 25.9-3.4 38.8-.56 7-1.1 13.9-1.34 20.8-.14 4.3-3.1 6.2-5.84 8.3-15.46 11.9-31 23.6-46.53 35.4z"/>
  <path fill="#92A3C1" d="M176.84 362.94l-1.35 1.45c-1.2 1.9-2.7 3.1-5.1 3a1.25 1.25 0 0 1-.8-.6c-.1-1.8 1-2.9 2.2-4l4.9-2.8c.7.9-.4 1.9 0 2.8z"/>
  <path fill="#7E91B4" d="M186.62 355.4c-1.22 1.35-2.44 2.74-4.3 3.23.54-2.27 2.2-3.04 4.3-3.24z"/>
  <path fill="#929DB2" d="M306.22 232.1c-.37 3.42-3.45 4.42-5.6 6.25-1.1.94-2.24 1.82-3.36 2.72-12.4 9.17-24.8 18.34-37.18 27.52-.18 1.1-1.08 1.6-1.9 2.2-16.9 12.1-33.35 24.8-50.2 36.9-1.1.8-2.26 2.6-3.95.7 1.06-2.8 4.02-3.5 6.06-5.2 3.5-3 7.3-5.7 11.1-8.4 25.8-19.1 51.6-38.3 77.5-57.3.8-.6 1.8-1.1 2-2.2.9-1.9 4.4-1.2 4-4.2l2.2-28.2c1.4.3.8 1.2.5 2l-1.3 27z"/>
  <path fill="#7E95BE" d="M307.6 205.28c-.06-.72.1-1.5-.58-2.03l.7-8.25c.85 3.43 1.04 6.86-.13 10.28z"/>
  <path fill="#293550" d="M188.28 58.62l5.12-6.52-.4-.57-51.5 21.06-.42-.6 13.2-13.2c5.06-5.1 5.05-5.1-1.6-8.1l-9.65-4.5c5.83-2.8 11.28-4.8 16.2-7.8 5.47-3.3 10.04-2.9 15.8-.1 25 12 50.3 23.6 75.5 35.3l2.4 1.1c-.1 1.2-1.08 1.3-1.7 1.6-16.4 9.1-32.83 18.2-49.2 27.3-1.8 1-3.26 1.1-5.06.1-3.58-2.1-7.27-3.9-10.9-5.8-4.3-2.3-4.3-2.3-1.36-5.9 8.5-10.6 17-21.1 26-32.3l-13.1 4.9c-.3.1-.7.2-.9 0-2.1-3-5.2-4.7-8.3-6.3z"/>
  <path fill="#2B3753" d="M181.82 103.33l10.75 5.65c-5.66 3.17-10.75 6.06-15.9 8.88-3.4 1.86-6.82 5.02-10.26 5.03-3.2 0-6.6-3.3-9.8-5.1L84.8 77.3c-1-.6-1.97-1.2-2.93-1.7.04-1.4 1.23-1.38 1.95-1.7 16.67-7.8 33.37-15.58 50.03-23.4 1.8-.87 3.4-1.04 5.2-.1 2.45 1.22 4.97 2.36 7.55 3.3 2.6.93 3.16 1.65.86 3.9-9.7 9.3-19.16 18.8-28.74 28.2-.9.84-1.95 1.6-2.5 2.92l20.73-8.05c2.44.8 2.43 2.95 2.2 4.82-.46 4.1 1.57 6.3 5.1 7.8 8.87 3.9 17.63 8.1 26.47 12.2 1.95.8 3.64.8 5.57-.1 1.8-.9 3.3-2.5 5.6-2.2z"/>
  <path fill="#32415F" d="M181.82 103.33l-1.7 1.15c-4.02 2.77-7.73 3.4-12.5.73-7.13-4-14.84-6.9-22.3-10.3-.93-.4-1.82-.9-2.76-1.3-3.06-1.4-5-3.3-4.33-7.1.36-2 .25-4.1-1.34-5.7l36.5-15.3.4.6-19.4 22.6.2.5 35.5-14.6.4.5-8.4 10.5c-2.9 3.6-5.7 7.2-8.6 10.7-1.1 1.3-1.1 2 .5 2.8 2.6 1.4 5.1 3 7.6 4.5z"/>
  <path fill="#32415E" d="M188.28 58.62c4.64-.18 6.74 3.4 9.27 6.3l-21.6 9.2-.57-.73 12.9-14.8z"/>
  <path fill="#CBD7DF" d="M171.95 362.9c-.08 1.65-1.56 2.58-2 4.03-.3 1.05-1.12 1.34-2.05 1.48-3.95.6-12.8-4.9-14.42-8.9l4.77.7c2.67 3.1 6.57 1.8 9.86 2.7 1.2.3 1.8-.8 1.9-2 .8.6.9 1.8 2 2.2z"/>
  <path fill="#EEE7DD" d="M145.16 320.22c-.6-.27-2.44-.4-.96-1.25 1.93-1.12 1.64-2.54 1.65-4.05.03-9 0-18.02 0-27.04.97.78.67 1.88.68 2.86.02 8.65 0 17.3 0 25.95 0 1.3.22 2.7-1.37 3.5z"/>
  <path fill="#5E7195" d="M189.2 256.2c.32 7.3-.05 14.6.45 21.92.3 4.54-.27 9.3-.5 13.98-.12 2.4-1.96 3.87-3.6 5.22-4.37 3.56-9.24 6.18-14.9 7.06 0-15.15.02-30.3.04-45.43.1.02.2 0 .3.05 2.5 4.27 7.1 3.33 10.9 4.5 2.6.8 4.2-.78 5.4-2.98.7-1.38.6-3.1 1.8-4.32z"/>
  <path fill="#6D82A9" d="M204.35 308.5c1.4.7 2-.53 2.85-1.15l52.88-38.77c1.73.75 1.15 1.9.56 3.1-6.12 12.43-14.32 23.18-25.4 31.68-7.3 5.6-13.65 12.4-21.46 17.38-7.67 4.9-14.28 11.3-22.54 15.35-2.34 1.1-4.44 2.7-6.74 4-4.3 2.3-8.86 3.5-13.8 2.7l-.2-16.7.08-1.9c6.94-3.7 12.24-9.4 17.96-14.6 1.03-1 .55-2.2.66-3.2.4-3.9-.8-8 .7-11.8.75 6.1.1 12.2.35 18.3.05 1.2-.43 2.5.4 3.6h-.07c2.44.4 3.53-1.8 5.1-2.8 2.3-1.6 4.74-3.1 6.8-5.1.46-.5 1.14-.8 1.87-.4z"/>
  <path fill="#32405D" d="M284.2 199.27c-1.95 3.4-2 7.16-2.1 10.93-.12 5.33-.95 10.42-4.58 14.7-1.87 2.2-4.14 3.92-6.47 5.48-6.25 4.2-11.86 9.3-18.42 13.02-2.33 1.33-4.85 1.7-7.56 1.86-6.32.37-12.17 2.8-18.1 4.8-3.66 1.23-7.16 3.05-11.22 2.73-1.17-.1-2.27-.2-3.28-.9 3.3-6.4 1.43-13.4 2.7-20-.16-.5-.87-.2-.4-.2.15-.1.2 0 .17.3-.8 4.7-1.3 9.4-1.38 14.2-.03 1.3.38 3-1.52 3.7-2.1 0-2.74-2.3-4.5-2.9-.6-.8-.66-1.7-.47-2.6 1.14-5.6 1.87-11.3 3.46-16.7a4.3 4.3 0 0 1 2.82-1.3c.86.3 1.74.6 2.2-.6.45-1.2.16-2.2-.88-2.9.82-4.9 4.06-8.5 7.3-11.7 10.73-10.6 21.42-21.3 32.74-31.2 6.3-5.6 13.9-9.7 20.8-14.4 1-.7 1.9-1.3 2.9-1.9 1.4-.8 2.7-1.7 4.5-.8 1.8.9 2.2 2.4 2.2 4.3-.1 2.7 0 5.5 0 8.2 0 1.1-.2 2.4 1.4 2.6.4 1-.2 1.8-.8 2.5-2.9 3.8-3.1 8.5-3.7 13-.3 2.3 1 3.8 2.5 5.3z"/>
  <path fill="#FBFBFA" d="M210.53 227.86c.55 4.23-1.1 8.17-1.65 12.25-.32 2.4-.88 4.7-1.34 7.1-.55 2.4-1.33 4.8-1.6 7.3-.32 2.8-1.82 4.3-4.68 5.4-.8-7.5-1.62-14.7-2.3-22-.2-2 1.76-2.3 3.2-3.4l1.56 17.1.54.1c1.15-6.2 2.44-12.3 3.38-18.5.34-2.2 1.04-3.9 2.9-5.1z"/>
  <path fill="#FCFCFB" d="M284.2 199.27c-4.07-.06-3.54-3.2-3.38-5.58.38-5.6 1.6-10.9 5.45-15.3 3.7-2.1 4.88-1.5 4.87 2.8-.02 6.8-.63 13.5-6.94 18z"/>
  <path fill="#C4CCD7" d="M300.75 235.6c.48 1.16.48 1.15-.72 2.04-9.92 7.3-19.84 14.57-29.75 21.87l-48.73 36c-.7.3-.83 0-.66-.6 19.6-14.6 39.2-29.2 58.8-43.7 6.9-5.1 14-10.3 21-15.4z"/>
  <path fill="#FAFAFA" d="M296.4 184.77c-1.88 2.73-.73 6.6-4.47 8.3-.22-2.26.7-4.12 1.4-5.87 1.56-3.87 2.1-7.64.13-11.47-.93-1.82.42-2.5 1.56-3.2 2-1.23 1.15 1.37 2.37 1.65 1.3-1.75.5-5.1 3.7-5.8.6 1.07-.3 2.12-.6 3-1.9 4.38-2.5 8.7-.2 13.13 1.3 2.6-.8 3.1-2.5 4.3l-1.4-4z"/>
  <path fill="#F9FAF9" d="M212.04 250.04c.4-5.12.93-10.24 1.2-15.37.1-1.86.67-3.02 2.94-3.76-.4 6.3-.76 12.4-1.2 18.5-.1 1.5-1.66 1.8-2.52 2.6l-.42-1.9z"/>
  <path fill="#AFB9C4" d="M220.9 294.8c.2.2.43.4.65.63l-17.2 13.06-10.96 7.9c-.9.6-1.7 1.7-2.9.3l26.4-19.3c1.3-1 2.6-1.8 3.9-2.7z"/>
  <path fill="#5E7195" d="M190.66 316.7c-1.22-.8-.74-2.06-.75-3.13v-18.8c.4-3.43-.7-6.94.6-10.32l.2 32.25z"/>
  <path fill="#E8E9EC" d="M214.68 223.18c.6-.15 1.43-1.05 1.76-.42.74 1.44.43 3.04-.38 4.46-.38.67-.88 1.47-1.74 1.34-1.03-.16-.62-1.3-.96-1.94l1.32-3.44z"/>
  <path fill="#33415E" d="M43.76 171.68c2.17-3.08-.16-6.1-.2-9.14-.03-1.6-.54-3.2.12-4.7 2.66-6.17 5.25-6.68 12.1-2.45 8.4 5.1 16.24 11.4 23.5 18.1 6 5.5 10.67 12.2 14.3 19.5 3.44 6.9 7.47 13.6 11.52 20.2.54.9.95 1.8.85 2.9.04 6.2 1.27 12.4 1.7 18.6.06.9.24 1.9.93 2.5 3.6 3 6.98 6.5 11.78 7.7 1.9 1.8 1.13 4.3 1.6 6.4.76 3.5 1.7 7.1 2.38 10.6.56 2.9.45 5.7-2.75 7.4-3.3 1.6-6.9 1.4-9.2-1.2-3.2-3.7-6.5-7.4-8.7-11.8-2.3-4.6-4.4-9.1-6.8-13.5-4.4-7.9-10.2-14.5-18.4-18.5-5.4-2.6-11.1-4.2-16.4.5-1.4 1.1-2.5.2-3.3-.7-1.1-1-2-2.3-2.6-3.6-3.6-7.6-5.5-15.7-6.2-24 2.6.3 5.3.8 5.7-3.1.5-.8.5-2.1 2-1.7 1.4 3 .6 6.5 2 10.1-.4-3-.5-5.6-.4-8.2.2-1 .2-2.3 1.5-2.2 1.8.2 1.1 2 1.4 3.2 2.5 5.7 4.4 11.7 8.9 16.2.6.6 1.4 1.14 2.2 1.6.9.65 1.9.8 2.9.75 3.5 1.8 6.7 4.2 10.1 6.14 1 .8 1.4 1.94 1.9 3.1.5 1.24 1.3 2 2.8 1.6.5 0 1 .1 1.4.33 2.7 3.9 6.2 6.8 10.9 9.3-.9-2.7-2.7-3.48-4.1-4.4-4.7-2.95-7.9-6.9-8.8-12.5-.2-1.4-.4-2.7.1-4.07.9-2.4 2.2-2.9 4.5-1.6 1 .6 1.8 1.4 2.8 2 .9.5 1.5 1.4 3.2 1.2-2.7-2.8-5.7-4.6-8.6-6.36-1.1-.64-2.2.25-3.3.5-1.7.16-2.4-1.1-3.1-2.3a54.68 54.68 0 0 1-4.5-8.5c-4.1-9.6-9.7-18.16-17.2-25.45-2.4-2.3-4.2-5.14-6.7-7.35-.8-.7-1.5-1.5-2.4-2-1.1-.5-2.2-.9-3.3-.25-1.18.7-1 2-.7 3.1.9 4.5 2.3 8.9 3.9 13.2.7 1.9 1.4 3.8 1.8 5.88.2 1.05.3 2.1-.06 3.16-.2.5-.5.9-1.1 1-1.45-.5-1.56-1.9-1.9-3-1.6-5-4.1-9.4-8.74-12.2-1-.6-2.1-1.38-2.1-2.86z"/>
  <path fill="#FCFCFB" d="M56.55 194.23c-1.3 4.72-2 5.02-6.33 2.72-5.12-3.8-10.38-7.44-12.14-14.15-.78-3-1.74-5.94-1.37-9.05.5-4.2 2.4-5 5.9-2.62.4.24.8.37 1.2.56 3.9 3.3 8.5 5.9 10.3 11.1.8 2.2 1.6 4.4 2.3 6.6 1.5 1.5.1 3.2.2 4.7z"/>
  <path fill="#FBFBFB" d="M132.35 247.6c-3.34-2.4-6.4-4.6-10-7.16.72 3.64 2.1 6.2 4.62 8.1a146.66 146.66 0 0 0 6.96 5.03c1.15.78 1.6 1.62.86 2.83-1 1.6-1.7.1-2.5-.3-7.5-4.22-11.9-10.53-13-19.1-.1-.9-.3-1.82-.2-2.72.1-1.93.1-4.06 2.1-5.08 1.9-.96 3.2.68 4.5 1.6 2.1 1.4 4 3 6.1 4.38 1.2.8 1.3 1.78.7 2.86-1.1 1.62-1.8-.04-2.4-.44-1.5-.87-2.8-2-4.3-2.97-1.2-.8-2.5-2.2-3.8-.4-1.4 1.84.2 2.6 1.4 3.47 2.7 1.95 5.4 3.88 8 5.86 1.8 1.34 1.8 1.37.5 4.04z"/>
  <path fill="#FAFAFA" d="M120.36 245.14c-.6.7-.87 1.8-2.25.73-3-2.4-6.2-4.62-9.4-6.9-1.3-.95-1.8-2.36-1.9-3.86-.6-5.9-1.1-11.8-1.7-17.7-.1-.9.1-1.3 1-1.1.9.8 1.4 1.6 1.5 2.9.3 3.5 1.2 7 1.1 10.5-.1 4.7 1.9 7.5 5.7 9.9 2.3 1.5 5.5 2.4 6.2 5.7z"/>
  <path fill="#404354" d="M153.48 359.42c3.76 2.9 6.98 6.56 11.84 7.82 1.65.42 3.13.53 4.63-.3l.02.3c5.36.47 10.13-1.6 14.73-3.8 12.38-6 23.98-13.2 34.44-22.23 1.64-1.4 3-3.9 5.95-3.1.2 1.5-.8 2.3-1.8 3.2-12.5 11.1-26.4 20-41.7 26.7-4.6 2-9.4 2.9-14.4 2.8-4.4-.6-8.4-2.3-12-4.8-9.9-6.5-18.9-14.1-28-21.6A1089.96 1089.96 0 0 0 77 305.9c-1.28-.9-2.74-1.7-3.5-3.2-.3-1.1-.38-2.2.6-3.1 6.06 3.8 11.44 8.57 17.13 12.87 14.1 10.67 28.1 21.47 42.2 32.2 6.56 5 13.2 9.95 19.8 14.93z"/>
  <path fill="#E1E3E9" d="M80.48 329.82a3.98 3.98 0 0 1 0-.67c-.16-1.38.83-1.1 1.55-.97 1.12.2 2.16.68 3.2 1.17.28.18.64.36.76.66 2.7 6.5 8.3 10.1 13.5 14.2 10.1 7.9 19.8 16.3 29.6 24.6 1.8 1.6 4.2 2.3 6.2 3.6 2 1.5 4.8 2.5 4.3 5.9-.4.3-.9.4-1.4.4-3.4-.4-6.4-2.2-9.9-3.2-.3 2.6 3.5 5 .2 7.4-4.3-.8-8.2-2.5-11.4-5.5-.5-2.7-2.1-5-3.4-7.4-.5-.8-1.1-1.6-.4-2.5.8-1 1.9-.3 2.8.1 1.3.6 2.5 1.5 3.9 2.1-10.5-8.1-19.6-17.7-30-25.9-.9-.7-1.9-1.3-3.1-1.4-1.7-.7-2.1-2.4-3.1-3.7-1.6-2.6-3.1-5.3-3.7-8.3z"/>
  <path fill="#C6CBD3" d="M85.28 329.88c-1.73.6-2.98-1.98-4.8-.73-1.2-1.64-1.65-3.56-2.1-5.48-.7-1.43.08-1.8 1.3-1.73.9.06 1.66.52 2.44.93.3.16.55.35.8.56 1.02 1.06 1.56 2.4 2.18 3.7.26.9.73 1.8.18 2.75z"/>
  <path fill="#A8ADBE" d="M82.53 323.65c-1.37.77-2.77-2.98-4.14.02L77 320.9l-.02-1.36c3.8-1.06 5.88.48 5.53 4.1z"/>
  <path fill="#323A53" d="M225 338.1c-3.75 1.8-6.5 4.88-9.75 7.34-12.48 9.52-25.44 18.16-40.8 22.5-1.74.5-3.1.34-4.47-.7 2-.6 3.8-1.67 5.5-2.85.48 2 1.64.9 2.63.5 9.2-3.6 17.5-8.8 25.2-14.6 14.7-11.2 29.1-22.8 43.4-34.4 4.1-3.3 7.1-7.9 12-10.3.7-.4.8-1.1.9-1.8.3-2.5 2.6-3.2 4.2-3.2 1.3 0 .5 2.3.7 3.6-4 2.2-5.7 6.5-9 9.5-8.5 7.7-17.4 15-26.3 22.3-1 .9-2 2.2-3.8 1.8z"/>
  <path fill="#434E6D" d="M225 338.1c10.22-8.1 20.54-16.13 29.84-25.35 1.87-1.86 4.52-2.88 5.1-6.1.22-1.22 2.32-2.42 4.25-2.24-.3 1.6.6 3.4-.7 4.8-2.7 1.3-4.1 3.9-5.9 6-6.1 7.1-13.2 13.3-20.3 19.3-3.4 2.9-6.6 6.1-10.3 8.5-5.6 3.9-10.4 8.7-16.2 12.2-11.7 6.9-23.3 13.8-37 16-1.6.3-3.2.4-4.8.2-.9-.1-2 0-1.9-1.4 10.4.4 18.9-4.7 27.7-9.4 9.8-5.3 18.7-12 27.3-19.2 1-.9 1.8-2 2.7-3z"/>
  <path fill="#566284" d="M227.06 342.24c7.5-6.67 15.38-12.86 22.5-19.97 3.54-3.53 7.4-6.66 9.82-11.18.77-1.5 2.47-2 4.2-1.9-.2 1.8.4 3.8-.8 5.5-1.92 1.2-4.16 2.1-5.06 4.5-9.82 11.2-20.82 21.2-32.5 30.6-11.97 9.5-25.07 16.8-39.66 21.4-1.05 0-2.1.1-3.04-.5-.67-2.1 1.18-2.1 2.25-2.5 6.55-3 13.14-5.8 19.5-9.2 6.5-3.5 11.98-8.3 17.7-12.8 1.7-1.4 3.47-2.6 5.1-4z"/>
  <path fill="#6A7799" d="M257.33 318.82c.66-2.9 2.58-4.13 5.45-4.1l-.53 2c1.23 2.97.13 5.47-1.54 7.86-3.5.3-5.4 2.67-7 5.44-2.7 1.82-4.7 4.33-6.9 6.66-8.4 7.86-17.1 15.5-26.5 22.24-3.5 2.55-7.4 4.5-11.1 6.82-2.9 1.2-5.8 2.5-8.8 3.43-1.3.4-2.6.98-3.9.25-.8-1.7.8-1.9 1.7-2.22 11.7-4.16 21.1-12.04 30.6-19.54 9.8-7.73 18.6-16.65 26.9-25.98.8-.85 1.3-1.9 1.9-2.86z"/>
  <path fill="#5D697E" d="M231.77 373.86c-5.88 3.34-11.37 7.35-17.67 9.94l-2.82 1.13c-.5 1.06-1.4 1.63-2.4 2.14-7.55 3.07-15.42 4.93-23.45 6.18-1.25.2-2.5.2-3.7-.32-1.2-.83-2.07-1.8-1.45-3.42.97-.9 2.2-1.1 3.45-1.3 5.46-.5 10.77-1.7 16.06-3.1 7.7-2.3 15.1-5.2 22-9.5 3.1-1.1 5.4-3.8 8.6-4.8.3 0 .7.1 1 .3.7.7 1.1 1.4.4 2.3a3.85 3.85 0 0 1-.2.6z"/>
  <path fill="#647490" d="M231.9 373.24l-.7-2.1c-.42-.94.12-1.66.76-2.04 4.03-2.4 4.28-6.32 4.36-10.35.72-2.24 2.03-3.9 4.48-4.35 2.15 1.12 1.07 3.23 1.52 5.36 3.94-3.6 6.85-7.64 9.38-11.92 1.22-2.06-.88-4.16-.6-6.34.08-.86.42-1.62.92-2.32 1.66-1.3 1.42-4.32 4.18-4.63 2.3 1.9 2.42 4.3 1.32 6.8-.8 1.88-1.8 3.68-2.23 5.7-5.8 10.53-13.7 19.24-23.4 26.2z"/>
  <path fill="#43506C" d="M255.28 347.05c-.57-1.52-.12-2.87.7-4.15 1.8-2.75 1.8-5.5 0-8.24-.4-3.88 1.8-6.8 3.7-9.83 1.74.62 2.08 2.44 3.12 3.66-1.42 6.6-3.78 12.8-7.52 18.5z"/>
  <path fill="#303A52" d="M262.8 328.5c-2.07-.28-2.33-1.98-2.75-3.54-.22-.15-.3-.3-.2-.42.07-.14.15-.2.23-.2 1.54-2.3 1.8-4.97 2.17-7.6 1.56.27 2.07-.8 2.4-2.2.46 4.95-.25 9.52-1.85 13.95z"/>
  <path fill="#FCFCFB" d="M269.62 199.1c.63-4.38-.13-8.82.87-13.2.5-2.48 3.6-5.8 6.2-6.07 1.5-.16 2.5.4 2.6 1.94 0 1.24 0 2.56-.3 3.74-.7 2.6-1.4 4.5-.1 7.5 1.5 3.7-.7 7.8-3 11.1-1.7 2.4-3.9 4.4-6.9 5.7v-4.9c.5-1.9-1-3.9.5-5.7z"/>
  <path fill="#344361" d="M258.12 218.45c-1.25 6.58-7.56 7.24-11.94 10.12-1.2.78-2.8.95-4.2 1.4-.45-1.3 0-2.33 1.24-2.72 1.87-.56 2.1-2.1 2.04-3.5-.17-5.25 1.04-10.4.72-15.64 1-2.1 3.05-2.1 4.94-2.3.75-.5.17 2.3 1.6.6.8-.9 2.22-2.2 3.5-.8 1.3 1.4.74 3.1-.43 4.3-2.5 2.6-4.8 5.3-5.2 9-.2 1.1-.9 2.5.4 3.1 1.3.7 2-.7 2.6-1.6 1-1.6 2.4-2.3 4.3-2.1l.4.3z"/>
  <path fill="#FAFBFA" d="M246.35 207.9c1.26.97.63 2.32.58 3.46-.18 4.2-.37 8.37-.82 12.53-.1 1.7.8 4.7-3 4.1-.2-.1-.7 1.2-1.1 1.9l-1.8 2.1c-3.1 1-3.5-1.1-3.7-3.2-.4-4.1.4-8.2.7-12.3.1-2 .4-3.8 2.8-4.2 2.1.4 1.7 2.1 1.9 3.5.4 2.8-.7 5.6 0 8.5 1.1-4.3 1.4-8.7 1.7-13 .3-1.8.7-3.5 3-3.6z"/>
  <path fill="#344360" d="M240.18 212.64c-1.47.77-2.4 1.87-2.22 3.65-.95 1.4-2.4 1.1-3.8 1.1a2.08 2.08 0 0 1-.9-.3c-.6-.8-.7-1.5.05-2.2 3.2-.6 5.1-3.1 7.3-5 4.5-3.9 9-7.7 13.5-11.5 2.7-2.2 5.6-3 8.9-2.9 1.2 1.4 1 3 .6 4.6-.7 1.9-2.1 2.6-4 2.3-2.3-1.4-4.2-.9-5.9 1.2-.7.8-1.3 1.9-2.5 2.2-1.3 1.2-3.1 1.1-4.6 1.9-1.1.9-2.2 1.9-2.2 3.6-.8 2-2.4 1.5-3.9 1.1z"/>
  <path fill="#F9FAF9" d="M234.08 217.04a.75.75 0 0 0 .53-.02c1.3 1.37.9 2.84 0 4.08-2.8 3.67-1.1 8.02-1.9 12-.1.5.2-.12.4-.13 2-.2 1.3.95 1 1.9-1.2 1.7-2.2 4.7-4.4 3.82-1.8-.8-.7-3.7-.7-5.7 0-3.2 1.4-6.4-.7-9.5-.2-.4 0-1.6.4-2 1.9-1.9 2-4.2 2.2-6.6.1-1 .4-2.3 1.9-2.2.7 1 .2 2.1.3 3.2.1.7.2 1.3 1.2.9z"/>
  <path fill="#344361" d="M234.06 234.87c-.06-.45-.13-1.3-.18-1.3-3.73.1-2.03-2.67-1.95-4.14.2-3.26-.93-6.9 2.5-9.44.72-.6.35-2 .18-3l3.4-.8c-.2 4.4-.4 8.8-.5 13.3 0 1.7.2 3.4 2.7 2.5l-6 2.8z"/>
  <path fill="#F8F8F8" d="M262.7 200.48l.18-4.83c0-2.43-.23-4.86.64-7.24.42-1.1.96-2.2 2.15-2.1 1.12.2.54 1.5.58 2.4.06 1.4-.02 2.7-.03 4.1-.47 1.9-.42 3.8.05 5.7.5 2 .5 4.1-.27 6-.75 1.9-.58 3.5.22 5.2.24 2.8-1.08 4.5-3.74 5.2-2.1-1.6-1.23-3.9-1.35-6-.15-2.9.7-5.6 1.58-8.3z"/>
  <path fill="#F7F8F8" d="M219.32 246.63c.36-6.26.66-11.97 1.05-17.67.12-1.87.23-1.92 2.68-1.7.85.1.48-.52.66-.8.8-1.1.8-2.62 2.7-3.44.1 2.05.3 3.66-1.4 5.22-1.4 1.32-1.9 3.3-2 5.3-.2 3.1-.5 6.17-.6 9.25 0 1.9-.9 2.8-2.9 3.8z"/>
  <path fill="#344361" d="M262.7 200.48c.23 4.77-1.3 9.52-.22 14.3-2.1.45-2.15 3.36-4.36 3.67l-.1-.1c-.57-.47-.88-1.13-.88-1.8.02-4.57.45-9.1.9-13.65.05-.45.42-.8.8-1.07 1.45 0 3 .3 3.87-1.35z"/>
  <path fill="#344360" d="M266.2 209.58c-1.14.3-1.35-.33-1.27-1.27l1.3-15.6c.1 1.6-.1 3.3.4 4.7.36 1.1 1.13 2.7 3 1.8.07 2 .18 3.9-.5 5.8-.18-.5-.33-1.6-.77-1.2-1.03.9-2.7 1.6-2.17 3.4.2.9.5 1.7 0 2.6z"/>
  <path fill="#344361" d="M234.08 217.04c-.6.7-1.3 1.7-1.47-.22-.1-1.32 0-2.66 0-4 1.4.28.3 1.46.8 2.08 0 .82-.1 1.66.8 2.14z"/>
  <path fill="#313D59" d="M284.14 191.03c.05-3.27.34-5.65 1.48-7.83.36-.7.87-1.5 1.8-1.3.77.2.84 1 .87 1.7.1 3 0 5.96-1.1 8.8-.4 1.04-.9 2.45-2.3 2.18-1.2-.26-.8-1.7-.9-2.7-.1-.56 0-1.14 0-.85z"/>
  <path fill="#344461" d="M56.93 185.32c-2.1-5.87-4.18-11.74-5.66-17.8-.45-1.86-1.32-4.15.8-5.26 2.08-1.1 4.23-.13 5.88 1.58 9.98 10.38 20.1 20.64 25.34 34.54 1.1 3.07 3.1 5.84 4.6 8.77.4.88 1 1.52 2 1.57.7 4.34.1 8.9 2.1 13.04.5 1.06 1.4 2.16.5 3.48l-1.4.06c-1.7-.37-1.8-1.92-2.3-3.15-2.5-6.4-4.8-12.9-7.2-19.33-.5-1.15-.7-2.94-1.9-3.04-1.6-.12-1.3 1.84-1.9 2.87-1.9 3.5-2 7.75-4.7 10.9-.9-.04-1.5-.52-1.9-1.26-.7-2.4-2.4-4.2-3.3-6.4-.6-1.3-1.1-2.7 1.1-3.1 2.2-.4 2.1-2.2 1.9-3.8-.6-4.2-2.3-8-5.8-10.6-2.5-1.8-5-3.7-7.6-5.4-.4.7 0 1.7-.9 2.1z"/>
  <path fill="#FBFBFB" d="M56.93 185.32c.32-1.08-.45-2.24.35-3.52 6.36 4.53 13.86 7.9 14.83 17.1.4 3.8-.5 5.17-3.9 4.82 1.2 2.32 2.4 4.5 3.5 6.7.3.55 1.4 1.3 0 1.87-1.6-.7-2.4-2.1-3.2-3.6-2.1-4.4-4.3-8.8-6.5-13.2 2-1 3.1.8 4.5 1.5.6.3 1.2 1 1.8.6.9-.6.4-1.5.2-2.2-.4-1.4-1.3-2.4-2.5-3.2-1.5-1.2-3.2-2.2-5.3-3.9.6 2.3-.9 4 0 5.8.1 2.6-.2 5.2.6 7.8.2.6.6 1.8-.4 2-1.1.3-1.6-.8-1.7-1.7L58 191.8c-1-1.1-.1-2.4-.5-3.6l-.2-3.3zm16.44 28.22l4.88-14.16c.25-.72.28-1.72 1.35-1.68.9.03 1.36.8 1.65 1.55a555.84 555.84 0 0 1 3.34 8.57l6.6 17.48c-1.8 1.37-2.5-.1-2.9-1.35a13.43 13.43 0 0 0-1.8-3.53c-1.6-1.4-3.5-2.44-5.3-3.6-1.9-1.25-3.2-2.87-2.8-5.33 1.8-2.6 2.9.2 4.5.4-.7-2.1-1.5-4.4-2.4-6.8-1 1.9-1.2 4-2.3 5.8-.5 1.2-.7 2.5-2 3.2-1.5 1.5-2.3.3-3.1-.7zm19.27 11.7c-2.34-5.27-4.44-10.6-2.63-16.52 1.3-2.06 2.9-1.47 4.4-.48 2.7 1.77 5.2 3.75 7.8 5.54 1.2.8 1 1.6.5 2.6-.8 1.57-1.5.12-2.1-.23-1.6-1.03-3.1-2.3-4.7-3.37-2.4-1.62-3.9-.98-3.9 1.98 0 4.74 1.4 9.05 5.3 12.13a100.92 100.92 0 0 0 6.7 4.8c1.3.8 1.7 1.7.9 3-1.1 1.9-2.3-.1-2.6-.4-3.2-2.9-7.7-4.7-9.3-9.2z"/>
  <path fill="#354461" d="M60.45 194.47c-.9-2.2-.57-4.5-.87-7.8 3.66 3.53 8.38 4.6 9.8 9.4.33 1.12.85 2.67-.38 3.44-.97.7-1.75-.7-2.62-1.2-1.58-.8-2.64-2.5-4.6-2.7-.1-.4-.36-.8-.3-1.1.12-.7.85-1.7-.27-1.8-1-.1-.5 1.2-.7 1.9z"/>
  <path fill="#344461" d="M78.95 211.45c.2 3.67 3.24 5.02 5.66 6.83.9.6 1.7 1.1 2 2.14-3.7-1.5-6.9-3.83-10.1-6.18.5-1.14.5-2.48 1.4-3.43.6-.1 1 .1 1.1.7zm-21.8-22.85c.6 1.15.6 2.38.5 3.62-.38.67-.74 1.35-1.1 2l-.16-4.77.7-.85z"/>
  <path fill="#2C3854" d="M39.12 177.73c0-1.24-.2-2.63 1.06-3.4 1.4-.88 2.32.34 3.33.98 5.3 3.4 9.9 7.1 10.6 13.9.1 1.3.2 2.5-.3 3.7-.4 1-1 1.4-2.1 1.1-6.2-1.7-12.4-9.7-12.4-16.2z"/>
  <path fill="#565B70" d="M227.06 342.24c-3.85 4.25-8.7 7.32-13 11-8.43 7.16-18.57 11.03-28.52 15.32-1.14.5-2.4.84-3.2 1.88-3.63 2.7-7.86 2.7-12.07 2.67-9.3 0-16.4-5.2-23.36-10.4-15.3-11.5-29.7-24.3-45-36-7.3-5.7-14.9-11-22.4-16.5-1.3-1-2.8-2-4.5-2.2-1.2-1.4-.4-3.2-.6-4.8 4.1 1.9 7.4 4.9 10.9 7.5 11 8.2 21.9 16.4 32.7 24.9 9.9 7.7 19.4 15.9 29.3 23.6 6 4.7 12 9.7 20 10.8 3.7 1.8 7.5.6 11-.4 14.7-4.4 28.3-11.3 40.4-20.9 2.7-2.1 5.1-4.9 8.5-6.1z"/>
  <path fill="#A4AABB" d="M82.53 323.65c-.37-3.35-2.82-3.9-5.53-4.12l-1.2-3.4c1.94-1.1 3.2.46 4.62 1.23 10.66 5.78 19.7 13.75 29.07 21.3 10.4 8.44 20.1 17.76 31 25.56 5.8 4.2 11.7 8.4 18.4 11.38 3.4 1.53 7 1.8 10.6 2.34 12.7 1.87 24-3.56 35.6-6.9 1.6-.47 3.1-1.4 4.8-1.72.3 0 .6.06.9.22.7 1.67-.8 2.35-1.5 3.33-.9 1.1-2.4 1.76-2.6 3.35-2.3 1.96-5.2 2.24-7.8 3.07a82.3 82.3 0 0 1-15 3.1c-2.7.3-5.3.9-8 .7h-1.7c-2.3-.2-4.5.1-6.8-.3-3.9-1.6-7.8-3.3-11.8-4.5-4.4-1.4-7.8-4.8-11.7-7.2-15.3-9.4-27.5-22.4-41.2-33.7-5.2-4.3-10.6-8.5-16.2-12.3-1.4-1-3-1.3-4.5-1.7z"/>
  <path fill="#8C91A7" d="M210.52 369.74c-6.6 3.2-13.64 5.15-20.76 6.86-2.43.58-4.76 1.72-7.2 2.06-12.56 1.76-23.82-.88-34.57-8.18-17-11.52-31.7-25.72-47.8-38.35-7.7-6.05-15.4-12.07-24.5-16l-.7-3.45c1.2-1.17 2.3-.12 3.4.38 6.8 3.1 12.6 7.7 18.5 12.23 7.4 5.8 15 11.5 22 17.9 8.8 8.5 18.2 16.3 28.4 23.3 6 4.1 12.4 7.7 19.8 9.2 6.8 1.4 13.6 1.1 20.2-.7 6.4-1.8 12.6-4.2 18.7-6.8 1.7-.4 3.2-1.6 5.1-.8.6 1 .1 1.7-.8 2.2z"/>
  <path fill="#6B6C86" d="M74.92 307.87c.55-2.1 1.62-.58 2.22-.2 8.68 5.68 17.02 11.8 25.16 18.22 8.68 6.8 17.37 13.6 25.9 20.6 8 6.6 16 13.1 24.44 19.1 9.24 6.6 19 8.2 29.7 4.7h3.43c-.83 3-3.98 2.2-5.82 3.6-5.48 1.4-10.96.8-16.44.1-1.1-.1-2.2-.3-3.2-.7-1.5-.5-3-.9-4.2-2-4.2-3.7-8.6-7-13.7-9.4-2.9-1.3-5.1-3.5-7.4-5.6-6-6.7-13.3-11.9-20.2-17.5-9.5-7.6-18.8-15.3-28.8-22.2-3.6-2.6-7.8-4.3-10.9-7.7 0-.5-.1-.9-.1-1.4z"/>
  <path fill="#787D93" d="M75.03 309.22c7.93 4.06 15.05 9.35 22 14.84 11.57 9.17 23.07 18.45 34.55 27.75 1.48 1.2 2.63 2.8 3.94 4.2-1.8 1.4-2.8-.3-3.8-1.1-4.47-3.7-8.96-7.4-13.4-11.2-10.86-9.1-21.8-18.1-33.52-26.1-2.94-2-6.1-3.9-9.68-4.7l-.1-3.4z"/>
  <path fill="#C5CAD5" d="M85.28 329.88c-.43-.87-.8-1.77-.68-2.78 1.85-1.07 3 .42 4.23 1.28 10.04 7.02 19.16 15.2 28.47 23.1 9.5 8.1 19.3 15.77 29.48 22.92 2.33 1.63 5.15 2.5 7.45 4.2 1.04.77 3.03 1.3 1.53 3.33-2.43.76-4.7-.36-7.08-.48-2.2-.48-4.43-.87-6.58-1.55-.98-.3-2.36-.27-2.44-1.84-.64-2.56-2.56-4.1-4.7-5.08-7.43-3.4-12.7-9.56-19.05-14.32-8.1-6.12-15.2-13.57-24-18.92-3.3-2.03-4.7-6.3-6.5-9.86z"/>
  <path fill="#EFF1F4" d="M100.4 365.04l-2.68-2.94c-.98-2.87 1.63-2.93 3.22-4.08-3-3.02-6.05-6.04-9.07-9.07-1.3-1.37-2.23-3.03-3.58-4.36-.7-1-1.5-1.8-1-3.1 1.2-1.2 2.2-.1 2.9.6 1.9 1.8 4.4 3 6.1 4.8 7.4 7.7 15.9 14.3 24 21.2.6.5 1.2 1.3.9 2.4-2.8-.5-4.6-3.1-7.6-3.5.6 3.5 4.3 5.7 3.8 9.5-.8.6-1.6.3-2.3-.1-4.7-2.7-9.1-5.7-13.2-9.2-.8-.7-1.1-1.8-1.8-2.5z"/>
  <path fill="#9DA7BE" d="M139.66 378.06c2.75 1.65 6.12 1.26 8.95 2.66 1.2 1.26 1.9 2.8 2.7 4.3 1.4 2.74.5 4.2-2.5 4.04-1.9-.1-3.6 0-4.8 1.6-4.6 0-8.9-1.24-12.7-4.07-.1-1.2.3-2.2 1.3-2.8 1.7-.7 3.1.1 4.7.6.6.1 1.4.6 1.9-.1.5-.6.1-1.3-.1-2-.4-1.5-1.8-2.8-.5-4.4h1.4z"/>
  <path fill="#C5CAD5" d="M132.78 384.2c-1.38-.68-2.75-1.38-4.13-2.07 1.74-2.4-.56-3.92-1.34-5.74-.3-.8-1-1.4-.3-2.1.6-.6 1.3-.2 1.9 0 3.1 1.2 6.3 2.4 9.4 3.6-.1 2 1.4 3.5 1.9 5.3.5 1.8.4 3.2-2.2 2.2-1.6-.6-3.4-1-5.1-1.4z"/>
  <path fill="#A8ADBE" d="M156.13 381.4c-1.03-2.18-3.33-2.78-5.15-3.8-12.56-7.1-23.4-16.47-34.4-25.66-9.6-8.02-18.97-16.38-29.17-23.68-.8-.6-1.7-1.12-2.8-1.15-.7-1.1-1.3-2.3-2-3.4 1.4-.9 2.6-.6 3.8.2 6.1 4.1 11.9 8.4 17.5 13.2 8.1 6.9 16.4 13.5 24 20.8 7.9 7.5 17.4 12.6 26.1 18.7 2.9 2 6.8 2.5 10.2 3.8 1.2.5 2.6.4 3.2 1.9-2.9 1.9-6 1-9.1.8-.8-.2-1.5-.6-1.9-1.4z"/>
  <path fill="#66718E" d="M180.26 373.2c1.55-1.5 4.1-1 5.5-2.75 15.67-5.2 29.65-13.34 42.26-23.96 7.5-6.4 15-12.7 21.78-19.8 2.5-2.7 4.43-5.8 7.53-7.9-.15 2.7-2.14 4.4-3.8 6.2-13.1 14.2-27.5 26.8-43.66 37.4-4.3 2.8-9.3 4.2-13.78 6.6-4.9 2.9-10 5.1-15.9 4.1z"/>
  <path fill="#7F89A2" d="M118.32 343.6c4.07 1.95 6.9 5.5 10.5 8.04 2.17 1.53 3.63 4.2 6.7 4.36 2.06 2.13 4.4 3.9 6.88 5.5 4.6 3.2 9.2 6.43 13.78 9.63l4.12 1.4c1.42 1.9 3.74 1.5 5.6 1.86 6.32 1.1 12.64.9 18.83-1 8.4-2.1 16.7-4.5 24.43-8.5 13.77-7.9 25.52-18.3 37.16-28.9.96 1.6-.4 2.5-1.27 3.4-7.44 7.9-15.9 14.7-24.72 21-4.43 3.1-8.74 6.6-13.93 8.5-7.04 3.2-14.33 6.3-21.8 7.8-12 2.4-23.5-.3-33.94-7.1-11.34-7.4-21.52-16.1-31.55-25.1-.3-.3-.5-.8-.7-1.1z"/>
  <path fill="#7F8EAE" d="M206.4 369.07c3.73-2.55 7.47-5.07 11.18-7.65 9.75-6.8 18.98-14.2 27.2-22.8.72-.75 1.57-1.4 1.55-2.57 2.18-2.2 3.7-5.13 6.87-6.22-.1 3.6-2.08 6.27-4.33 8.8-3.52 1.88-5.73 5.22-8.44 7.92-5.8 5.78-12.32 10.54-18.98 15.16-2.35 1.7-4.58 3.5-6.92 5.1-.96.7-1.83 2-3.3 1l-4.82 1.4z"/>
  <path fill="#96A4BC" d="M248.4 338.1c2.24-2.38 3.32-5.44 4.8-8.27 1.43-2.92 2.48-6.3 6.88-5.5a10.8 10.8 0 0 0-.03.63l-4.08 9.7c-1.63 1.28-1.55 3.75-3.4 4.88-1.36-.66-2.97.3-4.3-.65-.17-.3-.13-.6.12-.8z"/>
  <path fill="#767C92" d="M209.17 364.95c-1.1 2.08-3.42 2.07-5.2 2.88-5.05 2.27-10.22 4.23-15.54 5.72-1.07.3-2.23.23-3.36.34-6.28 1.8-12.66 2.3-19.1.9-1.06-.2-2.54-.1-2.92-1.7 5.74.7 11.47 1.3 17.2 0 5.54-.5 10.57-2.7 15.84-4.2 4.7-.2 8.6-3 13-4.1z"/>
  <path fill="#222A42" d="M184.4 381.56c7.8-1.47 15.6-2.8 22.87-6.17 4.7-2.9 9.53-5.5 14.92-6.8 2.9 2.4 1.1 4.9.1 7.4-6.8 4.6-14.2 7.5-22.1 9.6-4.1.7-8.1 1.3-12.3.9-3.3-.4-4.3-1.8-3.6-5z"/>
  <path fill="#6D7B93" d="M181.6 392.42c-8 1.14-16.04 1.24-24.06.06 2.73-2.46 2.78-3.05.54-6.1-.74-.98-1.73-1.82-1.96-3.1-.2-1.14.1-1.8 1.42-1.12l9.64-.03 7.6.07c-.45 1.9-2.1 1.22-3.28 1.55-1.16.3-2.96-.9-3.4 1-.38 1.56 2.22 4.48 3.8 4.65 1.4.16 2.72-.3 4.07-.46.8-.1 1.6-.15 2.4-.08.72.1 1.4.26 1.88.9l1.36 2.66z"/>
  <path fill="#323C58" d="M180.25 389.75l-2.03-.06c-1.06-1.7-.52-4.1-2.62-5.3-.68-.4-.6-1.7.55-2.2l8.26-.7c.1 3 1.6 4.2 4.6 4 3.8-.2 7.6 0 11.3 0-6.4 2.5-13.3 3-20 4.1z"/>
  <path fill="#364567" d="M222.32 376.02c-.1-1.35-.02-2.65.4-4 .34-1.08.77-2.54-1.12-2.93 1.82-3.4 5.2-4.6 8.47-5.8.4-.2.77.3 1 .7.63 2.4.84 4.8-.62 7-2.72 1.6-4.98 4-8.13 4.9z"/>
  <path fill="#4E6089" d="M230.45 371.1l.03-7.73c1.3-2.53 3.06-4.43 6.1-4.7 1.36 3.3.18 7.87-2.7 10-1 .74-2.14 1.27-2.7 2.46a44.93 44.93 0 0 0-.73-.02z"/>
  <path fill="#B2BED2" d="M236.57 358.67l-6.1 4.7-8.87 5.72c-4.75 2.1-9.23 4.9-14.33 6.3-.22-3 3.2-3.4 4-5.7 1.95-2.8 5.18-3.6 7.9-5.2 10.16-6 18.9-13.5 26-22.9.92-1.2 1.8-2.4 3.23-3 1.3.7 3.26-2.3 4.17.7l-.8 1.9c-2.7 5.1-5.88 9.9-10.96 13.1l-4.2 4.1z"/>
  <path fill="#7B8FB9" d="M240.8 354.56l10.96-13.1c-.22 2.27 2.28 4.23.87 6.55-2.8 4.6-5.9 9-9.9 12.6-.33.3-.7.7-1.2.4-.7-.4-.8-1.1-.5-1.8.7-1.6.6-3.1-.22-4.6z"/>
  <path fill="#35435F" d="M272.55 203.64c0-2.27-.06-4.3.02-6.32.07-1.5 1.2-2.43 2.5-2.3 1.62.14 1.15 1.7 1.05 2.75-.23 2.44-.95 4.64-3.57 5.87z"/>
  <path fill="#384561" d="M273 192.13c.12-2.27.1-4.08.35-5.86.12-.96 1.04-1.68 1.95-1.6 1.25.1 1.12 1.3 1 2.15-.3 1.92-.76 3.8-3.3 5.3z"/>
  <path fill="#FBFBFA" d="M258.85 201.83l-.83 16.52c-2.33.57-3.9 2.04-5.17 4.02-.48.74-1.4 1.4-2.33 1.1-1.2-.35-1.27-1.55-1.24-2.56.12-4 1.35-7.6 4.3-10.4.6-.5 1.24-1 1.8-1.6.95-.9.97-2.3.25-3.1-.74-.8-1.6.3-2.26.9-.7.6-1.32 1.2-1.98 1.9-.7-.8-.4-1.6-.5-2.4.7-2 2.3-3.2 3.8-4.6 1.4-1.4 2.9-1.3 4.1.5z"/>
  <path fill="#344361" d="M240.18 212.64c1.3-.46 2.85-.03 3.95-1.15-.2 3.9-.4 7.9-.66 11.9a4 4 0 0 1-.65 1.9c-.46.7-.9 1.8-1.98 1.4-.88-.4-.63-1.4-.6-2.2.17-3.1.44-6.2.57-9.3.1-.9.7-2.1-.6-2.8z"/>
  <path fill="#384764" d="M78.95 211.45c-.37-.2-.73-.43-1.1-.64l2.72-8.2 4.1 11.3c-2.43 0-3.15-3.3-5.72-2.3z"/>
  <path fill="#929FBE" d="M248.4 338.8c-9.48 13.8-22.14 23.8-37.14 30.98l-.74-.04c.24-.68.48-1.36.7-2.04 4.78-3.28 9.53-6.57 14.3-9.82 6.23-4.24 11.7-9.4 17.2-14.5 1.9-1.75 2.9-4.44 5.67-5.28v.7z"/>
  <path fill="#4D5A79" d="M176.15 382.24c-.64.92-.38 2.1.33 2.42 2.54 1.1 1.62 3.2 1.74 5.03h-2.05c-6.84.8-7.44.5-9.83-5.5-.65-1.7.58-1.4 1.4-1.5 2.33-.3 4.78.5 7.03-.7h1.38z"/>
  <path fill="#767C92" d="M156.18 371.13c-5.24-2.27-9.87-5.43-13.77-9.62 1.3-.1 2.2.5 3.1 1.2 3.1 2.2 6.2 4.3 9.3 6.4.8.6 1.5 1.1 1.5 2.2z"/>
  <path fill="#787D93" d="M163.06 373.2c6.18 2.93 12.57 2.27 19 1.14 1-.18 2-.3 3-.45-8.07 3.2-16.13 2.7-24.16-.3-.3-.1-.4-.8-.6-1.2.86.4 1.75.8 2.76.7z"/>
  <path fill="#8290A8" d="M157.53 382.16c-2.1.6-.45 1.64-.1 2.15.84 1.2 1.97 2.2 2.62 3.5 1.5 3.1 1.06 4-2.52 4.7-4.7 0-9.26-1-13.77-2.2.4-2.2 1.47-3.1 3.8-2.2 1.1.5 2.67.8 3.43-.3.7-1.2-.5-2.3-1.1-3.3-.8-1.1-1.5-2.3-1.3-3.7l7.5.7 1.4.8z"/>
  <path fill="#3E4C69" d="M255.04 212.25c.3.18.45.23.46.3.28 2.2.02 4.26-2 5.64-.43.2-1 .1-1.07-.4-.4-2.4.6-4.2 2.6-5.6z"/>
</svg>
