<svg xmlns="http://www.w3.org/2000/svg" viewBox="0 0 1024 999" style="background-color:#ffffff00">
  <defs>
    <linearGradient id="a" x1="0%" x2="99.8%" y1="0%" y2="99.9%">
      <stop stop-color="#fa4c26" offset="0%"/>
      <stop stop-color="#fa300d" offset="100%"/>
    </linearGradient>
    <linearGradient id="b" x1="0%" x2="100.1%" y1=".3%" y2="99.6%">
      <stop stop-color="#220500" offset="0%"/>
      <stop stop-color="#220500" offset="100%"/>
    </linearGradient>
    <linearGradient id="c" x1="9%" x2="99.6%" y1="10.9%" y2="100.5%">
      <stop stop-color="#fa451f" offset="0%"/>
      <stop stop-color="#fa3713" offset="100%"/>
    </linearGradient>
    <linearGradient id="d" x1="50.1%" x2="99.2%" y1="0%" y2="100.5%">
      <stop stop-color="#220500" offset="0%"/>
      <stop stop-color="#220500" offset="100%"/>
    </linearGradient>
  </defs>
  <path fill="url(#a)" d="M0 0h1024v999H0z"/>
  <path fill="url(#b)" d="M42.4 42.4h941.8v916.8H42.4z"/>
  <path fill="url(#c)" d="M405 233l139.4 466h-77.2c-15-40-25-85.2-40-130H292.8L258 701h-72v-12.5c10-30 17.4-62 27.4-91.8 25-87.2 49.5-174.4 74.4-261.6 8.5-31.6 25-69.6 22.4-102H405zm2.4 264h-94.7L360 305.2 407.4 497zm418-72.2c2.6 5 7.6 20 7.6 27.4V701h-77V457c-20-40-30-39.7-59.8-39.7-12.5 0-37.2-2.5-47.2 10V701h-77V377c25-12.3 102.2-29.5 134.5-29.5 45 0 96.6 12.5 119 77.3z"/>
  <path fill="url(#d)" d="M360 306l-47.3 191H407l-47-191z"/>
</svg>
