<svg xmlns="http://www.w3.org/2000/svg" xmlns:xlink="http://www.w3.org/1999/xlink" viewBox="0 0 550 550" overflow="visible">
  <defs>
    <linearGradient id="a">
      <stop offset="0" stop-color="#6a6963"/>
      <stop offset=".6" stop-color="#3a3a38"/>
      <stop offset="1" stop-color="#191917"/>
    </linearGradient>
    <radialGradient id="c" cx="29" cy="-60.1" r="255.6" xlink:href="#a" fx="29" fy="-60.1" gradientTransform="matrix(-1.7 .8 -.9 -1.8 170.6 -50.6)" gradientUnits="userSpaceOnUse"/>
    <filter id="b">
      <feGaussianBlur stdDeviation="5.9"/>
    </filter>
  </defs>
  <path fill="#7e7e7e" d="M19.8 13h511v511H20z" transform="translate(1.3 11.2)" filter="url(#b)"/>
  <path fill="url(#c)" d="M19.8 13h511v511H20z"/>
  <path fill="#fff" d="M279.5 210H321c2 0 3.6.7 4.5 2.7l24.8 53.7h4.5l26-54c.7-1.7 2.2-2.6 4.3-2.5h36c1.6 0 3.5 1.3 2 3.3L379 290l48 80.4c1.6 2.5 1.7 4.6-1.5 4.6H382c-1.8.2-3-.7-3.8-2.2l-27-53.8h-5.4L320 373c-.8 2-2.5 2-4 2h-38.2c-1.5 0-2.2-1.2-1.5-2.4L323 295l-46-82.5c-1-1.5-.6-2.6 2.5-2.6.5 0 0 0 0 0zm-145.8-67h-.5c-.6 0-1 .4-1.3.8-.5 0-.6.2-.7.3 0 .6-.2.7-.3.8v227.8c0 1.6 1.2 2.7 2.6 2.7h37.6c1.4 0 2.5-1 2.5-2.5V280h76.6c1.4 0 2.6-1 2.6-2.6v-30.8c0-1.5-1.4-2.6-2.8-2.6h-76.6v-66h85.8c1.4 0 2.7-1.2 2.5-2.6l-4-30c0-1.5-1-2.6-2.6-2.6H133.7z"/>
</svg>
