<svg xmlns="http://www.w3.org/2000/svg" viewBox="0 0 1000 1000">
  <g fill-rule="evenodd">
    <path fill="none" stroke="#3c3c3c" stroke-opacity=".39" stroke-width="76.78" d="M494.9 38.55c-18.8 1-21.95 2.46-65.98 27.75-18.87 10.84-37.46 21.34-41.24 23.43-3.77 2.1-12.74 7.23-19.87 11.43-7.1 4.2-15.2 9.03-18.1 10.7-4.8 2.72-30.5 17.37-118.3 67.85-16.8 9.7-32.5 18.9-35 20.3-2.5 1.5-17.9 10.3-34.3 19.7-16.3 9.5-32.3 18.7-35.6 20.5-9.7 5.3-24.1 20.6-29.6 31.5-10.2 20-9.5 7.3-9.5 227.3 0 193.9.1 206.1 4.3 217.1 7.2 18.7 16.3 30.7 30.8 40.5 4.9 3.3 9.2 6.2 9.6 6.2.4 0 8.3 4.3 17.6 9.8 9.4 5.4 17.4 9.9 17.7 9.9.3 0 5 2.8 10.3 6 5.4 3.2 12.8 7.6 16.5 9.7 8.7 5 36 20.5 42 24 2.5 1.5 11.5 6.6 19.9 11.5 8.4 4.8 17.2 10 19.7 11.5 5.4 3.2 42.8 24.6 52.7 30.2 3.8 2.2 11.2 6.5 16.5 9.8 5.4 3.2 10.1 5.8 10.3 5.8.3 0 6.2 3.4 13.2 7.5s15.7 9.1 19.5 11.3c3.8 2.1 21.7 12.2 39.8 22.7 39.3 22.8 42.6 24.4 57.9 28 10.8 2.5 14.4 2.7 25.3.8 8.6-1.5 24.1-6.7 27.4-9.2 1.6-1.2 15.6-9.3 29.5-17.02 4.6-2.5 22.5-12.8 39.8-22.85 17.3-10.05 34.5-20 38.2-22.1 6.1-3.4 60.5-34.62 72.6-41.6 8.6-5 35-20.2 41.8-24 3.8-2.1 10.2-5.93 14.5-8.44 9.06-5.36 15.88-9.2 25.3-14.4 3.8-2.1 12.76-7.2 19.9-11.4 7.1-4.2 16.74-9.86 21.36-12.4 4.6-2.5 11.9-6.76 16.3-9.56s8.44-5.06 8.8-5.06c2.85 0 18.46-12 25.1-19.3 9.67-10.5 15.76-23.1 18.98-38.45 3.5-16.7 3.7-394 .2-410.9-3-14.3-9.7-27.77-18.6-37.66-9.5-10.6-14.5-13.9-57-37.9-3.72-2.17-15-8.6-25.1-14.5-15.3-8.9-90-52-105.3-60.73-2.5-1.4-12.8-7.26-22.85-13.1-10.1-5.87-21.4-12.5-25.15-14.6-3.8-2.1-23.4-13.2-43.5-24.77-20.2-11.6-47.1-27-59.8-34.3-28.6-16.4-37-19.14-58-18z" stroke-linecap="round" stroke-linejoin="round"/>
    <path fill="none" stroke="#fff" stroke-width="47.99" d="M494.92 39.17c-18.8 1-21.96 2.46-65.98 27.74-18.87 10.9-37.47 21.4-41.24 23.5-3.77 2.1-12.74 7.3-19.87 11.5-7.13 4.2-15.25 9.1-18.18 10.7-4.86 2.7-30.54 17.4-118.3 67.9-16.76 9.7-32.53 18.8-35.04 20.3-2.5 1.5-17.9 10.3-34.3 19.7-16.3 9.5-32.3 18.7-35.6 20.5-9.7 5.3-24.1 20.6-29.6 31.5-10.1 20.1-9.3 7.4-9.3 227.4 0 193.9.1 206.1 4.3 217.1 7.2 18.7 16.3 30.7 30.8 40.5 4.9 3.3 9.2 6.2 9.6 6.2.4 0 8.3 4.3 17.7 9.7 9.4 5.5 17.4 10 17.6 10 .3 0 5 2.8 10.3 6l16.5 9.8c8.7 5 36 20.5 42 24 2.5 1.5 11.5 6.6 19.9 11.5 8.4 4.87 17.2 10 19.7 11.48 5.4 3.2 42.8 24.6 52.7 30.2 3.8 2.1 11.2 6.5 16.5 9.74 5.3 3.26 10 5.8 10.3 5.8.3 0 6.2 3.4 13.2 7.5s15.7 9.17 19.5 11.28c3.8 2.1 21.7 12.2 39.8 22.7 39.3 22.8 42.6 24.4 57.9 27.9 10.9 2.5 14.4 2.7 25.3.8 8.6-1.5 24.1-6.7 27.4-9.2 1.6-1.2 15.6-9.3 29.4-17.02 4.5-2.5 22.5-12.8 39.8-22.8 17.3-10 34.5-20 38.3-22.1 6.1-3.4 60.5-34.6 72.6-41.6 8.6-5 35-20.1 41.8-24 3.74-2.1 10.2-5.9 14.44-8.4 9.03-5.4 15.85-9.2 25.3-14.42 3.75-2.1 12.7-7.2 19.85-11.4 7.1-4.2 16.73-9.8 21.34-12.4 4.6-2.5 11.9-6.7 16.3-9.5s8.42-5.1 8.8-5.1c2.8 0 18.47-12 25.1-19.3 9.6-10.5 15.7-23.02 18.9-38.4 3.5-16.7 3.7-394 .2-410.9-2.9-14.3-9.7-27.8-18.5-37.7-9.5-10.55-14.5-13.9-57-37.84-3.76-2.1-15.04-8.55-25.1-14.4-15.3-8.9-90-52-105.36-60.7-2.5-1.46-12.8-7.3-22.9-13.16-10.06-5.86-21.3-12.5-25.1-14.6-3.8-2.1-23.37-13.2-43.5-24.77-20.1-11.6-47.05-27-59.8-34.3-28.5-16.4-37-19.1-57.9-18z" stroke-linecap="round" stroke-linejoin="round"/>
    <path fill="#9b4f96" stroke-width="3" d="M494.9 38.32c-18.8 1-21.96 2.46-65.98 27.75-18.87 10.84-37.47 21.34-41.24 23.43-3.77 2.1-12.74 7.23-19.87 11.43-7.1 4.2-15.2 9.03-18.1 10.7-4.8 2.72-30.5 17.37-118.3 67.84-16.7 9.66-32.5 18.82-35 20.25-2.5 1.43-17.9 10.23-34.3 19.68-16.3 9.46-32.3 18.65-35.6 20.43-9.7 5.28-24.1 20.57-29.6 31.5-10.1 20.08-9.4 7.4-9.4 227.37 0 193.88.1 206.05 4.3 217.07 7.2 18.7 16.3 30.64 30.8 40.5 4.9 3.3 9.2 6.18 9.6 6.18.4 0 8.3 4.3 17.6 9.74 9.4 5.4 17.4 9.9 17.7 9.9.3 0 5 2.7 10.3 6 5.4 3.2 12.8 7.6 16.5 9.7 8.7 4.9 36 20.4 42 24 2.5 1.5 11.5 6.6 19.9 11.4 8.4 4.8 17.2 9.9 19.7 11.4 5.4 3.1 42.8 24.6 52.7 30.2 3.8 2.1 11.2 6.5 16.5 9.7 5.4 3.2 10.1 5.8 10.3 5.8.3 0 6.2 3.4 13.2 7.5s15.7 9.1 19.5 11.2c3.8 2.1 21.7 12.2 39.7 22.7 39.3 22.7 42.6 24.3 58 27.9 10.8 2.5 14.3 2.7 25.3.7 8.6-1.5 24.1-6.7 27.4-9.2 1.6-1.2 15.6-9.4 29.48-17.1 4.5-2.5 22.4-12.8 39.7-22.9 17.3-10.1 34.43-20 38.2-22.2 6.04-3.4 60.45-34.6 72.53-41.6 8.6-5 35-20.2 41.8-24 3.7-2.1 10.2-5.9 14.4-8.5 9-5.4 15.84-9.2 25.3-14.5 3.75-2.1 12.7-7.2 19.84-11.4s16.8-9.84 21.4-12.36c4.6-2.5 11.9-6.7 16.3-9.5 4.43-2.8 8.44-5.08 8.8-5.08 2.8 0 18.44-12 25.1-19.3 9.65-10.5 15.74-23.1 18.95-38.5 3.5-16.7 3.7-394 .2-410.9-3-14.3-9.7-27.8-18.6-37.7-9.5-10.58-14.5-13.9-57-37.87-3.73-2.2-15-8.6-25.1-14.5-15.3-8.9-90-52-105.33-60.73-2.54-1.45-12.8-7.3-22.9-13.1-10.1-5.9-21.34-12.56-25.1-14.66-3.75-2.1-23.34-13.15-43.5-24.73s-47-27-59.8-34.3c-28.5-16.3-37-19.1-57.9-18z" stroke-linecap="round" stroke-linejoin="round"/>
    <path fill="#68217a" stroke-width="3" d="M102.14 735.76c10.27 15.78 14.98 15.54 58.9 41.02 18.82 10.93 37.2 21.78 40.9 24 3.7 2.22 12.64 7.4 19.84 11.5 7.2 4.07 15.45 8.68 18.35 10.4 4.8 2.84 30.32 17.75 117.9 68.5 16.75 9.7 32.57 18.77 35.06 20.24 2.5 1.46 17.8 10.43 34.2 19.86 16.3 9.44 32.3 18.68 35.5 20.63 9.4 5.8 29.8 10.7 42 10 22.4-1.3 11.1 4.4 201.6-105.5 167.9-96.9 178.4-103.1 185.8-112.2 12.6-15.5 18.4-29.4 19.7-46.8.4-5.8.7-11 .5-11.3-.2-.3-.4-9.3-.4-20.1s-.1-19.9-.2-20.2c-.1-.3-.1-5.7 0-11.9s.2-14.8.2-19.2c-.1-10-.3-41.4-.2-48.4 0-2.9 0-13.2-.1-22.9 0-9.7 0-19.8.1-22.7 0-6.3-.1-49.4-.2-60.7-.1-4.3 0-12.9.2-19.2.1-6.2 0-11.6-.1-11.8-.1-.3-.1-7-.1-15.1v-22.5c-.1-4.3-.3-24.9-.2-45.7.1-45.4-.2-49-4.8-64.1-1.9-6.14-4.8-9.3-7-12.9L100.2 731.1c.96 1.57.96 2.95 2.03 4.66z" stroke-linecap="round" stroke-linejoin="round"/>
    <path fill="#813787" stroke-width="3" d="M902.96 727.5c8.52-16.77 8.85-20.23 8.96-71 .05-21.76.3-43.12.3-47.43.07-4.3.1-14.65.02-22.92-.06-8.28-.2-17.72-.2-21.1.07-5.57.2-35.13.4-136.36.03-19.4-.03-37.6 0-40.5 0-2.9.1-20.7.1-39.6-.02-18.9 0-37.3.08-41.1.3-10.6-6.33-28.9-12.66-39.4L500 500l399.85 231.62c.87-1.6 2.1-2.3 3.03-4.1z" stroke-linecap="round" stroke-linejoin="round"/>
    <path fill="#fff" d="M482 226.56v.2c-36.22 2.53-71.74 11.7-102.72 27.55-107.66 55.2-166.6 168.1-149.4 286.5 5.35 36.8 20.12 76 40.12 106.5 3.92 6 7.48 11.3 7.87 11.7.38.4 3.9 4.9 7.68 10 9.44 12.6 33.3 36.5 48 48 41.34 32.4 95.7 53.2 149.58 57.2 11.5.9 47.34-.7 59.42-2.4 5.87-.8 13-2 15.93-2.8 2.94-.8 8.75-2.2 12.94-3.2 49.06-11.6 99.7-42.4 136.28-82.8 9.78-10.8 22.9-28.1 28.3-37.5l3.94-6.9-56.8-32.8c-31.2-18-57.76-33-59.05-33.2-1.4-.2-4.6 3.1-7.7 7.7-15.1 22.4-41.5 42.3-67.9 51.2-19.2 6.5-24.2 7.2-46.5 7.1-24.7 0-38.1-2.7-57.6-11.6-14.5-6.6-23.9-13-38.3-26.4-24.8-23.1-40-55.5-42.4-90.3-4.6-67 38.3-126.1 104.2-143.9 16-4.3 51.1-4.9 66-.9 13.2 3.5 28 9.4 37.8 15 16.5 9.4 37 28.7 45.9 43.1 1.8 3 4.2 5.25 5.2 5.24 1 0 5.2-1.9 9.4-4.3 8.2-4.6 35.2-20.12 42.7-24.52 2.5-1.5 11.3-6.6 19.6-11.4 8.4-4.85 18-10.4 21.4-12.4 3.3-2 10.1-5.8 15-8.46 4.8-2.64 8.6-5.24 8.6-5.8 0-.6-3.7-6.8-8.5-13.9-33.5-50.1-84.8-89.1-141.9-107.96-34.3-11.3-71.4-15.4-107.6-12.9zm256.44 206.58v17.43H721v35.05h17.44v34.87H721v35h17.44v17.4h35.05v-17.4h34.8v17.4h35v-17.4h17.4v-35h-17.4v-34.9h17.4v-35.1h-17.4v-17.4h-35v17.4h-34.8v-17.4h-35.1zm35.05 52.48h34.8v34.87h-34.8v-34.9z"/>
  </g>
</svg>
