<svg xmlns="http://www.w3.org/2000/svg" viewBox="0 0 1024 1024" style="background-color:#ffffff00">
  <defs>
    <linearGradient id="a" x1="50%" x2="50%" y1="0%" y2="100%">
      <stop stop-color="#f7f7f8" offset="0%"/>
      <stop stop-color="#e3e4e7" offset="100%"/>
    </linearGradient>
    <linearGradient id="b" x1="49.8%" x2="49.8%" y1="-.3%" y2="100%">
      <stop stop-color="#f99138" offset="0%"/>
      <stop stop-color="#f38331" offset="100%"/>
    </linearGradient>
    <linearGradient id="c" x1="50%" x2="50%" y1="0%" y2="100.1%">
      <stop stop-color="#827e7f" offset="0%"/>
      <stop stop-color="#726e6f" offset="100%"/>
    </linearGradient>
    <linearGradient id="d" x1="49.7%" x2="49.7%" y1="0%" y2="100%">
      <stop stop-color="#efeff1" offset="0%"/>
      <stop stop-color="#ebecee" offset="100%"/>
    </linearGradient>
  </defs>
  <path fill="url(#a)" d="M10.7 512C10.7 235.2 235.2 10.7 512 10.7s501.3 224.5 501.3 501.3-224.5 501.3-501.3 501.3S10.7 788.8 10.7 512z"/>
  <path fill="none" stroke="#676634" stroke-width="20" d="M76.3 264c-41.7 73.3-65.6 158-65.6 248 0 276.8 224.5 501.3 501.3 501.3h.4"/>
  <path fill="none" stroke="#21491c" stroke-width="20" d="M946.3 261.5C859.6 111.5 697.6 10.7 512 10.7c-186.6 0-349.5 102-435.7 253.4"/>
  <path fill="none" stroke="#225f74" stroke-width="20" d="M512.4 1013.3c276.7-.3 501-224.6 501-501.3 0-91.2-24.5-176.8-67-250.5"/>
  <path fill="url(#b)" d="M892.4 392l-69.8 157h59c2-30.4 3.4-62.7 7-95 12.5-1.7 27-5.6 39.4-9v102c9 1.7 20 1.7 29 0v47h-27c-1.6 3.6 0 9 0 69.8-14.3 1.8-28.6 3-48.3 4.8-1.8-3.5-1.8-67.4 0-71 0 0 0-3.6-5.4-3.6H764v-33.2L841 392h51.4z"/>
  <path fill="url(#c)" d="M543.3 511c0 32.3-9 77-44.7 107.5 16 10.8 34 25 60.8 18-10.7 28.6-7 31.7-30.4 31.7-37.6 0-59-32.2-73.4-32.2h-35.8c-3.6-1.8-2.6.2-9.3-.7-37.4-5-71.8-60.6-74.5-99v-46.7c2.7-68.3 50-102 103.8-102 77 0 103.5 71.6 103.5 123.5zm-351 19.5L230 391h64.5l23.3 242H264l-9-141.3L217.6 633h-48.3l-37.6-141.3-9 141.3H69l21.4-242h66.2l35.8 139.5zM635 391v195h74.8v47H581V391h54zM482.5 511c0 23.4-3.2 82.5-44.3 82.5-30.5 0-41.2-43-41.2-57.3v-48.4c0-26.8 16-57.3 41.2-57.3 43 0 44.3 62.7 44.3 80.6z"/>
  <path fill="url(#d)" d="M482.5 511c0 23.4-3.2 82.5-42.5 82.5-30.5 0-43-39.4-43-57.3v-48.4c0-26.8 16-57.3 41.2-57.3 43 0 44.3 62.7 44.3 80.6z"/>
</svg>
