<svg xmlns="http://www.w3.org/2000/svg" id="Layer_1" viewBox="0 0 1380 1800">
  <style>
    .st0{fill:#80C342;} .st1{fill:#FFFFFF;} .st2{fill:none;}
  </style>
  <path d="M250.5 4C117.3-18 5 80.5 5 223.7V1798l1219.5-205.3c84-14.6 148.5-113.7 148.5-220.8V188L250.5 4z" class="st0"/>
  <path d="M1144 1166.6c-14.3 0-23.3-4.5-30.2-13.6-7.7-10-9.8-32.2-9.8-66.7v-397l103 5.2V586l-103-8V405l-100.3-10.7-41 174-65-4.8V680l46 2.3v440c0 57.5 14.5 99.5 38 125.6 20 22 50.8 33 89 33 5.8 0 12-1 18-1 42.4-4 84-15 129.6-35v-99c-23 11-49 18-70.8 19-1.3.4-2 .4-3.5.4m-324.3 1c-35.3 83-89 137.5-162.6 163 8 38 19 64 34 77.2 12 10.3 30 15.5 54 15.5 7 0 15-.4 23-1v112l-51 6.6c-15 2-29 3-43 3-44.2 0-81-11-108-33-36-29-62.2-84.7-79.2-167.3-78.3-16.7-139.3-66.4-181.5-150-43-84.7-65-208.7-65-371 0-175 30-304 89-386 49.4-69 118.6-103 205.6-103 14 0 28.3.7 43 2.4 102.4 12 176.6 60 225 144 47 82 70 199.4 70 353.4 0 141-17 252.3-52 334.3zm-154-32c20.2-52 30-153.7 30-305 0-136-9.7-229.8-29.8-281-20-51.8-50-79.7-91-83l-9-.6c-38 0-66 21.7-86 65.3-21 47-32 146-32 295 0 144 10 246 32 306 20 57 50 85 90 85h5c39-2.4 69-30 90-82" class="st1"/>
  <path d="M0 0h1380v1800H0z" class="st2"/>
</svg>
