<svg xmlns="http://www.w3.org/2000/svg" xmlns:xlink="http://www.w3.org/1999/xlink" viewBox="0 0 159 94" preserveAspectRatio="xMidYMid">
  <defs>
    <linearGradient id="b">
      <stop offset="0" stop-color="#81bfff"/>
      <stop offset="1" stop-color="#fff"/>
    </linearGradient>
    <linearGradient id="f">
      <stop offset="0" stop-color="#0080ff"/>
      <stop offset="1" stop-color="#0080ff" stop-opacity="0"/>
    </linearGradient>
    <linearGradient id="e">
      <stop offset="0" stop-color="#0080ff"/>
      <stop offset="1" stop-color="#0080ff" stop-opacity="0"/>
    </linearGradient>
    <linearGradient id="d">
      <stop offset="0" stop-color="#0080ff"/>
      <stop offset="1" stop-color="#0080ff" stop-opacity=".1"/>
    </linearGradient>
    <linearGradient id="c">
      <stop offset="0" stop-color="#0080ff"/>
      <stop offset="1" stop-color="#0080ff" stop-opacity="0"/>
    </linearGradient>
    <linearGradient id="a">
      <stop offset="0" stop-color="#007eff" stop-opacity=".7"/>
      <stop offset="1" stop-color="#baddff"/>
    </linearGradient>
    <linearGradient id="l" x1="74.1" x2="56.2" y1="41.6" y2="5" gradientUnits="userSpaceOnUse" xlink:href="#a"/>
    <linearGradient id="g" x1="33.7" x2="83.2" y1="41.6" y2="12.2" gradientTransform="translate(24.5 39.1)" gradientUnits="userSpaceOnUse" xlink:href="#b"/>
    <linearGradient id="h" x1="121" x2="55.8" y1="44.1" y2="5" xlink:href="#c" gradientUnits="userSpaceOnUse"/>
    <linearGradient id="j" x1="33.7" x2="98.9" y1="41.6" y2="80.8" xlink:href="#d" gradientUnits="userSpaceOnUse"/>
    <linearGradient id="k" x1="33.7" x2="80.3" y1="42.9" y2="42.9" xlink:href="#e" gradientUnits="userSpaceOnUse"/>
    <linearGradient id="i" x1="87" x2="99.1" y1="21.9" y2="80.8" xlink:href="#f" gradientUnits="userSpaceOnUse"/>
  </defs>
  <path fill="#cdcdcd" d="M24.8 3.8c.8-.4 1.4-1 3 0l4 6.5c.5 1 .7 2.3 0 3.8l-17 27c0 1-.7 1.5 0 3l18 29c.7 1.6.3 2.6 0 3.5l-4 5.7c-1 .7-2 .3-3 0L2.4 45c-1-3-.4-4 0-5.4L25 3.8zM130 4c-.7-.6-1.4-1.2-3-.3l-4 6.7c-.5 1-.7 2.3 0 3.8l17 27c0 .6.7 1 0 2.8l-18 29c-.8 1.3-.5 2.3-.2 3.3l4 5.6c1 .3 2 0 3 0l23.6-37c1-3 .3-4-.2-5.7L130 4z"/>
  <path fill="url(#g)" d="M80.3 44H121L99 81H58l22-36.7z"/>
  <path fill="url(#h)" d="M80.3 44L55.8 5h40.7L121 44H80.3"/>
  <path fill="url(#i)" d="M121 44L96.5 5l-22 36.6L99 80.8 121 44"/>
  <path fill="url(#j)" d="M99 80.8L74.3 41.6H33.7l24.5 39.2H99"/>
  <path fill="url(#k)" d="M58.2 80.8L33.7 41.6 55.7 5l24.6 39z"/>
  <path fill="url(#l)" d="M55.8 5h40.7l-22 36.6h-41L55.8 5z"/>
</svg>
