<svg xmlns="http://www.w3.org/2000/svg" viewBox="0 130.7 595.3 580.4">
  <radialGradient id="a" cx="97.4" cy="760.6" r="145.8" gradientTransform="matrix(2.4803 0 0 -2.4803 -.067 2217.312)" gradientUnits="userSpaceOnUse">
    <stop offset="0" stop-color="#2f2a2c" stop-opacity=".8"/>
    <stop offset=".8" stop-color="#2f2a2c"/>
  </radialGradient>
  <path fill="url(#a)" d="M20.3 151h555v540h-555V151z"/>
  <path fill="#b3a3a8" d="M0 130.7V711h595.3V130.8H0m24.8 24.8h545.7v530.8H24.8v-531M187.3 535V423.4H276c2 0 3-.5 3-3v-34c0-2.4-1-3-3-3h-88.7v-77.8H286c2.5 0 3.7-.7 3.2-3.2l-4-34.7c-.5-2-.7-3-3.2-3H145.6c-2 0-3 .7-3 3v266.6c0 2.5.8 3.2 3 3.2h39c2 0 2.7-.2 2.7-2.7m201-163.5c26 0 46.5 17.6 46.5 59.8-.5 50-27 71.7-54.8 71.7-5.2 0-10.2-.5-15-1.7V376c5.8-2.6 13-4.4 23.4-4.4M361.6 265h-39.2c-1.7 0-2.4.6-2.4 3v262c0 2 1.2 3 2.4 3.3 17.2 5.8 34.5 8.2 52.4 8.2 55.3 0 104.6-38 104.6-112.8 0-58.5-33.4-95.8-83.8-95.8-12 0-22 1-31 4.2V268c0-2.3-.7-3-3-3"/>
</svg>
