<svg xmlns="http://www.w3.org/2000/svg" viewBox="0 0 256 240">
  <defs>
    <linearGradient id="a" x1="50%" x2="50%" y1="1089.4%" y2="-159.5%">
      <stop stop-color="#473788" offset="30.33%"/>
      <stop stop-color="#2C2255" offset="87.2%"/>
    </linearGradient>
    <linearGradient id="b" x1="50%" x2="50%" y1="896.54%" y2="-352.36%">
      <stop stop-color="#473788" offset="30.33%"/>
      <stop stop-color="#2C2255" offset="87.2%"/>
    </linearGradient>
    <linearGradient id="c" x1="50%" x2="50%" y1="215.17%" y2="-166.72%">
      <stop stop-color="#473788" offset="30.33%"/>
      <stop stop-color="#2C2255" offset="86.31%"/>
    </linearGradient>
  </defs>
  <path fill="#2C2255" d="M70.38 153.05H31.26c5.18 17.77 14.8 33.7 28.86 47.77 22.44 22.43 49.4 33.64 80.96 33.64 6.3 0 12.42-.47 18.35-1.37 23.76-3.6 44.56-14.4 62.4-32.3 14.15-14.1 23.83-30 29.05-47.8H70.38zM48.8 99.9H28.38a119.5 119.5 0 0 0-1.48 13.8h228.38c-.23-4.7-.74-9.3-1.5-13.78M26.9 126.48c.24 4.7.74 9.3 1.5 13.78h225.4a118.86 118.86 0 0 0 1.5-13.78m-4.4-39.36c-5.2-17.82-14.9-33.82-29.06-48-17.78-17.77-38.52-28.43-62.2-32.02a123.32 123.32 0 0 0-18.54-1.4c-31.55 0-58.52 11.16-80.96 33.43-14.07 14.17-23.7 30.17-28.87 48"/>
  <path fill="#F7941E" d="M20.1 120.1C20.1 59.74 65.4 9.6 124.35.8c-1.47-.05-2.94-.1-4.4-.1C53.8.7.15 54.14.15 120.1c0 65.93 53.63 119.4 119.8 119.4 1.47 0 2.94-.07 4.4-.12-58.95-8.82-104.27-58.95-104.27-119.3z"/>
  <path fill="url(#a)" d="M155.73 14.23A77.82 77.82 0 0 0 153.36.45H2.64A77.75 77.75 0 0 0 .28 14.23h155.45z" transform="translate(63.083 99.46)"/>
  <path fill="url(#b)" d="M155.73 27.02H.28A77.6 77.6 0 0 0 2.64 40.8h150.73a77.82 77.82 0 0 0 2.36-13.78z" transform="translate(63.083 99.46)"/>
  <path fill="url(#c)" d="M78 98.64c31.3 0 58.28-18.45 70.7-45.05H7.3c12.42 26.6 39.4 45 70.7 45z" transform="translate(63.083 99.46)"/>
  <path fill="#FFF" d="M51.84 126.48h203.3c.1-2.03.16-4.08.16-6.15 0-2.23-.08-4.44-.2-6.64H26.87c-.12 2.2-.2 4.4-.2 6.6 0 2 .06 4.1.16 6.1h25zm18.08-39.36H31.25c-1.27 4.17-2.1 8.44-2.88 12.8h224.7a113.52 113.52 0 0 0-3.08-12.8m-11.7 53.13h-210c.73 4.36 1.6 8.63 2.9 12.8h219.5a113.25 113.25 0 0 0 3-12.8h-15.4z"/>
</svg>
