<svg xmlns="http://www.w3.org/2000/svg" id="Layer_1" viewBox="0 0 376 368">
  <style>
    .st0{fill:#235EE1;}
  </style>
  <path d="M268.5 158.5c.7-2.2 1.3-4.1 1.8-6 6-21.6 12.1-43.2 20.4-64.1 3.7-9.4 10-14.7 19.8-15.8 6.5-.7 13.4-1.3 17.8 4.9 2.9 3.9 6.2 6.2 10.9 7 2.2.3 4.4.9 6.5 1.7 2.9 1.1 4-.1 4.8-2.8 2.5-8.8 5.1-17.5 7.7-26.2 2.9-9.9 2.9-9.8-6.7-13.2-4-1.4-7.6-2-11.8-.2-6.8 2.8-13 1.7-18.5-3.8-5.8-5.8-12.4-10.3-20.3-13.1-22.7-7.9-46-11.4-69.9-7.6-11.5 1.8-22.7 4.9-32.4 11.8-1.4 1-2.5 2.2-3.8 3.4 13.2-1.1 25.9-1.3 38.6.4 8.6 1.1 16.3 4 22 11.3 6 7.7 7.4 16.8 8.2 26 1.1 12.9-1.3 25.3-4.9 37.6-3.8 13-7.4 26.2-11.1 39.2-.5 1.7-.9 3.2 1.4 3.8 6.4 1.9 12.7 3.7 19.5 5.7zM207 355.1c6.3.5 11.4-2.4 14.6-8 1.9-3.3 3.4-7 4.3-10.7 9.6-39.7 19.1-79.4 28.6-119.2 3.9-16.5 7.6-33 11.6-49.5.8-3.2 0-4.5-3.1-5.2-4.2-1-8.4-2.2-12.6-3.5-7.7-2.3-6.2-2-8.5 4.4C223 217.3 204 271.1 185.1 325c-.8 2.2-1.5 4.6-1.6 6.9-.6 13.6 9 23.1 23.5 23.2z" class="st0"/>
  <path d="M13 115.2c.4 3.3.8 6.1 1.2 8.8 2.9 19.2 5.9 38.4 8.7 57.6 2.9 19.3 5.7 38.7 8.5 58 2.9 19.5 5.8 38.9 8.8 58.4 1.8 12.3 3.7 24.6 5.5 37 .4 2.6 1.3 3.8 4.4 3.3 18.2-3 36.4-5.9 54.6-8.7 26-4.1 51.9-8 77.9-12.1 1-.2 1.8-1.4 2.7-2.2-1.1-.6-2.4-1.7-3.4-1.6-14.2 2-28.3 4.2-42.5 6.4-28.7 4.5-57.4 8.9-86 13.5-3 .5-4-.2-4.4-3.1-1.7-12.5-3.5-24.9-5.4-37.3-4.1-27.6-8.4-55.2-12.5-82.7-4.5-30-8.9-60.1-13.5-90.2-.5-3.3.6-4.8 3.9-5.2 5.8-.8 11.6-1.8 17.3-2.7 23.6-3.8 47.2-7.7 70.8-11.5l61.9-10.2c19.2-3.1 38.3-6.2 57.5-9.4 9-1.5 17.9-2.9 26.9-4.6 1.1-.2 1.9-1.8 2.8-2.7-1.2-.5-2.4-1-3.6-1.4-.3-.1-.7.1-1.1.2-11.2 1.9-22.4 3.8-33.5 5.6-23.6 3.9-47.2 7.7-70.8 11.6-22 3.6-44 7.3-66 10.9-22.6 3.7-45.2 7.5-67.8 11.1-2.5.4-3.8 1.1-2.9 3.2zM298 82c-.6 0-1.2 0-1.8-.1-.3 2.5-1.2 5.1-.9 7.6 1.1 8.1 2.7 16.2 4 24.3l10.8 65.2c3.6 21.7 7.2 43.5 10.9 65.2 2.3 13.9 4.7 27.8 7 41.6.4 2.1 0 3.6-2.6 4l-57.6 9c-9.1 1.4-18.2 2.9-27.3 4.5-.8.1-1.5 1.4-2.2 2.2 1 .5 1.9 1.4 2.8 1.4 2.9-.2 5.7-.7 8.5-1.1 21.3-3.4 42.6-6.8 63.8-10.2 6.4-1 12.7-2.1 19.6-3.2-11.6-70.3-23.3-140.3-35-210.4z" class="st0"/>
  <path d="M222.1 208c2.3-2.3 1.9-4 .3-5.9-6.3-7.5-12.4-15-18.7-22.5-17.5-21.1-35.1-42.3-52.6-63.5-1.4-1.7-2.6-4-3-6.2-.7-4.3 2.2-8.2 6.4-9.9 4.5-1.7 8.4-.5 12.2 4 17.2 20.6 34.5 41.2 51.7 61.8 4.1 4.9 8.3 9.8 12.6 14.9 2.2-2.3 1.9-4 .3-5.9-6.9-8.2-13.8-16.5-20.7-24.7-13.9-16.6-27.7-33.2-41.7-49.6-5.6-6.5-14.1-6.9-20.3-1.5-6.1 5.3-6.4 12.8-.7 19.6 21.6 26.1 43.2 52.1 64.8 78.2 3.1 3.8 6.2 7.4 9.4 11.2zm-69-42.1c-.7-.5-1.5-1.2-2.4-1.6-6.9-2.6-13.8-5-20.7-7.6-2.2-.8-3.2 0-4 1.9-12.6 31-25.2 61.9-37.8 92.9-1 2.3-.3 3.4 1.8 4.2 6.5 2.6 13 5.1 19.4 8 3.5 1.6 4.9.8 6.2-2.7 12-30.7 24.2-61.3 36.3-91.9.3-.7.6-1.7 1.2-3.2zm65.9 42.9c-5-6.3-9.6-11.5-13.4-17.1-3.4-5.2-7.2-7.9-13.5-5.3-1.5.6-3.2.6-4.8.8l-40.1 6.9c-2.1.4-3.9.9-4.8 3.4-2.6 7.4-5.4 14.7-8.1 22.1-.3.8-.3 1.8-.5 3.2 28.5-4.6 56.3-9.2 85.2-14zm-112.4-8.9c-16.4 2.7-32 5.2-48.1 7.8 1.1 7.5 2.3 14.6 3.1 21.8.4 3.1 1.7 3.5 4.5 3.1 8.2-1.3 16.5-2.4 24.8-3.4 2.5-.3 4.1-1.3 5.1-3.6 3-7.2 6.2-14.4 9.3-21.6.5-1.2.7-2.2 1.3-4.1zm175.8 62.4c-9.8-6-19.5-11.9-30.1-18.3.4 1.9.2 4.1 1.2 5.2 1.9 2.1 4.2 3.9 6.7 5.2 3.4 1.9 7 3.2 10.5 4.9 5.1 2.5 8.8 6.1 8.8 12.3 0 1 .5 2 .9 3.1l1-.5c.3-.3.5-.6.7-.9 6-8.9 6.4-18.7 3.8-28.7-2.9-11.2-8.1-20.9-19-26.5-3-1.5-4.9-.2-7.1 1.3-2.3 1.6-3.6 3.5-3 6.9 1.6-1 3-1.7 4-2.7 2.5-2.6 4.8-2 7.6-.2 11 7.7 17.9 27.1 14 38.9zM81.3 304.2c.4.2.8.4 1.2.5 9.9-12.4 19.9-24.8 30-37.5-1.5-.8-2.4-1.4-3.4-1.8-6.4-2.6-12.8-5-19.1-7.7-3-1.3-3.9-.4-4.1 2.7-.8 8.4-1.8 16.8-2.7 25.3-.7 6.2-1.3 12.4-1.9 18.5zm64.5-172.4c-5.8.6-9.6 3-11.8 8.1-1.5 3.7-2.9 7.4-4.6 11-1 2.1-.7 3.4 1.7 4.2 6.7 2.3 13.4 4.8 20 7.4 2.4.9 3.4.1 4.3-2 1.5-3.8 3.2-7.6 4.8-11.4 2.1-5.1 1.2-9.4-3.4-12.4-3.3-2.1-7.3-3.3-11-4.9zm117.3 69c8.4-1.1 16.7-2.2 24.9-3.5.7-.1 1.6-1.9 1.5-2.7-1-6.6-2.2-13.3-3.6-19.8-.2-1-1.9-2.4-2.9-2.4-4.2.3-8.4.9-12.6 1.6-2.1.3-3.6 1.3-2.4 4.3 3.8-.5 7.7-1.1 11.6-1.4.9-.1 2.6.7 2.7 1.3 1.1 5 1.9 10.2 2.9 15.5-6.5.9-12.6 1.7-18.6 2.5-2.2.3-4.2.8-3.5 4.6zm5.4-42.3c-6.7-2-13.1-3.8-19.4-5.6-2.3-.7-1.9-2.1-1.4-3.8 3.7-13.1 7.3-26.2 11.1-39.2 3.6-12.3 6-24.8 4.9-37.6-.8-9.2-2.1-18.2-8.2-26-5.7-7.3-13.4-10.2-22-11.3-12.7-1.7-25.3-1.5-38.6-.4 1.3-1.1 2.4-2.4 3.8-3.4 9.7-6.9 20.9-10 32.4-11.8 24-3.8 47.2-.2 69.9 7.6 7.9 2.7 14.5 7.3 20.3 13.1 5.5 5.5 11.7 6.6 18.5 3.8 4.2-1.8 7.8-1.2 11.8.2 9.6 3.4 9.6 3.3 6.7 13.2-2.6 8.7-5.2 17.4-7.7 26.2-.8 2.7-1.9 3.8-4.8 2.8-2.1-.8-4.3-1.4-6.5-1.7-4.7-.7-8.1-3-10.9-7-4.5-6.1-11.3-5.6-17.8-4.9-9.8 1.1-16.1 6.4-19.8 15.8-8.3 20.9-14.4 42.5-20.4 64.1-.6 1.8-1.2 3.6-1.9 5.9zM207 355.1c-14.5-.1-24-9.5-23.5-23.2.1-2.3.8-4.7 1.6-6.9C204 271.1 223 217.3 242 163.5c2.2-6.4.8-6.6 8.5-4.4 4.2 1.2 8.4 2.5 12.6 3.5 3.1.7 3.9 2 3.1 5.2-4 16.5-7.7 33-11.6 49.5-9.5 39.7-19 79.5-28.6 119.2-.9 3.7-2.4 7.4-4.3 10.7-3.3 5.5-8.4 8.4-14.7 7.9z" class="st0"/>
  <path d="M13 115.2c-.9-2.1.4-2.8 3-3.2 22.6-3.6 45.2-7.4 67.8-11.1 22-3.6 44-7.3 66-10.9 23.6-3.9 47.2-7.7 70.8-11.6 11.2-1.8 22.4-3.7 33.5-5.6.4-.1.8-.3 1.1-.2 1.2.4 2.4.9 3.6 1.4-.9.9-1.7 2.5-2.8 2.7-8.9 1.7-17.9 3.1-26.9 4.6-19.2 3.1-38.3 6.2-57.5 9.4l-61.9 10.2c-23.6 3.9-47.2 7.7-70.8 11.5-5.8.9-11.5 2-17.3 2.7-3.3.4-4.4 1.9-3.9 5.2 4.6 30 9 60.1 13.5 90.2 4.1 27.6 8.4 55.2 12.5 82.7 1.9 12.4 3.7 24.9 5.4 37.3.4 2.9 1.3 3.6 4.4 3.1 28.6-4.6 57.3-9 86-13.5 14.2-2.2 28.3-4.4 42.5-6.4 1-.1 2.3 1 3.4 1.6-.9.8-1.7 2-2.7 2.2-25.9 4.1-51.9 8.1-77.9 12.1-18.2 2.8-36.4 5.7-54.6 8.7-3.1.5-4-.7-4.4-3.3-1.8-12.3-3.6-24.6-5.5-37-2.9-19.5-5.9-38.9-8.8-58.4-2.9-19.3-5.7-38.7-8.5-58L14.3 124c-.5-2.7-.9-5.4-1.3-8.8zM298 82l35.2 210.6c-6.9 1.1-13.2 2.2-19.6 3.2L249.8 306c-2.8.4-5.7.9-8.5 1.1-.9.1-1.9-.9-2.8-1.4.7-.8 1.4-2 2.2-2.2 9.1-1.6 18.2-3.1 27.3-4.5 19.2-3 38.4-6.1 57.6-9 2.6-.4 2.9-1.9 2.6-4-2.3-13.9-4.7-27.7-7-41.6-3.6-21.7-7.2-43.5-10.9-65.2L299.5 114c-1.4-8.1-2.9-16.2-4-24.3-.3-2.4.6-5 .9-7.6.5-.1 1-.1 1.6-.1z" class="st0"/>
  <path d="M222.1 208c-3.2-3.8-6.3-7.4-9.4-11.2-21.6-26.1-43.2-52.1-64.8-78.2-5.7-6.8-5.4-14.2.7-19.6 6.3-5.5 14.8-5.1 20.3 1.5 14 16.4 27.8 33.1 41.7 49.6 6.9 8.2 13.7 16.5 20.7 24.7 1.6 1.9 2 3.6-.3 5.9-4.3-5.1-8.5-10-12.6-14.9-17.2-20.6-34.5-41.2-51.7-61.8-3.8-4.5-7.7-5.8-12.2-4-4.3 1.7-7.1 5.6-6.4 9.9.3 2.2 1.5 4.5 3 6.2 17.5 21.2 35 42.3 52.6 63.5 6.2 7.5 12.4 15 18.7 22.5 1.6 1.9 2.1 3.6-.3 5.9zm-69-42.1c-.5 1.5-.8 2.4-1.2 3.4-12.1 30.6-24.3 61.2-36.3 91.9-1.4 3.5-2.7 4.3-6.2 2.7-6.3-2.9-12.9-5.4-19.4-8-2.2-.9-2.8-1.9-1.8-4.2 12.7-30.9 25.3-61.9 37.8-92.9.8-2 1.8-2.8 4-1.9 6.9 2.6 13.8 5 20.7 7.6.9.2 1.6.9 2.4 1.4zm-23.6-5c-1.7 4.3-3.3 8.1-4.8 11.9-10.3 25.3-20.6 50.6-31 75.9-1.2 3-.6 4.2 2.2 5.2 4 1.4 8 3 11.8 4.8 3 1.5 4.2.9 5.4-2.2 7.8-20 15.7-39.9 23.7-59.9 3.8-9.5 7.5-19 11.4-28.9-6.3-2.2-12.2-4.4-18.7-6.8zm89.5 47.9c-28.9 4.8-56.7 9.3-85.1 14 .2-1.4.2-2.3.5-3.2 2.7-7.4 5.6-14.7 8.1-22.1.9-2.5 2.7-3.1 4.8-3.4l40.1-6.9c1.6-.3 3.3-.2 4.8-.8 6.3-2.5 10 .2 13.5 5.3 3.7 5.7 8.3 10.8 13.3 17.1zm-79.6 9.1c24.4-4 48.1-8 72.3-12-4.3-5.4-8-10.2-11.9-14.9-.7-.8-2.3-1.2-3.5-1.1-3.5.4-6.9 1-10.3 1.6-11.9 2-23.8 4-35.6 6.2-1.5.3-3.7 1.2-4.2 2.4-2.5 5.6-4.5 11.4-6.8 17.8zm-32.8-18c-.6 1.9-.9 2.9-1.3 3.9-3.1 7.2-6.3 14.4-9.3 21.6-1 2.4-2.5 3.3-5.1 3.6-8.3 1-16.5 2.1-24.8 3.4-2.8.4-4.1 0-4.5-3.1-.9-7.1-2-14.2-3.1-21.8 16.1-2.4 31.7-4.9 48.1-7.6zm-6.2 5.1c-12 1.9-23.1 3.6-34 5.5-1.1.2-2.9 2-2.9 2.9.3 4.3 1.1 8.6 2 12.9.2.8 1.9 1.9 2.7 1.8 6.8-.8 13.6-1.7 20.3-2.8 1.3-.2 3.2-.9 3.7-1.9 2.9-5.8 5.3-11.8 8.2-18.4zm182 57.3c3.9-11.8-3-31.2-14-38.7-2.7-1.9-5-2.4-7.6.2-1 1-2.4 1.6-4 2.7-.6-3.5.7-5.3 3-6.9 2.2-1.6 4.1-2.8 7.1-1.3 10.9 5.6 16.1 15.3 19 26.5 2.6 10 2.2 19.8-3.8 28.7-.2.3-.4.6-.7.9-.2.2-.4.2-1 .5-.3-1.1-.9-2.1-.9-3.1 0-6.2-3.7-9.8-8.8-12.3-3.5-1.7-7.2-3-10.5-4.9-2.5-1.4-4.9-3.1-6.7-5.2-1-1.1-.8-3.3-1.2-5.2 10.6 6.2 20.3 12.1 30.1 18.1zM81.3 304.2c.6-6.2 1.1-12.3 1.8-18.5.9-8.4 2-16.8 2.7-25.3.3-3.1 1.1-4 4.1-2.7 6.3 2.7 12.7 5.1 19.1 7.7 1 .4 1.9 1 3.4 1.8-10.2 12.7-20.1 25.1-30 37.5-.3-.1-.7-.3-1.1-.5zm5.1-11.6c.3.1.6.1.8.2 6.3-8 12.5-15.9 19-24.2-5.9-2.3-11-4.3-16.5-6.5-1.1 10.6-2.2 20.6-3.3 30.5zm59.4-160.8c3.7 1.6 7.7 2.8 11 5 4.6 3 5.5 7.3 3.4 12.4-1.6 3.8-3.3 7.5-4.8 11.4-.8 2.1-1.9 2.9-4.3 2-6.6-2.6-13.3-5-20-7.4-2.4-.8-2.6-2.1-1.7-4.2 1.6-3.6 3-7.4 4.6-11 2.2-5.2 5.9-7.6 11.8-8.2zm-12.2 19.9c5.8 2.2 11.3 4.3 16.7 6.1.6.2 2-.7 2.4-1.5 1.4-2.9 2.5-5.9 3.9-8.9 1.3-2.8.7-5.5-1.7-6.9-2.8-1.7-5.9-2.9-9.1-3.7-3.5-.8-6.4.8-7.8 4.2-1.5 3.4-2.8 6.7-4.4 10.7zm129.5 49.1c-.8-3.8 1.3-4.3 3.5-4.6 6-.8 12-1.6 18.6-2.5-1-5.3-1.8-10.4-2.9-15.5-.1-.6-1.8-1.4-2.7-1.3-3.9.3-7.8.9-11.6 1.4-1.1-3.1.4-4 2.4-4.3 4.2-.6 8.4-1.3 12.6-1.6 1-.1 2.7 1.4 2.9 2.4 1.4 6.6 2.6 13.2 3.6 19.8.1.8-.9 2.6-1.5 2.7-8.2 1.3-16.4 2.3-24.9 3.5z" class="st0"/>
  <path d="M129.5 160.9c6.5 2.4 12.4 4.5 18.7 6.8-3.9 9.9-7.7 19.4-11.4 28.9-7.9 20-15.9 39.9-23.7 59.9-1.2 3.1-2.5 3.7-5.4 2.2-3.8-1.9-7.8-3.4-11.8-4.8-2.8-1-3.4-2.2-2.2-5.2 10.4-25.3 20.7-50.6 31-75.9 1.5-3.8 3-7.6 4.8-11.9zm9.9 57c2.4-6.4 4.3-12.1 6.7-17.7.5-1.2 2.7-2.1 4.2-2.4 11.9-2.2 23.8-4.2 35.6-6.2 3.4-.6 6.9-1.3 10.3-1.6 1.1-.1 2.8.3 3.5 1.1 3.9 4.7 7.7 9.5 11.9 14.9-24.1 3.9-47.8 7.8-72.2 11.9zm-39-12.9c-2.9 6.6-5.3 12.6-8.2 18.3-.5 1-2.4 1.7-3.7 1.9-6.7 1.1-13.5 2-20.3 2.8-.9.1-2.6-1-2.7-1.8-.9-4.2-1.7-8.5-2-12.9-.1-.9 1.7-2.7 2.9-2.9 10.9-1.8 22-3.5 34-5.4zm-14 87.6c1.1-10 2.2-19.9 3.4-30.5 5.4 2.1 10.6 4.2 16.5 6.5-6.5 8.3-12.8 16.2-19 24.2-.3 0-.6-.1-.9-.2zm47.2-140.9c1.6-4 2.9-7.3 4.4-10.6 1.5-3.4 4.3-5 7.8-4.2 3.2.7 6.3 2 9.1 3.7 2.4 1.5 3 4.1 1.7 6.9-1.3 2.9-2.5 6-3.9 8.9-.4.7-1.8 1.7-2.4 1.5-5.5-1.9-10.9-4-16.7-6.2z" class="st0"/>
</svg>
