<svg xmlns="http://www.w3.org/2000/svg" viewBox="0 0 480 467" style="background-color:#ffffff00">
  <defs>
    <linearGradient id="a" x1="0%" x2="100.1%" y1="0%" y2="99.9%">
      <stop stop-color="#e5ed00" offset="0%"/>
      <stop stop-color="#dacf00" offset="100%"/>
    </linearGradient>
    <linearGradient id="b" x1="0%" x2="99.9%" y1=".3%" y2="99.6%">
      <stop stop-color="#454100" offset="0%"/>
      <stop stop-color="#312d00" offset="100%"/>
    </linearGradient>
    <linearGradient id="c" x1="-.3%" x2="87.9%" y1="0%" y2="99.4%">
      <stop stop-color="#e3e700" offset="0%"/>
      <stop stop-color="#ddd700" offset="100%"/>
    </linearGradient>
  </defs>
  <path fill="url(#a)" d="M0 0h480v467H0V0z"/>
  <path fill="url(#b)" d="M37 36h408v396H37V36z"/>
  <path fill="url(#c)" d="M192 119c1 8 1.5 17 2.5 34H115v57h72v34h-72v83H74V119h118zm77.5 161.5l22-112.5h38l21 113.5 22-113.5H410v5.5L370 327h-40.5l-21-112.5-27 112.5h-39l-37-159h44l20 112.5z"/>
</svg>
