<svg xmlns="http://www.w3.org/2000/svg" viewBox="18 268 180.93 147.72">
  <path fill="#005385" stroke-width="0" d="M112.23 350.8c.33-5.9 3.22-11.1 7.58-14.78 4.3-3.62 10.1-5.82 16.4-5.83 6.3 0 12.1 2.2 16.3 5.8 4.4 3.7 7.3 8.9 7.6 14.8.4 6-2.1 11.7-6.3 15.8-4.33 4.2-10.54 6.9-17.5 6.9-6.92 0-13.13-2.7-17.5-6.9-4.25-4.2-6.7-9.8-6.35-15.9z"/>
  <path fill="#ff7021" stroke-width="0" d="M74.2 362.74c.03 2.3.77 6.8 1.87 10.3 2.32 7.4 6.26 14.28 11.75 20.33 5.62 6.2 12.54 11.2 20.54 14.74 8.4 3.8 17.52 5.7 26.97 5.7 9.46 0 18.56-1.9 26.97-5.7 8-3.5 14.92-8.6 20.54-14.8 5.47-6.1 9.4-12.9 11.73-20.4 1.17-3.7 1.9-7.5 2.2-11.3.3-3.7.17-7.5-.36-11.3-1-7.3-3.5-14.2-7.4-20.5-3.6-5.7-8.2-10.8-13.6-15L120 272.2l-.13-.12c-3.64-2.78-9.73-2.77-13.7.02-4.05 2.82-4.5 7.48-.92 10.43h-.02l23.06 18.76H57.9c-5.8 0-11.4 3.8-12.5 8.6-1.1 4.9 2.8 8.9 8.83 9l35.6-.1-63.55 48.8-.24.2c-6 4.6-7.94 12.2-4.17 17 3.84 4.9 12 4.9 18.04 0l34.7-28.38s-.5 3.8-.4 6.1zm89.1 12.83c-7.13 7.3-17.13 11.4-27.96 11.43-10.84.02-20.84-4.07-28-11.34-3.48-3.55-6.05-7.62-7.64-11.96-1.54-4.27-2.15-8.8-1.75-13.36.4-4.47 1.7-8.73 3.83-12.58 2.1-3.8 4.96-7.2 8.5-10.1 6.95-5.68 15.8-8.74 25.05-8.75 9.26 0 18.1 3.1 25.04 8.7 3.54 2.9 6.4 6.3 8.5 10.1 2.13 3.9 3.45 8.1 3.84 12.6.4 4.6-.2 9.1-1.7 13.4-1.6 4.4-4.1 8.5-7.6 12z"/>
</svg>
