<svg xmlns="http://www.w3.org/2000/svg" viewBox="0 0 300 300" style="background-color:#ffffff00">
  <g stroke="#ffffff00">
    <path fill="#7dc640" d="M0 150C0 67.2 67.2 0 150 0s150 67.2 150 150-67.2 150-150 150S0 232.8 0 150z"/>
    <path fill="#4d4d4d" d="M101 26s-4.8 4.5-39 40c-34.3 35.5-37 41-37 41s1 18.5 7 60 9 50 9 50 2.8 3.8 44 28c41.3 24.3 52 29 52 29s11.5-3.8 54-19c42.5-15.3 51-21 51-21s4.8-9 18-52c13.3-43 15-54 15-54s-5.5-13-31-50-32-43-32-43-2.5-2.3-53-6c-50.5-3.8-58-3-58-3z"/>
    <path fill="#7dc640" d="M117 78s-1.8 1.8-15 35c-13.3 33.3-15 43-15 43s8 11.8 27 36c19 24.3 24 28 24 28s9.8-.5 43-5c33.3-4.5 39-6 39-6s3.8-5.5 16-35c12.3-29.5 16-43 16-43s-6-9.8-25-34c-19-24.3-26-31-26-31s-10.3-1-43 4c-32.8 5-41 8-41 8z"/>
    <path fill="#fffeff" d="M130 86l-10 65 59 31 48-47-30-59-67 10z"/>
  </g>
</svg>
