<svg xmlns="http://www.w3.org/2000/svg" viewBox="0 940 288 160">
  <defs>
    <clipPath id="a">
      <path d="M0 0h2880v2005.8H0z"/>
    </clipPath>
  </defs>
  <g clip-path="url(#a)" transform="matrix(.1 0 0 -.1 0 1122.7)">
    <path fill="#383332" d="M298.5 278l-62-51.7c-19.5 20.8-40.3 32-68.3 32-44.6 0-80.3-34.8-80.4-88 0-53.4 35-88 79.8-88.2 27.6 0 51.4 13 69.6 33l61.3-53c-30-38-75-60-128.5-60C68 3-.2 74 0 171c.2 96.8 68.6 168.2 170.6 168 53.5 0 98.6-22 128-60.7M434 295c22.7 31.7 56.7 42.8 91.7 42.7 72.6-.4 124.3-51 124.3-125l-.5-203h-85.8V185c0 46.2-23 71.7-62.2 71.8-37 0-68-24-68-72V9.6L347 10v475.5l87-.2-.3-190M782 170.5c-.2-49 31.8-88.2 82.3-88.3 49.2 0 82.6 37.5 82.7 88 0 50.5-33.2 88-82.4 88.2-50.5 0-82.6-39-82.7-88zM1028.7 10H944v35.4C923.4 19.7 892.3 2 848.4 2c-88 .2-154.6 72.6-154.5 168.6 0 96 67 168.2 155 168 44 0 74-18 95-44V330l84-.2V10m309 242.8h-116v-118c0-40 21-54.6 48-54.6 20 0 42 10 60 20.6l24-72.4C1327 12 1296 0 1255 0c-79.2.2-119.7 45-119.6 128l.2 124.8H1074v76.7h62V397h86.2v-67.5h90.2l25.5-76.7"/>
    <path fill="#ef3532" d="M1750.8 105.4l69 224.3 90-.2L1801.2 10H1703l-71 216.5-70.5-216.7-97.6.2-107 320 91-.2 67-223 72 223h91l72-224.4m250 65c0-51.8 36-88.2 84-88.2s85 36 85 88c0 51.7-36.7 88-85 88.2-48.7 0-85-36.2-85-88zm258-.5c0-97-74-169-174-168-99 0-172 72-172 168s73 168 173 168c100-1 173-73 173-169m263 162l-14-86c-14 6-34.7 10-52 10-40 0-67.5-25-67.6-72V10h-86v320l84-.3v-35c20.2 30 51 43.5 90 43.4 18.7 0 33.2-2 45-7m132-114h30.3l90.3 113h106l-126-150 127-170h-106l-91.8 130H2653V10h-86.2v475.5h86.5V216.2M1319 1091v-39h-.2c-3.4-32.6-17.5-64.2-42.4-89-57.8-57.8-151.8-57.8-209.6 0-57.8 57.8-57.8 151.7 0 209.5 24.8 25 56.3 39 88.8 42.5H1443c-68.7 0-124-55.6-124-124m.2-39.4h-.2.3M1071.8 1463h-39c-32.6 3.5-64.3 17.6-89 42.5-58 57.7-58 151.8 0 209.6 57.7 58 151.6 58 209.4 0 25-24 39-56 42.5-88h-.2v-288c0 69-55.5 124-124 124m658.5-123v1m176 44.6c-51 50-116 76.7-182 79h-158c0-68.5 56-124 124-124h39c32-3.4 64-17.5 89-42.4 57-58 57-152 0-209.6-58-58-152-58-210 0-25 24-39 56-43 88l-.2 163v125h-123v-124h-123v259c0 82.4-23.4 148-79.4 204-106 105.6-278 105.6-384 0-106-106-106-278.5 0-384.4 51-50 116-76.7 182-79H1183c-82.6 0-148-23-204-79-106-106-106-278.5 0-384 106-106 278.3-106 384 0 50.6 50 77 115 79.5 181v146c-.5-83 23-148 79-204 106-106 278-106 384 0s106 278 0 384"/>
    <path fill="#383332" d="M1443.5 1750.3h.2-.2m339.8 176c-106 106-278.3 106-384.2 0-50-50.3-76-115.5-79-181.5V1587c69 0 124 55.6 124 124v39c4 32.6 18 64.2 43 89 58 57.8 152 57.8 210 0s58-151.7 0-209.5c-24-25-56-39-89-42.5h-287v-124h259c83-.2 148 23.2 204 79.2 106 106 106 278.2 0 384"/>
  </g>
</svg>
