<?xml version="1.0" standalone="no"?>
<!-- Generator: Adobe Fireworks 10, Export SVG Extension by Aaron Beall (http://fireworks.abeall.com) . Version: 0.6.1  -->
<!DOCTYPE svg PUBLIC "-//W3C//DTD SVG 1.1//EN" "http://www.w3.org/Graphics/SVG/1.1/DTD/svg11.dtd">
<svg id="Untitled-%u30DA%u30FC%u30B8%201" viewBox="0 0 255 240" style="background-color:#ffffff00" version="1.1"
	xmlns="http://www.w3.org/2000/svg" xmlns:xlink="http://www.w3.org/1999/xlink" xml:space="preserve"
	x="0px" y="0px" width="255px" height="240px"
>
	<g id="%u80CC%u666F">
		<g>
			<path d="M 254.5 106.5 C 254.5 165.5 207.5 212.5 136.5 239.5 L 136.5 214.5 C 71.5 219.5 0.5 187.5 0.5 117.5 C 0.5 101.5 6.5 79.5 14.5 66.5 C 46.5 14.5 94.5 0.5 135.5 0.5 C 192.5 0.5 254.5 35.5 254.5 106.5 ZM 133.5 81.5 C 144.5 66.5 154.5 64.5 166.5 64.5 C 187.5 64.5 196.5 77.5 196.5 95.5 L 196.5 155.5 L 180.5 155.5 L 180.5 89.5 C 175.5 79.5 169.5 77.5 162.5 77.5 C 150.5 77.5 135.5 87.5 135.5 101.5 L 135.5 155.5 L 120.5 155.5 L 120.5 94.5 C 116.5 81.5 112.5 77.5 101.5 77.5 C 86.5 77.5 74.5 90.5 74.5 101.5 L 74.5 155.5 L 58.5 155.5 L 58.5 65.5 L 74.5 65.5 C 74.5 70.5 74.5 75.5 75.5 80.5 C 84.5 65.5 95.5 64.5 104.5 64.5 C 116.5 64.5 123.5 65.5 133.5 81.5 Z" fill="#d1ad59"/>
			<g>
				<path d="M 75.625 98.8281 C 75.625 94.5781 78.25 90.0625 83.5 85.2813 C 88.1563 81.0313 93.7031 78.9063 100.125 78.9063 C 105.9531 78.9063 110.3281 80.2344 113.25 82.8906 C 115.9688 86.0781 117.3438 89.2656 117.3438 92.4531 L 117.3438 154.6094 L 136 154.6094 L 136 98.0313 C 136 94.3125 138.3281 90.3281 143 86.0781 C 148.25 81.2969 154.9531 78.9063 163.125 78.9063 C 167.7813 78.9063 171.875 80.5 175.375 83.6875 C 176.9375 85.8125 177.7188 88.4688 177.7188 91.6563 L 177.7188 154.6094 L 196.375 154.6094 L 196.375 88.4688 C 196.375 82.0938 193.4531 76.25 187.625 70.9375 C 182.375 66.1563 175.0781 63.7656 165.75 63.7656 C 152.3281 63.7656 141.8281 69.3438 134.25 80.5 C 132.5 77.3125 130.1563 74.3906 127.25 71.7344 C 121.4063 66.4219 112.9531 63.7656 101.875 63.7656 C 91.9531 63.7656 83.2031 68.8125 75.625 78.9063 L 75.625 65.3594 L 56.9688 65.3594 L 56.9688 154.6094 L 75.625 154.6094 L 75.625 98.8281 L 75.625 98.8281 Z" fill="#ffffff"/>
			</g>
		</g>
	</g>
	<g id="%u30EC%u30A4%u30E4%u30FC%201">
	</g>
</svg>