<svg xmlns="http://www.w3.org/2000/svg" viewBox="0 0 255 240" style="background-color:#ffffff00">
  <path fill="#d1ad59" d="M254.5 106.5c0 59-47 106-118 133v-25c-65 5-136-27-136-97 0-16 6-38 14-51 32-52 80-66 121-66 57 0 119 35 119 106zm-121-25c11-15 21-17 33-17 21 0 30 13 30 31v60h-16v-66c-5-10-11-12-18-12-12 0-27 10-27 24v54h-15v-61c-4-13-8-17-19-17-15 0-27 13-27 24v54h-16v-90h16c0 5 0 10 1 15 9-15 20-16 29-16 12 0 19 1 29 17z"/>
  <path fill="#fff" d="M75.6 98.8c0-4.2 2.7-8.7 8-13.5C88 81 93.6 79 100 79c6 0 10.3 1.2 13.3 4 2.7 3 4 6.3 4 9.5v62H136V98c0-3.7 2.3-7.7 7-12 5.3-4.7 12-7 20-7 4.8 0 9 1.5 12.4 4.7 1.5 2 2.3 4.8 2.3 8v63h18.7V88.4c0-6.4-3-12.3-8.8-17.6-5.2-4.8-12.5-7.2-21.8-7.2-13.5 0-24 5.5-31.6 16.7-1.7-3.2-4-6-7-8.8-5.8-5.3-14.2-8-25.3-8-10 0-19 5-26.6 15.2V65.3H57v89.2h18.6V98.8z"/>
</svg>
