<?xml version="1.0" standalone="no"?>
<!-- Generator: Adobe Fireworks 10, Export SVG Extension by Aaron Beall (http://fireworks.abeall.com) . Version: 0.6.1  -->
<!DOCTYPE svg PUBLIC "-//W3C//DTD SVG 1.1//EN" "http://www.w3.org/Graphics/SVG/1.1/DTD/svg11.dtd">
<svg id="opensocial-logo-%u30DA%u30FC%u30B8%201" viewBox="0 0 1024 1240" style="background-color:#ffffff00" version="1.1"
	xmlns="http://www.w3.org/2000/svg" xmlns:xlink="http://www.w3.org/1999/xlink" xml:space="preserve"
	x="0px" y="0px" width="1024px" height="1240px"
>
	<g id="%u80CC%u666F">
		<g>
			<path d="M 790.8943 316.2416 C 790.8943 371.3967 835.6215 416.1074 890.7968 416.1074 C 945.972 416.1074 990.6992 371.3967 990.6992 316.2416 C 990.6992 261.0865 945.972 216.3758 890.7968 216.3758 C 835.6215 216.3758 790.8943 261.0865 790.8943 316.2416 ZM 824.1951 915.4362 C 824.1951 970.5913 868.9222 1015.302 924.0975 1015.302 C 979.2729 1015.302 1024 970.5913 1024 915.4362 C 1024 860.2812 979.2729 815.5705 924.0975 815.5705 C 868.9222 815.5705 824.1951 860.2812 824.1951 915.4362 ZM 0 840.5369 C 0 895.692 44.7273 940.4027 99.9024 940.4027 C 155.0776 940.4027 199.8049 895.692 199.8049 840.5369 C 199.8049 785.3818 155.0776 740.6711 99.9024 740.6711 C 44.7273 740.6711 0 785.3818 0 840.5369 ZM 391.2845 1115.1677 C 391.2845 1184.1116 447.1936 1240 516.1626 1240 C 585.1316 1240 641.0406 1184.1116 641.0406 1115.1677 C 641.0406 1046.224 585.1316 990.3356 516.1626 990.3356 C 447.1936 990.3356 391.2845 1046.224 391.2845 1115.1677 ZM 283.0569 124.8322 C 283.0569 193.776 338.9658 249.6644 407.935 249.6644 C 476.9041 249.6644 532.813 193.776 532.813 124.8322 C 532.813 55.8884 476.9041 0 407.935 0 C 338.9658 0 283.0569 55.8884 283.0569 124.8322 Z" fill="#51d8ff"/>
			<g>
				<path id="%u6955%u5186%u5F62" d="M 549.4634 624.1611 C 549.4634 550.621 609.0996 491.0067 682.6667 491.0067 C 756.2338 491.0067 815.8699 550.621 815.8699 624.1611 C 815.8699 697.7012 756.2338 757.3154 682.6667 757.3154 C 609.0996 757.3154 549.4634 697.7012 549.4634 624.1611 Z" stroke="#51d8ff" stroke-width="42" fill="none"/>
				<path id="%u30E9%u30A4%u30F3%u30C4%u30FC%u30EB" d="M 400.8943 122.1544 L 622.5529 500.8121 " stroke="#51d8ff" stroke-width="42" fill="none"/>
				<path id="%u30E9%u30A4%u30F3%u30C4%u30FC%u30EB2" d="M 861.3333 366.6577 L 769.7561 508.1342 " stroke="#51d8ff" stroke-width="42" fill="none"/>
				<path id="%u30E9%u30A4%u30F3%u30C4%u30FC%u30EB3" d="M 770.0813 728.1879 L 878.309 853.0201 " stroke="#51d8ff" stroke-width="42" fill="none"/>
				<path id="%u30E9%u30A4%u30F3%u30C4%u30FC%u30EB4" d="M 170.6667 861.3423 L 878.309 911.2751 " stroke="#51d8ff" stroke-width="42" fill="none"/>
				<path id="%u30E9%u30A4%u30F3%u30C4%u30FC%u30EB5" d="M 653.5284 761.4765 L 553.626 1027.7853 " stroke="#51d8ff" stroke-width="42" fill="none"/>
			</g>
		</g>
	</g>
	<g id="%u30EC%u30A4%u30E4%u30FC%201">
	</g>
</svg>