<svg xmlns="http://www.w3.org/2000/svg" viewBox="0 0 1024 1240" style="background-color:#ffffff00">
  <path fill="#51d8ff" d="M791 316.2c0 55.2 44.6 100 99.8 100 55.2 0 100-44.8 100-100 0-55-44.8-99.8-100-99.8s-100 44.7-100 99.8zm33 599.2c0 55.2 44.7 100 100 100 55 0 99.8-44.8 99.8-100 0-55-44.7-99.8-100-99.8-55 0-99.8 44.7-99.8 99.8zm-824-75c0 55.3 44.7 100 100 100 55 0 99.8-44.7 99.8-100 0-55-44.7-99.7-100-99.7-55 0-99.8 44.7-99.8 99.8zm391.3 274.8c0 69 56 124.8 125 124.8 68.8 0 124.7-56 124.7-124.8 0-69-56-125-124.8-125-69 0-125 56-125 125zM283 124.8c0 69 56 125 125 125s124.8-56 124.8-125S476.8 0 407.8 0C339 0 283.2 56 283.2 124.8z"/>
  <path fill="none" stroke="#51d8ff" stroke-width="42" d="M549.5 624.2c0-73.6 59.6-133.2 133.2-133.2 73.5 0 133.2 59.6 133.2 133.2 0 73.5-60 133-133.5 133-73.6 0-133.2-59.5-133.2-133zM401 122.2l221.6 378.6m238.7-134L769.8 508m.2 220.2L878.4 853m-707.7 8.3l707.6 50M653.5 761.5l-100 266.3"/>
</svg>
