<svg xmlns="http://www.w3.org/2000/svg" viewBox="0 0 226 312" preserveAspectRatio="xMidYMid">
  <path fill="#d33833" fill-rule="evenodd" d="M222.15 150.42c0 61.8-48.97 111.87-109.38 111.87-60.4 0-109.37-50.1-109.37-111.9 0-61.8 48.97-111.9 109.37-111.9 60.4 0 109.38 50.1 109.38 111.9"/>
  <path fill="#ef3d3a" d="M7.86 178.13s-7.92-116.67 99.58-120l-7.5-12.5L41.6 65.2 24.95 84.4l-14.6 27.9-8.33 32.5 2.5 21.66"/>
  <path fill="#231f20" d="M37.86 74.1C18.66 93.74 6.8 120.85 6.8 150.84c0 29.98 11.87 57.1 31.06 76.73 19.2 19.63 45.66 31.74 74.9 31.74 29.26 0 55.73-12.1 74.92-31.7 19.2-19.6 31.07-46.7 31.07-76.7s-11.88-57.1-31.07-76.7c-19.2-19.6-45.66-31.7-74.9-31.7-29.26 0-55.72 12.1-74.92 31.8zM33 232.32c-20.4-20.86-33-49.7-33-81.48 0-31.8 12.6-60.63 33-81.5 20.4-20.85 48.62-33.78 79.77-33.78s59.38 12.93 79.77 33.8c20.4 20.85 33 49.68 33 81.48 0 31.8-12.6 60.62-33 81.48-20.4 20.86-48.62 33.8-79.77 33.8S53.4 253.17 33 232.3"/>
  <path fill="#f0d6b7" fill-rule="evenodd" d="M158.8 151.04l-16.65 2.5-22.5 2.5-14.6.42-14.15-.42-10.84-3.33-9.58-10.4-7.5-21.2-1.67-4.6-10-3.3-5.8-9.6-4.2-13.7 4.6-12.1L56.8 74l8.75 4.15 4.17 9.17 5-.85 1.65-2.1-1.64-9.57-.4-12.1 2.5-16.66-.1-9.52 7.6-12.15 13.3-9.57 23.32-10 25.84 3.73 22.5 16.27 10.4 16.66 6.6 12.08 1.7 30-5 25.84-9.2 22.92-8.8 12.07"/>
  <path fill="#335061" fill-rule="evenodd" d="M144.65 223.12l-59.6 2.5v10l5 35-2.5 2.92-41.65-14.17-2.92-5-4.17-47.08-9.5-28.4-2.1-6.7 33.4-23L71 145l9.2 11.25 7.9 7.1 9.2 2.92 4.15 1.23 5 21.67 3.8 4.6 9.6-3.35-6.7 12.9 36.26 17.1-4.5 2.5"/>
  <path fill="#6d6b6d" fill-rule="evenodd" d="M45.9 77.7l10.83-3.74 8.75 4.16 4.17 9.17 5-.9 1.25-5-2.5-9.6 2.5-22.9-2.1-12.5 7.5-8.8 16.26-12.9-4.58-6.3-22.92 11.3-9.58 7.5-5.42 11.6L46.73 50l-2.5 13.4 1.67 14.2"/>
  <path fill="#dcd9d8" fill-rule="evenodd" d="M62.98 38.54s6.25-15.42 31.25-22.92c25-7.5 1.25-5.4 1.25-5.4L68.4 20.6 57.98 31.04l-4.58 8.33 9.58-.83M50.48 74.8s-8.75-29.2 24.58-33.35l-1.25-5-22.9 5.4-6.6 21.68 1.6 14.17 4.6-2.9"/>
  <path fill="#f7e4cd" fill-rule="evenodd" d="M63.8 113.54l5.47-5.3s2.46.3 2.88 3.22c.4 2.9 1.66 29.16 19.58 43.33 1.63 1.2-13.33-2.1-13.33-2.1l-13.34-20.9m75.42-26.3s.97-12.7 4.37-11.7c3.4.9 3.4 4.3 3.4 4.3s-8.25 5.3-7.77 7.3"/>
  <path fill="#f7e4cd" d="M175.06 59.37s-6.87 1.45-7.5 7.5c-.63 6.05 7.5 1.25 8.75.84m-51.6-7.9s-9.1 1.3-9.1 7.1c0 5.9 10.4 5.4 13.4 2.9"/>
  <path fill="#f7e4cd" fill-rule="evenodd" d="M67.98 86.87s-15.84-9.58-17.5-.4c-1.67 9.15-5.42 15.82 2.5 25.4l-5.42-1.66-5-12.9-1.66-12.5 9.58-10 10.83.9 6.3 5L68 87m7.5-26.26s7.1-36.7 42.9-43.8c29.5-5.82 45 1.26 50.88 7.9 0 0-26.25-31.24-51.25-21.7-25 9.6-43.33 27.1-42.92 38.38.7 19.16.5 19.16.5 19.16M172.1 29s-12.1-.42-12.5 10.4c0 0 0 1.68.83 3.35 0 0 9.58-10.82 15.42-5"/>
  <path fill="#f7e4cd" fill-rule="evenodd" d="M119.24 43.83s-2.08-16.62-16.26-6.96c-9.17 6.25-8.33 15-6.67 16.67 1.7 1.67 1.3 5.02 2.5 2.72 1.3-2.3.9-9.8 5.5-11.9 4.6-2.07 12.1-4.4 15-.53"/>
  <path fill="#49728b" fill-rule="evenodd" d="M80.06 156.46l-39.16 17.5s16.25 64.58 7.9 84.58l-5.8-2.08-.42-24.6-10.83-46.65-4.58-12.9L68 144.8l12.08 11.67m4.02 35.7l5.55 6.8v25h-6.67s-.83-17.5-.83-19.6c0-2.08.83-9.58.83-9.58m1.25 32.9l-18.75.8 5.42 3.7 13.33 2"/>
  <path fill="#335061" fill-rule="evenodd" d="M148.4 223.54l15.4-.42 3.76 38.34-15.83 2.08-3.33-40"/>
  <path fill="#335061" fill-rule="evenodd" d="M152.56 223.54l23.34-1.25s9.58-24.2 9.58-25.5 8.33-35 8.33-35l-18.7-19.6-3.7-3.4-10 10v38.7l-8.7 35.8"/>
  <path fill="#49728b" fill-rule="evenodd" d="M162.98 220.62l-14.58 2.92 2.08 11.67c5.42 2.5 14.58-4.1 14.58-4.1m-1.66-83.3l29.16 21.7.84-10-22.1-20.4-7.9 8.8"/>
  <path fill="#fff" fill-rule="evenodd" d="M98.7 305.63l-8.64-35-4.3-25.84-.7-19.2 39.05-2.1h24.3l-2.2 43.7L150 301l-.42 6.25-31.66 2.5-19.18-4.17"/>
  <path fill="#dcd9d8" fill-rule="evenodd" d="M142.98 223.12s-2.08 43.34 4.17 74.17c0 0-12.5 7.9-30.84 10l35-1.3 4.2-2.5-5-68.4-1.2-14.6"/>
  <path fill="#fff" fill-rule="evenodd" d="M168.27 258.13l16.25-4.6 30.83-1.65 4.6-14.17-8.34-24.5-9.5-1.2-13.3 4.2-12.8 6.3-6.8-1.2-5.3 2.1"/>
  <path fill="#dcd9d8" fill-rule="evenodd" d="M167.98 249.8s10.83-5 12.5-4.6l-4.58-22.9 5.4-2.1s3.76 21.67 3.76 24.17c0 0 23.33 1.25 25.42 1.25 0 0 5-9.58 3.75-19.58l4.58 13.33.5 7.5-6.6 10-7.5 1.67-12.5-.42-4.1-5.4-14.6 2.07-4.5 1.6"/>
  <path fill="#fff" d="M151.6 220.2l-9.16-23.32-9.58-13.75s2.08-5.84 5-5.84h9.58l9.17 3.3-.8 15.4-4.1 24.2"/>
  <path fill="#dcd9d8" fill-rule="evenodd" d="M153.4 212.3s-11.67-22.5-11.67-25.84c0 0 2.08-5 5-3.75 2.92 1.3 9.17 4.6 9.17 4.6v-7.9l-14.17-2.9-9.58 1.3 16.25 38.4 3.33.4"/>
  <path fill="#fff" d="M102.44 157.3l-11.54-1.26-10.84-3.33v3.8l5.3 5.9 16.66 7.5"/>
  <path fill="#dcd9d8" fill-rule="evenodd" d="M83.8 158.54s12.93 5.42 17.1 4.17l.4 5-11.65-2.5-7.1-5 1.26-1.6"/>
  <path fill="#d33833" fill-rule="evenodd" d="M168.23 178.7c-7.07-.2-13.46-1.03-19.05-2.6.38-2.3-.33-4.55.24-6.2 1.56-1.13 4.17-1.1 6.53-1.37-2.04-1-4.9-1.4-7.26-.82-.1-1.5-.8-2.5-1.2-3.8 3.9-1.4 13.3-10.7 18.6-7.6 2.5 1.5 3.6 9.9 3.8 13.9.1 3.4-.3 6.8-1.7 8.6"/>
  <path fill="none" stroke="#d33833" stroke-width="2.5" d="M168.23 178.7c-7.07-.2-13.46-1.03-19.05-2.6.38-2.3-.33-4.55.24-6.2 1.56-1.13 4.17-1.1 6.53-1.37-2.04-1-4.9-1.4-7.26-.82-.1-1.5-.8-2.5-1.2-3.8 3.9-1.4 13.3-10.7 18.6-7.6 2.5 1.5 3.6 9.9 3.8 13.9.1 3.4-.3 6.8-1.7 8.6z"/>
  <path fill="#d33833" fill-rule="evenodd" d="M134.42 167.16l-.06 1.6c-2.2 1.46-5.78 1.44-8.2 2.66 3.57.16 6.38 1.02 8.82 2.23l-.16 4.04c-4.05 2.7-7.74 6.9-12.5 9.4-2.26 1.2-10.16 4.4-12.56 3.8-1.36-.3-1.48-2-2.02-3.6-1.16-3.4-3.8-8.8-4.05-14-.3-6.5-1-17.3 6-15.9 5.6 1 12.1 3.6 16.5 6 2.6 1.4 4.2 3.2 8.2 3.5"/>
  <path fill="none" stroke="#d33833" stroke-width="2.5" d="M134.42 167.16l-.06 1.6c-2.2 1.46-5.78 1.44-8.2 2.66 3.57.16 6.38 1.02 8.82 2.23l-.16 4.04c-4.05 2.7-7.74 6.9-12.5 9.4-2.26 1.2-10.16 4.4-12.56 3.8-1.36-.3-1.48-2-2.02-3.6-1.16-3.4-3.8-8.8-4.05-14-.3-6.5-1-17.3 6-15.9 5.6 1 12.1 3.6 16.5 6 2.6 1.4 4.2 3.2 8.2 3.5z"/>
  <path fill="#d33833" fill-rule="evenodd" d="M138.44 174.86c-.62-3.52-1.33-4.52-1.06-7.6 9.38-6.25 11.14 10.75 1.06 7.6"/>
  <path fill="none" stroke="#d33833" stroke-width="2.5" d="M138.44 174.86c-.62-3.52-1.33-4.52-1.06-7.6 9.38-6.25 11.14 10.75 1.06 7.6z"/>
  <path fill="#ef3d3a" fill-rule="evenodd" d="M152.02 177.7s-2.92-4.16-.83-5.4c2-1.26 4.1 0 5.4-2.1 1.2-2.07 0-3.32.4-5.82.4-2.5 2.5-2.92 4.6-3.34 2.1-.4 7.9-1.25 8.7.84l-2.5-7.5-5-1.67-15.9 9.2-.9 4.6v9.2m-37.9 15.8c-.5-6.5-1.1-13-1.7-19.5-.9-9.7 2.3-8 10.7-8 1.23 0 7.9 1.6 8.33 2.5 2.27 4.7-3.8 3.6 2.62 7.1 5.4 3 14.94-1.8 12.8-8.3-1.28-1.4-6.4-.4-8.28-1.4-3.27-1.7-6.5-3.3-9.8-5-4.13-2.1-13.7-5.3-18.1-2.3-11.2 7.6.7 26.6 4.7 34.6"/>
  <path fill="#231f20" fill-rule="evenodd" d="M119.24 43.83c-11.36-2.64-17 4.76-20.45 12.43-3.1-.75-1.9-4.93-1.1-7.06 2-5.6 10.2-13.03 16.9-12.02 2.9.44 6.8 3.07 4.6 6.65m55.3 12.94c.2 0 .3 0 .5.02 2.5 5.3 4.8 10.9 8 15.6-2.2 5-16.4 9.5-16.2.4 3.1-1.4 8.4-.3 11.1-2-1.6-4.4-3.9-8-3.5-14.2m-49.6.1c2.4 4.4 3.2 9.1 6.7 12.5 1.5 1.5 4.6 3.3 3.1 7.6-.4 1-3 3.2-4.4 3.6-5.4 1.6-18.1.3-13.8-6.4 4.5.2 10.5 2.9 13.82-.4-2.55-4.1-7.1-12.23-5.44-17m47.5 45.35c-8.16 5.23-17.24 10.92-30.6 9.6-2.85-2.48-3.94-8-1.16-11.64 1.45 2.5.5 7.06 4.56 7.74 7.6 1.3 16.4-4.63 21.86-6.7 3.35-5.7-.3-7.8-3.36-11.46-6.25-7.5-14.6-16.84-14.3-28.1 2.5-1.83 2.73 2.8 3.1 3.6 3.3 7.7 11.47 17.4 17.47 23.94 1.47 1.6 3.9 3.12 4.16 4.2.8 3.1-2 6.8-1.7 8.8M65.1 96.7c-2.54-1.46-3.14-7.88-6.14-8.07-4.3-.27-3.5 8.32-3.5 13.35-2.94-2.67-3.46-10.92-1.3-15.15-2.46-1.2-3.56 1.33-4.93 2.23 1.76-12.8 18.7-5.93 15.9 7.62m112.6 10.84c-3.8 7.2-9.17 15.16-20.3 15.4-.23-2.34-.4-5.9 0-7.3 8.5-.8 13.77-5.14 20.3-8.1m-53.34 4.67c7.1 3.7 20.1 4.1 29.8 3.8.5 2.1.5 4.7.5 7.3-12.4.6-27.1-2.5-30.3-11.2M123 119c4.9 12.32 21.8 10.9 36 10.56-.6 1.6-2 3.5-3.7 4.16-4.6 1.83-17.2 3.24-23.5-.1-4-2.15-6.6-6.98-8.8-9.8-1.1-1.38-6.4-4.86-.1-4.87"/>
  <path fill="#81b0c4" fill-rule="evenodd" d="M171.95 187.22c-5.76 9.86-11.28 20-18.1 28.7 2.86-8.43 4.08-22.53 4.5-33.27 6-2.8 11.14.63 13.6 4.57"/>
  <path fill="#231f20" fill-rule="evenodd" d="M202.94 222.67c-6.45 1.3-10.98 7.56-17.27 7.16 3.46-4.87 9.52-6.93 17.27-7.16m2.84 10.1c-5.25.55-11.43 1.4-16.76.96 2.53-3.85 12.25-2.52 16.76-.96m1.82 8.7c-5.9.13-13.24 0-18.86-.46 3.32-3.5 15.03-1.3 18.87.5"/>
  <path fill="#dcd9d8" fill-rule="evenodd" d="M160.83 265.28c.85 7.42 3.8 14.93 3.42 23.06-3.27 1.1-5.14 2.06-9.52 2.06-.3-6.9-1.23-17.46-.96-24.04 2.16.14 5.33-1.54 7.06-1.08"/>
  <path fill="#f0d6b7" fill-rule="evenodd" d="M151.3 155.94c-2.96 1.94-5.5 4.35-8.34 6.42-6.3.3-9.76-.44-14.4-4.07.08-.3.54-.2.56-.6 6.76 3 15.36-1.3 22.2-1.9"/>
  <path fill="#81b0c4" fill-rule="evenodd" d="M115.8 202.04c1.86-8.06 9.14-12.22 15.75-16.66 6.83 8.66 10.98 19.8 15.55 30.55-10.8-3.26-21.83-8.54-31.3-13.9"/>
  <path fill="#231f20" fill-rule="evenodd" d="M153.78 266.36c-.28 6.58.64 17.13.95 24.04 4.38 0 6.25-.96 9.52-2.06.37-8.13-2.57-15.64-3.42-23.06-1.73-.46-4.9 1.22-7.05 1.08zm-68.15-37.44c2.9 26.53 7.07 48.83 14.73 72.32 17.02 5.17 37.53 5.62 52.57.95-2.76-13.3-1.56-29.4-3.17-43.6-1.22-10.7-.6-21.4-2.26-32.2-18.23-3.8-43.98-.9-61.87 2.4zm66.17-2.3c-.15 11.4.5 22.64 1.38 34.05 4.38-.66 7.35-1.1 11.4-2-1.3-10.97-1.15-23.33-3.83-33.04-3.1.02-5.85-.04-8.95 1zm22.2-1.83c-2.08-.5-4.5-.1-6.48 0 .93 9.3 3.2 19.5 4 29.3 3.1.1 4.78-1.4 7.35-1.9.14-8.6-.75-20.4-4.87-27.5zm33.6 30.7c6.5-1.6 10.6-9.6 8.78-17.8-1.22-5.5-3.4-15.9-5.72-19.4-1.72-2.6-6.4-6-10.1-3.7-6.07 3.9-16.74 5-21.16 9.7 2.22 7.4 2.9 17.5 3.82 26.8 7.57.4 16.88-2.1 23.17.6-4.4 1.4-10.1 1.4-13.9 3.5 3.1 1.5 10.3 1.2 15.1 0zm-60.5-39.6c-4.57-10.8-8.72-21.9-15.54-30.6-6.62 4.4-13.9 8.6-15.75 16.6 9.5 5.3 20.5 10.6 31.3 13.9zm11.26-33.3c-.43 10.7-1.65 24.8-4.52 33.3 6.83-8.7 12.35-18.9 18.1-28.7-2.45-4-7.58-7.4-13.58-4.6zm-12.77-4.5c-2.6-.3-4.8 2.9-8.2 1.5-.8.8-1.5 1.7-2.3 2.6 7.4 8.9 10.8 21.7 16.5 32.2 3.1-10.1 2.7-21.2 3.4-32.3-4.3.2-6.6-3.9-9.6-4.2zm-8.3-10.9c-.3 3 .4 4 1 7.6 10.1 3.1 8.3-13.9-1.1-7.6zm-11.2-3.7c-4.4-2.4-10.9-5-16.5-6.1-7-1.4-6.3 9.5-6 15.9.2 5.1 2.8 10.5 4 13.9.5 1.6.6 3.3 2 3.6 2.4.5 10.3-2.6 12.5-3.9 4.8-2.6 8.4-6.7 12.5-9.5l.1-4.07c-2.5-1.2-5.3-2.08-8.8-2.24 2.4-1.2 6-1.2 8.2-2.64v-1.65c-4.07-.3-5.6-2.1-8.26-3.56zM84.6 156c-3.6 3.67 10.1 8.66 14.5 8.93-.04-2.32 1.3-4.5 1.04-6.16-5.2-.9-12-.3-15.54-2.76zm44.44 1.73c0 .35-.48.22-.56.52 4.66 3.6 8.1 4.36 14.4 4.05 2.87-2.06 5.4-4.5 8.37-6.4-6.83.6-15.43 4.84-22.2 1.83zm40.8 12.37c-.2-4.06-1.27-12.43-3.8-13.9-5.27-3.1-14.65 6.23-18.63 7.64.5 1.25 1.2 2.24 1.2 3.83 2.4-.56 5.2-.17 7.3.84-2.4.3-5 .3-6.5 1.4-.5 1.7.2 3.9-.2 6.2 5.6 1.6 12 2.4 19 2.6 1.4-1.7 1.9-5.2 1.7-8.5zM78.6 159.6c-1.15-.8-8.8-10.78-9.86-10.37-13.87 5.47-26.83 14.93-38.42 23.87 11.05 23.7 15.5 52.75 16.3 80.74 12.65 5.92 23.77 14.45 40.94 15.35-2-14.1-3.8-26.7-4.93-39.9-4.32-1.8-10.5.1-14.54-.6-.1-4.9 6.1-2.2 6.7-5.4.3-2.5-3.5-2.7-2.2-6.6 3.1 1.1 4.8 3.7 8.2 4.6 3-6.8-.1-18.7.4-24.3 0-1.1.5-5.9 2.9-5 2 .7-.2 12.7.1 18 .2 4.9-.6 9.6 1.4 12.7 16.6-2.3 33.4-3.7 51.4-4.2-4-1.7-8.7-3.3-13.8-6.2-2.8-1.6-11.6-4.9-12.4-7.5-1.3-4.3 3.4-6.5 4.2-10.1-8.4 4.5-10-4.4-12-10.7-1.8-5.8-2.8-10.1-3.3-13.4-7.2-3.4-15-6.9-21.2-11.3zm83.96-9.16c11.55-5.6 13.64 20.94 9.1 29.5.7 2.54 3.12 3.52 4.1 5.8-6.45 11.56-13.6 22.34-20.2 33.75 4.9-3.1 11.9-.6 17.65-2.9 2.1-.9 3.7-5.7 5.3-9.5 4.4-10.6 9-24 11.1-34.1.5-2.3 1.7-7.4 1.5-9.4-.5-3.7-5.5-6.4-8-8.7-4.6-4.2-7.6-7.9-12.5-11.8-1.9 2.9-6.2 4.8-7.8 7.2zM52.18 47.98c-5.5 6.06-4.35 17.4-3.68 25.48 9.95-6.26 23.16.5 23.03 11.15 4.75-.1 1.78-5.9.92-9.6-2.8-12.2 4.73-25.5.34-36.6-8.6.7-15.6 4.2-20.7 9.7zm39.4-35.16C79.1 16.36 63.13 25.42 58 36.62c3.96-.6 6.72-2.6 10.63-2.84 1.48-.1 3.4.62 5.1.2 3.4-.84 6.26-8.43 8.8-11.26 2.5-2.75 5.5-3.93 7.54-6.45 1.3-.63 3.25-.6 3.33-2.57-.57-.6-1.17-1.07-1.86-.88zm64.87 3.33c-12.93-7.3-34.83-12.8-48.6-5.93-11.1 5.53-26.1 14.7-31.22 26.3 4.78 11.2-1.42 21.47-1.8 32.84-.22 6.05 2.84 11.33 3.07 17.92-1.63 2.7-6.63 3.03-10.1 2.85-1.15-5.83-3.2-12.38-9.2-13.04-8.5-1-14.7 6.1-15.08 13.4-.46 8.6 6.63 22.9 16.68 21.9 3.88-.4 4.84-4.3 9.07-4.3 2.3 4.6-3.54 6-4.14 9.3-.15.8.5 4.1.86 5.7 1.8 7.5 5.8 17.3 9.9 23 5 7.3 15 8.4 25.8 9.1 1.9-4.2 9-3.8 13.6-2.7-5.6-2.2-10.7-7.5-14.9-12.2-4.9-5.4-9.9-11.2-10.1-18.2 9.2 12.8 16.8 23.9 33.6 29.6 12.7 4.2 27.5-2 37.3-8.8 4-2.9 6.4-7.4 9.3-11.5 10.7-15.5 15.8-37.6 14.7-59.1-.5-8.9-.5-17.7-3.4-23.6-3.1-6.2-13.6-11.8-19.8-6.2-1.2-6.1 5.1-9.8 12.4-7.6-5.3-6.8-10.7-14.9-18.2-19.1zm24.1 199.45c10.1-5.02 29-13.52 35.34.02 2.3 5 5 13.44 6.2 18.6 1.7 7.26-1.9 22.54-9.4 24.98-6.6 2.16-14.3 2.03-22.3.43-1-.78-2-2.14-2.7-3.55-5.7-.22-11 .3-15.5 2.64.4 4.2-2.4 4.87-5.1 5.73-2 7.83 3.9 18.05 2.5 25.2-1 5.07-7.3 5.86-11.9 6.8-.18 2.83.2 5.2.5 7.58-1 3.87-5.78 6.08-10.2 6.62-14.7 1.77-37 2.56-51.2-2.52-3.96-9.68-7.06-21.45-10.35-32.5-13.8 1.47-24.95-5.95-35.47-10.8-3.66-1.7-8.7-2.63-10.05-5.53-1.3-2.8-.74-8.18-1.1-13.26-.8-12.97-1.5-25.48-4.94-38.76-1.54-5.96-4.2-11.22-6.1-16.96-1.7-5.32-4.74-11.9-5.5-17.2-1.18-7.88 6.23-8.3 10.96-11.72 7.33-5.27 13.1-8.2 21-12.95 2.36-1.4 9.44-4.97 10.25-6.6 1.6-3.27-2.76-7.86-3.9-10.4-1.86-4.05-2.8-7.48-3.1-11.46-6.64-1.1-11.7-5.1-14.73-9.5-5-7.4-8.5-21.1-4.16-31.5.37-.8 2.08-2.5 2.3-3.7.5-2.5-.9-5.8-1-8.4-.42-13.5 2.3-25.2 11.4-29.3 3.8-14.6 17-19.5 29.4-26.8 4.7-2.8 9.8-4.5 15.1-6.5 19-7 48.2-5.7 64 6.25 6.7 5.06 17.3 15.74 21.2 23.47 10.1 20.4 9.4 54.5 2.3 79.4-1 3.3-2.4 8.2-4.3 12.2-1.4 2.8-5.5 8.4-5 10.8.5 2.5 9.5 9.3 11.4 11.2 3.43 3.3 10 7.8 10.6 12 .53 4.5-2 10.6-3.3 15-4.3 14.5-8.57 27.8-13.5 40.7"/>
  <path fill="#f7e4cd" fill-rule="evenodd" d="M113.1 115.43c.56-.73 3.58-1.84 7.8.2 0 0-5 .83-4.6 9.16l-2.07-.5s-2.15-7.6-1.12-9"/>
  <path fill="#1d1919" fill-rule="evenodd" d="M149.65 187.08c0 1.27-1.03 2.3-2.3 2.3-1.26 0-2.3-1.03-2.3-2.3 0-1.26 1.04-2.3 2.3-2.3 1.27 0 2.3 1.04 2.3 2.3m2.3 10.62c0 1.27-1.04 2.3-2.3 2.3-1.27 0-2.3-1.03-2.3-2.3 0-1.26 1.03-2.28 2.3-2.28 1.26 0 2.3 1.02 2.3 2.3"/>
</svg>
