<svg xmlns="http://www.w3.org/2000/svg" viewBox="0 0 1024 983" style="background-color:#ffffff00">
  <path fill="#2d7136" d="M597 980.4L3 883.2V99.8L597 2.6v977.8zM1021 131v727H622V668.6l97.3 96.8L837 647.7C801.4 606.7 729.6 530 719.4 530c-15.4 0-66.6 61.3-97.3 92V310h225v149h-71s-4.6-5-4.6 10.2c0 10.3 72 76 107.8 112 36-30.8 77-71.8 112.7-107.6V458h-82V316c-1-62.3-7-66.8-31-67H622V131h399zM407.2 427.5c0 66.6-56.3 138.2-138.2 117.8V663c-15.4-5-35.6-5-51-5V325c30.7 5.2 82 0 92.2 0 82 0 97 56.4 97 102.5zM309.8 387c30.8 15.4 30.7 25.7 30.7 46 0 15.5-10.3 56-41 56H274V387h35.8z"/>
  <path fill="#fff" d="M407 427.5c0 56.3-36 131-123 120.8 0 0-4.3-.3-9.5.2L274 663h-40.6c-5.2-5-10.3-5-15.4-10.2V325c25.6 5.2 71.7 0 87 0 82 0 102 46.2 102 102.5zm-66.5 5.8c-.3 26.8-16 46-25.6 50.7h-36v-97h15c41 0 46 36 46 46.3z"/>
  <path fill="#2d7136" d="M277 387l1 97s62.7 13 64.3-45.3C344 380.3 277 387 277 387z"/>
</svg>
