<?xml version="1.0" standalone="no"?>
<!-- Generator: Adobe Fireworks 10, Export SVG Extension by Aaron Beall (http://fireworks.abeall.com) . Version: 0.6.1  -->
<!DOCTYPE svg PUBLIC "-//W3C//DTD SVG 1.1//EN" "http://www.w3.org/Graphics/SVG/1.1/DTD/svg11.dtd">
<svg id="Project-icon-%u30DA%u30FC%u30B8%201" viewBox="0 0 1024 983" style="background-color:#ffffff00" version="1.1"
	xmlns="http://www.w3.org/2000/svg" xmlns:xlink="http://www.w3.org/1999/xlink" xml:space="preserve"
	x="0px" y="0px" width="1024px" height="983px"
>
	<g id="%u80CC%u666F">
		<path d="M 597 980.4401 L 3 883.1641 L 3 99.8359 L 597 2.5599 L 597 980.4401 ZM 1021 131 L 1021 858 L 622 858 L 622 668.5677 L 719.28 765.4089 L 837.12 647.6536 C 801.28 606.6953 729.52 529.8984 719.28 529.8984 C 703.92 529.8984 652.72 591.3359 622 622.0547 L 622 310 L 847 310 L 847 459 L 775.32 459 C 775.32 459 770.56 453.8802 770.56 469.2396 C 770.56 479.4792 842.52 545.2578 878.36 581.0964 C 914.2 550.3776 955.16 509.4193 991 473.5807 L 991 458 L 909 458 L 909 315.9688 C 908 253.7188 902 249.1901 877.83 249 L 622 249 L 622 131 L 1021 131 ZM 407.24 427.5026 C 407.24 494.0599 350.92 565.737 269 545.2578 L 269 663.013 C 253.64 657.8932 233.36 657.8932 218 657.8932 L 218 325.1068 C 248.72 330.2266 299.92 325.1068 310.16 325.1068 C 392.08 325.1068 407.24 381.4245 407.24 427.5026 ZM 309.84 387 C 340.56 402.3594 340.48 412.6588 340.48 433.138 C 340.48 448.4974 330.24 489 299.52 489 L 274 489 L 274 387 L 309.84 387 Z" fill="#2d7136"/>
		<path d="M 407.04 427.5026 C 407.04 483.8203 371.04 558.4896 284 548.25 C 284 548.25 279.75 547.987 274.5 548.487 L 273.92 663 L 233.36 663 C 228.24 657.8802 223.12 657.8802 218 652.7604 L 218 325.1068 C 243.6 330.2266 289.68 325.1068 305.04 325.1068 C 386.96 325.1068 407.04 371.1849 407.04 427.5026 ZM 340.48 433.2578 C 340.25 460.1354 324.5 479.1797 314.88 484 L 279 484 L 279 387 L 294.36 387 C 335.32 387 340.5676 423.0186 340.48 433.2578 Z" fill="#ffffff"/>
		<path d="M 277 387 L 278 484 C 278 484 340.6667 497 342.3333 438.6667 C 344 380.3333 277 387 277 387 Z" fill="#2d7136"/>
	</g>
	<g id="%u30EC%u30A4%u30E4%u30FC%201">
	</g>
</svg>