<svg xmlns="http://www.w3.org/2000/svg" viewBox="0 0 100 70">
  <path fill="#4c4c4c" d="M0 66h21l1.5-18L3 43.5 0 66zm3.8-25.5L22.4 45 27 29.2 11.2 21 3.8 40.5zm9-22.5l15 8.3 12-8.3L28.5 5.2 12.5 18zm84 48h-21L74 48l19.5-4.5 3 22.5zM93 40.5L74.2 45l-4.5-15.8L85.5 21 93 40.5zM84 18l-15 8.3L57 18 68.2 5.2 84 18zM32.3 3l11.2 13.5H54L63.7 3 54 0H43.2l-11 3z"/>
  <path fill="#9c0000" d="M0 66h21l1.5-18L3 43.5 0 66z"/>
  <path fill="#b50808" d="M3.8 40.5L22.4 45 27 29.2 11.2 21 3.8 40.5z"/>
  <path fill="#c61818" d="M12.7 18l15 8.3 12-8.3-11-12.8-16 12.8z"/>
  <path fill="#9c0000" d="M96.7 66h-21l-1.5-18 19.5-4.5 3 22.5z"/>
  <path fill="#b50808" d="M93 40.5L74.2 45l-4.5-15.8L85.5 21 93 40.5z"/>
  <path fill="#c61818" d="M84 18l-15 8.3L57 18 68.2 5.2 84 18z"/>
  <path fill="#ce3129" d="M32.3 3l11.2 13.5H54L63.7 3 54 0H43.2l-11 3z"/>
</svg>
