<svg xmlns="http://www.w3.org/2000/svg" viewBox="0 0 256 186">
  <path fill="#809CC8" d="M0 0v67c34.6-14.3 80.8-28.7 139-43.3C176.3 14.3 212.3 6.4 247 0H0zm256 14.3c-33.7 5-64 11-90.6 17.6-30.5 7.6-55 15.3-73.6 23.2-18.6 7.7-27.2 14-26 18.8 1 4.3 9 6.2 23.4 5.8 7.4 0 19.5-1 36.3-2.4s38.5-3.6 65-6.4c26.3-2.8 48-4.6 65.5-5.7v-51zm-75 85.2c-7.4 0-17.7.7-30.8 1.6-13.2 1-29.6 2.5-49.2 4.6-30.3 3.2-55.6 5.8-75.7 7.4-9.6.8-18 1.3-25.3 1.7v54.5c40-5.8 76-12.8 108-21 31.7-7.8 56-15.5 73-23 17-7.4 25-13.8 23.8-19-1-4.3-9-6.6-23.7-6.7zm75 19c-35 13.8-78.5 27.3-130.5 40.4C77 171 35.3 179.6 0 185v.5h256v-67zM10.7 130h.4c.7 0 1.4.3 2 .8.5.7.7 1.8.3 2.7-.4 1-1.6 1.6-2.7 1.4-1.2-.2-2.2-1.5-2-2.7 0-1.2 1-2 2-2.3zm9 0c.6 0 1.2.2 1.6.6.8.6 1 1.8.7 2.8-.3 1-1.4 1.7-2.4 1.6-1 0-1.8-.6-2.2-1.4-.5-1 0-2.6 1-3.2a2.6 2.6 0 0 1 1.4-.4zm-8.6 16c1 0 2 .8 2.4 1.8.3 1-.2 2.5-1.3 3-1 .5-2.4.2-3-.8-.7-1-.6-2.5.3-3.3a2.5 2.5 0 0 1 1.8-.6zm8.8 0c.8 0 1.6.6 2 1.3.7 1 .4 2.5-.6 3.2-1 .8-2.6.7-3.4-.3-1-1-.8-2.8.2-3.6.5-.4 1.2-.5 1.8-.5z"/>
</svg>
