<?xml version="1.0" encoding="UTF-8" standalone="no"?>
<!DOCTYPE svg PUBLIC "-//W3C//DTD SVG 20010904//EN"
"http://www.w3.org/TR/2001/REC-SVG-20010904/DTD/svg10.dtd">
<svg
   id="svg5040"
   width="120.00000pt"
   height="140.00000pt"
   xmlns="http://www.w3.org/2000/svg">
  <defs id="defs5042" />
  <g
     id="g4408"
     transform="matrix(1.124394,-0.316118,0.316118,1.124394,-10.07967,28.50764)"
     style="font-size:12.000000;fill:#c00000;fill-opacity:1.0000000;stroke:none;stroke-width:1.2500000;stroke-opacity:1.0000000;">
    <path
       d="M 1.6486500,89.754800 C 4.9170500,96.945300 11.692000,104.96700 17.575100,104.31300 C 23.458200,103.66000 29.995100,88.625000 28.687700,86.010300 C 27.380300,83.395600 22.030200,63.606300 13.475300,63.844400 C 4.9204700,64.082400 -1.6197500,82.564300 1.6486500,89.754800 z "
       id="path4409"
       style="fill:#c00000;fill-opacity:1.0000000;" />
    <path
       d="M 15.710600,47.127900 C 18.266100,56.457200 29.674900,70.538700 39.835500,69.528600 C 49.996000,68.518400 47.265100,54.196500 44.532000,44.452800 C 44.137200,43.045500 45.243700,37.900900 43.208100,32.656500 C 41.172500,27.412100 36.801600,23.146500 32.527600,23.356200 C 20.408300,23.950700 12.442200,39.937400 15.710600,47.127900 z "
       id="path4410"
       style="fill:#c00000;fill-opacity:1.0000000;" />
    <path
       d="M 57.772000,55.326400 C 61.040400,62.516800 60.329800,68.756400 67.995200,70.597900 C 75.660600,72.439400 86.537900,56.076500 88.375600,48.730200 C 90.213200,41.383900 87.870300,22.968500 74.589100,22.999800 C 61.307800,23.031000 56.642400,37.798800 57.772000,55.326400 z "
       id="path4411"
       style="fill:#c00000;fill-opacity:1.0000000;" />
    <path
       d="M 81.297900,86.694200 C 80.645300,94.241100 84.925100,100.83700 94.016300,100.89600 C 103.10700,100.95600 111.42700,79.861100 110.11900,77.246400 C 108.81200,74.631700 108.09600,62.684400 99.540700,62.922400 C 90.985900,63.160500 80.881100,76.652100 81.297900,86.694200 z "
       id="path4412"
       style="fill:#c00000;fill-opacity:1.0000000;" />
    <path
       d="M 23.909000,124.83500 C 34.089300,132.60000 41.431500,121.82000 55.063700,121.87800 C 68.696000,121.93600 77.924600,130.69300 84.748500,120.50100 C 93.494500,107.43800 81.348900,106.35200 73.886200,97.368600 C 66.423500,88.384900 70.849800,81.744800 55.582000,81.167400 C 39.120500,80.544900 42.595800,98.170200 35.022800,102.13200 C 24.026800,107.88500 17.628900,120.04400 23.909000,124.83500 z "
       id="path4413"
       style="fill:#c00000;fill-opacity:1.0000000;" />
    <path
       d="M 0.018737800,54.969900 C 0.24325600,57.967700 4.2241800,61.936300 6.9705200,61.544000 C 9.7168600,61.151700 10.399900,58.323400 10.225300,54.576000 C 10.050700,50.828700 5.8332200,44.980500 3.7262000,45.218600 C 1.6191700,45.456600 -0.20578000,51.972100 0.018737800,54.969900 z "
       id="path4414"
       style="fill:#c00000;fill-opacity:1.0000000;" />
    <path
       d="M 23.956000,13.757400 C 24.180500,16.755200 24.161500,21.973800 28.407800,21.581500 C 32.654100,21.189100 34.587200,18.860900 34.412600,15.113500 C 34.237900,11.366100 31.020500,5.0180100 28.913500,5.2560400 C 26.806500,5.4940800 23.731500,10.759600 23.956000,13.757400 z "
       id="path4415"
       style="fill:#c00000;fill-opacity:1.0000000;" />
    <path
       d="M 71.206000,10.757400 C 71.430500,13.755200 75.161500,19.723800 77.907800,19.331500 C 80.654100,18.939100 83.337200,14.110900 83.162600,10.363500 C 82.987900,6.6161500 79.270500,-0.23199500 77.163500,0.0060424800 C 75.056500,0.24408000 70.981500,7.7595800 71.206000,10.757400 z "
       id="path4416"
       style="fill:#c00000;fill-opacity:1.0000000;" />
    <path
       d="M 98.456000,55.007400 C 98.680500,58.005200 99.661500,61.223800 102.40800,60.831500 C 105.15400,60.439100 108.58700,58.860900 108.41300,55.113500 C 108.23800,51.366100 107.77100,42.768000 105.66300,43.006000 C 103.55600,43.244100 98.231500,52.009600 98.456000,55.007400 z "
       id="path4417"
       style="fill:#c00000;fill-opacity:1.0000000;" />
  </g>
</svg>
