<svg xmlns="http://www.w3.org/2000/svg" viewBox="0 0 160 180">
  <g fill="#c00000" stroke-width="1.3" font-size="12">
    <path d="M20 129c6 7 16.2 13.8 22.7 11.2 6.4-2.6 9-21.5 6.7-24-2.3-2.6-14.6-23-24-20.2-9.7 3-11.2 26-5.3 33zM22.5 76.5c5.8 9.7 23 22 34.2 17.6 11-4.3 3.5-19.5-2.7-29.6-.8-1.4-1.2-7.6-5.2-12.8-4-5.3-10.2-8.7-15-7-13.4 4.4-17.3 25-11.3 32zM72.4 72.5c6 7 7 14.2 16.3 14 9.2-.5 16.2-22.3 16-31-.3-9-8.7-29-23.6-24.7C66 35 65.7 53 72.5 72.5zM108.7 100.3c1.7 8.7 8.6 14.7 18.8 12 10.3-3 13-29.2 10.7-31.7-2.3-2.6-7-15.8-16.5-12.8s-16.6 21.3-13 32.5zM56.3 161.3c14 5.5 18.7-9 34-13.2 15.4-4 28.6 2.8 33-10.8 5.7-17.4-8.3-14.8-19.5-22.6C92.5 107 95.4 98 78 102.2c-18.6 4.5-9.2 23.2-16.4 30-10.6 10-14 25.7-5.3 29zM7.3 90.3c1.2 3.3 7 6.5 10 5.2 3-1.3 2.8-4.7 1.4-9-1.4-4-8-9.3-10.3-8.3-2.3 1-2.3 8.8-1 12zM21.2 36.4c1.2 3.3 2.8 9.2 7.5 7.4 4.6-1.8 6-5 4.7-9.2-1.4-4-7-10.3-9.3-9.3-2.2 1-4 7.8-2.8 11zM73.4 18c1.2 3.4 7.3 9 10.2 7.6 3-1.3 4.5-7.6 3-11.7C85.4 9.6 79 3 76.7 4c-2.2 1-4.4 10.8-3.2 14zM118 59.2c1.2 3.3 3.3 6.6 6.3 5.3 3-1.3 6.3-4 5-8.3-1.4-4.2-4.7-13.7-7-12.7S116.8 56 118 59.2z"/>
  </g>
</svg>
