<svg xmlns="http://www.w3.org/2000/svg" viewBox="0 0 87.99 86">
  <path fill="#a33639" d="M46 0h5.98v8.72C61.64 7.5 71.74 7.58 81 10.86c3.5 1.2 7.3 3.9 6.96 8.07.04 15.37.04 30.75 0 46.13.35 4.2-3.55 6.9-7.08 8.1-9.28 3.07-19.27 3.44-28.9 2.07V86h-6.23C30.52 83.22 15.25 80.68 0 78V8.02C15.33 5.34 30.68 2.72 46 0z"/>
  <path fill="#fff" d="M51.98 11.76c8.93-1.23 18.23-1.2 26.9 1.46 2.4.9 5.6 1.96 6.14 4.8-.4 2.34-2.83 3.4-4.75 4.23-9.07 3.06-18.88 3.35-28.3 1.93V11.76z"/>
  <path fill="#fff" d="M72.46 27.32c4.4-.65 9-1.6 12.55-4.46-.2 4.3.38 8.65-.3 12.9-1.75 2.14-4.6 2.9-7.15 3.63-8.35 1.93-17.06 2-25.54.9V27.35c6.8.86 13.7.85 20.48-.04zM20.4 26.3l7-.52c3.35 11.2 6.53 22.46 9.84 33.67-2.3-.15-4.62-.32-6.9-.53-.62-2.5-1.27-5-1.93-7.5-3.03 0-6.1-.1-9.2-.25-.55 2.37-1.15 4.73-1.8 7.1-1.92-.16-3.9-.3-5.82-.43 2.9-10.54 5.94-21.02 8.84-31.54z"/>
  <path fill="#a33639" d="M20.46 45.77c1-4.68 2.5-9.25 3.18-14 .9 4.74 2.3 9.36 3.43 14.04h-6.6z"/>
  <path fill="#fff" d="M72.52 43.3c4.4-.64 8.95-1.6 12.5-4.44-.2 4.3.3 8.62-.3 12.88-1.74 2.14-4.58 2.9-7.13 3.63-8.4 2-17.15 2.04-25.65.96V43.36c6.8.87 13.73.85 20.54-.05zm-.04 16c4.4-.63 8.97-1.6 12.53-4.44-.2 4.3.37 8.64-.3 12.9-2.8 3.08-7.3 3.65-11.2 4.44-7.1 1.1-14.4 1.1-21.53.08.07-4.3.04-8.6.04-12.92 6.8.87 13.7.85 20.5-.05z"/>
</svg>
