<svg xmlns="http://www.w3.org/2000/svg" viewBox="0 0 524 143.21">
  <defs>
    <clipPath id="a">
      <path d="M275.94 28.67l-29.96 9.92s3.82 151.6-50.86 162.2c-36.07 41.8 5.55 1784.9 136.56 5.9 0 0-44.84-22.5-53.33-60.8-8.5-38.3-2.4-117.4-2.4-117.4z"/>
    </clipPath>
    <linearGradient id="b" x2="1" gradientUnits="userSpaceOnUse" gradientTransform="matrix(344.4 -116.2 -104.8 -309.1 77.8 576)">
      <stop offset="0" stop-color="#929669"/>
      <stop offset=".23" stop-color="#929669"/>
      <stop offset="1" stop-color="#fdfcf1"/>
    </linearGradient>
    <clipPath id="c">
      <path d="M292.1 175.1s260.34 171.47 199.35 527.6c-58.74 258.72-197.42 343.77-212.32 376.24-16.4 22.98-32.93 63.7-32.93 63.7l11.07-720.85s-22.9-220.1 34.83-246.7z"/>
    </clipPath>
    <linearGradient id="d" x2="1" gradientUnits="userSpaceOnUse" gradientTransform="matrix(241.2 -936.2 -1007.3 -161.5 203.9 1135.8)">
      <stop offset="0" stop-color="#45aa3a"/>
      <stop offset="1" stop-color="#3d9439"/>
    </linearGradient>
    <clipPath id="e">
      <path d="M230.74 165.52S-13.46 332.12.58 626.07c14.06 293.95 186.54 438.48 220.13 464.7 21.8 23.15 22.7 32.07 24.3 54.9 15.3-32.7 12.7-488.4 14.4-541.68 6.3-207.4-11.5-399.4-28.6-438.5z"/>
    </clipPath>
    <linearGradient id="f" x2="1" gradientUnits="userSpaceOnUse" gradientTransform="matrix(422.1 95.9 131.9 -394.1 -25.1 595.9)">
      <stop offset="0" stop-color="#41a83b"/>
      <stop offset="1" stop-color="#5ebc44"/>
    </linearGradient>
  </defs>
  <g clip-path="url(#a)" transform="matrix(.1 0 0 -.1 0 143.2)">
    <path fill="url(#b)" d="M275.94 28.67l-29.96 9.92s3.82 151.6-50.86 162.2c-36.07 41.8 5.55 1784.9 136.56 5.9 0 0-44.84-22.5-53.33-60.8-8.5-38.3-2.4-117.4-2.4-117.4"/>
  </g>
  <g clip-path="url(#c)" transform="matrix(.1 0 0 -.1 0 143.2)">
    <path fill="url(#d)" d="M292.1 175.1s260.34 171.47 199.35 527.6c-58.74 258.72-197.42 343.77-212.32 376.24-16.4 22.98-32.93 63.7-32.93 63.7l11.07-720.85s-22.9-220.1 34.83-246.7"/>
  </g>
  <g clip-path="url(#e)" transform="matrix(.1 0 0 -.1 0 143.2)">
    <path fill="url(#f)" d="M230.74 165.52S-13.46 332.12.58 626.07c14.06 293.95 186.54 438.48 220.13 464.7 21.8 23.15 22.7 32.07 24.3 54.9 15.3-32.7 12.7-488.4 14.4-541.68 6.3-207.4-11.5-399.4-28.6-438.5"/>
  </g>
  <path fill="#c0bdba" d="M413.6 109.36c2.25 1.8 6.74 2.53 10.7 2.53 5.14 0 10.16-1 15.08-5.4 5.02-4.6 8.45-11.5 8.45-22.6 0-10.7-4.07-19.4-12.4-24.4-4.7-3-10.8-4.1-17.76-4.1-2.03 0-4.06.1-5.24.6-.32.2-.96 1-.96 1.5-.2 1.9-.2 16.3-.2 24.9 0 8.7 0 21 .2 22.5.1 1.2.75 3.5 2.14 4.4zm-21.33-58.72c1.8 0 8.72.32 11.93.32 6 0 10.16-.32 21.38-.32 9.4 0 17.33 2.54 23 7.4 6.84 5.9 10.47 14.14 10.47 24.18 0 14.25-6.52 22.5-13.04 27.14-6.5 4.85-14.9 7.6-27 7.6-6.4 0-17.4-.2-26.6-.32h-.1c-.4-.84.8-4.13 1.6-4.22 2.5-.28 3.2-.38 4.3-.85 2-.8 2.4-1.8 2.6-5.28.4-6.6.2-14.4.2-23.3 0-6.4.1-18.7-.1-22.6-.3-3.3-1.7-4.1-4.5-4.8-1.4-.3-3.3-.7-6-1-.2-.7 1.5-3.5 2-4.1m95.1 5.2c-.4.1-.9 1.1-.9 1.7-.1 3.8-.2 13.7-.2 20.6 0 .2.4.5.6.5 1.4.1 4.8.2 7.7.2 4.1 0 6.5-.5 7.7-1.2 3.5-1.7 5.1-5.4 5.1-9.4 0-9.2-6.4-12.7-15.9-12.7-.6 0-2.4 0-3.8.2zM511.7 98c0-9.3-6.85-14.57-19.36-14.57-.53 0-4.5-.13-5.45.1-.4.1-.7.3-.7.5 0 6.66-.1 17.33.2 21.55.2 1.8 1.5 4.35 3.1 5.1 1.7.92 5.5 1.13 8.2 1.13 7.4 0 13.9-4.1 13.9-13.8zm-43.6-47.4c.96 0 3.8.32 11.1.32 6.82 0 12.4-.2 19-.2 8.2 0 19.55 2.94 19.55 15.2 0 6-4.28 10.87-9.84 13.2-.3.1-.3.3 0 .42 8 2 14.9 6.86 14.9 16.15 0 9.1-5.6 14.8-13.9 18.4-5 2.2-11.2 2.9-17.5 2.9-4.8 0-17.7-.6-24.8-.5-.7-.3.7-3.7 1.3-4.2 1.7-.1 3.1-.3 4.9-.8 2.6-.7 2.9-1.5 3.2-5.3.2-3.3.2-15 .2-23.3 0-11.4.1-19.1 0-22.9-.1-3-1.1-3.9-3.2-4.5-1.6-.3-4.3-.6-6.4-1-.5-.6 1.1-3.7 1.7-4.1"/>
  <path fill="#414044" d="M85.52 116.9c-.18-.27-.37-1.1-.33-2.12 0-.77.1-1.26.3-1.42 2-.32 2.9-.54 4.1-.84 1.9-.47 2.6-1.5 2.7-3.9.3-5.7.3-16.38.2-23.9v-.22c0-.8 0-1.9-1-2.68-1.5-.98-3.3-1.8-5.7-2.5-.9-.25-1.4-.72-1.4-1.27 0-.53.6-1.2 1.7-1.43 3.1-.32 11.2-2.25 14.4-3.72.2.23.5.72.4 1.52 0 .33-.1.68-.1 1.04-.1 1.06-.2 2.26-.2 3.46 0 .35.4.7.8.7.2 0 .4-.1.5-.24 6.1-4.76 11.5-6.45 14.3-6.45 4.6 0 8.2 2.2 10.9 6.7.1.24.4.36.6.36.2 0 .4-.2.6-.4 5.6-4.3 11.1-6.8 14.8-6.8 8.7 0 14 6.5 14 17.5 0 3.1-.1 7.1-.1 10.8 0 3.2-.1 6.3-.1 8.4 0 .5.7 1.9 1.7 2.2 1.2.6 3.1.9 5.4 1.3.2.6-.2 3-.5 3.5-.6 0-1.4-.1-2.4-.1-1.8-.1-4.3-.2-7.2-.2-5.8 0-8.85.1-11.75.3-.2-.8-.3-3.1 0-3.6 1.7-.3 2.5-.5 3.53-.8 1.85-.6 2.4-1.5 2.5-3.9.03-1.8.37-17.2-.23-20.8-.53-3.8-3.4-8.2-9.62-8.2-2.36 0-6.1.9-9.67 3.6-.2.2-.3.6-.3.9v.1c.4 1.9.4 4.2.4 7.7V98c-.05 4.23-.07 8.23 0 11.25 0 2.1 1.25 2.6 2.25 3 .6.1 1 .2 1.4.3.9.2 1.7.4 3 .6.2.4.2 1.6 0 2.65-.13.57-.3.82-.4.9-3.2-.1-6.52-.2-11.3-.2-1.44 0-3.8.06-5.9.1-1.7.06-3.3.1-4.2.1-.14-.2-.33-.87-.33-1.84 0-.9.14-1.5.3-1.7l1.3-.2c1.1-.2 2.1-.37 3-.6 1.6-.48 2.2-1.36 2.3-3.38.3-4.7.5-18.23-.1-21.62-1.15-5.42-4.3-8.2-9.24-8.2-2.9 0-6.6 1.4-9.6 3.68-.5.34-.9 1.3-.9 2.14 0 1.6 0 3.54-.07 5.6 0 6.8 0 15.27.2 18.93.1 1.1.5 2.5 2.6 3 .5.2 1.3.3 2.2.4l1.7.3c.2.6.1 2.9-.3 3.6-.9 0-2.1 0-3.4-.1-2-.1-4.5-.2-7.3-.2-3.34 0-5.7.1-7.54.2-1.2.1-2.3.1-3.4.1m106.2-39.4c-1.94 0-3.75.5-5.1 1.4-3.7 2.3-5.6 6.8-5.6 13.4 0 12.4 6.2 21.1 15.1 21.1 2.6 0 4.75-.7 6.53-2.3 2.7-2.2 4.2-6.7 4.2-13.1 0-12.2-6-20.4-15.1-20.4zm1.7 40.5c-16.04 0-21.77-11.7-21.77-22.8 0-7.7 3.2-13.7 9.4-17.8 4.4-2.7 9.65-4.3 14.4-4.3 12.27 0 20.84 8.8 20.84 21.4 0 8.6-3.4 15.4-9.9 19.6-3.1 1.9-8.5 4-12.98 4m164.7-40.5c-1.97 0-3.8.5-5.1 1.5-3.76 2.3-5.65 6.8-5.65 13.4 0 12.4 6.2 21.1 15.1 21.1 2.65 0 4.8-.7 6.57-2.3 2.7-2.2 4.1-6.8 4.1-13.1 0-12.2-6.1-20.4-15.1-20.4zm1.7 40.5c-16.1 0-21.8-11.8-21.8-22.8 0-7.7 3.15-13.7 9.36-17.8 4.4-2.7 9.7-4.23 14.47-4.23 12.3 0 20.9 8.8 20.9 21.4 0 8.6-3.4 15.4-9.9 19.6-3.1 1.9-8.5 4-12.93 4m-55.3-41c-4.95 0-8.15 3.9-8.15 9.96 0 6.1 2.78 13.2 10.5 13.2 1.37 0 3.78-.6 4.98-1.9 1.8-1.64 2.97-5.05 2.97-8.66 0-7.9-3.85-12.6-10.28-12.6zm-.64 41.7c-1.83 0-3.2.56-4 1-3.9 2.5-5.7 5.03-5.7 7.9 0 2.74 1.06 4.9 3.3 6.8 2.8 2.35 6.5 3.48 11.4 3.48 9.6 0 13.9-5.13 13.9-10.25 0-3.54-1.8-5.93-5.4-7.3-2.8-1-7.5-1.6-13.3-1.6zm.67 24.5c-5.76 0-9.9-1.2-13.47-3.92-3.4-2.65-5-6.6-5-9.32 0-.8.2-2.8 1.9-4.73 1-1.14 3.4-3.3 8.7-6.97.2 0 .3-.2.3-.4s-.1-.4-.3-.4c-4.4-1.7-5.7-4.5-6.1-6v-.2c-.1-.6-.2-1.1.6-1.7l2.7-1.6c1.6-.9 3.3-1.9 4.3-2.8.2-.1.2-.3.2-.6 0-.2-.1-.4-.3-.5-6.5-2.2-9.8-7-9.8-14.4 0-4.8 2.2-9.1 6.1-11.8 2.63-2 9.25-4.5 13.54-4.5h.2c4.46.1 6.9 1.04 10.4 2.3 1.86.7 3.6.98 6.1.98 3.65 0 5.25-1.2 6.6-2.5.1.16.3.68.37 1.88.05 1.2-.3 3.05-1.2 4.3-.8 1.08-2.5 1.8-4.1 1.8h-.5c-1.7-.2-2.5-.4-2.5-.4l-.4.1c-.15.2-.06.4.05.68l.06.17c.2.86.6 3.36.6 4.05 0 7.8-3.1 11.16-6.4 13.66-3.13 2.4-6.83 3.85-11 4.3l-1.3.1-1.22.1h-.1c-.72.2-2.6 1.1-2.6 2.76 0 1.4.85 3.1 4.9 3.4l2.64.2c5.4.32 12.1.8 15.25 1.9 4.36 1.6 7.06 5.4 7.06 10.1 0 6.9-5 13.5-13.3 17.5-4 1.9-8.1 2.8-12.58 2.8m-26.4-30c-2.36-.3-4.07-.68-6.1-1.6-.3-.2-.75-1.2-.75-1.5-.2-3.3-.2-12.8-.2-19 0-5.1-.9-9.5-3-12.7-2.6-3.6-6.2-5.7-10.9-5.7-4.2 0-9.77 2.84-14.37 6.8-.1.1-.8.8-.8-.3.05-1.1.2-3.2.3-4.5.1-1.4-.7-2-.7-2-2.97 1.5-11.4 3.5-14.52 3.8-2.3.45-2.83 2.64-.4 3.4 2.5.8 4.2 1.6 5.5 2.4.98.74.87 1.8.87 2.64.1 7.1.1 17.97-.2 23.9-.1 2.3-.77 3.16-2.48 3.6l.1-.06c-1.3.3-2.33.55-3.93.76-.54.6-.54 3.6 0 4.3 1.06 0 6.5-.3 11-.3 6.2 0 9.4.33 11 .33.65-.75.87-3.6.44-4.2-1.82-.1-3.1-.3-4.4-.67-1.7-.4-2.12-1.3-2.23-3.2-.2-5-.2-15.52-.2-22.7 0-2 .5-3 1.16-3.5 2.18-1.9 5.7-3.2 8.8-3.2 3 0 5.05 1 6.54 2.2 2.02 1.7 2.76 4.18 3 5.98.4 4 .3 12.1.3 19 0 3.8-.3 4.8-1.7 5.2-.65.3-2.36.6-4.4.9-.64.6-.4 3.58 0 4.2 2.8 0 6-.33 10.7-.33 5.9 0 9.62.3 11.12.3.6-.72.8-3.5.4-4.2"/>
  <path fill="#c0bdba" d="M537.8 107.98h1.82c1.46 0 2.02-.5 2.02-1.83 0-1.34-.53-1.8-2.18-1.8h-1.65V108zm3.86 5.7l-2.13-4.6h-1.72v4.6h-1.2v-10.45h3.1c2.3 0 3.3 1.02 3.3 2.92 0 1.53-.7 2.5-2 2.8l2.2 4.72h-1.3zm-2-12.75c-4.22 0-7.56 3.32-7.56 7.54 0 4.15 3.34 7.5 7.52 7.5 4.15 0 7.5-3.35 7.5-7.5 0-4.24-3.25-7.54-7.47-7.54zm-.04 15.78c-4.64 0-8.26-3.6-8.26-8.2s3.62-8.2 8.3-8.2c4.53 0 8.22 3.7 8.22 8.2 0 4.7-3.62 8.4-8.26 8.4"/>
</svg>
