<svg xmlns="http://www.w3.org/2000/svg" viewBox="0 0 391 202">
  <path fill="#00618a" stroke-width=".87" d="M.74 183.83h12.84v-50.7l19.88 44.2c2.35 5.35 5.56 7.24 11.85 7.24 6.3 0 9.4-1.9 11.8-7.24l19.9-44.2v50.7h12.8V133.2c0-4.94-2-7.33-6-8.56-9.7-3.05-16.3-.4-19.2 6.17L45 174.5l-18.9-43.6c-2.85-6.58-9.5-9.2-19.27-6.17-4.1 1.23-6 3.6-6 8.56v50.6zm99.7-41.28h12.84v27.94c-.12 1.5.5 5 7.53 5.1h28v-33.2h12.9c.1 0 0 45.3 0 45.5.1 11.2-13.9 13.6-20.3 13.8h-40.6V193h40.7c8.3-.88 7.3-4.98 7.3-6.37v-3.36h-27.3c-12.7-.1-20.7-5.66-20.8-12.04 0-.6.3-28.52 0-28.8z"/>
  <path fill="#e48e00" stroke-width=".87" d="M171.5 183.83h36.92c4.32 0 8.52-.9 11.85-2.47 5.56-2.55 8.27-6 8.27-10.54v-9.38c0-3.7-3.08-7.17-9.13-9.47-3.2-1.24-7.1-1.9-10.9-1.9h-15.6c-5.2 0-7.6-1.56-8.3-5-.1-.43-.1-.76-.1-1.17v-5.84c0-.33 0-.66.2-1.07.6-2.7 2-3.4 6.6-3.8.4 0 .9-.1 1.3-.1h36.7v-8.6H193c-5.2 0-7.9.3-10.38 1-7.63 2.4-10.96 6.1-10.96 12.7v7.5c0 5.7 6.54 10.7 17.53 11.8 1.2.1 2.4.1 3.7.1h13.3c.5 0 1 0 1.3.1 4 .3 5.8 1.1 7 2.5.7.7.9 1.5.9 2.3v7.5c0 .9-.6 2.1-1.9 3-1.1 1-3 1.6-5.5 1.8-.5 0-.9.1-1.4.1h-35.4v8.5zm137.16-14.9c0 8.8 6.54 13.75 19.75 14.73 1.3.1 2.5.17 3.8.17h33.5v-8.56H332c-7.55 0-10.4-1.9-10.4-6.42v-44.3h-12.9v44.38zm-71.92.45v-30.52c0-7.76 5.45-12.46 16.2-13.95 1.12-.1 2.36-.2 3.47-.2h24.4c1.3 0 2.4.1 3.6.3 10.8 1.5 16.2 6.2 16.2 14v30.5c0 6.3-2.3 9.7-7.6 11.9l12.7 11.4h-14.9l-10.2-9.2-10.3.7h-13.8c-2.3 0-4.8-.3-7.5-1-8.1-2.2-12.1-6.5-12.1-13.6zm13.86-.74c0 .4.12.82.25 1.32.74 3.54 4.08 5.52 9.15 5.52h11.67l-10.72-9.67h14.92l9.34 8.5c1.8-.9 2.9-2.3 3.3-4.1.2-.4.2-.8.2-1.2v-29.3c0-.3 0-.7-.1-1.1-.7-3.3-4.1-5.2-9-5.2H260c-5.7 0-9.4 2.5-9.4 6.4v29.1z"/>
  <path fill="#00618a" stroke-width=".87" d="M376.88 110.35c-7.9-.2-13.92.52-19.08 2.7-1.46.62-3.8.63-4.04 2.47.8.84.93 2.1 1.57 3.14 1.23 2 3.3 4.66 5.16 6.06 2 1.53 4.1 3.17 6.2 4.5 3.8 2.35 8.2 3.7 11.9 6.05 2.2 1.4 4.3 3.14 6.5 4.7 1 .8 1.7 2 3.1 2.48v-.22c-.8-.92-.9-2.18-1.6-3.14l-2.9-3c-2.9-3.8-6.5-7.1-10.4-9.9-3.1-2.2-10-5.2-11.2-8.8l-.3-.3c2.1-.3 4.7-1.1 6.7-1.6 3.3-.9 6.4-.7 9.8-1.6l4.7-1.4v-.9c-1.8-1.8-3.1-4.2-5-5.9-5-4.3-10.5-8.6-16.2-12.1-3.2-2-7.1-3.3-10.4-5-1.1-.6-3.1-.9-3.8-1.8-1.8-2.2-2.7-5-4.1-7.6-2.8-5.4-5.6-11.4-8.1-17.1-1.7-3.9-2.9-7.8-5-11.3C320.2 34.1 309.23 24 292.23 14c-3.6-2.1-7.95-2.9-12.55-4l-7.4-.47c-1.5-.6-3.1-2.5-4.5-3.36-5.6-3.57-20.04-11.3-24.2-1.1-2.6 6.43 3.96 12.7 6.3 15.95 1.66 2.3 3.77 4.82 4.94 7.4.77 1.7.9 3.4 1.57 5.15 1.65 4.4 3.07 9.17 5.18 13.2 1.04 2.06 2.2 4.2 3.6 6.06.8 1.16 2.2 1.65 2.43 3.4-1.4 1.96-1.5 5-2.2 7.4-3.5 11.1-2.2 24.8 2.9 33 1.6 2.5 5.2 7.9 10.3 5.86 4.4-1.8 3.4-7.4 4.7-12.36.3-1.1.1-1.9.7-2.7v.2l4 8.1c3 4.8 8.3 9.9 12.8 13.3 2.3 1.75 4.14 4.8 7.15 5.8v-.2h-.2c-.6-.9-1.5-1.3-2.3-2.02-1.77-1.7-3.7-3.87-5.18-5.85-4.1-5.53-7.7-11.6-11-17.94-1.57-3.06-2.9-6.4-4.26-9.46-.5-1.2-.5-2.9-1.6-3.6-1.5 2.3-3.6 4.1-4.73 6.8-1.8 4.26-2 9.45-2.7 14.8-.3.17-.2.07-.4.25-3.1-.74-4.2-3.95-5.4-6.7-2.9-7-3.42-18.24-.9-26.3.7-2.05 3.7-8.6 2.5-10.5-.6-1.9-2.5-3.04-3.6-4.5-1.3-1.8-2.63-4.2-3.6-6.3-2.4-5.43-3.5-11.54-6-17.04-1.2-2.6-3.26-5.3-4.94-7.6-1.8-2.6-3.9-4.5-5.34-7.6-.5-1.1-1.2-2.9-.47-4 .2-.8.58-1.1 1.3-1.38 1.3-1 4.97.4 6.3.9 3.6 1.5 6.6 2.9 9.68 5 1.5.9 2.97 2.8 4.7 3.3h2.1c3.1.74 6.7.24 9.6 1.13 5.2 1.6 9.9 4.05 14.1 6.73 12.94 8.2 23.5 19.8 30.76 33.7 1.1 2.23 1.6 4.36 2.7 6.73 2 4.8 4.6 9.7 6.7 14.4 2 4.7 4 9.4 6.9 13.26 1.55 2 7.45 3.1 10.1 4.26 1.9.8 5 1.6 6.76 2.7 3.4 2 6.7 4.5 9.9 6.7 1.6 1.12 6.5 3.6 6.72 5.6z"/>
  <path fill="#00618a" fill-rule="evenodd" stroke-width=".87" d="M276.55 24.83c-1.65-.03-2.8.18-4.05.45v.23h.23c.78 1.7 2.17 2.7 3.14 4.1l2.25 4.7.22-.2c1.4-1 2.03-2.5 2.02-4.9-.56-.6-.64-1.3-1.12-2-.64-.9-1.9-1.4-2.7-2.2z"/>
  <path fill="#e48e00" fill-rule="evenodd" d="M371.6 175.02c0 5.66 4.48 9.47 9.47 9.47 5 0 9.47-3.9 9.47-9.5 0-5.7-4.47-9.5-9.47-9.5-5 0-9.46 3.8-9.46 9.4zm16.82 0c0 4.3-3.28 7.5-7.35 7.5-4.1 0-7.34-3.2-7.34-7.5s3.23-7.5 7.34-7.5c4.07 0 7.35 3.2 7.35 7.5zm-4.8 5.4h2.12l-3.1-4.74c1.66-.18 2.92-.98 2.92-2.95 0-2.2-1.38-3.1-4.06-3.1h-4.2v10.8h1.8v-4.68h1.7l2.82 4.67zm-4.52-6.18v-3.1h2.1c1.1 0 2.4.2 2.4 1.46 0 1.5-1.2 1.64-2.55 1.64h-1.94z"/>
</svg>
