<svg xmlns="http://www.w3.org/2000/svg" viewBox="0 0 432.1 445.4">
  <g fill="none" stroke="#FFF" stroke-width="12.5" stroke-linecap="round" stroke-linejoin="round">
    <path fill="#000" stroke="#000" stroke-width="37.4" d="M323.2 324.2c2.8-23.6 2-27 19.6-23.2l4.4.4c13.5.6 31.2-2.2 41.6-7 22.4-10.4 35.6-27.7 13.6-23.2-50.3 10.4-53.8-6.6-53.8-6.6 53-78.8 75.3-179 56.2-203.3C352.5-5.5 262 26 260.5 27h-.5c-10-2-21-3.3-33.5-3.5-22.8-.4-40 6-53 16 0 0-161.6-66.6-154 83.5C21 155 65.2 364.6 118 301.3c19.2-23.2 37.8-42.7 37.8-42.7 9.2 6 20.3 9.2 32 8l.8-.7c-.3 2.4-.2 5.2.4 9-13.6 15-9.6 17.4-36.8 23-27.4 5.6-11.3 15.7-.8 18.3 12.8 3.2 42.3 7.8 62.3-20.2l-.8 3.3c5 4.3 5 30.6 5.2 49.5.8 19 2 36.4 6 46.7 3.7 10.3 8.3 37 44 29.3 29.7-6 52.7-15.2 54.7-101" stroke-linecap="butt" stroke-linejoin="miter"/>
    <path fill="#336791" stroke="none" d="M402.4 271.2c-50.3 10.4-53.8-6.6-53.8-6.6 53-78.8 75.3-179 56.2-203.4C352.5-5.5 262 26 260.5 27h-.5c-10-2-21-3.3-33.5-3.5-22.8-.4-40 6-53 16 0 0-161.6-66.6-154 83.5C21 155 65 364.6 117.8 301.3c19.2-23.2 37.8-42.7 37.8-42.7 9.2 6 20.3 9.2 32 8l.8-.7c-.3 2.4-.2 5.2.4 9-13.6 15-9.6 17.4-36.8 23-27.4 5.6-11.3 15.7-.8 18.3 12.8 3.2 42.3 7.8 62.3-20.2l-.8 3.3c5.2 4.3 9 27.7 8.3 49-.6 21.2-1 35.8 3.2 47.2 4.2 11.3 8.4 37 44 29.3 29.8-6.4 45.3-23 47.4-50.5 1.5-19.7 5-16.8 5-34.3l3-8.3c3-26.7.4-35.3 18.8-31.3l4.4.4c13.5.7 31.2-2 41.6-7 22.4-10.3 35.6-27.6 13.6-23z"/>
    <path d="M216 286.5c-1.5 49.5.2 99.4 5 111.5 5 12 15.3 35.7 51 28 29.8-6.4 40.6-18.7 45.3-46 3.5-20 10.2-76 11-87.3M173 38.3s-161.4-66-154 84c1.7 32 46 241.7 98.6 178.4 19.2-23.2 36.6-41.4 36.6-41.4m106-233c-5.4 1.7 90-35 144 34.3 19.4 24.5-3 124.5-56 203.4"/>
    <path d="M348.3 264s3.4 17 53.7 6.6c22-4.5 8.8 12.8-13.5 23.2-18.4 8.5-59.5 10.7-60.2-1-1.7-30.5 21.7-21.2 20-28.8-1.5-7-12-13.6-19-30.4-6-14.6-82.7-126.8 21.4-110.2 3.8-.8-27.2-99-124.6-100.6-97-1.6-94 119.8-94 119.8" stroke-linejoin="bevel"/>
    <path d="M188.6 274.3c-13.6 15.2-9.6 18-36.7 23.5-28 5.6-11.8 15.7-1 18.3 13 3.7 42 8 62-20 6-8.2 0-22-8.4-25.3-4-1.6-9.6-3.7-16.5 4z"/>
    <path d="M187.7 274c-1.4-8.8 3-19.5 7.6-32 7-18.5 22.8-37 10-96.2-9.5-44-73.3-9.2-73.4-3.2 0 6 2.4 30.3-1 58.5-5.7 37 23 68.7 56 65"/>
    <path fill="#FFF" stroke-width="4.2" d="M172.5 141.7c-.3 2 3.7 7.5 9 8.2 5.2.2 9.7-4 10-6 .3-2-3.7-4-9-5-5.2-.8-9.7.3-10 2.3z" stroke-linecap="butt" stroke-linejoin="miter"/>
    <path fill="#FFF" stroke-width="2.1" d="M332 137.5c.2 2-3.8 7.5-9 8.3-5.3.7-9.8-3.6-10-5.6-.3-2 3.7-4.3 9-5 5.2-.8 9.7.3 10 2.3z" stroke-linecap="butt" stroke-linejoin="miter"/>
    <path d="M350.7 123.4c.8 16-3.5 27-4 44-.8 24.7 11.8 53-7.2 81.4"/>
  </g>
</svg>
