<svg xmlns="http://www.w3.org/2000/svg" width="170" height="180" xmlns:xlink="http://www.w3.org/1999/xlink">
  <defs>
    <linearGradient id="a" x2="1" gradientUnits="userSpaceOnUse" gradientTransform="matrix(0 -91.9 -91.9 0 85.9 161.4)">
      <stop offset="0" stop-color="#97d9f6"/>
      <stop offset=".9" stop-color="#0f80cc"/>
      <stop offset="1" stop-color="#0f80cc"/>
    </linearGradient>
    <linearGradient id="b" x1="-15.6" x2="-6.7" y1="-9.1" y2="-9.1" xlink:href="#a" gradientUnits="userSpaceOnUse" gradientTransform="rotate(90 -116.5 85.7) scale(11.5)"/>
  </defs>
  <path fill="#0f80cc" d="M121.6 17H22c-6.5 0-12 5.5-12 12.2V139c0 6.6 5.5 12 12 12h65.7c-.8-32.6 10.4-96 34-134z"/>
  <path fill="url(#b)" d="M118 20.6H22c-4.6 0-8.5 3.8-8.5 8.6V131c21.8-8.4 54.3-15.6 77-15.3 4.4-23.7 17.7-70 27.5-95z"/>
  <path fill="#003b57" d="M144.8 13.4c-6.8-6-15-3.6-23.2 3.6-1.2 1-2.4 2.3-3.6 3.6-14 14.8-26.8 42-31 63 1.7 3.2 3 7.3 3.7 10.4l.6 2 .5 2.6s0-.5-.6-2l-.4-1s0-.3-.2-.5L86 87l-2.4 7.8c3.2 5.8 5.2 16 5.2 16l-1-3c-.7-2-4.3-8.3-5-9.7-1.6 5.3-2 9-1.6 9.7 1 1.7 2 4.6 2.8 8 2 7 3.2 16 3.2 16v1.5c-.2 6 0 12.4.5 18 .6 7.7 1.8 14 3.3 17.7l1-.7c-2.2-6.7-3-15.7-2.7-26 .6-16 4.2-35 11-55 11.3-30 27-54 41.6-65.7-13.6 12-31 50.4-36.8 64.7-6 16-10.2 31-12.7 45 4.4-13.3 18.6-19 18.6-19s7-8.7 15.3-21c-5 1-13 3-15.6 4l-5 2.3s12.7-7.8 23.7-11.3c15.2-23.8 31.7-57.7 15-72.6"/>
</svg>
