<svg xmlns="http://www.w3.org/2000/svg" viewBox="0 0 1372.2 1372.7">
  <path fill="#00979D" stroke="#81C9CB" stroke-width=".9" stroke-miterlimit="10" d="M1371.7 686c0 378.7-307 685.6-685.5 685.6C307.5 1371.6.5 1064.6.5 686 .5 307.5 307.5.5 686.2.5c378.5 0 685.5 307 685.5 685.5z"/>
  <linearGradient id="a" x1="-16.3" x2="1354.9" y1="16.1" y2="16.1" gradientUnits="userSpaceOnUse" gradientTransform="matrix(1 0 0 -1 16.8 702.7)">
    <stop offset=".1" stop-color="#fff" stop-opacity="0"/>
    <stop offset=".3" stop-color="#c0d1d3" stop-opacity=".2"/>
    <stop offset=".4" stop-color="#91b3b7" stop-opacity=".3"/>
    <stop offset=".5" stop-color="#6d9fa3" stop-opacity=".5"/>
    <stop offset=".7" stop-color="#4d9195" stop-opacity=".6"/>
    <stop offset=".8" stop-color="#30888b" stop-opacity=".7"/>
    <stop offset=".9" stop-color="#148386" stop-opacity=".9"/>
    <stop offset="1" stop-color="#008184"/>
  </linearGradient>
  <linearGradient id="b" x1="-16.8" x2="1355.4" y1="16.1" y2="16.1" gradientUnits="userSpaceOnUse" gradientTransform="matrix(1 0 0 -1 16.8 702.7)">
    <stop offset="0" stop-color="#fff" stop-opacity="0"/>
    <stop offset=".2" stop-color="#c0d1d3" stop-opacity=".2"/>
    <stop offset=".3" stop-color="#91b3b7" stop-opacity=".3"/>
    <stop offset=".5" stop-color="#6d9fa3" stop-opacity=".5"/>
    <stop offset=".6" stop-color="#4d9195" stop-opacity=".6"/>
    <stop offset=".7" stop-color="#30888b" stop-opacity=".7"/>
    <stop offset=".9" stop-color="#148386" stop-opacity=".9"/>
    <stop offset="1" stop-color="#008184"/>
  </linearGradient>
  <path fill="url(#a)" stroke="url(#b)" stroke-miterlimit="10" d="M1371.7 686.6c0 378.6-307 685.6-685.5 685.6-378.7 0-685.7-307-685.7-685.6S307.5 1 686.2 1c378.5 0 685.5 307 685.5 685.6z" opacity=".5"/>
  <g fill="#FFF">
    <path d="M948 931.2c-13 0-26.2-1-39.2-3-109-15.4-181.8-93.7-222.6-154-41 60.3-113.8 138.7-222.8 154.2a276 276 0 0 1-39 2.8c-68 0-131.5-25.2-179.3-71-48-46.2-75-108-75-174.2 0-66 27-128 75.5-174.3 47.8-45.7 111.4-71 179.2-71 13 0 26 1 39 3 109 15.4 181.8 93.7 222.8 154C727 537.4 800 459.2 909 443.7c13-2 26-3 39-3 67.7 0 131.4 25.3 179.2 71 48.4 46.3 75 108.2 75 174.3 0 66-26.5 128-74.8 174.2-48 45.8-111.5 71-179.2 71M734.4 686c21.3 40.6 84 141.7 186.7 156.4 9 1.2 18 2 27 2 92 0 167.5-71 167.5-158.4s-75-158.3-167.3-158.3c-9 0-18 .6-27 2C818.7 544.2 756 645.3 734.6 686m-310-158.3C332 527.7 257 598.7 257 686c0 87.3 75 158.3 167.3 158.3 8.8 0 18-.6 27-2C553.7 827.8 616.5 726.7 637.7 686c-21.2-40.5-84-141.7-186.6-156.3-9-1.4-18-2-26.5-2"/>
    <path d="M354.4 662H507v49.2H354.4zm662 0H965v-51.7h-49.3V662H864v49.2h51.7V763H965v-51.8h51.7z"/>
  </g>
</svg>
