<svg xmlns="http://www.w3.org/2000/svg" width="69.1" height="33">
  <defs>
    <clipPath id="a">
      <path d="M485.2 612.7h55.3v-26.4h-55.3v26.4z"/>
    </clipPath>
  </defs>
  <text transform="matrix(1.3 0 0 1.3 106.7 710.3)">
    <tspan x="0" y="0" style="-inkscape-font-specification:Helvetica-Bold" font-size="10" font-weight="bold" font-family="Helvetica">1</tspan>
  </text>
  <path fill="#231f20" fill-rule="evenodd" d="M63.6 4.6H65c.6 0 .7.4.7.7v1h.8c-.2-.2-.2-.3-.2-.5V5c0-.5-.3-.5-.6-.6.3-.2.6-.4.6-1 0-.8-.7-1-1.4-1h-2v4h.4v-2zm0-1.8H65c.3 0 .7 0 .7.7 0 .5-.4.6-.8.6h-1.6V3"/>
  <g clip-path="url(#a)" transform="matrix(1.3 0 0 -1.3 -606.5 765.9)">
    <path fill="none" stroke="#231f20" stroke-width=".4" stroke-miterlimit="2.6" d="M519.3 633c1.8 0 3.3-1.4 3.3-3.2 0-1.8-1.5-3.3-3.3-3.3-1.8 0-3.2 1.5-3.2 3.3 0 1.8 1.7 3.3 3.5 3.3z"/>
  </g>
  <path fill="#fff" d="M119 719h35v-35h-35v35z"/>
  <path d="M10.5 5.5L2.2 26h6l1.5-3.5h8.7L20 26h6.2L17 5.6h-6.5zm3.2 5.8l3 7H11l2.7-7zM20 5.5L31.4 31 43.2 5.5H37L31.3 18 26 5.5h-6zm26 0L37 26h6l3.3-7.3H48l2 7.4h6l-2.8-8s6.5-1 6.6-6.5c-.2-6-5.8-5.8-5.8-5.8h-8zm4.2 4h2.2s1.8 0 1.8 1.8c0 1.7-1.2 2.8-3.5 3H48l2.2-5z"/>
</svg>
