<svg xmlns="http://www.w3.org/2000/svg" viewBox="0 0 1024 945" style="background-color:#ffffff00">
  <path fill="#f0f0e1" d="M0 172.96C0 70.82 70.85 0 173.03 0h677.94C953.15 0 1024 70.82 1024 172.96v599.08C1024 874.18 953.15 945 850.97 945H173.03C70.85 945 0 874.18 0 772.04V172.96z"/>
  <path fill="#221e1f" d="M950.86 354.65c-6.55 17.46-15.3 34.62-24.02 52.08-4.37-2.18-10.92-4.37-17.47-8.73H903v42h-81v17h111v155H832.57l118.3 100.4c-8.75 13.1-21.85 28.54-34.95 41.64l-122.27-98.2-124.45 98.2c-10.9-13.1-24-28.55-34.93-41.65L754.35 612H654V457h111v-17h-83v-41.47c-8.73 2.2-15.74 6.3-22.3 8.5-6.54-13.1-14.97-30.56-23.7-45.83v-6.55l157.2-74.2 157.66 74.2zM418 293v341H191v113H77V293h341zm447.7 88H719.43l72.05-34.92L865.7 381zM586 353v30h46v57h-45.85l63.4 113.5c-15.28 8.72-32.98 17.2-50.45 28.12-4.37-6.54-6.55-13.1-13.1-19.64V748h-59V584.32c-6.55 13.1-13.1 27.86-19.65 43.13-17.47-6.54-34.65-15.04-52.12-21.58L529.47 440H473v-57h57v-30h56zm-282 56v109H193V409h111zm459 107v37h-50v-37h50zm111 0v37h-50v-37h50z"/>
  <path fill="#ee1c23" d="M587 294v59h-57v-59h57z"/>
  <path fill="#221e1f" d="M95.87 246H136v-6h-16v-5h13v-6h-13v-5h13v-6h-13v-5h15v-6h-14.2c.77-1.3 2.17-3.93 3.22-6.74l-6.55-1.7c-.63 1.57-2 5.23-4.24 8.44h-8.5c1.7-3.08 2.4-4.98 3.08-6.68l-5.8-1.5c-5.4 12.24-11.7 16.88-14.1 18.56l4.5 5.44c1.2-1.06 2-1.9 3.7-3.72V246H96zM114 223.55V229h-11v-5h11.38l-.38-.45zm0-11.1V218h-11v-5h11v-.54zm0 22.15v5.4h-11v-5h11.38l-.38-.4zm-36.73-30.4c4.06 3.72 7.56 9.1 8.9 11.2l5.5-4.2c-3.82-5.1-5.68-7.66-9.55-11.13l-4.85 4.12zm-.24 24.8H83v17.92c-2.75 2.75-5.63 4.54-6.88 5.26l3.05 6.95c3.6-2.38 7.2-5.62 9.32-8.9 3.3 5.87 11.2 6.77 15.8 6.77h33l1.4-6h-33.5c-10 0-15.2-5.23-15.2-10.86V222H77v6.4l.03.6zm73.77 30h6.2v-45.4c3.47-7.27 4.75-12.18 5.52-15.06l-6.62-.85c-2.34 10.1-6.36 17.7-14.3 26.3l3.96 7.6c1.5-1.6 2.7-2.7 5.44-6.4V259h-.2zm19.2-61v54.2c0 5.8 4.7 5.8 6.5 5.8h18.75c3 0 4.68-.63 6.12-3.02 1.3-2.08 1.62-10.87 1.68-13.7l-6.55-1.82c0 1.3-.2 9.05-.6 10.23-.25.7-.65 1.3-2.42 1.3h-13.92c-2.56 0-2.56-.7-2.56-2.5v-20.8c6.97-2.6 18.47-7.7 25.33-12.8l-4.5-6.2c-8.54 6.5-17.94 10.6-20.83 11.8V198h-7zm69 9h-30v7h31v5.97c-1.74-.94-3.5-1.73-6.4-1.73-9.5 0-13.67 7.37-13.67 13.3 0 7.16 5.06 12.9 13.1 12.9 4.22 0 5.7-1.3 7.08-2.5-1.4 5.2-4.8 8.68-20.3 9.04l2.1 6.55c10.9-.62 25.2-1.98 25.2-21 0-3.7-.6-6.12-1-7.93V214h19v-7h-19v-7h-7v7zm1 24.9c0 4.05-3.27 6-6.84 6-4.28 0-6.68-2.82-6.68-6.56 0-4.8 3.96-6.55 6.88-6.55 1.88 0 3.95.6 5.37 2.1.85.9 1.27 1.9 1.27 3.8v1.2zm38-31.36V207h26.2c-3.6 3.42-28.77 26.4-30.34 27.83l4.52 6.52c3.47-3.83 6.62-7.2 11.53-11.33 5.2-3.33 10.6-5.23 17-5.23 4.4 0 11.1 1.4 11.1 10.2 0 1.6 0 10.1-8.7 12.8.4-9.7-6.1-14.4-12.4-14.4-5.4 0-11.6 3.6-11.6 10.1 0 .9 0 11.7 17 11.7 8.5 0 12.2-1.8 15.2-4.3 4.5-3.67 7.2-9.38 7.2-16.43 0-3.26-.8-16.46-16.1-16.46-4.23 0-5.65.6-7.52 1.4 1.3-1.13 1.85-1.7 2.6-2.45 3.17-2.86 7.8-7.5 10.56-10.35V201H278l.1-.46zm24.4 48.26c-3.4 0-10.66 0-10.66-4.82 0-2.18 1.8-3.9 4.82-3.9 5.9 0 6.1 6.34 6.1 6.8 0 .57-.06 1.02-.25 1.92zm35.6-47.83V253h6v-52h-6v-.03zM398.15 219c-.32-15.17-9.17-17.82-21.94-17.82-17.9 0-21 7.06-21 25.92 0 20.56 4 25.6 22.5 25.6 14.3 0 20.7-4.03 20.9-18.7h-7.8c0 10.92-3.6 12.44-14 12.44-13.7 0-15.2-4.65-15.2-18.54 0-17.07 2.3-20.14 15-20.14 8.4 0 13.9 1.18 13.9 11.24h7.8zm6.85-18.46V207h18v46h6v-46h18v-6h-41.9l-.1-.46zm64 32.16c2.18 2.75 3.5 4.6 6.5 7.24l3.08-6.56c-4.16-3.3-5.78-4.5-9.05-8.5 3.9-5.2 5.38-8.27 6.47-11V207h-7v-10h-7v10h-10v7h16.7c-2.93 7.08-9.08 14.32-17.46 19.5l2.83 6.92c2.04-1.3 4-2.55 7.93-6.42v26h7v-27.3zm20.95-16.7H477v7h13v28h-16v7h38v-7h-15v-28h14v-7h-14v-18h-7v18.47l-.05-.47zm85.93 39.64c-5.62-9.3-13-16.67-15-18.63l-5.48 3.4c2.84 2.9 4.45 5.1 7.62 9.4-12.92.7-14.28 1-26.36 1.3 2.2-4.2 4.72-9.7 6.9-15H577v-7h-58v7h16.6c-1.35 4.9-4.56 12-6.24 15.2-2 .1-7.88-.2-9.24-.2l.97 6.6c22.5-.4 37-1.4 45.8-2.3 1.5 2.17 1.9 2.88 2.6 4.3l6.2-3.83zM530.58 223H565v-4.32c3.94 2.7 7.7 4.56 10.4 5.75l4.55-6.43c-12.8-5.14-23.2-12.54-27.9-20h-7.44c-5.5 8.45-17.5 16.5-27.9 20.27l3.7 6.16c2.8-1.02 5.8-2.23 10.7-5.54v4.1h-.4zm4.46-7c7.24-5.3 10.73-9.3 13.3-12.44 1.56 1.77 6.47 7.46 13.45 12.44H535zm76.06 39.35c6.62-.3 29.98-1.5 29.98-27.1 0-10.72-6.08-25.28-27.43-25.28-18.9 0-29.34 12.93-29.34 28.66 0 10.1 4 19.35 12.2 19.35 7.4 0 11.2-6.55 12.2-8.63 4.9-9.62 5.9-21.66 7-32.84 15 1.1 16.8 13.3 16.8 18.6 0 19.7-15.5 20.4-23.1 20.7l1.9 6.6zm-2.74-45.52c-.63 9.45-3.1 34.6-11.64 34.6-3.18 0-5.86-3.83-5.86-11.1 0-6.46 2.3-20.76 17.5-23.5zm94.62-11.23c-3.62 0-5.46 1.8-5.46 5.46s1.8 5.45 5.46 5.45c3.63 0 5.46-1.7 5.46-5.4s-1.83-5.4-5.46-5.4zm0 2.2c1.78 0 3.28 1.42 3.28 3.26 0 1.84-1.5 3.27-3.28 3.27-1.84 0-3.27-1.43-3.27-3.27s1.5-3.27 3.3-3.27zm-47.78 54c7.67-9.62 13.63-21.74 15.73-50.08l-7.47-.6c-.98 16.64-4.2 34.38-14.4 45.44l6.15 5.24zm30.73-50c1.44 16.6 5.9 36.2 15.28 50l6.2-5.17c-9.4-14.34-12.9-31.95-14.3-45.73l-7.1.9zm31.7 50.15c10.25-4.2 18.42-11 25.95-19.77 2.98 2.5 12.9 11.33 20.24 20.03l6.1-6.2c-6.95-6.8-14.34-13.2-21.93-19.4 9.2-12.9 11.5-23 12.4-26.6H717v7h33.73c-7.2 19.9-23.7 34.2-37.57 39.3l4.47 5.7zM826.6 198.6c-3.62 0-5.45 1.8-5.45 5.38 0 3.74 1.8 5.53 5.45 5.53 3.63 0 5.46-1.7 5.46-5.4s-1.83-5.4-5.46-5.4zm0 2.2c1.78 0 3.28 1.38 3.28 3.18 0 1.92-1.5 3.35-3.28 3.35-1.84 0-3.27-1.43-3.27-3.27 0-1.88 1.43-3.27 3.27-3.27zm-26.6 1.5v9.7h-23v7h23v38h6v-38h23v-7h-23v-10h-5.86l-.14.3zm-18.83 51.95c6.1-6.94 9.23-13.94 10.48-29.46l-7.14-.8c-.2 4-.7 15.8-9.7 24.5l6.4 5.7zm33.43-29.65c.75 8.3 2.55 19.1 10.2 29.6l6.68-4.86c-9.1-11.4-10.02-21.67-10.33-25.73l-6.55 1zm24.4-2.94V231h59v-9h-58.56l-.44-.34zm67-20.2V258h9v-32.65c8.97 2.25 21.88 8.9 29.2 13.22l3.55-7.4c-4.4-2.5-16.83-9.5-32.75-13.94V201h-8.7l-.3.47z"/>
  <path fill="#f0f0e1" d="M792.5 345L720 381h145l-72.5-36zM305 408H191v113h114V408zm458 109h-50v37h50v-37zm111 0h-52v37h52v-37z"/>
</svg>
