<svg xmlns="http://www.w3.org/2000/svg" viewBox="0 0 1134 1134" style="background-color:#ffffff00">
  <defs>
    <radialGradient id="a" cx="53.3%" cy="17.8%" r="85.1%">
      <stop stop-color="#ffc44e" offset="0%"/>
      <stop stop-color="#e98642" offset="100%"/>
    </radialGradient>
  </defs>
  <path fill="#f0f0e1" d="M0 567C0 254 254 0 567 0s567 254 567 567-254 567-567 567S0 880 0 567z"/>
  <path fill="url(#a)" d="M400.5 356.5c0 59-67 139-130 139-36 0-51-27-51-56 0-56 63-138 129-138 37 0 52 26 52 55z"/>
  <path fill="#004a95" d="M209.5 536.5c0 2-7 13-10 21-21 48-30 87-30 133 0 118 83 177.5 188 177.5 98 0 206-47 302-121h168c-139 143-313 227-457 227-84 0-188.5-29.5-226.5-150.5-3-12-9-39-9-54v-36c5-68 27-136 67-204 3 3 7.5 4 7.5 7z"/>
  <path fill="#6ac7f0" d="M796.5 160.5c18 0 71 15 82 20 17 8 37 19 56 36 14 12 50.5 62 50.5 73 0 0 15 49 15 60v8.5H875c0-6-7.5-35-7.5-38 0-2-5-10.5-7-15.5-9-21-26-48-51-65-12-8-26-16-38-20-15-6-32-11-47-12-11-2-35-3-37-3-84 0-172 35-249 84-2-2-4-5-7-8 19-14 37-27 56-38 91-51 183-83 277-83l32 1z"/>
  <path fill="#004894" d="M768.5 436.5c0 30-24 49-49 49-28 0-49-22-49-49s21-48 49-48 49 21 49 48zm-205-17.5c-19 54-32 112-58 167-23 49-82 89-123 93-2 0-6 2-9 2H360v-63c29 1 71-23.5 89-60.5 18-36 27.5-78.5 39.5-114.5 3-8 6-16 8-24h67zm96 0c-13 37-58.5 164-58.5 175 0 23 41 23.5 48 23.5V681h-18c-59-7-93.5-41-93.5-87 0-32 14-54 25-89 9-29 20-57 30-86h67zm337 0c-4 8-8 17-12 26-3 7-7 14.5-10 22.5-3 5-5 12-8 18-5 10-11 22-16 34-4 8-26.5 48-26.5 54 0 29 30 45 61 44V681h-13c-31-4-68.5-12-95.5-51-49 39-98 44.5-147 49.5l-38 1c7-21 14-43 21-64 13 0 26-1 39-3 7-1 16-2 24-4 4-1 8-2.5 14-3.5 51-11 89-82 109-124h-117l21-63h194zm-261 18.5c0 10-9 16-16 16-11 0-16-8-16-17s5-16 16-16c10 0 16 7 16 17z"/>
  <path fill="#f0f0e1" d="M736.5 436.5c0 11-11 17-17 17-10 0-17-8-17-17s7-16 17-16c9 0 17 7 17 16z"/>
</svg>
