<svg xmlns="http://www.w3.org/2000/svg" xmlns:xlink="http://www.w3.org/1999/xlink" viewBox="0 0 363.7 363.4">
  <defs>
    <linearGradient id="b">
      <stop offset="0" stop-color="#0663b4"/>
      <stop offset="1" stop-color="#16adff" stop-opacity=".7"/>
    </linearGradient>
    <linearGradient id="c">
      <stop offset="0" stop-color="#047fc7"/>
      <stop offset="1" stop-color="#11abe8"/>
    </linearGradient>
    <filter id="e" width="1.3" height="1.3" x="-.1" y="-.1" color-interpolation-filters="sRGB">
      <feGaussianBlur stdDeviation="12.1"/>
    </filter>
    <clipPath id="f">
      <rect width="192.2" height="190.2" x="273.9" y="774.7" fill="url(#a)" ry="61.5"/>
    </clipPath>
    <radialGradient id="a" cx="475.3" cy="438.2" r="148" xlink:href="#b" gradientUnits="userSpaceOnUse" gradientTransform="matrix(.8 .8 -.8 .7 313.1 151.7)" fx="475.3" fy="438.2"/>
    <linearGradient id="g" x1="286.9" x2="286.9" y1="680.6" y2="623" xlink:href="#c" gradientUnits="userSpaceOnUse"/>
    <radialGradient id="d" cx="475.3" cy="438.2" r="148" xlink:href="#b" gradientUnits="userSpaceOnUse" gradientTransform="matrix(1.8 .1 -.1 1.2 -224.8 16)" fx="475.3" fy="438.2"/>
  </defs>
  <g transform="translate(-369.7 -418)">
    <rect width="308.1" height="308.1" x="425.3" y="462.4" fill="#c7ebf1" ry="100"/>
    <rect width="296" height="292.9" x="431.3" y="471.5" fill="url(#d)" ry="94.7" opacity=".8"/>
    <rect width="222.9" height="222.9" x="481.4" y="529.5" fill="#016fd2" ry="69.8" transform="matrix(1.1 0 0 1.1 -96.9 -103.3)" filter="url(#e)"/>
    <path fill="#5fffe6" d="M534.4 661a247 247 0 1 1-494 0 247 247 0 1 1 494 0z" transform="matrix(1.5 0 0 1.5 9.5 -721.5)" clip-path="url(#f)" opacity=".2"/>
    <path fill="#fff" d="M688 670.5a64.6 64.6 0 1 1-129.4 0 64.6 64.6 0 1 1 129.3 0zM541.4 552.3a37.4 37.4 0 1 1-74.7 0 37.4 37.4 0 1 1 74.7 0z"/>
    <path fill="#cbedf2" fill-opacity=".9" d="M440.4 453.3a35.4 35.4 0 1 1-70.7 0 35.4 35.4 0 1 1 70.7 0z"/>
    <path fill="url(#g)" d="M313 649.3a27.3 27.3 0 1 1-54.4 0 27.3 27.3 0 1 1 54.5 0z" transform="translate(119.2 -196)"/>
  </g>
</svg>
