<svg xmlns="http://www.w3.org/2000/svg" id="Layer_1" viewBox="1 1 77 77">
  <style>
    .st0{fill:#59B4D9;} .st1{fill:#8B6AB1;} .st2{fill:#5C2D91;} .st3{fill:#FFFFFF;} .st4{fill:#107C10;} .st5{fill:#004B1C;} .st6{fill:#3772A4;} .st7{fill:#FFDA4B;} .st8{fill:#699F63;} .st9{fill-rule:evenodd;clip-rule:evenodd;fill:#333333;} .st10{fill-rule:evenodd;clip-rule:evenodd;fill:#699F63;} .st11{clip-path:url(#XMLID_5_);} .st12{fill:none;} .st13{fill:url(#SVGID_1_);} .st14{fill:url(#SVGID_2_);} .st15{fill:url(#SVGID_3_);} .st16{fill:url(#SVGID_4_);} .st17{fill:url(#SVGID_5_);} .st18{fill:url(#SVGID_6_);} .st19{opacity:0.97;fill:#5382A1;} .st20{opacity:0.97;fill:#E76F00;} .st21{fill-rule:evenodd;clip-rule:evenodd;fill:url(#SVGID_7_);} .st22{fill-rule:evenodd;clip-rule:evenodd;fill:url(#SVGID_8_);} .st23{fill-rule:evenodd;clip-rule:evenodd;fill:url(#SVGID_9_);} .st24{fill-rule:evenodd;clip-rule:evenodd;fill:url(#SVGID_10_);} .st25{fill-rule:evenodd;clip-rule:evenodd;fill:url(#SVGID_11_);} .st26{fill-rule:evenodd;clip-rule:evenodd;fill:url(#SVGID_12_);} .st27{fill-rule:evenodd;clip-rule:evenodd;fill:url(#SVGID_13_);} .st28{fill-rule:evenodd;clip-rule:evenodd;fill:url(#SVGID_14_);} .st29{fill-rule:evenodd;clip-rule:evenodd;fill:#FFFFFF;} .st30{fill-rule:evenodd;clip-rule:evenodd;fill:url(#SVGID_15_);} .st31{fill-rule:evenodd;clip-rule:evenodd;fill:url(#SVGID_16_);} .st32{fill-rule:evenodd;clip-rule:evenodd;fill:url(#SVGID_17_);} .st33{fill-rule:evenodd;clip-rule:evenodd;fill:url(#SVGID_18_);} .st34{fill-rule:evenodd;clip-rule:evenodd;fill:#AA3E35;} .st35{fill-rule:evenodd;clip-rule:evenodd;fill:url(#SVGID_19_);} .st36{fill-rule:evenodd;clip-rule:evenodd;fill:url(#SVGID_20_);} .st37{fill-rule:evenodd;clip-rule:evenodd;fill:url(#SVGID_21_);} .st38{fill-rule:evenodd;clip-rule:evenodd;fill:url(#SVGID_22_);} .st39{fill:#0078D7;} .st40{opacity:0.25;} .st41{fill:#505050;} .st42{fill:#A0A1A2;} .st43{fill:#7A7A7A;} .st44{fill:#B8D432;} .st45{opacity:0.2;fill:#FFFFFF;enable-background:new ;} .st46{fill:#3E3E3E;} .st47{fill:#BAD80A;} .st48{opacity:0.34;fill:#FFFFFF;enable-background:new ;} .st49{opacity:0.5;fill:#1E1E1E;enable-background:new ;} .st50{fill:#231F20;} .st51{fill-rule:evenodd;clip-rule:evenodd;fill:#394D54;} .st52{fill:#00AADA;} .st53{fill:#24B8EB;} .st54{fill:#008BB8;} .st55{fill:#039BC6;} .st56{display:none;} .st57{display:inline;fill:#394D54;} .st58{fill-rule:evenodd;clip-rule:evenodd;fill:#00ACD3;} .st59{fill-rule:evenodd;clip-rule:evenodd;fill:#20C2EF;} .st60{fill-rule:evenodd;clip-rule:evenodd;fill:#D4EDF1;} .st61{fill:#BFDBE0;} .st62{fill:#D4EDF1;}
  </style>
  <path d="M63.53 70H5.83c-2.66 0-4.5-1.93-4.1-4.3l8.57-51.4c.4-2.37 2.87-4.3 5.53-4.3h57.7c2.66 0 4.5 1.93 4.1 4.3l-8.57 51.4c-.4 2.37-2.87 4.3-5.53 4.3z" class="st39"/>
  <path d="M21.86 63.24c-.9 0-1.8-.4-2.37-1.2-1-1.3-.7-3.12.6-4.1l24.76-18.22-17.9-16.8c-1.2-1.1-1.25-2.97-.13-4.15 1.12-1.17 2.98-1.22 4.17-.1l20.48 19.2c.62.6.96 1.43.9 2.3-.04.86-.48 1.66-1.18 2.18l-27.6 20.3c-.54.4-1.16.6-1.76.6zm31.56-.18H39.75c-1.63 0-2.95-1.3-2.95-2.93s1.32-2.93 2.95-2.93h13.67c1.63 0 2.95 1.3 2.95 2.93s-1.32 2.93-2.95 2.93z" class="st3"/>
  <path d="M73.53 10h-57.7c-2 0-3.88 1.07-4.86 2.6C25.32 26.3 54.2 54.6 67.9 68c.6-.65 1.02-1.5 1.16-2.36l8.57-51.34c.4-2.37-1.44-4.3-4.1-4.3z" class="st40 st3"/>
</svg>
