<svg xmlns="http://www.w3.org/2000/svg" viewBox="0 0 570 720">
  <path d="M158.38 1.66c-3.62.1-7.52 1.45-11.94 4.93C135.6 2.4 125.1.9 115.72 9.4c-14.5-1.88-19.2 2-22.78 6.53-3.18-.08-23.82-3.28-33.28 10.83-23.78-2.8-31.3 14-22.78 29.66-4.86 7.5-9.9 14.94 1.47 29.27-4.02 8-1.53 16.6 7.93 27.1-2.5 11.2 2.42 19.1 11.22 25.3-1.64 15.3 14.1 24.3 18.78 27.4 1.8 8.9 5.57 17.33 23.53 22 3 13.33 13.8 15.63 24.3 18.43-34.5 20.1-64.2 46.5-64 111.37l-5.1 9.1C15.4 350.6-20.3 428.08 35.5 491c3.7 19.7 9.8 33.9 15.2 49.56 8.2 63.12 61.2 92.7 75.2 96.2 20.6 15.6 42.4 30.43 72 40.82 27.87 28.74 58.07 39.7 88.4 39.7h1.38c30.37 0 60.57-10.96 88.45-39.7 29.56-10.4 51.4-25.2 71.93-40.85 14-3.5 67.1-33.06 75.25-96.2 5.46-15.66 11.57-29.8 15.2-49.5 55.76-62.96 20.1-140.4-19.52-164.5l-5.06-9.1c.2-64.87-29.43-91.3-64-111.4 10.47-2.8 21.27-5.1 24.2-18.44 18-4.68 21.76-13.1 23.56-22.07 4.7-3.16 20.42-12.1 18.77-27.45 8.8-6.17 13.7-14.1 11.2-25.3 9.44-10.5 11.94-19.15 7.9-27.14 11.4-14.3 6.35-21.73 1.5-29.23 8.5-15.7 1-32.5-22.8-29.67-9.43-14.1-30.1-10.9-33.25-10.87-3.56-4.58-8.27-8.4-22.77-6.58-9.4-8.5-19.9-7.08-30.72-2.9-12.86-10.17-21.4-2-31.1 1.04-15.56-5.06-19.12 1.9-26.77 4.74-16.98-3.6-22.14 4.24-30.28 12.48l-9.5-.2c-25.6 15.1-38.3 45.86-42.82 61.66-4.5-15.8-17.2-46.53-42.8-61.6l-9.5.2c-8.2-8.27-13.33-16.1-30.3-12.5-7.66-2.84-11.2-9.8-26.8-4.7-6.4-2.04-12.23-6.2-19.14-6z"/>
  <path fill="#75a928" d="M107.4 68.06c67.94 35.03 107.44 63.36 129.08 87.5-11.08 44.42-68.9 46.45-90.04 45.2 4.33-2.02 7.94-4.43 9.22-8.14-5.3-3.77-24.1-.4-37.24-7.77 5.04-1.05 7.4-2.06 9.76-5.8-12.4-3.94-25.77-7.35-33.62-13.9 4.24.05 8.2.94 13.74-2.9-11.12-6-22.97-10.73-32.2-19.9 5.76-.13 11.95-.04 13.75-2.16-10.17-6.3-18.75-13.3-25.85-21 8.04.9 11.44.1 13.38-1.3-7.7-7.9-17.42-14.6-22.06-24.3 5.97 2 11.43 2.8 15.37-.2C68 87.5 56.9 84 50.4 70.2c6.3.6 12.9 1.36 14.3 0-2.9-11.9-7.9-18.58-12.9-25.5 13.4-.2 33.8.05 32.9-1.08l-8.3-8.5c13.1-3.55 26.6.56 36.3 3.6 4.36-3.45-.1-7.83-5.44-12.3 11.16 1.5 21.25 4.06 30.37 7.6 4.86-4.4-3.17-8.8-7.06-13.2 17.24 3.27 24.55 7.87 31.8 12.47 5.3-5.05.3-9.3-3.24-13.7 13 4.8 19.7 11 26.75 17.13 2.4-3.24 6.1-5.6 1.65-13.4 9.26 5.3 16.2 11.6 21.36 18.6 5.7-3.6 3.4-8.6 3.4-13.2C221.9 36.6 228 44.9 235.4 53c1.5-1.1 2.82-4.8 4-10.7 22.9 22.2 55.23 78.18 8.3 100.36-39.93-32.85-87.63-56.8-140.5-74.75zm360.52 0c-67.94 35.03-107.44 63.36-129.08 87.5 11.08 44.42 68.9 46.45 90.04 45.2-4.33-2.02-7.94-4.43-9.22-8.14 5.3-3.77 24.1-.4 37.24-7.77-5.04-1.05-7.4-2.06-9.76-5.8 12.4-3.94 25.77-7.35 33.62-13.9-4.24.05-8.2.94-13.74-2.9 11.12-6 22.97-10.73 32.2-19.9-5.76-.13-11.95-.04-13.75-2.16 10.17-6.3 18.75-13.3 25.85-21-8.04.9-11.44.1-13.38-1.3 7.7-7.9 17.42-14.6 22.06-24.3-5.97 2-11.43 2.8-15.37-.2 2.6-5.9 13.8-9.4 20.25-23.2-6.3.6-12.95 1.36-14.28 0 2.92-11.9 7.92-18.58 12.83-25.5-13.45-.2-33.83.05-32.9-1.1l8.3-8.5c-13.12-3.5-26.57.6-36.33 3.63-4.38-3.46.08-7.83 5.43-12.3-11.17 1.5-21.26 4.06-30.38 7.6-4.87-4.4 3.17-8.8 7.05-13.2-17.24 3.27-24.55 7.87-31.82 12.5-5.26-5.07-.3-9.36 3.26-13.75-13 4.8-19.7 11-26.76 17.14-2.4-3.23-6.07-5.6-1.63-13.38-9.23 5.3-16.2 11.6-21.33 18.6-5.7-3.64-3.4-8.6-3.44-13.2-9.6 7.8-15.68 16.1-23.14 24.22-1.5-1.1-2.8-4.8-3.97-10.7-22.9 22.2-55.25 78.14-8.32 100.3 39.92-32.94 87.6-56.9 140.48-74.84z"/>
  <path fill="#bc1142" d="M369.94 520.36a81.4 75.05 0 1 1-162.78 0 81.4 75.05 0 1 1 162.78 0zm-128.48-214.4a86.13 73-55.97 1 1-94.97 143.7 86.13 73-55.97 1 1 94.9-143.7z"/>
  <path fill="#bc1142" d="M332.48 301.97a73 86.13-34.03 1 1 94.97 143.7 73 86.13-34.03 1 1-94.97-143.7zM72.9 342.1c36.42-9.77 12.3 150.62-17.32 137.46-32.6-26.2-43.1-102.97 17.33-137.47z"/>
  <path fill="#bc1142" d="M493.68 340.1c-36.4-9.77-12.3 150.63 17.33 137.47 32.6-26.2 43.1-102.98-17.3-137.48zm-123.7-119.45c62.83-10.6 115.1 26.72 113 94.86-2.07 26.2-136.16-90.9-113-94.8zm-173.62-2c-62.84-10.6-115.12 26.73-113 94.86 2.06 26.2 136.15-90.9 113-94.8zm90.26-15.9c-37.5-.97-73.5 27.84-73.58 44.55-.1 20.3 29.65 41.1 73.84 41.62 45.12.33 73.9-16.64 74.06-37.6.16-23.73-41.04-48.93-74.32-48.56zm2.28 416.37c32.7-1.43 76.58 10.53 76.67 26.4.54 15.4-39.8 50.2-78.83 49.53-40.43 1.75-80.07-33.1-79.55-45.2-.6-17.7 49.2-31.54 81.7-30.73zM168.14 525.1c23.28 28.05 33.9 77.32 14.46 91.84-18.38 11.1-63 6.53-94.73-39.05-21.4-38.3-18.64-77.2-3.62-88.6 22.47-13.7 57.18 4.8 83.9 35.8zm236.88-8.9c-25.2 29.5-39.2 83.32-20.84 100.65 17.57 13.46 64.73 11.58 99.57-36.76 25.3-32.5 16.82-86.7 2.37-101.1-21.47-16.6-52.28 4.6-81.1 37.2z"/>
</svg>
