<?xml version="1.0" standalone="no"?>
<!-- Generator: Adobe Fireworks 10, Export SVG Extension by Aaron Beall (http://fireworks.abeall.com) . Version: 0.6.1  -->
<!DOCTYPE svg PUBLIC "-//W3C//DTD SVG 1.1//EN" "http://www.w3.org/Graphics/SVG/1.1/DTD/svg11.dtd">
<svg id="UML_logo2-%u30DA%u30FC%u30B8%201" viewBox="0 0 921 1024" style="background-color:#ffffff00" version="1.1"
	xmlns="http://www.w3.org/2000/svg" xmlns:xlink="http://www.w3.org/1999/xlink" xml:space="preserve"
	x="0px" y="0px" width="921px" height="1024px"
>
	<g id="%u80CC%u666F">
		<path d="M 693.1995 149.4354 C 722.5931 169.0335 737.2899 198.4306 737.2899 218.0287 C 737.2899 350.3158 448.2527 426.8708 399.2633 423.8086 C 330.8118 419.5299 276.7899 389.512 198.4069 340.5168 C 139.6197 301.3206 75.9335 271.9234 17.1463 237.6268 C 61.2367 213.1292 144.5186 159.2345 159.2154 159.2345 C 178.8112 159.2345 394.3643 316.0191 462.9495 316.0191 C 487.4442 316.0191 590.3218 286.622 590.3218 247.4258 C 590.3218 208.2297 360.0718 90.6412 311.0825 66.1435 C 345.375 41.6459 409.0612 2.4498 423.758 2.4498 C 433.5558 2.4498 605.0186 95.5407 693.1995 149.4354 Z" fill="#991039"/>
		<path d="M 155 349 C 185.5 401.5 188.609 516.8995 208.2048 605.0909 C 227.8005 536.4976 242.3351 467.9043 261.9308 399.311 L 404 482.6029 L 404 1021.5502 C 369.7075 1001.9521 330.516 982.3541 296.2234 962.756 L 291.4867 688.3828 L 232.6995 918.6603 C 213.1037 908.8613 173.383 908.8613 163.5851 884.3636 C 129.2925 796.1722 124.3936 693.2823 95 595.2919 L 95 845.1675 C 65.6064 830.4689 31.3936 810.8708 2 796.1722 L 2 252.3254 C 50.9894 281.7225 124.1622 295.9185 155 349 Z" fill="#ffba00"/>
		<path d="M 561 801.0718 L 566.3271 805.9713 L 821 658.9857 L 821 791.2727 L 424 1021.5502 L 424 482.6029 C 468.0905 458.1053 516.9096 428.7081 561 404.2105 L 561 801.0718 Z" fill="#29006a"/>
		<g>
			<path d="M 868.383 745 L 843 745 L 843 750 L 853 750 L 853 784 L 858 784 L 858 750 L 868 750 L 868 745.3732 L 868.383 745 Z" fill="#333333"/>
			<path d="M 916 745 L 908.9058 745 L 898.4189 770.756 C 897.9597 771.8278 897.4239 773.3588 896.8115 775.3493 L 896.6584 775.3493 C 896.4288 774.4306 895.8929 773.1722 895.1275 771.1052 L 884.8704 745 L 877 745 L 877 784 L 882 784 L 882 758.6603 C 882 755.1387 881.9235 752.5359 881.8469 750.9282 L 881.732 750.9282 C 882.0381 752.689 882.4209 754.067 882.8036 754.9091 L 894.3621 784 L 898.8017 784 L 910.3601 754.6794 C 910.6663 753.9904 910.9725 752.689 911.4318 750.9282 L 911.3062 750.9282 C 911.0765 753.9904 911 756.5167 911 758.5837 L 911 784 L 916 784 L 916 744.8038 L 916 745 Z" fill="#333333"/>
		</g>
	</g>
	<g id="%u30EC%u30A4%u30E4%u30FC%201">
	</g>
</svg>