<svg xmlns="http://www.w3.org/2000/svg" viewBox="0 0 921 1024" style="background-color:#ffffff00">
  <path fill="#991039" d="M693.2 149.4c29.4 19.6 44 49 44 68.6 0 132.3-289 209-338 205.8-68.4-4.3-122.4-34.3-200.8-83.3C139.6 301.3 76 272 17 237.5c44.2-24.4 127.5-78.3 142.2-78.3C178.8 159.2 394.4 316 463 316c24.4 0 127.3-29.4 127.3-68.6C590.3 208.2 360 90.6 311 66c34.5-24.3 98-63.5 113-63.5 9.8 0 181.2 93 269.4 147z"/>
  <path fill="#ffba00" d="M155 349c30.5 52.5 33.6 168 53.2 256 19.6-68.5 34-137 53.7-205.7l142 83.3v539c-34.6-19.6-73.8-39.2-108-58.8L291 688.4l-58.8 230.3c-19.6-9.8-59.3-9.8-69-34.3-34.4-88.2-39.3-191-68.7-289V845c-29.5-14.7-63.7-34.3-93-49V252c49 29.8 122.2 44 153 97z"/>
  <path fill="#29006a" d="M561 801l5.3 5L821 659v132.3l-397 230.3v-539c44-24.5 93-54 137-78.4v397z"/>
  <path fill="#333" d="M868.4 745H843v5h10v34h5v-34h10v-4.6l.4-.4zm47.6 0h-7l-10.6 25.8-1.6 4.5c-.4-1-1-2-1.7-4.2l-10-26h-8v39h5v-33c0 1.8.7 3 1 4l11.7 29h4.4l11.6-29.2c.3-.7.6-2 1-3.8-.3 3-.4 5.3-.4 7.4V784h5v-39.2.2z"/>
</svg>
