<svg xmlns="http://www.w3.org/2000/svg" viewBox="0 0 438 541.91">
  <defs>
    <clipPath id="a">
      <path d="M0 500h500V0H0v500z"/>
    </clipPath>
  </defs>
  <g fill-rule="evenodd" clip-path="url(#a)" transform="matrix(1.25 0 0 -1.25 -94.48 581.99)">
    <path fill="#0372b4" d="M250.74 366.1v-67.6L134 230.3l.04-98.2c7.7 4.4 116.6 67.17 116.6 67.17v-67.2l-174.72-100-.33 233.82 175.13 100.2"/>
    <path fill="#0372b4" d="M425.98 465.6V265.74L368.06 299l-.16 65.9-58.84-32.32-58.32 33.52 175.24 99.5z"/>
    <path fill="#012b42" d="M250.65 132.05v67.2l116.98-66.45v97.9l-116.9 67.8v67.6L426 265.73V32.23l-175.33 99.82z"/>
    <path fill="#012b42" d="M192.05 332.76l-58.03 33.2v-66.94L75.6 265.88l.2 199.68s119.22-67.42 174.95-99.46l-58.7-33.34zm-27-84.26l85.6-49.24-58.43-33.64L134.04 199l-.04 31.3 31.06 18.2z"/>
    <path fill="#0372b4" d="M250.65 198.88l86.2 49.65 30.78-17.83s.03-22.35 0-32c-19.38-11.06-57.72-33.2-57.72-33.2l-59.23 33.38z"/>
  </g>
</svg>
