<svg xmlns="http://www.w3.org/2000/svg" width="2000" height="2008.28" xmlns:xlink="http://www.w3.org/1999/xlink">
  <defs>
    <linearGradient id="a">
      <stop offset="0" stop-color="#070135"/>
      <stop offset="1" stop-color="#612d50"/>
    </linearGradient>
    <linearGradient id="b" x1="314.62" x2="427.38" y1="547.21" y2="432.48" xlink:href="#a" gradientUnits="userSpaceOnUse" gradientTransform="translate(-52)"/>
  </defs>
  <g transform="matrix(15.6 0 0 15.6 -3987.6 -6644.9)">
    <rect width="128.02" height="128.55" x="255.24" y="425.33" fill="url(#b)" ry="20.68"/>
    <path fill="#fff" d="M320.2 480.67c3.28 0 5.76-.72 7.45-2.14 1.7-1.42 2.53-3.52 2.53-6.3 0-2.73-.84-4.8-2.53-6.23-1.7-1.46-4.17-2.2-7.44-2.2h-11.4v16.87h11.48m.7 34.82c4.18 0 7.3-.9 9.4-2.68 2.1-1.74 3.17-4.37 3.17-7.9 0-3.44-1.04-6.02-3.13-7.73-2.1-1.74-5.23-2.6-9.44-2.6H308.8v20.84h12.17m19.3-28.65c4.46 1.3 7.9 3.65 10.35 7.1 2.43 3.44 3.65 7.7 3.65 12.7 0 7.67-2.62 13.4-7.87 17.16-5.26 3.77-13.23 5.66-23.94 5.66H288V449.8h31.14c11.17 0 19.25 1.68 24.25 5 5 3.36 7.5 8.7 7.5 16.08 0 3.88-.9 7.2-2.78 9.93-1.83 2.7-4.5 4.7-7.97 6.07" style="line-height:100%;-inkscape-font-specification:Sans Bold" font-weight="bold" font-size="109.8" letter-spacing="0" word-spacing="0" text-anchor="middle" font-family="Sans"/>
  </g>
</svg>
