<svg xmlns="http://www.w3.org/2000/svg" viewBox="0 0 630 630">
  <path fill="#f7df1e" d="M0 0h630v630H0z"/>
  <path d="M423.2 492.2c12.7 20.7 29.2 36 58.4 36 24.5 0 40.2-12.3 40.2-29.3 0-20.5-16-27.7-43-39.5l-15-6.3c-42.6-18.2-71-41-71-89.2 0-44.3 33.8-78 86.7-78 37.6 0 64.7 13 84.2 47.3l-46 29.6c-10.3-18.4-21.2-25.6-38.2-25.6-17.3 0-28.3 11-28.3 25.4 0 17.6 11 24.8 36.4 35.8l14.8 6.4c50.3 21.5 78.7 43.5 78.7 93 0 53.3-41.7 82.5-98 82.5-55 0-90.4-26.2-108-60.6zm-209 5c9.2 16.6 17.6 30.6 38 30.6 19.4 0 31.7-7.6 31.7-37.2V289.3h59v202c0 61.4-36 89.3-88.4 89.3-47.4 0-75-24.6-88.8-54z"/>
</svg>
