<svg xmlns="http://www.w3.org/2000/svg" viewBox="70 70 372 360"><g><path transform="matrix(2,0,0,2,-90,-250)" d="M191.438 159.906l-5.25 7.22c-7.018 10.326-7.682 23.154-2.813 34.56 5.131 12.106 15.628 21.626 27.906 26.126.507.19 1.023.362 1.532.532l.688.218c.728.227 1.44.483 2.188.625 33.937 6.555 43.145-17.403 45.593-20.937-8.064 11.61-21.62 14.382-38.25 10.344-1.306-.315-2.74-.774-4-1.22-1.63-.583-3.226-1.25-4.78-2-2.954-1.415-5.765-3.153-8.375-5.124-14.876-11.288-24.142-32.806-14.438-50.344zm-38.5 8.406l-9.72 13.72c-11.905 17.13-11.25 40.068-1.968 58.187 1.558 3.038 3.3 5.972 5.25 8.78 1.785 2.554 3.793 5.606 6.156 7.656.862.947 1.746 1.87 2.656 2.78l.72.69c.885.86 1.783 1.705 2.718 2.53l.094.094.03.03c1.033.904 2.104 1.768 3.188 2.626l.72.563c1.088.833 2.206 1.656 3.343 2.436l.094.094c.497.348 1.024.668 1.53 1l.72.47c.812.52 1.634 1.014 2.467 1.5l.344.217c.722.413 1.452.823 2.19 1.22l.78.405c.51.263 1.017.527 1.53.782l.22.125c1.047.516 2.11.995 3.187 1.467l.72.282c.865.363 1.715.73 2.593 1.06.372.142.748.274 1.125.407.793.296 1.6.573 2.406.844.366.118.735.23 1.095.345 1.145.355 2.28.802 3.47 1 61.462 10.182 75.655-37.125 75.655-37.125-12.792 18.426-37.57 27.208-64 20.344-1.178-.308-2.35-.636-3.5-1l-1.03-.344c-.82-.265-1.63-.553-2.44-.844-.367-.138-.728-.265-1.092-.406-.882-.336-1.764-.695-2.625-1.062l-.72-.282c-1.076-.477-2.134-.978-3.187-1.5-.542-.262-1.09-.54-1.625-.812l-.905-.47c-.688-.372-1.39-.762-2.062-1.155l-.47-.282c-.833-.49-1.658-.98-2.468-1.5l-.75-.5c-.534-.348-1.072-.706-1.594-1.063-1.135-.78-2.227-1.61-3.31-2.437l-.75-.563c-11.575-9.13-20.76-21.626-25.126-35.78-4.57-14.683-3.577-31.157 4.344-44.532zm-47.97 17.344L92.126 201.97c-16.463 23.657-14.417 54.448-1.844 79.592.3.6.627 1.19.94 1.782.197.38.36.757.56 1.125l.376.655c.215.4.438.768.656 1.156.397.693.81 1.38 1.22 2.064.226.376.425.748.655 1.125.458.73.933 1.462 1.407 2.186l.593.906c.66.98 1.344 1.944 2.032 2.907l.03.092.344.47c.6.826 1.22 1.633 1.844 2.437l.687.874c.558.7 1.144 1.397 1.72 2.093l.624.782c.776.91 1.57 1.8 2.374 2.686l.062.063.094.092c.785.858 1.593 1.693 2.406 2.532l.75.78c.635.635 1.29 1.253 1.938 1.876l.78.75c.868.813 1.73 1.626 2.626 2.406l.063.032.437.406c.785.68 1.597 1.337 2.406 2l.97.78c.655.528 1.323 1.054 2 1.564l1.06.812c.742.546 1.5 1.103 2.25 1.625l.814.563.22.156c.715.49 1.458.963 2.186 1.437l.938.626c1.12.708 2.256 1.418 3.406 2.094l.938.53c.846.487 1.673.974 2.53 1.44.466.25.97.475 1.438.718.607.32 1.194.625 1.813.937l.436.22.72.343c.958.457 1.93.91 2.905 1.343l.626.283c1.113.49 2.238.957 3.375 1.406l.814.31c1.056.406 2.12.815 3.187 1.19l.407.155c1.178.408 2.37.784 3.563 1.156l.844.25c1.214.37 2.405.802 3.656 1.033 79.61 14.52 102.75-47.844 102.75-47.844-19.416 25.304-53.896 31.992-86.563 24.56-1.238-.278-2.45-.677-3.656-1.03l-.905-.28c-1.178-.36-2.338-.724-3.5-1.126l-.47-.188c-1.04-.363-2.073-.758-3.093-1.156l-.875-.344c-1.125-.445-2.242-.893-3.343-1.375l-.688-.28c-.947-.43-1.874-.864-2.812-1.312l-.813-.407c-.73-.35-1.434-.716-2.155-1.092-.49-.25-.987-.52-1.47-.782-.88-.478-1.758-.966-2.624-1.468l-.874-.47c-1.153-.674-2.285-1.383-3.406-2.093l-.906-.625c-.814-.526-1.636-1.046-2.438-1.594l-.75-.562c-.78-.546-1.56-1.094-2.312-1.656l-1-.75c-.692-.53-1.38-1.076-2.063-1.625l-.936-.75c-.87-.713-1.713-1.42-2.563-2.157l-.28-.218c-.915-.806-1.83-1.644-2.72-2.47l-.75-.75c-.654-.626-1.297-1.257-1.936-1.905l-.78-.75c-.81-.83-1.6-1.678-2.376-2.532l-.126-.124c-.82-.9-1.616-1.82-2.406-2.75l-.625-.75c-.59-.708-1.178-1.434-1.75-2.156l-.624-.78c-.688-.888-1.384-1.79-2.03-2.69-18.135-24.734-24.653-58.858-10.157-86.874z" fill="#21ace2"/></g></svg>