<svg xmlns="http://www.w3.org/2000/svg" xmlns:xlink="http://www.w3.org/1999/xlink" viewBox="0 0 961.06 429" preserveAspectRatio="xMidYMid">
  <defs>
    <linearGradient id="a" x1="464.31" x2="464.31" y1="532.27" y2="108.46" gradientUnits="userSpaceOnUse" gradientTransform="matrix(1 0 0 -1 .1 777.6)">
      <stop offset=".15" stop-color="#2a4f84"/>
      <stop offset=".39" stop-color="#294e82"/>
      <stop offset="1" stop-color="#172e4e"/>
    </linearGradient>
    <linearGradient id="b" x1="464.31" x2="464.31" y1="532.27" y2="108.46" xlink:href="#a" gradientUnits="userSpaceOnUse" gradientTransform="matrix(1 0 0 -1 -110.8 852.7)"/>
  </defs>
  <path fill="url(#b)" d="M778.76 662.53c0 44.96-36.78 81.75-81.74 81.75H9.97c-44.96 0-81.74-36.8-81.74-81.75V402.2c0-44.95 36.78-81.73 81.74-81.73h687.05c44.96 0 81.74 36.78 81.74 81.74v260.4z" transform="translate(130.5 -317.8)"/>
  <path fill="#f6f6f6" d="M765.54 209c35.9 12.57 53.85 34.1 53.85 64.55 0 20.05-7.5 35.96-22.3 47.73-14.9 11.77-36 19.08-63.6 19.08s-53.1-7.98-76.5-21.1c.2-6.94 2.1-14.56 5.4-22.84 3.3-8.27 7.3-14.85 11.9-19.65 21.5 11.2 40.3 16.82 56.3 16.82 7.5 0 13.3-1.3 17.4-3.9 4-2.6 6.1-6 6.1-10.2 0-8.1-6.3-14.1-18.7-18.1l-22.3-8.4c-33.8-12.3-50.6-32.4-50.6-60.2 0-20.3 7.1-36.4 21.2-48.4 14.1-11.9 33.2-22.1 57.3-22.1 11.8 0 24.9 1.6 39.2 5 14.3 3.3 26 11.6 35.2 16.1.5 7.5-1 15.7-4.5 24.6-3.5 8.9-7.8 15.3-13 19-22.7-10.2-41.6-15.3-56.7-15.3-5.5 0-9.5 1.2-12.4 3.6-2.9 2.4-4.2 5.5-4.2 9.2 0 6.4 5.1 11.5 15.4 15.23l25.1 8.85zm-179.36 0c35.9 12.57 53.85 34.1 53.85 64.55 0 20.05-7.44 35.96-22.27 47.73-14.85 11.77-36.03 19.08-63.57 19.08s-53.1-7.98-76.6-21.1c.2-6.94 2.1-14.56 5.4-22.84 3.3-8.27 7.3-14.85 11.9-19.65 21.6 11.2 40.3 16.82 56.3 16.82 7.5 0 13.3-1.3 17.4-3.9 4-2.6 6.1-6 6.1-10.2 0-8.1-6.2-14.1-18.7-18.1l-22.2-8.4c-33.8-12.3-50.6-32.4-50.6-60.2 0-20.3 7-36.4 21.2-48.4 14.1-11.9 33.2-22.1 57.2-22.1 11.9 0 25 1.6 39.3 5 14.3 3.3 26 11.6 35.2 16.1.5 7.5-1 15.7-4.5 24.6s-7.8 15.3-13 19c-22.7-10.16-41.6-15.24-56.7-15.24-5.4 0-9.5 1.2-12.4 3.6-2.9 2.4-4.3 5.5-4.3 9.2 0 6.4 5.1 11.5 15.4 15.2l25.12 9zm-130.78 2.84c0-12.3-1.97-23.66-5.88-34.1-3.9-10.42-9.5-19.37-16.8-26.86-7.3-7.5-16.12-13.36-26.5-17.64-10.4-4.27-22.08-10.7-35.03-10.7-15.4 0-28.9 6.95-40.3 12.3-11.5 5.35-20.9 12.7-28.4 22.05-7.5 9.3-13 20.3-16.6 33-3.7 12.7-5.5 26.5-5.5 41.5 0 15.5 1.4 29.8 4.4 42.9 2.9 13.1 8 24.4 15.2 34.1 7.1 9.6 16.4 17.1 27.9 22.4 11.4 5.3 25.7 9.4 42.7 9.4 31.3 0 57.7-9.1 79.3-24.3-2.2-15.5-7.7-27.8-16.6-36.9-11.1 4.1-20.8 7.1-29.3 8.9-8.5 1.8-16 2.7-22.4 2.7-13 0-22.2-3.3-27.9-10-5.7-6.6-8.7-14.4-9.3-26.3H450c3.5-11.3 5.26-26.5 5.26-42.8zm-110.9 2.78c.8-13.65 3.28-28.25 7.42-34.26 4.15-6.02 10.5-9.02 19.1-9.02 8.82 0 15.45 3.2 19.87 9.6 4.4 6.43 6.6 19.36 6.6 29.25v4.4h-53z"/>
  <path fill="#f6f6f6" stroke="#404040" stroke-width="5.15" stroke-miterlimit="10" d="M930.45 241.3c-11.44 10-18.08 24.37-18.08 43.18v70.04c0 23.28-7.15 41-23.32 53.16-16.15 12.16-34.98 18.18-56.47 18.76l-12.74-.1v-34.9c11.23-3.27 15.84-7.08 20.3-11.4 8.1-7.32 14.3-19.23 14.3-35.76v-56.54c.3-19.22 1.8-34.28 8.78-45.16 7.03-10.88 20.7-20.4 41-28.6-22.43-10.27-37.5-23.7-45.18-40.24-4.52-9.82-4.6-23.1-4.6-39.77V82.12c0-17.13-5.6-29.13-12.5-35.97-4.5-4.47-9.7-8.04-22.12-10.74V2.7c15.18.16 22.85 0 31.7 0 13.6-.1 25 7.33 34.93 15.08 10.8 8.5 18.5 20 23 34.46 2.55 8.36 2.9 16.34 2.9 23.94v59.97c0 21.2 6.27 36.94 16.97 47.2 6.02 5.98 14.53 11.44 29.14 16.36v27.1c-12.94 3.6-21.07 8.4-28 14.6zM125.25 2.67v.05c-4.34-.03-8.3-.04-11.43-.04C100.2 2.56 88.8 10 78.88 17.78 68.06 26.28 58.8 37.35 55.9 52.2c-1.66 8.72-1.3 16.33-1.3 23.94v59.97c0 21.2-7.9 37-18.57 47.2-6.02 6-18.87 11.5-33.5 16.4v27.1c12.96 3.6 25.43 8.4 32.35 14.6 11.45 10 19.7 24.4 19.7 43.2v70.1c0 23.3 5.55 41 21.7 53.2s34.97 18.2 56.47 18.8l14.38-.1v-34.9c-11.22-3.3-17.45-7.1-21.95-11.4-8.08-7.3-12.66-19.2-12.66-35.7V288c-.3-19.2-3.4-34.3-10.42-45.16-7-10.84-20.67-20.4-41-28.6 22.44-10.25 37.5-23.7 45.18-40.2 4.52-9.83 6.24-23.1 6.24-39.8v-52c0-17.12 3.97-29.12 10.86-35.97 3.74-3.7 10.38-6.8 19.62-9.25l14.6.1V2.6h-32.34z"/>
  <path fill="#f6f6f6" d="M259.85 286.8h-10.93c-11.9 0-16.36-6.24-16.36-18.8V37.26c0-13.88-4-23.62-9.14-29.23-5.13-5.6-14.04-5.54-26.72-5.54H172l-2.9-.1v.2l-.02 34.4v242.1c0 19.2 4.32 33.3 12.02 42.3 7.7 8.9 20.72 13.4 39.07 13.4 12.7 0 27.13-1.4 43.32-4 .8-2.7 1.2-8.5 1.2-17.4 0-8.9-1.6-17.8-4.9-26.7z"/>
</svg>
